<?xml version="1.0" encoding="UTF-8"?>
<svg xmlns="http://www.w3.org/2000/svg" xmlns:xlink="http://www.w3.org/1999/xlink" width="360pt" height="255.6pt" viewBox="0 0 360 255.6" version="1.1">
<defs>
<clipPath id="clip1">
  <path d="M 20 3.597656 L 38 3.597656 L 38 33 L 20 33 Z M 20 3.597656 "/>
</clipPath>
<clipPath id="clip2">
  <path d="M 2 31 L 25 31 L 25 61.199219 L 2 61.199219 Z M 2 31 "/>
</clipPath>
<clipPath id="clip3">
  <path d="M 116 3.597656 L 131 3.597656 L 131 33 L 116 33 Z M 116 3.597656 "/>
</clipPath>
<clipPath id="clip4">
  <path d="M 95 31 L 123 31 L 123 61.199219 L 95 61.199219 Z M 95 31 "/>
</clipPath>
<clipPath id="clip5">
  <path d="M 218 3.597656 L 248 3.597656 L 248 33 L 218 33 Z M 218 3.597656 "/>
</clipPath>
<clipPath id="clip6">
  <path d="M 218 31 L 231 31 L 231 61.199219 L 218 61.199219 Z M 218 31 "/>
</clipPath>
<clipPath id="clip7">
  <path d="M 320 3.597656 L 340 3.597656 L 340 33 L 320 33 Z M 320 3.597656 "/>
</clipPath>
<clipPath id="clip8">
  <path d="M 315 31 L 328 31 L 328 61.199219 L 315 61.199219 Z M 315 31 "/>
</clipPath>
<clipPath id="clip9">
  <path d="M 23 67.679688 L 29 67.679688 L 29 97 L 23 97 Z M 23 67.679688 "/>
</clipPath>
<clipPath id="clip10">
  <path d="M 23 95 L 29 95 L 29 125.28125 L 23 125.28125 Z M 23 95 "/>
</clipPath>
<clipPath id="clip11">
  <path d="M 116 67.679688 L 127 67.679688 L 127 97 L 116 97 Z M 116 67.679688 "/>
</clipPath>
<clipPath id="clip12">
  <path d="M 116 95 L 127 95 L 127 125.28125 L 116 125.28125 Z M 116 95 "/>
</clipPath>
<clipPath id="clip13">
  <path d="M 209 67.679688 L 224 67.679688 L 224 97 L 209 97 Z M 209 67.679688 "/>
</clipPath>
<clipPath id="clip14">
  <path d="M 209 95 L 224 95 L 224 125.28125 L 209 125.28125 Z M 209 95 "/>
</clipPath>
<clipPath id="clip15">
  <path d="M 322 67.679688 L 340 67.679688 L 340 97 L 322 97 Z M 322 67.679688 "/>
</clipPath>
<clipPath id="clip16">
  <path d="M 302 95 L 326 95 L 326 125.28125 L 302 125.28125 Z M 302 95 "/>
</clipPath>
<clipPath id="clip17">
  <path d="M 38 131.761719 L 43 131.761719 L 43 154 L 38 154 Z M 38 131.761719 "/>
</clipPath>
<clipPath id="clip18">
  <path d="M 38 167 L 43 167 L 43 189.363281 L 38 189.363281 Z M 38 167 "/>
</clipPath>
<clipPath id="clip19">
  <path d="M 131 131.761719 L 142 131.761719 L 142 154 L 131 154 Z M 131 131.761719 "/>
</clipPath>
<clipPath id="clip20">
  <path d="M 131 167 L 142 167 L 142 189.363281 L 131 189.363281 Z M 131 167 "/>
</clipPath>
<clipPath id="clip21">
  <path d="M 223 131.761719 L 238 131.761719 L 238 154 L 223 154 Z M 223 131.761719 "/>
</clipPath>
<clipPath id="clip22">
  <path d="M 223 167 L 238 167 L 238 189.363281 L 223 189.363281 Z M 223 167 "/>
</clipPath>
<clipPath id="clip23">
  <path d="M 316 131.761719 L 340 131.761719 L 340 154 L 316 154 Z M 316 131.761719 "/>
</clipPath>
<clipPath id="clip24">
  <path d="M 316 167 L 340 167 L 340 189.363281 L 316 189.363281 Z M 316 167 "/>
</clipPath>
<clipPath id="clip25">
  <path d="M 45 195.839844 L 51 195.839844 L 51 217 L 45 217 Z M 45 195.839844 "/>
</clipPath>
<clipPath id="clip26">
  <path d="M 45 232 L 51 232 L 51 253.441406 L 45 253.441406 Z M 45 232 "/>
</clipPath>
<clipPath id="clip27">
  <path d="M 138 195.839844 L 149 195.839844 L 149 217 L 138 217 Z M 138 195.839844 "/>
</clipPath>
<clipPath id="clip28">
  <path d="M 138 232 L 149 232 L 149 253.441406 L 138 253.441406 Z M 138 232 "/>
</clipPath>
<clipPath id="clip29">
  <path d="M 231 195.839844 L 246 195.839844 L 246 217 L 231 217 Z M 231 195.839844 "/>
</clipPath>
<clipPath id="clip30">
  <path d="M 231 232 L 246 232 L 246 253.441406 L 231 253.441406 Z M 231 232 "/>
</clipPath>
<clipPath id="clip31">
  <path d="M 324 195.839844 L 348 195.839844 L 348 217 L 324 217 Z M 324 195.839844 "/>
</clipPath>
<clipPath id="clip32">
  <path d="M 324 232 L 348 232 L 348 253.441406 L 324 253.441406 Z M 324 232 "/>
</clipPath>
</defs>
<g id="surface1">
<path style="fill:none;stroke-width:0.49814;stroke-linecap:butt;stroke-linejoin:miter;stroke:rgb(13.729858%,12.159729%,12.548828%);stroke-opacity:1;stroke-miterlimit:10;" d="M 0 28.801562 L 77.058594 28.801562 " transform="matrix(1,0,0,-1,0,61.2)"/>
<path style=" stroke:none;fill-rule:nonzero;fill:rgb(13.729858%,12.159729%,12.548828%);fill-opacity:1;" d="M 79.199219 32.398438 L 75.773438 30.6875 L 77.058594 32.398438 L 75.773438 34.113281 "/>
<path style="fill:none;stroke-width:0.49814;stroke-linecap:butt;stroke-linejoin:miter;stroke:rgb(13.729858%,12.159729%,12.548828%);stroke-opacity:1;stroke-miterlimit:10;" d="M 60.78125 0.00078125 L 60.78125 55.457812 " transform="matrix(1,0,0,-1,0,61.2)"/>
<path style=" stroke:none;fill-rule:nonzero;fill:rgb(13.729858%,12.159729%,12.548828%);fill-opacity:1;" d="M 60.78125 3.597656 L 59.066406 7.027344 L 60.78125 5.742188 L 62.496094 7.027344 "/>
<path style="fill:none;stroke-width:0.49814;stroke-linecap:butt;stroke-linejoin:miter;stroke:rgb(13.729858%,12.159729%,12.548828%);stroke-opacity:1;stroke-miterlimit:10;" d="M 92.878906 28.801562 L 169.9375 28.801562 " transform="matrix(1,0,0,-1,0,61.2)"/>
<path style=" stroke:none;fill-rule:nonzero;fill:rgb(13.729858%,12.159729%,12.548828%);fill-opacity:1;" d="M 172.082031 32.398438 L 168.652344 30.6875 L 169.9375 32.398438 L 168.652344 34.113281 "/>
<path style="fill:none;stroke-width:0.49814;stroke-linecap:butt;stroke-linejoin:miter;stroke:rgb(13.729858%,12.159729%,12.548828%);stroke-opacity:1;stroke-miterlimit:10;" d="M 153.664062 0.00078125 L 153.664062 55.457812 " transform="matrix(1,0,0,-1,0,61.2)"/>
<path style=" stroke:none;fill-rule:nonzero;fill:rgb(13.729858%,12.159729%,12.548828%);fill-opacity:1;" d="M 153.664062 3.597656 L 151.949219 7.027344 L 153.664062 5.742188 L 155.375 7.027344 "/>
<path style="fill:none;stroke-width:0.49814;stroke-linecap:butt;stroke-linejoin:miter;stroke:rgb(13.729858%,12.159729%,12.548828%);stroke-opacity:1;stroke-miterlimit:10;" d="M 185.761719 28.801562 L 262.820312 28.801562 " transform="matrix(1,0,0,-1,0,61.2)"/>
<path style=" stroke:none;fill-rule:nonzero;fill:rgb(13.729858%,12.159729%,12.548828%);fill-opacity:1;" d="M 264.960938 32.398438 L 261.535156 30.6875 L 262.820312 32.398438 L 261.535156 34.113281 "/>
<path style="fill:none;stroke-width:0.49814;stroke-linecap:butt;stroke-linejoin:miter;stroke:rgb(13.729858%,12.159729%,12.548828%);stroke-opacity:1;stroke-miterlimit:10;" d="M 246.542969 0.00078125 L 246.542969 55.457812 " transform="matrix(1,0,0,-1,0,61.2)"/>
<path style=" stroke:none;fill-rule:nonzero;fill:rgb(13.729858%,12.159729%,12.548828%);fill-opacity:1;" d="M 246.542969 3.597656 L 244.828125 7.027344 L 246.542969 5.742188 L 248.257812 7.027344 "/>
<path style="fill:none;stroke-width:0.49814;stroke-linecap:butt;stroke-linejoin:miter;stroke:rgb(13.729858%,12.159729%,12.548828%);stroke-opacity:1;stroke-miterlimit:10;" d="M 278.640625 28.801562 L 355.699219 28.801562 " transform="matrix(1,0,0,-1,0,61.2)"/>
<path style=" stroke:none;fill-rule:nonzero;fill:rgb(13.729858%,12.159729%,12.548828%);fill-opacity:1;" d="M 357.84375 32.398438 L 354.414062 30.6875 L 355.699219 32.398438 L 354.414062 34.113281 "/>
<path style="fill:none;stroke-width:0.49814;stroke-linecap:butt;stroke-linejoin:miter;stroke:rgb(13.729858%,12.159729%,12.548828%);stroke-opacity:1;stroke-miterlimit:10;" d="M 339.425781 0.00078125 L 339.425781 55.457812 " transform="matrix(1,0,0,-1,0,61.2)"/>
<path style=" stroke:none;fill-rule:nonzero;fill:rgb(13.729858%,12.159729%,12.548828%);fill-opacity:1;" d="M 339.425781 3.597656 L 337.710938 7.027344 L 339.425781 5.742188 L 341.136719 7.027344 "/>
<path style="fill:none;stroke-width:0.49814;stroke-linecap:butt;stroke-linejoin:miter;stroke:rgb(13.729858%,12.159729%,12.548828%);stroke-opacity:1;stroke-miterlimit:10;" d="M 0 -35.280469 L 77.058594 -35.280469 " transform="matrix(1,0,0,-1,0,61.2)"/>
<path style=" stroke:none;fill-rule:nonzero;fill:rgb(13.729858%,12.159729%,12.548828%);fill-opacity:1;" d="M 79.199219 96.480469 L 75.773438 94.765625 L 77.058594 96.480469 L 75.773438 98.195312 "/>
<path style="fill:none;stroke-width:0.49814;stroke-linecap:butt;stroke-linejoin:miter;stroke:rgb(13.729858%,12.159729%,12.548828%);stroke-opacity:1;stroke-miterlimit:10;" d="M 60.78125 -64.08125 L 60.78125 -8.620313 " transform="matrix(1,0,0,-1,0,61.2)"/>
<path style=" stroke:none;fill-rule:nonzero;fill:rgb(13.729858%,12.159729%,12.548828%);fill-opacity:1;" d="M 60.78125 67.679688 L 59.066406 71.105469 L 60.78125 69.820312 L 62.496094 71.105469 "/>
<path style="fill:none;stroke-width:0.49814;stroke-linecap:butt;stroke-linejoin:miter;stroke:rgb(13.729858%,12.159729%,12.548828%);stroke-opacity:1;stroke-miterlimit:10;" d="M 92.878906 -35.280469 L 169.9375 -35.280469 " transform="matrix(1,0,0,-1,0,61.2)"/>
<path style=" stroke:none;fill-rule:nonzero;fill:rgb(13.729858%,12.159729%,12.548828%);fill-opacity:1;" d="M 172.082031 96.480469 L 168.652344 94.765625 L 169.9375 96.480469 L 168.652344 98.195312 "/>
<path style="fill:none;stroke-width:0.49814;stroke-linecap:butt;stroke-linejoin:miter;stroke:rgb(13.729858%,12.159729%,12.548828%);stroke-opacity:1;stroke-miterlimit:10;" d="M 153.664062 -64.08125 L 153.664062 -8.620313 " transform="matrix(1,0,0,-1,0,61.2)"/>
<path style=" stroke:none;fill-rule:nonzero;fill:rgb(13.729858%,12.159729%,12.548828%);fill-opacity:1;" d="M 153.664062 67.679688 L 151.949219 71.105469 L 153.664062 69.820312 L 155.375 71.105469 "/>
<path style="fill:none;stroke-width:0.49814;stroke-linecap:butt;stroke-linejoin:miter;stroke:rgb(13.729858%,12.159729%,12.548828%);stroke-opacity:1;stroke-miterlimit:10;" d="M 185.761719 -35.280469 L 262.820312 -35.280469 " transform="matrix(1,0,0,-1,0,61.2)"/>
<path style=" stroke:none;fill-rule:nonzero;fill:rgb(13.729858%,12.159729%,12.548828%);fill-opacity:1;" d="M 264.960938 96.480469 L 261.535156 94.765625 L 262.820312 96.480469 L 261.535156 98.195312 "/>
<path style="fill:none;stroke-width:0.49814;stroke-linecap:butt;stroke-linejoin:miter;stroke:rgb(13.729858%,12.159729%,12.548828%);stroke-opacity:1;stroke-miterlimit:10;" d="M 246.542969 -64.08125 L 246.542969 -8.620313 " transform="matrix(1,0,0,-1,0,61.2)"/>
<path style=" stroke:none;fill-rule:nonzero;fill:rgb(13.729858%,12.159729%,12.548828%);fill-opacity:1;" d="M 246.542969 67.679688 L 244.828125 71.105469 L 246.542969 69.820312 L 248.257812 71.105469 "/>
<path style="fill:none;stroke-width:0.49814;stroke-linecap:butt;stroke-linejoin:miter;stroke:rgb(13.729858%,12.159729%,12.548828%);stroke-opacity:1;stroke-miterlimit:10;" d="M 278.640625 -35.280469 L 355.699219 -35.280469 " transform="matrix(1,0,0,-1,0,61.2)"/>
<path style=" stroke:none;fill-rule:nonzero;fill:rgb(13.729858%,12.159729%,12.548828%);fill-opacity:1;" d="M 357.84375 96.480469 L 354.414062 94.765625 L 355.699219 96.480469 L 354.414062 98.195312 "/>
<path style="fill:none;stroke-width:0.49814;stroke-linecap:butt;stroke-linejoin:miter;stroke:rgb(13.729858%,12.159729%,12.548828%);stroke-opacity:1;stroke-miterlimit:10;" d="M 339.425781 -64.08125 L 339.425781 -8.620313 " transform="matrix(1,0,0,-1,0,61.2)"/>
<path style=" stroke:none;fill-rule:nonzero;fill:rgb(13.729858%,12.159729%,12.548828%);fill-opacity:1;" d="M 339.425781 67.679688 L 337.710938 71.105469 L 339.425781 69.820312 L 341.136719 71.105469 "/>
<path style="fill:none;stroke-width:0.49814;stroke-linecap:butt;stroke-linejoin:miter;stroke:rgb(13.729858%,12.159729%,12.548828%);stroke-opacity:1;stroke-miterlimit:10;" d="M 0 -99.3625 L 77.058594 -99.3625 " transform="matrix(1,0,0,-1,0,61.2)"/>
<path style=" stroke:none;fill-rule:nonzero;fill:rgb(13.729858%,12.159729%,12.548828%);fill-opacity:1;" d="M 79.199219 160.5625 L 75.773438 158.847656 L 77.058594 160.5625 L 75.773438 162.273438 "/>
<path style="fill:none;stroke-width:0.49814;stroke-linecap:butt;stroke-linejoin:miter;stroke:rgb(13.729858%,12.159729%,12.548828%);stroke-opacity:1;stroke-miterlimit:10;" d="M 60.78125 -128.163281 L 60.78125 -72.702344 " transform="matrix(1,0,0,-1,0,61.2)"/>
<path style=" stroke:none;fill-rule:nonzero;fill:rgb(13.729858%,12.159729%,12.548828%);fill-opacity:1;" d="M 60.78125 131.761719 L 59.066406 135.1875 L 60.78125 133.902344 L 62.496094 135.1875 "/>
<path style="fill:none;stroke-width:0.49814;stroke-linecap:butt;stroke-linejoin:miter;stroke:rgb(13.729858%,12.159729%,12.548828%);stroke-opacity:1;stroke-miterlimit:10;" d="M 92.878906 -99.3625 L 169.9375 -99.3625 " transform="matrix(1,0,0,-1,0,61.2)"/>
<path style=" stroke:none;fill-rule:nonzero;fill:rgb(13.729858%,12.159729%,12.548828%);fill-opacity:1;" d="M 172.082031 160.5625 L 168.652344 158.847656 L 169.9375 160.5625 L 168.652344 162.273438 "/>
<path style="fill:none;stroke-width:0.49814;stroke-linecap:butt;stroke-linejoin:miter;stroke:rgb(13.729858%,12.159729%,12.548828%);stroke-opacity:1;stroke-miterlimit:10;" d="M 153.664062 -128.163281 L 153.664062 -72.702344 " transform="matrix(1,0,0,-1,0,61.2)"/>
<path style=" stroke:none;fill-rule:nonzero;fill:rgb(13.729858%,12.159729%,12.548828%);fill-opacity:1;" d="M 153.664062 131.761719 L 151.949219 135.1875 L 153.664062 133.902344 L 155.375 135.1875 "/>
<path style="fill:none;stroke-width:0.49814;stroke-linecap:butt;stroke-linejoin:miter;stroke:rgb(13.729858%,12.159729%,12.548828%);stroke-opacity:1;stroke-miterlimit:10;" d="M 185.761719 -99.3625 L 262.820312 -99.3625 " transform="matrix(1,0,0,-1,0,61.2)"/>
<path style=" stroke:none;fill-rule:nonzero;fill:rgb(13.729858%,12.159729%,12.548828%);fill-opacity:1;" d="M 264.960938 160.5625 L 261.535156 158.847656 L 262.820312 160.5625 L 261.535156 162.273438 "/>
<path style="fill:none;stroke-width:0.49814;stroke-linecap:butt;stroke-linejoin:miter;stroke:rgb(13.729858%,12.159729%,12.548828%);stroke-opacity:1;stroke-miterlimit:10;" d="M 246.542969 -128.163281 L 246.542969 -72.702344 " transform="matrix(1,0,0,-1,0,61.2)"/>
<path style=" stroke:none;fill-rule:nonzero;fill:rgb(13.729858%,12.159729%,12.548828%);fill-opacity:1;" d="M 246.542969 131.761719 L 244.828125 135.1875 L 246.542969 133.902344 L 248.257812 135.1875 "/>
<path style="fill:none;stroke-width:0.49814;stroke-linecap:butt;stroke-linejoin:miter;stroke:rgb(13.729858%,12.159729%,12.548828%);stroke-opacity:1;stroke-miterlimit:10;" d="M 278.640625 -99.3625 L 355.699219 -99.3625 " transform="matrix(1,0,0,-1,0,61.2)"/>
<path style=" stroke:none;fill-rule:nonzero;fill:rgb(13.729858%,12.159729%,12.548828%);fill-opacity:1;" d="M 357.84375 160.5625 L 354.414062 158.847656 L 355.699219 160.5625 L 354.414062 162.273438 "/>
<path style="fill:none;stroke-width:0.49814;stroke-linecap:butt;stroke-linejoin:miter;stroke:rgb(13.729858%,12.159729%,12.548828%);stroke-opacity:1;stroke-miterlimit:10;" d="M 339.425781 -128.163281 L 339.425781 -72.702344 " transform="matrix(1,0,0,-1,0,61.2)"/>
<path style=" stroke:none;fill-rule:nonzero;fill:rgb(13.729858%,12.159729%,12.548828%);fill-opacity:1;" d="M 339.425781 131.761719 L 337.710938 135.1875 L 339.425781 133.902344 L 341.136719 135.1875 "/>
<path style="fill:none;stroke-width:0.49814;stroke-linecap:butt;stroke-linejoin:miter;stroke:rgb(13.729858%,12.159729%,12.548828%);stroke-opacity:1;stroke-miterlimit:10;" d="M 0 -163.440625 L 77.058594 -163.440625 " transform="matrix(1,0,0,-1,0,61.2)"/>
<path style=" stroke:none;fill-rule:nonzero;fill:rgb(13.729858%,12.159729%,12.548828%);fill-opacity:1;" d="M 79.199219 224.640625 L 75.773438 222.929688 L 77.058594 224.640625 L 75.773438 226.355469 "/>
<path style="fill:none;stroke-width:0.49814;stroke-linecap:butt;stroke-linejoin:miter;stroke:rgb(13.729858%,12.159729%,12.548828%);stroke-opacity:1;stroke-miterlimit:10;" d="M 60.78125 -192.241406 L 60.78125 -136.784375 " transform="matrix(1,0,0,-1,0,61.2)"/>
<path style=" stroke:none;fill-rule:nonzero;fill:rgb(13.729858%,12.159729%,12.548828%);fill-opacity:1;" d="M 60.78125 195.839844 L 59.066406 199.269531 L 60.78125 197.984375 L 62.496094 199.269531 "/>
<path style="fill:none;stroke-width:0.49814;stroke-linecap:butt;stroke-linejoin:miter;stroke:rgb(13.729858%,12.159729%,12.548828%);stroke-opacity:1;stroke-miterlimit:10;" d="M 92.878906 -163.440625 L 169.9375 -163.440625 " transform="matrix(1,0,0,-1,0,61.2)"/>
<path style=" stroke:none;fill-rule:nonzero;fill:rgb(13.729858%,12.159729%,12.548828%);fill-opacity:1;" d="M 172.082031 224.640625 L 168.652344 222.929688 L 169.9375 224.640625 L 168.652344 226.355469 "/>
<path style="fill:none;stroke-width:0.49814;stroke-linecap:butt;stroke-linejoin:miter;stroke:rgb(13.729858%,12.159729%,12.548828%);stroke-opacity:1;stroke-miterlimit:10;" d="M 153.664062 -192.241406 L 153.664062 -136.784375 " transform="matrix(1,0,0,-1,0,61.2)"/>
<path style=" stroke:none;fill-rule:nonzero;fill:rgb(13.729858%,12.159729%,12.548828%);fill-opacity:1;" d="M 153.664062 195.839844 L 151.949219 199.269531 L 153.664062 197.984375 L 155.375 199.269531 "/>
<path style="fill:none;stroke-width:0.49814;stroke-linecap:butt;stroke-linejoin:miter;stroke:rgb(13.729858%,12.159729%,12.548828%);stroke-opacity:1;stroke-miterlimit:10;" d="M 185.761719 -163.440625 L 262.820312 -163.440625 " transform="matrix(1,0,0,-1,0,61.2)"/>
<path style=" stroke:none;fill-rule:nonzero;fill:rgb(13.729858%,12.159729%,12.548828%);fill-opacity:1;" d="M 264.960938 224.640625 L 261.535156 222.929688 L 262.820312 224.640625 L 261.535156 226.355469 "/>
<path style="fill:none;stroke-width:0.49814;stroke-linecap:butt;stroke-linejoin:miter;stroke:rgb(13.729858%,12.159729%,12.548828%);stroke-opacity:1;stroke-miterlimit:10;" d="M 246.542969 -192.241406 L 246.542969 -136.784375 " transform="matrix(1,0,0,-1,0,61.2)"/>
<path style=" stroke:none;fill-rule:nonzero;fill:rgb(13.729858%,12.159729%,12.548828%);fill-opacity:1;" d="M 246.542969 195.839844 L 244.828125 199.269531 L 246.542969 197.984375 L 248.257812 199.269531 "/>
<path style="fill:none;stroke-width:0.49814;stroke-linecap:butt;stroke-linejoin:miter;stroke:rgb(13.729858%,12.159729%,12.548828%);stroke-opacity:1;stroke-miterlimit:10;" d="M 278.640625 -163.440625 L 355.699219 -163.440625 " transform="matrix(1,0,0,-1,0,61.2)"/>
<path style=" stroke:none;fill-rule:nonzero;fill:rgb(13.729858%,12.159729%,12.548828%);fill-opacity:1;" d="M 357.84375 224.640625 L 354.414062 222.929688 L 355.699219 224.640625 L 354.414062 226.355469 "/>
<path style="fill:none;stroke-width:0.49814;stroke-linecap:butt;stroke-linejoin:miter;stroke:rgb(13.729858%,12.159729%,12.548828%);stroke-opacity:1;stroke-miterlimit:10;" d="M 339.425781 -192.241406 L 339.425781 -136.784375 " transform="matrix(1,0,0,-1,0,61.2)"/>
<path style=" stroke:none;fill-rule:nonzero;fill:rgb(13.729858%,12.159729%,12.548828%);fill-opacity:1;" d="M 339.425781 195.839844 L 337.710938 199.269531 L 339.425781 197.984375 L 341.136719 199.269531 "/>
<path style="fill:none;stroke-width:0.99628;stroke-linecap:round;stroke-linejoin:round;stroke:rgb(7.849121%,60.745239%,87.768555%);stroke-opacity:1;stroke-miterlimit:10;" d="M 60.78125 28.801562 L 53.414062 28.801562 " transform="matrix(1,0,0,-1,0,61.2)"/>
<path style="fill:none;stroke-width:0.99628;stroke-linecap:round;stroke-linejoin:round;stroke:rgb(7.849121%,60.745239%,87.768555%);stroke-opacity:1;stroke-miterlimit:10;" d="M 55.878906 28.801562 C 55.878906 30.160937 54.777344 31.266406 53.414062 31.266406 C 52.050781 31.266406 50.949219 30.160937 50.949219 28.801562 C 50.949219 27.438281 52.050781 26.332812 53.414062 26.332812 C 54.777344 26.332812 55.878906 27.438281 55.878906 28.801562 Z M 55.878906 28.801562 " transform="matrix(1,0,0,-1,0,61.2)"/>
<path style="fill:none;stroke-width:0.99628;stroke-linecap:round;stroke-linejoin:round;stroke:rgb(7.849121%,60.745239%,87.768555%);stroke-opacity:1;stroke-miterlimit:10;" d="M 59.039062 27.055469 L 62.523438 30.54375 M 62.523438 27.055469 L 59.039062 30.54375 " transform="matrix(1,0,0,-1,0,61.2)"/>
<g clip-path="url(#clip1)" clip-rule="nonzero">
<path style="fill:none;stroke-width:0.99628;stroke-linecap:round;stroke-linejoin:round;stroke:rgb(95.326233%,39.237976%,12.364197%);stroke-opacity:1;stroke-miterlimit:10;" d="M 37.140625 28.801562 L 21.078125 28.801562 L 21.078125 28.942187 L 21.085938 29.325 L 21.164062 30.438281 L 21.25 31.121875 L 21.34375 31.703906 L 21.4375 32.242969 L 21.539062 32.766406 L 21.644531 33.285937 L 21.757812 33.805469 L 21.871094 34.332812 L 21.984375 34.871875 L 22.101562 35.426562 L 22.21875 36.004687 L 22.332031 36.602344 L 22.449219 37.223437 L 22.558594 37.871875 L 22.664062 38.551562 L 22.769531 39.258594 L 22.867188 40.004687 L 22.957031 40.782031 L 23.042969 41.602344 L 23.125 42.457812 L 23.199219 43.360156 L 23.269531 44.305469 L 23.335938 45.301562 L 23.390625 46.348437 L 23.445312 47.45 L 23.496094 48.610156 L 23.539062 49.832812 L 23.578125 51.117969 L 23.617188 52.473437 L 23.648438 53.899219 L 23.679688 55.403125 L 23.707031 56.992969 L 23.730469 58.664844 L 23.753906 60.430469 L 23.773438 62.29375 L 23.789062 64.258594 L 23.804688 66.332812 L 23.820312 68.520312 L 23.832031 70.832812 L 23.84375 73.270312 L 23.945312 938.785938 " transform="matrix(1,0,0,-1,0,61.2)"/>
</g>
<path style="fill:none;stroke-width:0.99628;stroke-linecap:round;stroke-linejoin:round;stroke:rgb(95.326233%,39.237976%,12.364197%);stroke-opacity:1;stroke-miterlimit:10;" d="M 35.398438 27.055469 L 38.886719 30.54375 M 38.886719 27.055469 L 35.398438 30.54375 " transform="matrix(1,0,0,-1,0,61.2)"/>
<g clip-path="url(#clip2)" clip-rule="nonzero">
<path style="fill:none;stroke-width:0.99628;stroke-linecap:round;stroke-linejoin:round;stroke:rgb(48.13385%,15.52124%,58.686829%);stroke-opacity:1;stroke-miterlimit:10;" d="M 3.378906 28.801562 L 21.078125 28.801562 L 21.078125 28.657031 L 21.085938 28.274219 L 21.164062 27.164844 L 21.25 26.48125 L 21.34375 25.895312 L 21.4375 25.35625 L 21.539062 24.832812 L 21.644531 24.317187 L 21.757812 23.797656 L 21.871094 23.270312 L 21.984375 22.73125 L 22.101562 22.172656 L 22.21875 21.598437 L 22.332031 21.000781 L 22.449219 20.375781 L 22.558594 19.727344 L 22.664062 19.051562 L 22.769531 18.340625 L 22.867188 17.598437 L 22.957031 16.817187 L 23.042969 16.000781 L 23.125 15.141406 L 23.199219 14.239062 L 23.269531 13.29375 L 23.335938 12.297656 L 23.390625 11.250781 L 23.445312 10.149219 L 23.496094 8.989062 L 23.539062 7.770312 L 23.578125 6.48125 L 23.617188 5.129687 L 23.648438 3.7 L 23.679688 2.196094 L 23.707031 0.610156 L 23.730469 -1.065625 L 23.753906 -2.83125 L 23.773438 -4.690625 L 23.789062 -6.655469 L 23.804688 -8.729688 L 23.820312 -10.921094 L 23.832031 -13.229688 L 23.84375 -15.671094 L 23.945312 -881.182812 " transform="matrix(1,0,0,-1,0,61.2)"/>
</g>
<path style="fill:none;stroke-width:0.99628;stroke-linecap:round;stroke-linejoin:round;stroke:rgb(48.13385%,15.52124%,58.686829%);stroke-opacity:1;stroke-miterlimit:10;" d="M 1.636719 27.055469 L 5.121094 30.54375 M 5.121094 27.055469 L 1.636719 30.54375 " transform="matrix(1,0,0,-1,0,61.2)"/>
<path style="fill:none;stroke-width:0.99628;stroke-linecap:round;stroke-linejoin:round;stroke:rgb(7.849121%,60.745239%,87.768555%);stroke-opacity:1;stroke-miterlimit:10;" d="M 153.664062 28.801562 L 135.242188 28.801562 " transform="matrix(1,0,0,-1,0,61.2)"/>
<path style="fill:none;stroke-width:0.99628;stroke-linecap:round;stroke-linejoin:round;stroke:rgb(7.849121%,60.745239%,87.768555%);stroke-opacity:1;stroke-miterlimit:10;" d="M 137.710938 28.801562 C 137.710938 30.160937 136.605469 31.266406 135.242188 31.266406 C 133.882812 31.266406 132.777344 30.160937 132.777344 28.801562 C 132.777344 27.438281 133.882812 26.332812 135.242188 26.332812 C 136.605469 26.332812 137.710938 27.438281 137.710938 28.801562 Z M 137.710938 28.801562 " transform="matrix(1,0,0,-1,0,61.2)"/>
<path style="fill:none;stroke-width:0.99628;stroke-linecap:round;stroke-linejoin:round;stroke:rgb(7.849121%,60.745239%,87.768555%);stroke-opacity:1;stroke-miterlimit:10;" d="M 151.917969 27.055469 L 155.40625 30.54375 M 155.40625 27.055469 L 151.917969 30.54375 " transform="matrix(1,0,0,-1,0,61.2)"/>
<g clip-path="url(#clip3)" clip-rule="nonzero">
<path style="fill:none;stroke-width:0.99628;stroke-linecap:round;stroke-linejoin:round;stroke:rgb(95.326233%,39.237976%,12.364197%);stroke-opacity:1;stroke-miterlimit:10;" d="M 130.023438 28.801562 L 116.824219 28.801562 L 116.828125 28.953906 L 116.839844 29.117969 L 117.1875 30.3875 L 117.558594 31.10625 L 117.941406 31.719531 L 118.332031 32.301562 L 118.722656 32.867969 L 119.105469 33.438281 L 119.464844 34.020312 L 119.804688 34.610156 L 120.109375 35.219531 L 120.378906 35.844531 L 120.621094 36.485156 L 120.832031 37.145312 L 121.011719 37.825 L 121.171875 38.520312 L 121.308594 39.242969 L 121.429688 39.985156 L 121.53125 40.758594 L 121.625 41.551562 L 121.703125 42.379687 L 121.773438 43.235156 L 121.835938 44.125781 L 121.890625 45.051562 L 121.9375 46.016406 L 121.980469 47.020312 L 122.019531 48.067187 L 122.050781 49.160937 L 122.082031 50.301562 L 122.109375 51.492969 L 122.132812 52.735156 L 122.15625 54.039844 L 122.171875 55.399219 L 122.191406 56.821094 L 122.207031 58.313281 L 122.21875 59.871875 L 122.234375 61.508594 L 122.246094 63.219531 L 122.253906 65.0125 L 122.261719 66.891406 L 122.273438 68.860156 L 122.28125 70.922656 L 122.285156 73.086719 L 122.351562 929.500781 " transform="matrix(1,0,0,-1,0,61.2)"/>
</g>
<path style="fill:none;stroke-width:0.99628;stroke-linecap:round;stroke-linejoin:round;stroke:rgb(95.326233%,39.237976%,12.364197%);stroke-opacity:1;stroke-miterlimit:10;" d="M 128.277344 27.055469 L 131.765625 30.54375 M 131.765625 27.055469 L 128.277344 30.54375 " transform="matrix(1,0,0,-1,0,61.2)"/>
<g clip-path="url(#clip4)" clip-rule="nonzero">
<path style="fill:none;stroke-width:0.99628;stroke-linecap:round;stroke-linejoin:round;stroke:rgb(48.13385%,15.52124%,58.686829%);stroke-opacity:1;stroke-miterlimit:10;" d="M 96.261719 28.801562 L 116.824219 28.801562 L 116.828125 28.649219 L 116.839844 28.48125 L 117.1875 27.211719 L 117.558594 26.496875 L 117.941406 25.879687 L 118.332031 25.301562 L 118.722656 24.73125 L 119.105469 24.160937 L 119.464844 23.582812 L 119.804688 22.989062 L 120.109375 22.379687 L 120.378906 21.758594 L 120.621094 21.114062 L 120.832031 20.457812 L 121.011719 19.778125 L 121.171875 19.078906 L 121.308594 18.35625 L 121.429688 17.614062 L 121.53125 16.844531 L 121.625 16.047656 L 121.703125 15.219531 L 121.773438 14.364062 L 121.835938 13.473437 L 121.890625 12.547656 L 121.9375 11.582812 L 121.980469 10.578906 L 122.019531 9.532031 L 122.050781 8.438281 L 122.082031 7.297656 L 122.109375 6.110156 L 122.132812 4.864062 L 122.15625 3.563281 L 122.171875 2.203906 L 122.191406 0.778125 L 122.207031 -0.710156 L 122.21875 -2.272656 L 122.234375 -3.905469 L 122.246094 -5.616406 L 122.253906 -7.409375 L 122.261719 -9.288281 L 122.273438 -11.257031 L 122.28125 -13.323438 L 122.285156 -15.4875 L 122.351562 -871.901562 " transform="matrix(1,0,0,-1,0,61.2)"/>
</g>
<path style="fill:none;stroke-width:0.99628;stroke-linecap:round;stroke-linejoin:round;stroke:rgb(48.13385%,15.52124%,58.686829%);stroke-opacity:1;stroke-miterlimit:10;" d="M 94.515625 27.055469 L 98.003906 30.54375 M 98.003906 27.055469 L 94.515625 30.54375 " transform="matrix(1,0,0,-1,0,61.2)"/>
<g clip-path="url(#clip5)" clip-rule="nonzero">
<path style="fill:none;stroke-width:0.99628;stroke-linecap:round;stroke-linejoin:round;stroke:rgb(7.849121%,60.745239%,87.768555%);stroke-opacity:1;stroke-miterlimit:10;" d="M 246.542969 28.801562 L 229.746094 28.801562 L 229.738281 28.903125 L 229.101562 29.852344 L 228.914062 29.992969 L 228.726562 30.121875 L 228.339844 30.348437 L 227.441406 30.782031 L 226.378906 31.211719 L 225.128906 31.676562 L 223.742188 32.223437 L 222.433594 32.8875 L 221.457031 33.629687 L 220.8125 34.399219 L 220.382812 35.160937 L 220.085938 35.91875 L 219.871094 36.676562 L 219.710938 37.442187 L 219.585938 38.215625 L 219.484375 39.000781 L 219.40625 39.809375 L 219.339844 40.6375 L 219.285156 41.489062 L 219.238281 42.371875 L 219.199219 43.285937 L 219.164062 44.235156 L 219.136719 45.219531 L 219.109375 46.242969 L 219.089844 47.313281 L 219.070312 48.426562 L 219.050781 49.590625 L 219.039062 50.805469 L 219.023438 52.075 L 219.011719 53.407031 L 219.003906 54.797656 L 218.992188 56.258594 L 218.984375 57.785937 L 218.980469 59.3875 L 218.972656 61.067187 L 218.964844 62.832812 L 218.960938 64.680469 L 218.957031 66.621875 L 218.953125 68.660937 L 218.949219 70.797656 L 218.945312 73.04375 L 218.914062 925.282031 " transform="matrix(1,0,0,-1,0,61.2)"/>
</g>
<path style="fill:none;stroke-width:0.99628;stroke-linecap:round;stroke-linejoin:round;stroke:rgb(7.849121%,60.745239%,87.768555%);stroke-opacity:1;stroke-miterlimit:10;" d="M 244.800781 27.055469 L 248.285156 30.54375 M 248.285156 27.055469 L 244.800781 30.54375 " transform="matrix(1,0,0,-1,0,61.2)"/>
<g clip-path="url(#clip6)" clip-rule="nonzero">
<path style="fill:none;stroke-width:0.99628;stroke-linecap:round;stroke-linejoin:round;stroke:rgb(95.326233%,39.237976%,12.364197%);stroke-opacity:1;stroke-miterlimit:10;" d="M 222.902344 28.801562 L 229.746094 28.801562 L 229.738281 28.7 L 229.101562 27.750781 L 228.914062 27.60625 L 228.726562 27.48125 L 228.339844 27.250781 L 227.441406 26.817187 L 226.378906 26.3875 L 225.128906 25.926562 L 223.742188 25.379687 L 222.433594 24.715625 L 221.457031 23.969531 L 220.8125 23.203906 L 220.382812 22.438281 L 220.085938 21.680469 L 219.871094 20.922656 L 219.710938 20.160937 L 219.585938 19.3875 L 219.484375 18.598437 L 219.40625 17.79375 L 219.339844 16.965625 L 219.285156 16.110156 L 219.238281 15.227344 L 219.199219 14.313281 L 219.164062 13.367969 L 219.136719 12.383594 L 219.109375 11.35625 L 219.089844 10.289844 L 219.070312 9.172656 L 219.050781 8.0125 L 219.039062 6.79375 L 219.023438 5.524219 L 219.011719 4.196094 L 219.003906 2.801562 L 218.992188 1.344531 L 218.984375 -0.186719 L 218.980469 -1.788281 L 218.972656 -3.467969 L 218.964844 -5.229688 L 218.960938 -7.08125 L 218.957031 -9.01875 L 218.953125 -11.057813 L 218.949219 -13.198438 L 218.945312 -15.444531 L 218.914062 -867.682812 " transform="matrix(1,0,0,-1,0,61.2)"/>
</g>
<path style="fill:none;stroke-width:0.99628;stroke-linecap:round;stroke-linejoin:round;stroke:rgb(95.326233%,39.237976%,12.364197%);stroke-opacity:1;stroke-miterlimit:10;" d="M 221.160156 27.055469 L 224.648438 30.54375 M 224.648438 27.055469 L 221.160156 30.54375 " transform="matrix(1,0,0,-1,0,61.2)"/>
<path style="fill:none;stroke-width:0.99628;stroke-linecap:round;stroke-linejoin:round;stroke:rgb(48.13385%,15.52124%,58.686829%);stroke-opacity:1;stroke-miterlimit:10;" d="M 189.140625 28.801562 L 220.757812 28.801562 " transform="matrix(1,0,0,-1,0,61.2)"/>
<path style="fill:none;stroke-width:0.99628;stroke-linecap:round;stroke-linejoin:round;stroke:rgb(48.13385%,15.52124%,58.686829%);stroke-opacity:1;stroke-miterlimit:10;" d="M 223.222656 28.801562 C 223.222656 30.160937 222.117188 31.266406 220.757812 31.266406 C 219.394531 31.266406 218.292969 30.160937 218.292969 28.801562 C 218.292969 27.438281 219.394531 26.332812 220.757812 26.332812 C 222.117188 26.332812 223.222656 27.438281 223.222656 28.801562 Z M 223.222656 28.801562 " transform="matrix(1,0,0,-1,0,61.2)"/>
<path style="fill:none;stroke-width:0.99628;stroke-linecap:round;stroke-linejoin:round;stroke:rgb(48.13385%,15.52124%,58.686829%);stroke-opacity:1;stroke-miterlimit:10;" d="M 187.398438 27.055469 L 190.882812 30.54375 M 190.882812 27.055469 L 187.398438 30.54375 " transform="matrix(1,0,0,-1,0,61.2)"/>
<g clip-path="url(#clip7)" clip-rule="nonzero">
<path style="fill:none;stroke-width:0.99628;stroke-linecap:round;stroke-linejoin:round;stroke:rgb(7.849121%,60.745239%,87.768555%);stroke-opacity:1;stroke-miterlimit:10;" d="M 339.425781 28.801562 L 326.960938 28.801562 L 326.957031 28.899219 L 326.925781 29.547656 L 326.839844 30.176562 L 326.75 30.645312 L 326.648438 31.063281 L 326.535156 31.461719 L 326.410156 31.852344 L 326.269531 32.246875 L 326.121094 32.645312 L 325.957031 33.055469 L 325.777344 33.48125 L 325.585938 33.926562 L 325.382812 34.395312 L 325.164062 34.8875 L 324.9375 35.407031 L 324.699219 35.957812 L 324.457031 36.539844 L 324.214844 37.160937 L 323.96875 37.817187 L 323.726562 38.516406 L 323.496094 39.258594 L 323.269531 40.047656 L 323.054688 40.883594 L 322.855469 41.770312 L 322.671875 42.707812 L 322.5 43.703906 L 322.34375 44.754687 L 322.199219 45.871875 L 322.070312 47.051562 L 321.957031 48.301562 L 321.851562 49.625781 L 321.757812 51.024219 L 321.671875 52.508594 L 321.597656 54.078906 L 321.53125 55.742969 L 321.472656 57.508594 L 321.421875 59.379687 L 321.375 61.360156 L 321.332031 63.461719 L 321.292969 65.692187 L 321.261719 68.055469 L 321.234375 70.563281 L 321.207031 73.223437 L 321.003906 922.278125 " transform="matrix(1,0,0,-1,0,61.2)"/>
</g>
<path style="fill:none;stroke-width:0.99628;stroke-linecap:round;stroke-linejoin:round;stroke:rgb(7.849121%,60.745239%,87.768555%);stroke-opacity:1;stroke-miterlimit:10;" d="M 337.679688 27.055469 L 341.167969 30.54375 M 341.167969 27.055469 L 337.679688 30.54375 " transform="matrix(1,0,0,-1,0,61.2)"/>
<g clip-path="url(#clip8)" clip-rule="nonzero">
<path style="fill:none;stroke-width:0.99628;stroke-linecap:round;stroke-linejoin:round;stroke:rgb(95.326233%,39.237976%,12.364197%);stroke-opacity:1;stroke-miterlimit:10;" d="M 315.785156 28.801562 L 326.960938 28.801562 L 326.957031 28.7 L 326.925781 28.055469 L 326.839844 27.426562 L 326.75 26.953906 L 326.648438 26.535937 L 326.535156 26.1375 L 326.410156 25.746875 L 326.269531 25.35625 L 326.121094 24.953906 L 325.957031 24.54375 L 325.777344 24.117969 L 325.585938 23.672656 L 325.382812 23.203906 L 325.164062 22.715625 L 324.9375 22.196094 L 324.699219 21.645312 L 324.457031 21.059375 L 324.214844 20.442187 L 323.96875 19.782031 L 323.726562 19.082812 L 323.496094 18.340625 L 323.269531 17.555469 L 323.054688 16.719531 L 322.855469 15.832812 L 322.671875 14.891406 L 322.5 13.899219 L 322.34375 12.844531 L 322.199219 11.73125 L 322.070312 10.551562 L 321.957031 9.301562 L 321.851562 7.977344 L 321.757812 6.575 L 321.671875 5.094531 L 321.597656 3.520312 L 321.53125 1.85625 L 321.472656 0.090625 L 321.421875 -1.776563 L 321.375 -3.760938 L 321.332031 -5.8625 L 321.292969 -8.089063 L 321.261719 -10.452344 L 321.234375 -12.960156 L 321.207031 -15.620313 L 321.003906 -864.675 " transform="matrix(1,0,0,-1,0,61.2)"/>
</g>
<path style="fill:none;stroke-width:0.99628;stroke-linecap:round;stroke-linejoin:round;stroke:rgb(95.326233%,39.237976%,12.364197%);stroke-opacity:1;stroke-miterlimit:10;" d="M 314.039062 27.055469 L 317.527344 30.54375 M 317.527344 27.055469 L 314.039062 30.54375 " transform="matrix(1,0,0,-1,0,61.2)"/>
<path style="fill:none;stroke-width:0.99628;stroke-linecap:round;stroke-linejoin:round;stroke:rgb(48.13385%,15.52124%,58.686829%);stroke-opacity:1;stroke-miterlimit:10;" d="M 282.023438 28.801562 L 295.21875 28.801562 " transform="matrix(1,0,0,-1,0,61.2)"/>
<path style="fill:none;stroke-width:0.99628;stroke-linecap:round;stroke-linejoin:round;stroke:rgb(48.13385%,15.52124%,58.686829%);stroke-opacity:1;stroke-miterlimit:10;" d="M 297.683594 28.801562 C 297.683594 30.160937 296.582031 31.266406 295.21875 31.266406 C 293.855469 31.266406 292.753906 30.160937 292.753906 28.801562 C 292.753906 27.438281 293.855469 26.332812 295.21875 26.332812 C 296.582031 26.332812 297.683594 27.438281 297.683594 28.801562 Z M 297.683594 28.801562 " transform="matrix(1,0,0,-1,0,61.2)"/>
<path style="fill:none;stroke-width:0.99628;stroke-linecap:round;stroke-linejoin:round;stroke:rgb(48.13385%,15.52124%,58.686829%);stroke-opacity:1;stroke-miterlimit:10;" d="M 280.277344 27.055469 L 283.765625 30.54375 M 283.765625 27.055469 L 280.277344 30.54375 " transform="matrix(1,0,0,-1,0,61.2)"/>
<path style="fill:none;stroke-width:0.99628;stroke-linecap:round;stroke-linejoin:round;stroke:rgb(7.849121%,60.745239%,87.768555%);stroke-opacity:1;stroke-miterlimit:10;" d="M 60.78125 -35.280469 L 53.414062 -35.280469 " transform="matrix(1,0,0,-1,0,61.2)"/>
<path style="fill:none;stroke-width:0.99628;stroke-linecap:round;stroke-linejoin:round;stroke:rgb(7.849121%,60.745239%,87.768555%);stroke-opacity:1;stroke-miterlimit:10;" d="M 55.878906 -35.280469 C 55.878906 -33.917188 54.777344 -32.815625 53.414062 -32.815625 C 52.050781 -32.815625 50.949219 -33.917188 50.949219 -35.280469 C 50.949219 -36.64375 52.050781 -37.745313 53.414062 -37.745313 C 54.777344 -37.745313 55.878906 -36.64375 55.878906 -35.280469 Z M 55.878906 -35.280469 " transform="matrix(1,0,0,-1,0,61.2)"/>
<path style="fill:none;stroke-width:0.99628;stroke-linecap:round;stroke-linejoin:round;stroke:rgb(7.849121%,60.745239%,87.768555%);stroke-opacity:1;stroke-miterlimit:10;" d="M 59.039062 -37.022656 L 62.523438 -33.538281 M 62.523438 -37.022656 L 59.039062 -33.538281 " transform="matrix(1,0,0,-1,0,61.2)"/>
<g clip-path="url(#clip9)" clip-rule="nonzero">
<path style="fill:none;stroke-width:0.99628;stroke-linecap:round;stroke-linejoin:round;stroke:rgb(95.326233%,39.237976%,12.364197%);stroke-opacity:1;stroke-miterlimit:10;" d="M 23.945312 -35.280469 L 23.992188 -34.303906 L 23.996094 -34.2375 L 24.003906 -34.167188 L 24.015625 -34.089063 L 24.023438 -34.007031 L 24.035156 -33.917188 L 24.046875 -33.823438 L 24.0625 -33.721875 L 24.078125 -33.6125 L 24.097656 -33.495313 L 24.121094 -33.370313 L 24.144531 -33.2375 L 24.171875 -33.096875 L 24.203125 -32.944531 L 24.238281 -32.780469 L 24.277344 -32.604688 L 24.320312 -32.417188 L 24.425781 -31.995313 L 24.488281 -31.764844 L 24.558594 -31.514844 L 24.632812 -31.245313 L 24.714844 -30.95625 L 24.808594 -30.64375 L 24.90625 -30.311719 L 25.015625 -29.952344 L 25.128906 -29.565625 L 25.253906 -29.147656 L 25.378906 -28.702344 L 25.511719 -28.217969 L 25.648438 -27.698438 L 25.789062 -27.14375 L 25.925781 -26.542188 L 26.0625 -25.901563 L 26.195312 -25.210156 L 26.324219 -24.471875 L 26.449219 -23.678906 L 26.5625 -22.827344 L 26.671875 -21.921094 L 26.769531 -20.952344 L 26.863281 -19.913281 L 26.945312 -18.803906 L 27.023438 -17.620313 L 27.09375 -16.354688 L 27.152344 -15.003125 L 27.207031 -13.561719 L 27.257812 -12.01875 L 27.300781 -10.374219 L 27.339844 -8.616406 L 27.375 -6.7375 L 27.628906 561.524219 " transform="matrix(1,0,0,-1,0,61.2)"/>
</g>
<path style="fill:none;stroke-width:0.99628;stroke-linecap:round;stroke-linejoin:round;stroke:rgb(95.326233%,39.237976%,12.364197%);stroke-opacity:1;stroke-miterlimit:10;" d="M 22.199219 -37.022656 L 25.6875 -33.538281 M 25.6875 -37.022656 L 22.199219 -33.538281 " transform="matrix(1,0,0,-1,0,61.2)"/>
<g clip-path="url(#clip10)" clip-rule="nonzero">
<path style="fill:none;stroke-width:0.99628;stroke-linecap:round;stroke-linejoin:round;stroke:rgb(48.13385%,15.52124%,58.686829%);stroke-opacity:1;stroke-miterlimit:10;" d="M 23.945312 -35.280469 L 23.992188 -36.257031 L 23.996094 -36.323438 L 24.003906 -36.39375 L 24.015625 -36.471875 L 24.023438 -36.553906 L 24.035156 -36.64375 L 24.046875 -36.7375 L 24.0625 -36.839063 L 24.078125 -36.948438 L 24.097656 -37.065625 L 24.121094 -37.190625 L 24.144531 -37.323438 L 24.171875 -37.464063 L 24.203125 -37.616406 L 24.238281 -37.780469 L 24.277344 -37.95625 L 24.320312 -38.14375 L 24.425781 -38.565625 L 24.488281 -38.796094 L 24.558594 -39.046094 L 24.632812 -39.315625 L 24.714844 -39.604688 L 24.808594 -39.917188 L 24.90625 -40.249219 L 25.015625 -40.608594 L 25.128906 -40.995313 L 25.253906 -41.413281 L 25.378906 -41.858594 L 25.511719 -42.342969 L 25.648438 -42.8625 L 25.789062 -43.417188 L 25.925781 -44.01875 L 26.0625 -44.659375 L 26.195312 -45.350781 L 26.324219 -46.089063 L 26.449219 -46.882031 L 26.5625 -47.729688 L 26.671875 -48.639844 L 26.769531 -49.608594 L 26.863281 -50.647656 L 26.945312 -51.757031 L 27.023438 -52.940625 L 27.09375 -54.20625 L 27.152344 -55.557813 L 27.207031 -56.999219 L 27.257812 -58.542188 L 27.300781 -60.186719 L 27.339844 -61.944531 L 27.375 -63.823438 L 27.628906 -632.085156 " transform="matrix(1,0,0,-1,0,61.2)"/>
</g>
<path style="fill:none;stroke-width:0.99628;stroke-linecap:round;stroke-linejoin:round;stroke:rgb(48.13385%,15.52124%,58.686829%);stroke-opacity:1;stroke-miterlimit:10;" d="M 22.199219 -37.022656 L 25.6875 -33.538281 M 25.6875 -37.022656 L 22.199219 -33.538281 " transform="matrix(1,0,0,-1,0,61.2)"/>
<path style="fill:none;stroke-width:0.99628;stroke-linecap:round;stroke-linejoin:round;stroke:rgb(7.849121%,60.745239%,87.768555%);stroke-opacity:1;stroke-miterlimit:10;" d="M 153.664062 -35.280469 L 135.242188 -35.280469 " transform="matrix(1,0,0,-1,0,61.2)"/>
<path style="fill:none;stroke-width:0.99628;stroke-linecap:round;stroke-linejoin:round;stroke:rgb(7.849121%,60.745239%,87.768555%);stroke-opacity:1;stroke-miterlimit:10;" d="M 137.710938 -35.280469 C 137.710938 -33.917188 136.605469 -32.815625 135.242188 -32.815625 C 133.882812 -32.815625 132.777344 -33.917188 132.777344 -35.280469 C 132.777344 -36.64375 133.882812 -37.745313 135.242188 -37.745313 C 136.605469 -37.745313 137.710938 -36.64375 137.710938 -35.280469 Z M 137.710938 -35.280469 " transform="matrix(1,0,0,-1,0,61.2)"/>
<path style="fill:none;stroke-width:0.99628;stroke-linecap:round;stroke-linejoin:round;stroke:rgb(7.849121%,60.745239%,87.768555%);stroke-opacity:1;stroke-miterlimit:10;" d="M 151.917969 -37.022656 L 155.40625 -33.538281 M 155.40625 -37.022656 L 151.917969 -33.538281 " transform="matrix(1,0,0,-1,0,61.2)"/>
<g clip-path="url(#clip11)" clip-rule="nonzero">
<path style="fill:none;stroke-width:0.99628;stroke-linecap:round;stroke-linejoin:round;stroke:rgb(95.326233%,39.237976%,12.364197%);stroke-opacity:1;stroke-miterlimit:10;" d="M 116.824219 -35.280469 L 117.03125 -34.257031 L 117.058594 -34.194531 L 117.089844 -34.124219 L 117.125 -34.05 L 117.207031 -33.885938 L 117.257812 -33.796094 L 117.3125 -33.702344 L 117.375 -33.600781 L 117.445312 -33.491406 L 117.527344 -33.374219 L 117.617188 -33.253125 L 117.722656 -33.120313 L 117.835938 -32.975781 L 117.96875 -32.823438 L 118.113281 -32.659375 L 118.28125 -32.483594 L 118.464844 -32.296094 L 118.671875 -32.089063 L 118.90625 -31.870313 L 119.164062 -31.628125 L 119.453125 -31.370313 L 119.765625 -31.085156 L 120.113281 -30.776563 L 120.484375 -30.440625 L 120.878906 -30.069531 L 121.292969 -29.663281 L 121.714844 -29.221875 L 122.136719 -28.7375 L 122.550781 -28.214063 L 122.9375 -27.647656 L 123.300781 -27.038281 L 123.632812 -26.385938 L 123.925781 -25.690625 L 124.1875 -24.948438 L 124.421875 -24.167188 L 124.621094 -23.339063 L 124.796875 -22.464063 L 124.953125 -21.538281 L 125.085938 -20.557813 L 125.203125 -19.522656 L 125.304688 -18.425 L 125.394531 -17.264844 L 125.472656 -16.038281 L 125.539062 -14.7375 L 125.597656 -13.3625 L 125.652344 -11.905469 L 125.695312 -10.358594 L 125.734375 -8.717969 L 125.773438 -6.979688 L 126.035156 549.10625 " transform="matrix(1,0,0,-1,0,61.2)"/>
</g>
<path style="fill:none;stroke-width:0.99628;stroke-linecap:round;stroke-linejoin:round;stroke:rgb(95.326233%,39.237976%,12.364197%);stroke-opacity:1;stroke-miterlimit:10;" d="M 115.082031 -37.022656 L 118.570312 -33.538281 M 118.570312 -37.022656 L 115.082031 -33.538281 " transform="matrix(1,0,0,-1,0,61.2)"/>
<g clip-path="url(#clip12)" clip-rule="nonzero">
<path style="fill:none;stroke-width:0.99628;stroke-linecap:round;stroke-linejoin:round;stroke:rgb(48.13385%,15.52124%,58.686829%);stroke-opacity:1;stroke-miterlimit:10;" d="M 116.824219 -35.280469 L 117.03125 -36.303906 L 117.058594 -36.366406 L 117.089844 -36.436719 L 117.125 -36.510938 L 117.207031 -36.675 L 117.257812 -36.764844 L 117.3125 -36.858594 L 117.375 -36.960156 L 117.445312 -37.069531 L 117.527344 -37.186719 L 117.617188 -37.307813 L 117.722656 -37.440625 L 117.835938 -37.585156 L 117.96875 -37.7375 L 118.113281 -37.901563 L 118.28125 -38.077344 L 118.464844 -38.264844 L 118.671875 -38.471875 L 118.90625 -38.690625 L 119.164062 -38.932813 L 119.453125 -39.190625 L 119.765625 -39.475781 L 120.113281 -39.784375 L 120.484375 -40.120313 L 120.878906 -40.491406 L 121.292969 -40.897656 L 121.714844 -41.339063 L 122.136719 -41.823438 L 122.550781 -42.346875 L 122.9375 -42.913281 L 123.300781 -43.522656 L 123.632812 -44.175 L 123.925781 -44.870313 L 124.1875 -45.608594 L 124.421875 -46.39375 L 124.621094 -47.221875 L 124.796875 -48.096875 L 124.953125 -49.022656 L 125.085938 -50.003125 L 125.203125 -51.038281 L 125.304688 -52.135938 L 125.394531 -53.296094 L 125.472656 -54.522656 L 125.539062 -55.823438 L 125.597656 -57.198438 L 125.652344 -58.655469 L 125.695312 -60.202344 L 125.734375 -61.842969 L 125.773438 -63.58125 L 126.035156 -619.667187 " transform="matrix(1,0,0,-1,0,61.2)"/>
</g>
<path style="fill:none;stroke-width:0.99628;stroke-linecap:round;stroke-linejoin:round;stroke:rgb(48.13385%,15.52124%,58.686829%);stroke-opacity:1;stroke-miterlimit:10;" d="M 115.082031 -37.022656 L 118.570312 -33.538281 M 118.570312 -37.022656 L 115.082031 -33.538281 " transform="matrix(1,0,0,-1,0,61.2)"/>
<path style="fill:none;stroke-width:0.99628;stroke-linecap:round;stroke-linejoin:round;stroke:rgb(7.849121%,60.745239%,87.768555%);stroke-opacity:1;stroke-miterlimit:10;" d="M 246.542969 -35.280469 L 220.757812 -35.280469 " transform="matrix(1,0,0,-1,0,61.2)"/>
<path style="fill:none;stroke-width:0.99628;stroke-linecap:round;stroke-linejoin:round;stroke:rgb(7.849121%,60.745239%,87.768555%);stroke-opacity:1;stroke-miterlimit:10;" d="M 223.222656 -35.280469 C 223.222656 -33.917188 222.117188 -32.815625 220.757812 -32.815625 C 219.394531 -32.815625 218.292969 -33.917188 218.292969 -35.280469 C 218.292969 -36.64375 219.394531 -37.745313 220.757812 -37.745313 C 222.117188 -37.745313 223.222656 -36.64375 223.222656 -35.280469 Z M 223.222656 -35.280469 " transform="matrix(1,0,0,-1,0,61.2)"/>
<path style="fill:none;stroke-width:0.99628;stroke-linecap:round;stroke-linejoin:round;stroke:rgb(7.849121%,60.745239%,87.768555%);stroke-opacity:1;stroke-miterlimit:10;" d="M 244.800781 -37.022656 L 248.285156 -33.538281 M 248.285156 -37.022656 L 244.800781 -33.538281 " transform="matrix(1,0,0,-1,0,61.2)"/>
<g clip-path="url(#clip13)" clip-rule="nonzero">
<path style="fill:none;stroke-width:0.99628;stroke-linecap:round;stroke-linejoin:round;stroke:rgb(95.326233%,39.237976%,12.364197%);stroke-opacity:1;stroke-miterlimit:10;" d="M 209.707031 -35.280469 L 210.296875 -34.155469 L 210.367188 -34.092969 L 210.441406 -34.026563 L 210.527344 -33.95625 L 210.625 -33.882031 L 210.734375 -33.8 L 210.855469 -33.714063 L 210.992188 -33.624219 L 211.144531 -33.530469 L 211.320312 -33.428906 L 211.515625 -33.319531 L 211.734375 -33.202344 L 211.984375 -33.08125 L 212.261719 -32.944531 L 212.582031 -32.803906 L 212.945312 -32.647656 L 213.355469 -32.479688 L 213.824219 -32.292188 L 214.355469 -32.089063 L 214.957031 -31.858594 L 215.628906 -31.596875 L 216.371094 -31.296094 L 217.160156 -30.948438 L 217.949219 -30.542188 L 218.6875 -30.077344 L 219.335938 -29.569531 L 219.871094 -29.022656 L 220.308594 -28.444531 L 220.664062 -27.846875 L 220.953125 -27.221875 L 221.1875 -26.577344 L 221.382812 -25.909375 L 221.542969 -25.217969 L 221.679688 -24.495313 L 221.796875 -23.741406 L 221.894531 -22.960156 L 221.980469 -22.139844 L 222.054688 -21.284375 L 222.117188 -20.389844 L 222.171875 -19.448438 L 222.222656 -18.464063 L 222.261719 -17.432813 L 222.300781 -16.346875 L 222.332031 -15.210156 L 222.363281 -14.010938 L 222.386719 -12.753125 L 222.410156 -11.425 L 222.429688 -10.030469 L 222.449219 -8.565625 L 222.464844 -7.01875 L 222.597656 543.715625 " transform="matrix(1,0,0,-1,0,61.2)"/>
</g>
<path style="fill:none;stroke-width:0.99628;stroke-linecap:round;stroke-linejoin:round;stroke:rgb(95.326233%,39.237976%,12.364197%);stroke-opacity:1;stroke-miterlimit:10;" d="M 207.960938 -37.022656 L 211.449219 -33.538281 M 211.449219 -37.022656 L 207.960938 -33.538281 " transform="matrix(1,0,0,-1,0,61.2)"/>
<g clip-path="url(#clip14)" clip-rule="nonzero">
<path style="fill:none;stroke-width:0.99628;stroke-linecap:round;stroke-linejoin:round;stroke:rgb(48.13385%,15.52124%,58.686829%);stroke-opacity:1;stroke-miterlimit:10;" d="M 209.707031 -35.280469 L 210.296875 -36.405469 L 210.367188 -36.467969 L 210.441406 -36.534375 L 210.527344 -36.604688 L 210.625 -36.678906 L 210.734375 -36.760938 L 210.855469 -36.846875 L 210.992188 -36.936719 L 211.144531 -37.030469 L 211.320312 -37.132031 L 211.515625 -37.241406 L 211.734375 -37.358594 L 211.984375 -37.479688 L 212.261719 -37.616406 L 212.582031 -37.757031 L 212.945312 -37.913281 L 213.355469 -38.08125 L 213.824219 -38.26875 L 214.355469 -38.471875 L 214.957031 -38.702344 L 215.628906 -38.964063 L 216.371094 -39.264844 L 217.160156 -39.6125 L 217.949219 -40.01875 L 218.6875 -40.483594 L 219.335938 -40.991406 L 219.871094 -41.538281 L 220.308594 -42.116406 L 220.664062 -42.714063 L 220.953125 -43.335156 L 221.1875 -43.983594 L 221.382812 -44.651563 L 221.542969 -45.342969 L 221.679688 -46.065625 L 221.796875 -46.819531 L 221.894531 -47.600781 L 221.980469 -48.421094 L 222.054688 -49.276563 L 222.117188 -50.171094 L 222.171875 -51.1125 L 222.222656 -52.096875 L 222.261719 -53.128125 L 222.300781 -54.214063 L 222.332031 -55.350781 L 222.363281 -56.55 L 222.386719 -57.807813 L 222.410156 -59.132031 L 222.429688 -60.530469 L 222.449219 -61.995313 L 222.464844 -63.542188 L 222.597656 -614.276562 " transform="matrix(1,0,0,-1,0,61.2)"/>
</g>
<path style="fill:none;stroke-width:0.99628;stroke-linecap:round;stroke-linejoin:round;stroke:rgb(48.13385%,15.52124%,58.686829%);stroke-opacity:1;stroke-miterlimit:10;" d="M 207.960938 -37.022656 L 211.449219 -33.538281 M 211.449219 -37.022656 L 207.960938 -33.538281 " transform="matrix(1,0,0,-1,0,61.2)"/>
<g clip-path="url(#clip15)" clip-rule="nonzero">
<path style="fill:none;stroke-width:0.99628;stroke-linecap:round;stroke-linejoin:round;stroke:rgb(7.849121%,60.745239%,87.768555%);stroke-opacity:1;stroke-miterlimit:10;" d="M 339.425781 -35.280469 L 323.152344 -35.280469 L 323.152344 -35.14375 L 323.1875 -34.229688 L 323.261719 -33.358594 L 323.335938 -32.710156 L 323.414062 -32.139844 L 323.488281 -31.604688 L 323.558594 -31.085156 L 323.632812 -30.569531 L 323.699219 -30.05 L 323.769531 -29.522656 L 323.832031 -28.979688 L 323.898438 -28.421094 L 323.957031 -27.842969 L 324.015625 -27.2375 L 324.070312 -26.608594 L 324.121094 -25.948438 L 324.171875 -25.257031 L 324.21875 -24.526563 L 324.261719 -23.757031 L 324.300781 -22.948438 L 324.335938 -22.092969 L 324.371094 -21.186719 L 324.402344 -20.229688 L 324.429688 -19.214063 L 324.457031 -18.135938 L 324.480469 -16.995313 L 324.503906 -15.784375 L 324.523438 -14.503125 L 324.539062 -13.135938 L 324.554688 -11.690625 L 324.570312 -10.151563 L 324.582031 -8.514844 L 324.59375 -6.780469 L 324.605469 -4.932813 L 324.613281 -2.971875 L 324.625 -0.885938 L 324.6875 656.95 " transform="matrix(1,0,0,-1,0,61.2)"/>
</g>
<path style="fill:none;stroke-width:0.99628;stroke-linecap:round;stroke-linejoin:round;stroke:rgb(7.849121%,60.745239%,87.768555%);stroke-opacity:1;stroke-miterlimit:10;" d="M 337.679688 -37.022656 L 341.167969 -33.538281 M 341.167969 -37.022656 L 337.679688 -33.538281 " transform="matrix(1,0,0,-1,0,61.2)"/>
<path style="fill:none;stroke-width:0.99628;stroke-linecap:round;stroke-linejoin:round;stroke:rgb(95.326233%,39.237976%,12.364197%);stroke-opacity:1;stroke-miterlimit:10;" d="M 302.585938 -35.280469 L 295.21875 -35.280469 " transform="matrix(1,0,0,-1,0,61.2)"/>
<path style="fill:none;stroke-width:0.99628;stroke-linecap:round;stroke-linejoin:round;stroke:rgb(95.326233%,39.237976%,12.364197%);stroke-opacity:1;stroke-miterlimit:10;" d="M 297.683594 -35.280469 C 297.683594 -33.917188 296.582031 -32.815625 295.21875 -32.815625 C 293.855469 -32.815625 292.753906 -33.917188 292.753906 -35.280469 C 292.753906 -36.64375 293.855469 -37.745313 295.21875 -37.745313 C 296.582031 -37.745313 297.683594 -36.64375 297.683594 -35.280469 Z M 297.683594 -35.280469 " transform="matrix(1,0,0,-1,0,61.2)"/>
<path style="fill:none;stroke-width:0.99628;stroke-linecap:round;stroke-linejoin:round;stroke:rgb(95.326233%,39.237976%,12.364197%);stroke-opacity:1;stroke-miterlimit:10;" d="M 300.84375 -37.022656 L 304.328125 -33.538281 M 304.328125 -37.022656 L 300.84375 -33.538281 " transform="matrix(1,0,0,-1,0,61.2)"/>
<g clip-path="url(#clip16)" clip-rule="nonzero">
<path style="fill:none;stroke-width:0.99628;stroke-linecap:round;stroke-linejoin:round;stroke:rgb(48.13385%,15.52124%,58.686829%);stroke-opacity:1;stroke-miterlimit:10;" d="M 302.585938 -35.280469 L 323.152344 -35.280469 L 323.152344 -35.417188 L 323.1875 -36.33125 L 323.261719 -37.202344 L 323.335938 -37.850781 L 323.414062 -38.421094 L 323.488281 -38.95625 L 323.558594 -39.475781 L 323.632812 -39.991406 L 323.699219 -40.510938 L 323.769531 -41.038281 L 323.832031 -41.58125 L 323.898438 -42.139844 L 323.957031 -42.717969 L 324.015625 -43.319531 L 324.070312 -43.952344 L 324.121094 -44.6125 L 324.171875 -45.303906 L 324.21875 -46.034375 L 324.261719 -46.8 L 324.300781 -47.6125 L 324.335938 -48.467969 L 324.371094 -49.374219 L 324.402344 -50.33125 L 324.429688 -51.346875 L 324.457031 -52.425 L 324.480469 -53.565625 L 324.503906 -54.776563 L 324.523438 -56.057813 L 324.539062 -57.425 L 324.554688 -58.870313 L 324.570312 -60.409375 L 324.582031 -62.046094 L 324.59375 -63.780469 L 324.605469 -65.628125 L 324.613281 -67.589063 L 324.625 -69.675 L 324.6875 -727.510937 " transform="matrix(1,0,0,-1,0,61.2)"/>
</g>
<path style="fill:none;stroke-width:0.99628;stroke-linecap:round;stroke-linejoin:round;stroke:rgb(48.13385%,15.52124%,58.686829%);stroke-opacity:1;stroke-miterlimit:10;" d="M 300.84375 -37.022656 L 304.328125 -33.538281 M 304.328125 -37.022656 L 300.84375 -33.538281 " transform="matrix(1,0,0,-1,0,61.2)"/>
<path style="fill:none;stroke-width:0.99628;stroke-linecap:round;stroke-linejoin:round;stroke:rgb(7.849121%,60.745239%,87.768555%);stroke-opacity:1;stroke-miterlimit:10;" d="M 60.78125 -99.3625 L 53.414062 -99.3625 " transform="matrix(1,0,0,-1,0,61.2)"/>
<path style="fill:none;stroke-width:0.99628;stroke-linecap:round;stroke-linejoin:round;stroke:rgb(7.849121%,60.745239%,87.768555%);stroke-opacity:1;stroke-miterlimit:10;" d="M 55.878906 -99.3625 C 55.878906 -97.999219 54.777344 -96.89375 53.414062 -96.89375 C 52.050781 -96.89375 50.949219 -97.999219 50.949219 -99.3625 C 50.949219 -100.721875 52.050781 -101.827344 53.414062 -101.827344 C 54.777344 -101.827344 55.878906 -100.721875 55.878906 -99.3625 Z M 55.878906 -99.3625 " transform="matrix(1,0,0,-1,0,61.2)"/>
<path style="fill:none;stroke-width:0.99628;stroke-linecap:round;stroke-linejoin:round;stroke:rgb(7.849121%,60.745239%,87.768555%);stroke-opacity:1;stroke-miterlimit:10;" d="M 59.039062 -101.104688 L 62.523438 -97.616406 M 62.523438 -101.104688 L 59.039062 -97.616406 " transform="matrix(1,0,0,-1,0,61.2)"/>
<g clip-path="url(#clip17)" clip-rule="nonzero">
<path style="fill:none;stroke-width:0.99628;stroke-linecap:round;stroke-linejoin:round;stroke:rgb(95.326233%,39.237976%,12.364197%);stroke-opacity:1;stroke-miterlimit:10;" d="M 38.679688 -91.682813 L 39.277344 -90.733594 L 39.363281 -90.577344 L 39.410156 -90.491406 L 39.460938 -90.397656 L 39.511719 -90.296094 L 39.566406 -90.190625 L 39.625 -90.073438 L 39.683594 -89.952344 L 39.746094 -89.819531 L 39.808594 -89.678906 L 39.875 -89.526563 L 39.945312 -89.3625 L 40.015625 -89.190625 L 40.085938 -89.007031 L 40.160156 -88.811719 L 40.234375 -88.600781 L 40.386719 -88.14375 L 40.464844 -87.889844 L 40.539062 -87.624219 L 40.617188 -87.342969 L 40.695312 -87.042188 L 40.769531 -86.725781 L 40.84375 -86.389844 L 40.917969 -86.038281 L 40.992188 -85.663281 L 41.0625 -85.272656 L 41.132812 -84.858594 L 41.199219 -84.421094 L 41.265625 -83.964063 L 41.328125 -83.479688 L 41.386719 -82.975781 L 41.445312 -82.444531 L 41.5 -81.885938 L 41.554688 -81.303906 L 41.605469 -80.690625 L 41.652344 -80.05 L 41.699219 -79.382031 L 41.742188 -78.678906 L 41.78125 -77.944531 L 41.820312 -77.178906 L 41.859375 -76.378125 L 41.890625 -75.538281 L 41.925781 -74.663281 L 41.953125 -73.753125 L 41.984375 -72.8 L 42.007812 -71.803906 L 42.035156 -70.76875 L 42.058594 -69.686719 L 42.363281 502.157031 " transform="matrix(1,0,0,-1,0,61.2)"/>
</g>
<path style="fill:none;stroke-width:0.99628;stroke-linecap:round;stroke-linejoin:round;stroke:rgb(95.326233%,39.237976%,12.364197%);stroke-opacity:1;stroke-miterlimit:10;" d="M 36.9375 -93.425 L 40.421875 -89.936719 M 40.421875 -93.425 L 36.9375 -89.936719 " transform="matrix(1,0,0,-1,0,61.2)"/>
<g clip-path="url(#clip18)" clip-rule="nonzero">
<path style="fill:none;stroke-width:0.99628;stroke-linecap:round;stroke-linejoin:round;stroke:rgb(48.13385%,15.52124%,58.686829%);stroke-opacity:1;stroke-miterlimit:10;" d="M 38.679688 -107.042188 L 39.277344 -107.991406 L 39.320312 -108.065625 L 39.363281 -108.14375 L 39.410156 -108.233594 L 39.460938 -108.327344 L 39.511719 -108.425 L 39.566406 -108.534375 L 39.625 -108.647656 L 39.683594 -108.772656 L 39.746094 -108.905469 L 39.808594 -109.046094 L 39.875 -109.198438 L 39.945312 -109.358594 L 40.015625 -109.530469 L 40.085938 -109.714063 L 40.160156 -109.913281 L 40.234375 -110.120313 L 40.308594 -110.342969 L 40.386719 -110.58125 L 40.464844 -110.83125 L 40.539062 -111.096875 L 40.617188 -111.382031 L 40.695312 -111.678906 L 40.769531 -111.995313 L 40.84375 -112.33125 L 40.917969 -112.686719 L 40.992188 -113.057813 L 41.0625 -113.452344 L 41.132812 -113.866406 L 41.199219 -114.3 L 41.265625 -114.760938 L 41.328125 -115.241406 L 41.386719 -115.749219 L 41.445312 -116.276563 L 41.5 -116.835156 L 41.554688 -117.421094 L 41.605469 -118.030469 L 41.652344 -118.671094 L 41.699219 -119.342969 L 41.742188 -120.042188 L 41.78125 -120.776563 L 41.820312 -121.542188 L 41.859375 -122.346875 L 41.890625 -123.182813 L 41.925781 -124.057813 L 41.953125 -124.971875 L 41.984375 -125.921094 L 42.007812 -126.917188 L 42.035156 -127.95625 L 42.058594 -129.038281 L 42.363281 -700.882031 " transform="matrix(1,0,0,-1,0,61.2)"/>
</g>
<path style="fill:none;stroke-width:0.99628;stroke-linecap:round;stroke-linejoin:round;stroke:rgb(48.13385%,15.52124%,58.686829%);stroke-opacity:1;stroke-miterlimit:10;" d="M 36.9375 -108.784375 L 40.421875 -105.296094 M 40.421875 -108.784375 L 36.9375 -105.296094 " transform="matrix(1,0,0,-1,0,61.2)"/>
<path style="fill:none;stroke-width:0.99628;stroke-linecap:round;stroke-linejoin:round;stroke:rgb(7.849121%,60.745239%,87.768555%);stroke-opacity:1;stroke-miterlimit:10;" d="M 153.664062 -99.3625 L 135.242188 -99.3625 " transform="matrix(1,0,0,-1,0,61.2)"/>
<path style="fill:none;stroke-width:0.99628;stroke-linecap:round;stroke-linejoin:round;stroke:rgb(7.849121%,60.745239%,87.768555%);stroke-opacity:1;stroke-miterlimit:10;" d="M 137.710938 -99.3625 C 137.710938 -97.999219 136.605469 -96.89375 135.242188 -96.89375 C 133.882812 -96.89375 132.777344 -97.999219 132.777344 -99.3625 C 132.777344 -100.721875 133.882812 -101.827344 135.242188 -101.827344 C 136.605469 -101.827344 137.710938 -100.721875 137.710938 -99.3625 Z M 137.710938 -99.3625 " transform="matrix(1,0,0,-1,0,61.2)"/>
<path style="fill:none;stroke-width:0.99628;stroke-linecap:round;stroke-linejoin:round;stroke:rgb(7.849121%,60.745239%,87.768555%);stroke-opacity:1;stroke-miterlimit:10;" d="M 151.917969 -101.104688 L 155.40625 -97.616406 M 155.40625 -101.104688 L 151.917969 -97.616406 " transform="matrix(1,0,0,-1,0,61.2)"/>
<g clip-path="url(#clip19)" clip-rule="nonzero">
<path style="fill:none;stroke-width:0.99628;stroke-linecap:round;stroke-linejoin:round;stroke:rgb(95.326233%,39.237976%,12.364197%);stroke-opacity:1;stroke-miterlimit:10;" d="M 131.558594 -91.682813 L 133.148438 -90.870313 L 133.265625 -90.803906 L 133.386719 -90.729688 L 133.519531 -90.651563 L 133.65625 -90.565625 L 133.800781 -90.471875 L 133.953125 -90.370313 L 134.113281 -90.260938 L 134.28125 -90.14375 L 134.453125 -90.01875 L 134.632812 -89.878125 L 134.820312 -89.733594 L 135.011719 -89.573438 L 135.207031 -89.401563 L 135.40625 -89.217969 L 135.605469 -89.022656 L 135.8125 -88.811719 L 136.015625 -88.589063 L 136.222656 -88.350781 L 136.425781 -88.092969 L 136.628906 -87.823438 L 136.828125 -87.534375 L 137.027344 -87.229688 L 137.21875 -86.905469 L 137.40625 -86.565625 L 137.589844 -86.202344 L 137.765625 -85.823438 L 137.9375 -85.421094 L 138.101562 -84.999219 L 138.257812 -84.557813 L 138.410156 -84.092969 L 138.554688 -83.600781 L 138.691406 -83.089063 L 138.824219 -82.55 L 138.949219 -81.9875 L 139.066406 -81.397656 L 139.175781 -80.780469 L 139.28125 -80.132031 L 139.378906 -79.45625 L 139.472656 -78.753125 L 139.5625 -78.014844 L 139.644531 -77.241406 L 139.722656 -76.436719 L 139.792969 -75.596875 L 139.863281 -74.721875 L 139.925781 -73.807813 L 139.984375 -72.850781 L 140.042969 -71.854688 L 140.09375 -70.819531 L 140.140625 -69.733594 L 140.769531 497.371875 " transform="matrix(1,0,0,-1,0,61.2)"/>
</g>
<path style="fill:none;stroke-width:0.99628;stroke-linecap:round;stroke-linejoin:round;stroke:rgb(95.326233%,39.237976%,12.364197%);stroke-opacity:1;stroke-miterlimit:10;" d="M 129.816406 -93.425 L 133.304688 -89.936719 M 133.304688 -93.425 L 129.816406 -89.936719 " transform="matrix(1,0,0,-1,0,61.2)"/>
<g clip-path="url(#clip20)" clip-rule="nonzero">
<path style="fill:none;stroke-width:0.99628;stroke-linecap:round;stroke-linejoin:round;stroke:rgb(48.13385%,15.52124%,58.686829%);stroke-opacity:1;stroke-miterlimit:10;" d="M 131.558594 -107.042188 L 133.148438 -107.850781 L 133.265625 -107.921094 L 133.386719 -107.991406 L 133.519531 -108.073438 L 133.65625 -108.159375 L 133.800781 -108.249219 L 133.953125 -108.350781 L 134.113281 -108.460156 L 134.28125 -108.577344 L 134.453125 -108.70625 L 134.632812 -108.842969 L 134.820312 -108.991406 L 135.011719 -109.147656 L 135.207031 -109.319531 L 135.40625 -109.503125 L 135.605469 -109.698438 L 135.8125 -109.909375 L 136.015625 -110.132031 L 136.222656 -110.374219 L 136.425781 -110.628125 L 136.628906 -110.897656 L 136.828125 -111.186719 L 137.027344 -111.491406 L 137.21875 -111.815625 L 137.40625 -112.155469 L 137.589844 -112.51875 L 137.765625 -112.897656 L 137.9375 -113.3 L 138.101562 -113.721875 L 138.257812 -114.163281 L 138.410156 -114.632031 L 138.554688 -115.120313 L 138.691406 -115.632031 L 138.824219 -116.171094 L 138.949219 -116.733594 L 139.066406 -117.323438 L 139.175781 -117.944531 L 139.28125 -118.589063 L 139.378906 -119.264844 L 139.472656 -119.971875 L 139.5625 -120.710156 L 139.644531 -121.479688 L 139.722656 -122.284375 L 139.792969 -123.124219 L 139.863281 -124.003125 L 139.925781 -124.917188 L 139.984375 -125.870313 L 140.042969 -126.866406 L 140.09375 -127.905469 L 140.140625 -128.9875 L 140.769531 -696.092969 " transform="matrix(1,0,0,-1,0,61.2)"/>
</g>
<path style="fill:none;stroke-width:0.99628;stroke-linecap:round;stroke-linejoin:round;stroke:rgb(48.13385%,15.52124%,58.686829%);stroke-opacity:1;stroke-miterlimit:10;" d="M 129.816406 -108.784375 L 133.304688 -105.296094 M 133.304688 -108.784375 L 129.816406 -105.296094 " transform="matrix(1,0,0,-1,0,61.2)"/>
<path style="fill:none;stroke-width:0.99628;stroke-linecap:round;stroke-linejoin:round;stroke:rgb(7.849121%,60.745239%,87.768555%);stroke-opacity:1;stroke-miterlimit:10;" d="M 246.542969 -99.3625 L 220.757812 -99.3625 " transform="matrix(1,0,0,-1,0,61.2)"/>
<path style="fill:none;stroke-width:0.99628;stroke-linecap:round;stroke-linejoin:round;stroke:rgb(7.849121%,60.745239%,87.768555%);stroke-opacity:1;stroke-miterlimit:10;" d="M 223.222656 -99.3625 C 223.222656 -97.999219 222.117188 -96.89375 220.757812 -96.89375 C 219.394531 -96.89375 218.292969 -97.999219 218.292969 -99.3625 C 218.292969 -100.721875 219.394531 -101.827344 220.757812 -101.827344 C 222.117188 -101.827344 223.222656 -100.721875 223.222656 -99.3625 Z M 223.222656 -99.3625 " transform="matrix(1,0,0,-1,0,61.2)"/>
<path style="fill:none;stroke-width:0.99628;stroke-linecap:round;stroke-linejoin:round;stroke:rgb(7.849121%,60.745239%,87.768555%);stroke-opacity:1;stroke-miterlimit:10;" d="M 244.800781 -101.104688 L 248.285156 -97.616406 M 248.285156 -101.104688 L 244.800781 -97.616406 " transform="matrix(1,0,0,-1,0,61.2)"/>
<g clip-path="url(#clip21)" clip-rule="nonzero">
<path style="fill:none;stroke-width:0.99628;stroke-linecap:round;stroke-linejoin:round;stroke:rgb(95.326233%,39.237976%,12.364197%);stroke-opacity:1;stroke-miterlimit:10;" d="M 224.441406 -91.682813 L 226.199219 -91.155469 L 226.347656 -91.104688 L 226.503906 -91.05 L 226.675781 -90.991406 L 226.855469 -90.925 L 227.050781 -90.850781 L 227.257812 -90.772656 L 227.480469 -90.682813 L 227.710938 -90.585156 L 227.957031 -90.479688 L 228.21875 -90.3625 L 228.488281 -90.2375 L 228.769531 -90.096875 L 229.058594 -89.944531 L 229.359375 -89.780469 L 229.664062 -89.600781 L 229.972656 -89.401563 L 230.285156 -89.190625 L 230.597656 -88.964063 L 230.914062 -88.717969 L 231.222656 -88.45625 L 231.527344 -88.175 L 231.828125 -87.874219 L 232.121094 -87.553906 L 232.410156 -87.214063 L 232.683594 -86.850781 L 232.953125 -86.467969 L 233.210938 -86.065625 L 233.457031 -85.639844 L 233.695312 -85.190625 L 233.921875 -84.714063 L 234.136719 -84.217969 L 234.339844 -83.694531 L 234.535156 -83.14375 L 234.71875 -82.561719 L 234.894531 -81.95625 L 235.058594 -81.319531 L 235.214844 -80.647656 L 235.359375 -79.948438 L 235.5 -79.210156 L 235.628906 -78.440625 L 235.75 -77.635938 L 235.863281 -76.788281 L 235.96875 -75.905469 L 236.070312 -74.979688 L 236.160156 -74.010938 L 236.25 -72.995313 L 236.328125 -71.936719 L 236.402344 -70.827344 L 236.472656 -69.667188 L 237.332031 496.907031 " transform="matrix(1,0,0,-1,0,61.2)"/>
</g>
<path style="fill:none;stroke-width:0.99628;stroke-linecap:round;stroke-linejoin:round;stroke:rgb(95.326233%,39.237976%,12.364197%);stroke-opacity:1;stroke-miterlimit:10;" d="M 222.695312 -93.425 L 226.183594 -89.936719 M 226.183594 -93.425 L 222.695312 -89.936719 " transform="matrix(1,0,0,-1,0,61.2)"/>
<g clip-path="url(#clip22)" clip-rule="nonzero">
<path style="fill:none;stroke-width:0.99628;stroke-linecap:round;stroke-linejoin:round;stroke:rgb(48.13385%,15.52124%,58.686829%);stroke-opacity:1;stroke-miterlimit:10;" d="M 224.441406 -107.042188 L 226.199219 -107.569531 L 226.347656 -107.616406 L 226.503906 -107.671094 L 226.675781 -107.733594 L 226.855469 -107.8 L 227.050781 -107.870313 L 227.257812 -107.952344 L 227.480469 -108.038281 L 227.710938 -108.135938 L 227.957031 -108.241406 L 228.21875 -108.358594 L 228.488281 -108.483594 L 228.769531 -108.624219 L 229.058594 -108.776563 L 229.359375 -108.944531 L 229.664062 -109.124219 L 229.972656 -109.319531 L 230.285156 -109.530469 L 230.597656 -109.757031 L 230.914062 -110.003125 L 231.222656 -110.26875 L 231.527344 -110.55 L 231.828125 -110.850781 L 232.121094 -111.171094 L 232.410156 -111.510938 L 232.683594 -111.870313 L 232.953125 -112.253125 L 233.210938 -112.655469 L 233.457031 -113.08125 L 233.695312 -113.534375 L 233.921875 -114.007031 L 234.136719 -114.503125 L 234.339844 -115.030469 L 234.535156 -115.58125 L 234.71875 -116.159375 L 234.894531 -116.76875 L 235.058594 -117.405469 L 235.214844 -118.073438 L 235.359375 -118.776563 L 235.5 -119.510938 L 235.628906 -120.280469 L 235.75 -121.089063 L 235.863281 -121.932813 L 235.96875 -122.815625 L 236.070312 -123.741406 L 236.160156 -124.714063 L 236.25 -125.725781 L 236.328125 -126.788281 L 236.402344 -127.897656 L 236.472656 -129.057813 L 237.332031 -695.632031 " transform="matrix(1,0,0,-1,0,61.2)"/>
</g>
<path style="fill:none;stroke-width:0.99628;stroke-linecap:round;stroke-linejoin:round;stroke:rgb(48.13385%,15.52124%,58.686829%);stroke-opacity:1;stroke-miterlimit:10;" d="M 222.695312 -108.784375 L 226.183594 -105.296094 M 226.183594 -108.784375 L 222.695312 -105.296094 " transform="matrix(1,0,0,-1,0,61.2)"/>
<path style="fill:none;stroke-width:0.99628;stroke-linecap:round;stroke-linejoin:round;stroke:rgb(7.849121%,60.745239%,87.768555%);stroke-opacity:1;stroke-miterlimit:10;" d="M 339.425781 -99.3625 L 295.21875 -99.3625 " transform="matrix(1,0,0,-1,0,61.2)"/>
<path style="fill:none;stroke-width:0.99628;stroke-linecap:round;stroke-linejoin:round;stroke:rgb(7.849121%,60.745239%,87.768555%);stroke-opacity:1;stroke-miterlimit:10;" d="M 297.683594 -99.3625 C 297.683594 -97.999219 296.582031 -96.89375 295.21875 -96.89375 C 293.855469 -96.89375 292.753906 -97.999219 292.753906 -99.3625 C 292.753906 -100.721875 293.855469 -101.827344 295.21875 -101.827344 C 296.582031 -101.827344 297.683594 -100.721875 297.683594 -99.3625 Z M 297.683594 -99.3625 " transform="matrix(1,0,0,-1,0,61.2)"/>
<path style="fill:none;stroke-width:0.99628;stroke-linecap:round;stroke-linejoin:round;stroke:rgb(7.849121%,60.745239%,87.768555%);stroke-opacity:1;stroke-miterlimit:10;" d="M 337.679688 -101.104688 L 341.167969 -97.616406 M 341.167969 -101.104688 L 337.679688 -97.616406 " transform="matrix(1,0,0,-1,0,61.2)"/>
<g clip-path="url(#clip23)" clip-rule="nonzero">
<path style="fill:none;stroke-width:0.99628;stroke-linecap:round;stroke-linejoin:round;stroke:rgb(95.326233%,39.237976%,12.364197%);stroke-opacity:1;stroke-miterlimit:10;" d="M 317.320312 -91.682813 L 319.304688 -91.495313 L 319.519531 -91.471875 L 319.761719 -91.444531 L 320.03125 -91.409375 L 320.328125 -91.370313 L 320.65625 -91.323438 L 321.015625 -91.26875 L 321.410156 -91.20625 L 321.839844 -91.132031 L 322.304688 -91.046094 L 322.804688 -90.940625 L 323.339844 -90.819531 L 323.898438 -90.682813 L 324.480469 -90.51875 L 325.074219 -90.339063 L 325.679688 -90.132031 L 326.285156 -89.901563 L 326.886719 -89.647656 L 327.480469 -89.366406 L 328.0625 -89.065625 L 328.625 -88.7375 L 329.175781 -88.385938 L 329.707031 -88.010938 L 330.21875 -87.608594 L 330.710938 -87.186719 L 331.1875 -86.733594 L 331.648438 -86.253125 L 332.085938 -85.745313 L 332.511719 -85.210156 L 332.917969 -84.64375 L 333.308594 -84.042188 L 333.683594 -83.409375 L 334.042969 -82.741406 L 334.386719 -82.038281 L 334.714844 -81.292188 L 335.027344 -80.503125 L 335.324219 -79.675 L 335.605469 -78.796094 L 335.875 -77.870313 L 336.128906 -76.89375 L 336.371094 -75.8625 L 336.597656 -74.776563 L 336.8125 -73.628125 L 337.011719 -72.417188 L 337.199219 -71.135938 L 337.378906 -69.788281 L 337.542969 -68.366406 L 337.695312 -66.8625 L 337.839844 -65.280469 L 337.972656 -63.608594 L 339.417969 615.809375 " transform="matrix(1,0,0,-1,0,61.2)"/>
</g>
<path style="fill:none;stroke-width:0.99628;stroke-linecap:round;stroke-linejoin:round;stroke:rgb(95.326233%,39.237976%,12.364197%);stroke-opacity:1;stroke-miterlimit:10;" d="M 315.578125 -93.425 L 319.066406 -89.936719 M 319.066406 -93.425 L 315.578125 -89.936719 " transform="matrix(1,0,0,-1,0,61.2)"/>
<g clip-path="url(#clip24)" clip-rule="nonzero">
<path style="fill:none;stroke-width:0.99628;stroke-linecap:round;stroke-linejoin:round;stroke:rgb(48.13385%,15.52124%,58.686829%);stroke-opacity:1;stroke-miterlimit:10;" d="M 317.320312 -107.042188 L 319.304688 -107.225781 L 319.519531 -107.249219 L 319.761719 -107.280469 L 320.03125 -107.311719 L 320.328125 -107.350781 L 320.65625 -107.397656 L 321.015625 -107.452344 L 321.410156 -107.514844 L 321.839844 -107.589063 L 322.304688 -107.678906 L 322.804688 -107.780469 L 323.339844 -107.901563 L 323.898438 -108.042188 L 324.480469 -108.202344 L 325.074219 -108.385938 L 325.679688 -108.592969 L 326.285156 -108.823438 L 326.886719 -109.077344 L 327.480469 -109.354688 L 328.0625 -109.659375 L 328.625 -109.983594 L 329.175781 -110.335156 L 329.707031 -110.710156 L 330.21875 -111.1125 L 330.710938 -111.538281 L 331.1875 -111.991406 L 331.648438 -112.467969 L 332.085938 -112.975781 L 332.511719 -113.510938 L 332.917969 -114.077344 L 333.308594 -114.678906 L 333.683594 -115.311719 L 334.042969 -115.979688 L 334.386719 -116.686719 L 334.714844 -117.428906 L 335.027344 -118.217969 L 335.324219 -119.05 L 335.605469 -119.925 L 335.875 -120.850781 L 336.128906 -121.827344 L 336.371094 -122.858594 L 336.597656 -123.944531 L 336.8125 -125.092969 L 337.011719 -126.307813 L 337.199219 -127.585156 L 337.378906 -128.932813 L 337.542969 -130.358594 L 337.695312 -131.858594 L 337.839844 -133.444531 L 337.972656 -135.1125 L 339.417969 -814.530469 " transform="matrix(1,0,0,-1,0,61.2)"/>
</g>
<path style="fill:none;stroke-width:0.99628;stroke-linecap:round;stroke-linejoin:round;stroke:rgb(48.13385%,15.52124%,58.686829%);stroke-opacity:1;stroke-miterlimit:10;" d="M 315.578125 -108.784375 L 319.066406 -105.296094 M 319.066406 -108.784375 L 315.578125 -105.296094 " transform="matrix(1,0,0,-1,0,61.2)"/>
<path style="fill:none;stroke-width:0.99628;stroke-linecap:round;stroke-linejoin:round;stroke:rgb(7.849121%,60.745239%,87.768555%);stroke-opacity:1;stroke-miterlimit:10;" d="M 60.78125 -163.440625 L 53.414062 -163.440625 " transform="matrix(1,0,0,-1,0,61.2)"/>
<path style="fill:none;stroke-width:0.99628;stroke-linecap:round;stroke-linejoin:round;stroke:rgb(7.849121%,60.745239%,87.768555%);stroke-opacity:1;stroke-miterlimit:10;" d="M 55.878906 -163.440625 C 55.878906 -162.08125 54.777344 -160.975781 53.414062 -160.975781 C 52.050781 -160.975781 50.949219 -162.08125 50.949219 -163.440625 C 50.949219 -164.803906 52.050781 -165.909375 53.414062 -165.909375 C 54.777344 -165.909375 55.878906 -164.803906 55.878906 -163.440625 Z M 55.878906 -163.440625 " transform="matrix(1,0,0,-1,0,61.2)"/>
<path style="fill:none;stroke-width:0.99628;stroke-linecap:round;stroke-linejoin:round;stroke:rgb(7.849121%,60.745239%,87.768555%);stroke-opacity:1;stroke-miterlimit:10;" d="M 59.039062 -165.186719 L 62.523438 -161.698438 M 62.523438 -165.186719 L 59.039062 -161.698438 " transform="matrix(1,0,0,-1,0,61.2)"/>
<g clip-path="url(#clip25)" clip-rule="nonzero">
<path style="fill:none;stroke-width:0.99628;stroke-linecap:round;stroke-linejoin:round;stroke:rgb(95.326233%,39.237976%,12.364197%);stroke-opacity:1;stroke-miterlimit:10;" d="M 46.046875 -154.64375 L 46.664062 -153.729688 L 46.707031 -153.659375 L 46.75 -153.58125 L 46.796875 -153.499219 L 46.847656 -153.409375 L 46.898438 -153.315625 L 46.953125 -153.210156 L 47.066406 -152.983594 L 47.125 -152.858594 L 47.1875 -152.725781 L 47.253906 -152.58125 L 47.320312 -152.425 L 47.386719 -152.260938 L 47.457031 -152.085156 L 47.527344 -151.901563 L 47.597656 -151.702344 L 47.671875 -151.4875 L 47.746094 -151.264844 L 47.820312 -151.022656 L 47.894531 -150.76875 L 47.96875 -150.499219 L 48.042969 -150.214063 L 48.117188 -149.913281 L 48.1875 -149.592969 L 48.257812 -149.253125 L 48.332031 -148.897656 L 48.398438 -148.51875 L 48.464844 -148.120313 L 48.53125 -147.702344 L 48.597656 -147.260938 L 48.65625 -146.8 L 48.71875 -146.311719 L 48.773438 -145.8 L 48.832031 -145.260938 L 48.882812 -144.698438 L 48.933594 -144.104688 L 48.984375 -143.483594 L 49.027344 -142.835156 L 49.074219 -142.155469 L 49.113281 -141.444531 L 49.15625 -140.698438 L 49.191406 -139.917188 L 49.226562 -139.104688 L 49.261719 -138.253125 L 49.292969 -137.366406 L 49.320312 -136.436719 L 49.347656 -135.467969 L 49.375 -134.45625 L 49.398438 -133.401563 L 49.730469 440.360156 " transform="matrix(1,0,0,-1,0,61.2)"/>
</g>
<path style="fill:none;stroke-width:0.99628;stroke-linecap:round;stroke-linejoin:round;stroke:rgb(95.326233%,39.237976%,12.364197%);stroke-opacity:1;stroke-miterlimit:10;" d="M 44.304688 -156.385938 L 47.789062 -152.901563 M 47.789062 -156.385938 L 44.304688 -152.901563 " transform="matrix(1,0,0,-1,0,61.2)"/>
<g clip-path="url(#clip26)" clip-rule="nonzero">
<path style="fill:none;stroke-width:0.99628;stroke-linecap:round;stroke-linejoin:round;stroke:rgb(48.13385%,15.52124%,58.686829%);stroke-opacity:1;stroke-miterlimit:10;" d="M 46.046875 -172.241406 L 46.664062 -173.155469 L 46.707031 -173.225781 L 46.75 -173.303906 L 46.796875 -173.385938 L 46.847656 -173.475781 L 46.898438 -173.569531 L 46.953125 -173.671094 L 47.066406 -173.897656 L 47.125 -174.026563 L 47.1875 -174.159375 L 47.253906 -174.303906 L 47.320312 -174.45625 L 47.386719 -174.620313 L 47.457031 -174.796094 L 47.527344 -174.983594 L 47.597656 -175.182813 L 47.671875 -175.39375 L 47.746094 -175.620313 L 47.820312 -175.858594 L 47.894531 -176.116406 L 47.96875 -176.385938 L 48.042969 -176.671094 L 48.117188 -176.971875 L 48.1875 -177.292188 L 48.257812 -177.632031 L 48.332031 -177.9875 L 48.398438 -178.366406 L 48.464844 -178.760938 L 48.53125 -179.182813 L 48.597656 -179.620313 L 48.65625 -180.085156 L 48.71875 -180.573438 L 48.773438 -181.085156 L 48.832031 -181.624219 L 48.882812 -182.186719 L 48.933594 -182.780469 L 48.984375 -183.397656 L 49.027344 -184.05 L 49.074219 -184.729688 L 49.113281 -185.440625 L 49.15625 -186.186719 L 49.191406 -186.964063 L 49.226562 -187.780469 L 49.261719 -188.632031 L 49.292969 -189.51875 L 49.320312 -190.448438 L 49.347656 -191.417188 L 49.375 -192.428906 L 49.398438 -193.483594 L 49.730469 -767.241406 " transform="matrix(1,0,0,-1,0,61.2)"/>
</g>
<path style="fill:none;stroke-width:0.99628;stroke-linecap:round;stroke-linejoin:round;stroke:rgb(48.13385%,15.52124%,58.686829%);stroke-opacity:1;stroke-miterlimit:10;" d="M 44.304688 -173.983594 L 47.789062 -170.495313 M 47.789062 -173.983594 L 44.304688 -170.495313 " transform="matrix(1,0,0,-1,0,61.2)"/>
<path style="fill:none;stroke-width:0.99628;stroke-linecap:round;stroke-linejoin:round;stroke:rgb(7.849121%,60.745239%,87.768555%);stroke-opacity:1;stroke-miterlimit:10;" d="M 153.664062 -163.440625 L 135.242188 -163.440625 " transform="matrix(1,0,0,-1,0,61.2)"/>
<path style="fill:none;stroke-width:0.99628;stroke-linecap:round;stroke-linejoin:round;stroke:rgb(7.849121%,60.745239%,87.768555%);stroke-opacity:1;stroke-miterlimit:10;" d="M 137.710938 -163.440625 C 137.710938 -162.08125 136.605469 -160.975781 135.242188 -160.975781 C 133.882812 -160.975781 132.777344 -162.08125 132.777344 -163.440625 C 132.777344 -164.803906 133.882812 -165.909375 135.242188 -165.909375 C 136.605469 -165.909375 137.710938 -164.803906 137.710938 -163.440625 Z M 137.710938 -163.440625 " transform="matrix(1,0,0,-1,0,61.2)"/>
<path style="fill:none;stroke-width:0.99628;stroke-linecap:round;stroke-linejoin:round;stroke:rgb(7.849121%,60.745239%,87.768555%);stroke-opacity:1;stroke-miterlimit:10;" d="M 151.917969 -165.186719 L 155.40625 -161.698438 M 155.40625 -165.186719 L 151.917969 -161.698438 " transform="matrix(1,0,0,-1,0,61.2)"/>
<g clip-path="url(#clip27)" clip-rule="nonzero">
<path style="fill:none;stroke-width:0.99628;stroke-linecap:round;stroke-linejoin:round;stroke:rgb(95.326233%,39.237976%,12.364197%);stroke-opacity:1;stroke-miterlimit:10;" d="M 138.925781 -154.64375 L 140.417969 -153.870313 L 140.523438 -153.803906 L 140.636719 -153.733594 L 140.757812 -153.659375 L 140.882812 -153.577344 L 141.015625 -153.4875 L 141.15625 -153.39375 L 141.300781 -153.292188 L 141.453125 -153.178906 L 141.609375 -153.057813 L 141.773438 -152.928906 L 141.945312 -152.792188 L 142.117188 -152.639844 L 142.296875 -152.479688 L 142.476562 -152.307813 L 142.664062 -152.124219 L 142.851562 -151.928906 L 143.042969 -151.717969 L 143.234375 -151.491406 L 143.425781 -151.253125 L 143.617188 -150.999219 L 143.808594 -150.725781 L 143.996094 -150.440625 L 144.183594 -150.135938 L 144.367188 -149.811719 L 144.550781 -149.467969 L 144.726562 -149.108594 L 144.898438 -148.725781 L 145.066406 -148.323438 L 145.230469 -147.901563 L 145.390625 -147.452344 L 145.542969 -146.983594 L 145.6875 -146.491406 L 145.832031 -145.971875 L 145.964844 -145.425 L 146.097656 -144.854688 L 146.21875 -144.253125 L 146.339844 -143.624219 L 146.449219 -142.964063 L 146.558594 -142.276563 L 146.660156 -141.553906 L 146.753906 -140.796094 L 146.84375 -140.003125 L 146.929688 -139.178906 L 147.011719 -138.311719 L 147.085938 -137.405469 L 147.160156 -136.460156 L 147.226562 -135.475781 L 147.289062 -134.444531 L 147.347656 -133.366406 L 148.136719 439.008594 " transform="matrix(1,0,0,-1,0,61.2)"/>
</g>
<path style="fill:none;stroke-width:0.99628;stroke-linecap:round;stroke-linejoin:round;stroke:rgb(95.326233%,39.237976%,12.364197%);stroke-opacity:1;stroke-miterlimit:10;" d="M 137.183594 -156.385938 L 140.671875 -152.901563 M 140.671875 -156.385938 L 137.183594 -152.901563 " transform="matrix(1,0,0,-1,0,61.2)"/>
<g clip-path="url(#clip28)" clip-rule="nonzero">
<path style="fill:none;stroke-width:0.99628;stroke-linecap:round;stroke-linejoin:round;stroke:rgb(48.13385%,15.52124%,58.686829%);stroke-opacity:1;stroke-miterlimit:10;" d="M 138.925781 -172.241406 L 140.417969 -173.014844 L 140.523438 -173.077344 L 140.636719 -173.147656 L 140.757812 -173.225781 L 140.882812 -173.307813 L 141.015625 -173.39375 L 141.15625 -173.491406 L 141.300781 -173.592969 L 141.453125 -173.70625 L 141.609375 -173.823438 L 141.773438 -173.952344 L 141.945312 -174.092969 L 142.117188 -174.241406 L 142.296875 -174.401563 L 142.476562 -174.573438 L 142.664062 -174.760938 L 142.851562 -174.95625 L 143.042969 -175.167188 L 143.234375 -175.389844 L 143.425781 -175.632031 L 143.617188 -175.885938 L 143.808594 -176.155469 L 143.996094 -176.444531 L 144.183594 -176.749219 L 144.367188 -177.073438 L 144.550781 -177.413281 L 144.726562 -177.776563 L 144.898438 -178.155469 L 145.066406 -178.557813 L 145.230469 -178.983594 L 145.390625 -179.428906 L 145.542969 -179.901563 L 145.6875 -180.39375 L 145.832031 -180.913281 L 145.964844 -181.45625 L 146.097656 -182.030469 L 146.21875 -182.628125 L 146.339844 -183.257031 L 146.449219 -183.917188 L 146.558594 -184.608594 L 146.660156 -185.33125 L 146.753906 -186.089063 L 146.84375 -186.878125 L 146.929688 -187.70625 L 147.011719 -188.573438 L 147.085938 -189.475781 L 147.160156 -190.421094 L 147.226562 -191.409375 L 147.289062 -192.440625 L 147.347656 -193.514844 L 148.136719 -765.89375 " transform="matrix(1,0,0,-1,0,61.2)"/>
</g>
<path style="fill:none;stroke-width:0.99628;stroke-linecap:round;stroke-linejoin:round;stroke:rgb(48.13385%,15.52124%,58.686829%);stroke-opacity:1;stroke-miterlimit:10;" d="M 137.183594 -173.983594 L 140.671875 -170.495313 M 140.671875 -173.983594 L 137.183594 -170.495313 " transform="matrix(1,0,0,-1,0,61.2)"/>
<path style="fill:none;stroke-width:0.99628;stroke-linecap:round;stroke-linejoin:round;stroke:rgb(7.849121%,60.745239%,87.768555%);stroke-opacity:1;stroke-miterlimit:10;" d="M 246.542969 -163.440625 L 220.757812 -163.440625 " transform="matrix(1,0,0,-1,0,61.2)"/>
<path style="fill:none;stroke-width:0.99628;stroke-linecap:round;stroke-linejoin:round;stroke:rgb(7.849121%,60.745239%,87.768555%);stroke-opacity:1;stroke-miterlimit:10;" d="M 223.222656 -163.440625 C 223.222656 -162.08125 222.117188 -160.975781 220.757812 -160.975781 C 219.394531 -160.975781 218.292969 -162.08125 218.292969 -163.440625 C 218.292969 -164.803906 219.394531 -165.909375 220.757812 -165.909375 C 222.117188 -165.909375 223.222656 -164.803906 223.222656 -163.440625 Z M 223.222656 -163.440625 " transform="matrix(1,0,0,-1,0,61.2)"/>
<path style="fill:none;stroke-width:0.99628;stroke-linecap:round;stroke-linejoin:round;stroke:rgb(7.849121%,60.745239%,87.768555%);stroke-opacity:1;stroke-miterlimit:10;" d="M 244.800781 -165.186719 L 248.285156 -161.698438 M 248.285156 -165.186719 L 244.800781 -161.698438 " transform="matrix(1,0,0,-1,0,61.2)"/>
<g clip-path="url(#clip29)" clip-rule="nonzero">
<path style="fill:none;stroke-width:0.99628;stroke-linecap:round;stroke-linejoin:round;stroke:rgb(95.326233%,39.237976%,12.364197%);stroke-opacity:1;stroke-miterlimit:10;" d="M 231.808594 -154.64375 L 233.445312 -154.100781 L 233.578125 -154.05 L 233.722656 -153.995313 L 233.875 -153.936719 L 234.035156 -153.870313 L 234.210938 -153.796094 L 234.394531 -153.717969 L 234.585938 -153.628125 L 234.792969 -153.534375 L 235.007812 -153.432813 L 235.234375 -153.319531 L 235.46875 -153.194531 L 235.710938 -153.061719 L 235.964844 -152.917188 L 236.226562 -152.757031 L 236.492188 -152.589063 L 236.765625 -152.405469 L 237.042969 -152.20625 L 237.320312 -151.991406 L 237.605469 -151.760938 L 237.886719 -151.514844 L 238.167969 -151.253125 L 238.449219 -150.971875 L 238.730469 -150.671094 L 239.003906 -150.350781 L 239.273438 -150.010938 L 239.539062 -149.651563 L 239.800781 -149.272656 L 240.050781 -148.866406 L 240.296875 -148.440625 L 240.539062 -147.9875 L 240.769531 -147.510938 L 240.992188 -147.010938 L 241.207031 -146.479688 L 241.410156 -145.921094 L 241.609375 -145.335156 L 241.796875 -144.717969 L 241.980469 -144.065625 L 242.152344 -143.385938 L 242.316406 -142.667188 L 242.472656 -141.913281 L 242.617188 -141.124219 L 242.757812 -140.296094 L 242.890625 -139.425 L 243.015625 -138.514844 L 243.132812 -137.557813 L 243.242188 -136.553906 L 243.34375 -135.503125 L 243.441406 -134.405469 L 243.535156 -133.253125 L 244.699219 440.629687 " transform="matrix(1,0,0,-1,0,61.2)"/>
</g>
<path style="fill:none;stroke-width:0.99628;stroke-linecap:round;stroke-linejoin:round;stroke:rgb(95.326233%,39.237976%,12.364197%);stroke-opacity:1;stroke-miterlimit:10;" d="M 230.066406 -156.385938 L 233.550781 -152.901563 M 233.550781 -156.385938 L 230.066406 -152.901563 " transform="matrix(1,0,0,-1,0,61.2)"/>
<g clip-path="url(#clip30)" clip-rule="nonzero">
<path style="fill:none;stroke-width:0.99628;stroke-linecap:round;stroke-linejoin:round;stroke:rgb(48.13385%,15.52124%,58.686829%);stroke-opacity:1;stroke-miterlimit:10;" d="M 231.808594 -172.241406 L 233.445312 -172.780469 L 233.578125 -172.83125 L 233.722656 -172.889844 L 233.875 -172.948438 L 234.035156 -173.014844 L 234.210938 -173.089063 L 234.394531 -173.167188 L 234.585938 -173.253125 L 234.792969 -173.346875 L 235.007812 -173.452344 L 235.234375 -173.565625 L 235.46875 -173.686719 L 235.710938 -173.823438 L 235.964844 -173.967969 L 236.226562 -174.124219 L 236.492188 -174.296094 L 236.765625 -174.479688 L 237.042969 -174.678906 L 237.320312 -174.89375 L 237.605469 -175.120313 L 237.886719 -175.366406 L 238.167969 -175.632031 L 238.449219 -175.913281 L 238.730469 -176.214063 L 239.003906 -176.530469 L 239.273438 -176.870313 L 239.539062 -177.229688 L 239.800781 -177.6125 L 240.050781 -178.01875 L 240.296875 -178.444531 L 240.539062 -178.897656 L 240.769531 -179.370313 L 240.992188 -179.874219 L 241.207031 -180.405469 L 241.410156 -180.964063 L 241.609375 -181.55 L 241.796875 -182.167188 L 241.980469 -182.815625 L 242.152344 -183.499219 L 242.316406 -184.217969 L 242.472656 -184.967969 L 242.617188 -185.760938 L 242.757812 -186.589063 L 242.890625 -187.460156 L 243.015625 -188.370313 L 243.132812 -189.327344 L 243.242188 -190.33125 L 243.34375 -191.378125 L 243.441406 -192.479688 L 243.535156 -193.632031 L 244.699219 -767.510937 " transform="matrix(1,0,0,-1,0,61.2)"/>
</g>
<path style="fill:none;stroke-width:0.99628;stroke-linecap:round;stroke-linejoin:round;stroke:rgb(48.13385%,15.52124%,58.686829%);stroke-opacity:1;stroke-miterlimit:10;" d="M 230.066406 -173.983594 L 233.550781 -170.495313 M 233.550781 -173.983594 L 230.066406 -170.495313 " transform="matrix(1,0,0,-1,0,61.2)"/>
<path style="fill:none;stroke-width:0.99628;stroke-linecap:round;stroke-linejoin:round;stroke:rgb(7.849121%,60.745239%,87.768555%);stroke-opacity:1;stroke-miterlimit:10;" d="M 339.425781 -163.440625 L 295.21875 -163.440625 " transform="matrix(1,0,0,-1,0,61.2)"/>
<path style="fill:none;stroke-width:0.99628;stroke-linecap:round;stroke-linejoin:round;stroke:rgb(7.849121%,60.745239%,87.768555%);stroke-opacity:1;stroke-miterlimit:10;" d="M 297.683594 -163.440625 C 297.683594 -162.08125 296.582031 -160.975781 295.21875 -160.975781 C 293.855469 -160.975781 292.753906 -162.08125 292.753906 -163.440625 C 292.753906 -164.803906 293.855469 -165.909375 295.21875 -165.909375 C 296.582031 -165.909375 297.683594 -164.803906 297.683594 -163.440625 Z M 297.683594 -163.440625 " transform="matrix(1,0,0,-1,0,61.2)"/>
<path style="fill:none;stroke-width:0.99628;stroke-linecap:round;stroke-linejoin:round;stroke:rgb(7.849121%,60.745239%,87.768555%);stroke-opacity:1;stroke-miterlimit:10;" d="M 337.679688 -165.186719 L 341.167969 -161.698438 M 341.167969 -165.186719 L 337.679688 -161.698438 " transform="matrix(1,0,0,-1,0,61.2)"/>
<g clip-path="url(#clip31)" clip-rule="nonzero">
<path style="fill:none;stroke-width:0.99628;stroke-linecap:round;stroke-linejoin:round;stroke:rgb(95.326233%,39.237976%,12.364197%);stroke-opacity:1;stroke-miterlimit:10;" d="M 324.6875 -154.64375 L 326.515625 -154.378125 L 326.707031 -154.342969 L 326.917969 -154.307813 L 327.148438 -154.264844 L 327.402344 -154.214063 L 327.679688 -154.159375 L 327.976562 -154.096875 L 328.300781 -154.022656 L 328.652344 -153.940625 L 329.023438 -153.846875 L 329.421875 -153.741406 L 329.84375 -153.620313 L 330.289062 -153.483594 L 330.75 -153.33125 L 331.230469 -153.163281 L 331.722656 -152.975781 L 332.226562 -152.764844 L 332.738281 -152.538281 L 333.253906 -152.284375 L 333.769531 -152.014844 L 334.289062 -151.717969 L 334.800781 -151.397656 L 335.3125 -151.053906 L 335.8125 -150.686719 L 336.308594 -150.292188 L 336.796875 -149.870313 L 337.273438 -149.421094 L 337.738281 -148.940625 L 338.195312 -148.432813 L 338.640625 -147.89375 L 339.070312 -147.319531 L 339.492188 -146.710156 L 339.902344 -146.065625 L 340.296875 -145.382031 L 340.679688 -144.659375 L 341.046875 -143.89375 L 341.402344 -143.085156 L 341.742188 -142.225781 L 342.070312 -141.319531 L 342.382812 -140.358594 L 342.683594 -139.346875 L 342.964844 -138.272656 L 343.238281 -137.139844 L 343.496094 -135.944531 L 343.738281 -134.678906 L 343.96875 -133.342969 L 344.183594 -131.928906 L 344.386719 -130.436719 L 344.578125 -128.8625 L 344.753906 -127.198438 L 346.785156 562.086719 " transform="matrix(1,0,0,-1,0,61.2)"/>
</g>
<path style="fill:none;stroke-width:0.99628;stroke-linecap:round;stroke-linejoin:round;stroke:rgb(95.326233%,39.237976%,12.364197%);stroke-opacity:1;stroke-miterlimit:10;" d="M 322.945312 -156.385938 L 326.433594 -152.901563 M 326.433594 -156.385938 L 322.945312 -152.901563 " transform="matrix(1,0,0,-1,0,61.2)"/>
<g clip-path="url(#clip32)" clip-rule="nonzero">
<path style="fill:none;stroke-width:0.99628;stroke-linecap:round;stroke-linejoin:round;stroke:rgb(48.13385%,15.52124%,58.686829%);stroke-opacity:1;stroke-miterlimit:10;" d="M 324.6875 -172.241406 L 326.515625 -172.507031 L 326.707031 -172.538281 L 326.917969 -172.577344 L 327.148438 -172.620313 L 327.402344 -172.671094 L 327.679688 -172.725781 L 327.976562 -172.788281 L 328.300781 -172.8625 L 328.652344 -172.944531 L 329.023438 -173.038281 L 329.421875 -173.14375 L 329.84375 -173.264844 L 330.289062 -173.397656 L 330.75 -173.55 L 331.230469 -173.721875 L 331.722656 -173.909375 L 332.226562 -174.116406 L 332.738281 -174.346875 L 333.253906 -174.596875 L 333.769531 -174.870313 L 334.289062 -175.167188 L 334.800781 -175.483594 L 335.3125 -175.827344 L 335.8125 -176.198438 L 336.308594 -176.592969 L 336.796875 -177.014844 L 337.273438 -177.464063 L 337.738281 -177.940625 L 338.195312 -178.452344 L 338.640625 -178.991406 L 339.070312 -179.565625 L 339.492188 -180.175 L 339.902344 -180.819531 L 340.296875 -181.499219 L 340.679688 -182.225781 L 341.046875 -182.991406 L 341.402344 -183.8 L 341.742188 -184.659375 L 342.070312 -185.565625 L 342.382812 -186.522656 L 342.683594 -187.538281 L 342.964844 -188.608594 L 343.238281 -189.741406 L 343.496094 -190.940625 L 343.738281 -192.20625 L 343.96875 -193.542188 L 344.183594 -194.95625 L 344.386719 -196.448438 L 344.578125 -198.022656 L 344.753906 -199.686719 L 346.785156 -888.971875 " transform="matrix(1,0,0,-1,0,61.2)"/>
</g>
<path style="fill:none;stroke-width:0.99628;stroke-linecap:round;stroke-linejoin:round;stroke:rgb(48.13385%,15.52124%,58.686829%);stroke-opacity:1;stroke-miterlimit:10;" d="M 322.945312 -173.983594 L 326.433594 -170.495313 M 326.433594 -173.983594 L 322.945312 -170.495313 " transform="matrix(1,0,0,-1,0,61.2)"/>
</g>
</svg>
