<?xml version="1.0" encoding="UTF-8"?>
<svg xmlns="http://www.w3.org/2000/svg" xmlns:xlink="http://www.w3.org/1999/xlink" width="44.917pt" height="21.78pt" viewBox="0 0 44.917 21.78" version="1.1">
<defs>
<clipPath id="clip1">
  <path d="M 27 18 L 31 18 L 31 21.78125 L 27 21.78125 Z M 27 18 "/>
</clipPath>
<clipPath id="clip2">
  <path d="M 26 17 L 31 17 L 31 21.78125 L 26 21.78125 Z M 26 17 "/>
</clipPath>
<clipPath id="clip3">
  <path d="M 29 1 L 44.917969 1 L 44.917969 3 L 29 3 Z M 29 1 "/>
</clipPath>
<clipPath id="clip4">
  <path d="M 29 19 L 44.917969 19 L 44.917969 21 L 29 21 Z M 29 19 "/>
</clipPath>
</defs>
<g id="surface1">
<path style="fill:none;stroke-width:2.3807;stroke-linecap:round;stroke-linejoin:round;stroke:rgb(13.729858%,12.159729%,12.548828%);stroke-opacity:1;stroke-miterlimit:10;" d="M -6.326187 -0.000625 L 6.326156 7.143906 " transform="matrix(1,0,0,-1,22.459,10.89)"/>
<path style="fill-rule:nonzero;fill:rgb(100%,100%,100%);fill-opacity:1;stroke-width:0.74721;stroke-linecap:butt;stroke-linejoin:round;stroke:rgb(13.729858%,12.159729%,12.548828%);stroke-opacity:1;stroke-miterlimit:10;" d="M 7.912094 8.929062 C 7.912094 9.804062 7.201156 10.515 6.326156 10.515 C 5.44725 10.515 4.736313 9.804062 4.736313 8.929062 C 4.736313 8.054062 5.44725 7.343125 6.326156 7.343125 C 7.201156 7.343125 7.912094 8.054062 7.912094 8.929062 Z M 7.912094 8.929062 " transform="matrix(1,0,0,-1,22.459,10.89)"/>
<g clip-path="url(#clip1)" clip-rule="nonzero">
<path style=" stroke:none;fill-rule:nonzero;fill:rgb(100%,100%,100%);fill-opacity:1;" d="M 30.371094 19.820312 C 30.371094 18.941406 29.660156 18.230469 28.785156 18.230469 C 27.90625 18.230469 27.195312 18.941406 27.195312 19.820312 C 27.195312 20.695312 27.90625 21.40625 28.785156 21.40625 C 29.660156 21.40625 30.371094 20.695312 30.371094 19.820312 Z M 30.371094 19.820312 "/>
</g>
<g clip-path="url(#clip2)" clip-rule="nonzero">
<path style="fill:none;stroke-width:0.74721;stroke-linecap:butt;stroke-linejoin:round;stroke:rgb(13.729858%,12.159729%,12.548828%);stroke-opacity:1;stroke-miterlimit:10;" d="M 7.912094 -8.930313 C 7.912094 -8.051406 7.201156 -7.340469 6.326156 -7.340469 C 5.44725 -7.340469 4.736313 -8.051406 4.736313 -8.930313 C 4.736313 -9.805313 5.44725 -10.51625 6.326156 -10.51625 C 7.201156 -10.51625 7.912094 -9.805313 7.912094 -8.930313 Z M 7.912094 -8.930313 " transform="matrix(1,0,0,-1,22.459,10.89)"/>
</g>
<path style="fill-rule:nonzero;fill:rgb(100%,100%,100%);fill-opacity:1;stroke-width:0.74721;stroke-linecap:butt;stroke-linejoin:round;stroke:rgb(13.729858%,12.159729%,12.548828%);stroke-opacity:1;stroke-miterlimit:10;" d="M -4.736344 -0.000625 C -4.736344 0.878281 -5.447281 1.585312 -6.326187 1.585312 C -7.201187 1.585312 -7.912125 0.878281 -7.912125 -0.000625 C -7.912125 -0.875625 -7.201187 -1.586563 -6.326187 -1.586563 C -5.447281 -1.586563 -4.736344 -0.875625 -4.736344 -0.000625 Z M -4.736344 -0.000625 " transform="matrix(1,0,0,-1,22.459,10.89)"/>
<path style="fill:none;stroke-width:0.74721;stroke-linecap:butt;stroke-linejoin:round;stroke:rgb(13.729858%,12.159729%,12.548828%);stroke-opacity:1;stroke-miterlimit:10;" d="M -7.912125 -0.000625 L -22.084 -0.000625 " transform="matrix(1,0,0,-1,22.459,10.89)"/>
<g clip-path="url(#clip3)" clip-rule="nonzero">
<path style="fill:none;stroke-width:0.74721;stroke-linecap:butt;stroke-linejoin:round;stroke:rgb(13.729858%,12.159729%,12.548828%);stroke-opacity:1;stroke-miterlimit:10;" d="M 7.912094 8.929062 L 22.083969 8.929062 " transform="matrix(1,0,0,-1,22.459,10.89)"/>
</g>
<g clip-path="url(#clip4)" clip-rule="nonzero">
<path style="fill:none;stroke-width:0.74721;stroke-linecap:butt;stroke-linejoin:round;stroke:rgb(13.729858%,12.159729%,12.548828%);stroke-opacity:1;stroke-miterlimit:10;" d="M 7.912094 -8.930313 L 22.083969 -8.930313 " transform="matrix(1,0,0,-1,22.459,10.89)"/>
</g>
</g>
</svg>
