<?xml version="1.0" encoding="UTF-8"?>
<svg xmlns="http://www.w3.org/2000/svg" xmlns:xlink="http://www.w3.org/1999/xlink" width="70.789pt" height="70.259pt" viewBox="0 0 70.789 70.259" version="1.1">
<defs>
<clipPath id="clip1">
  <path d="M 3.320312 31 L 67 31 L 67 39 L 3.320312 39 Z M 3.320312 31 "/>
</clipPath>
<clipPath id="clip2">
  <path d="M 3.320312 31 L 67.46875 31 L 67.46875 39 L 3.320312 39 Z M 3.320312 31 "/>
</clipPath>
<clipPath id="clip3">
  <path d="M 34 3.320312 L 37 3.320312 L 37 66.9375 L 34 66.9375 Z M 34 3.320312 "/>
</clipPath>
<clipPath id="clip4">
  <path d="M 19 3.320312 L 25 3.320312 L 25 9 L 19 9 Z M 19 3.320312 "/>
</clipPath>
</defs>
<g id="surface1">
<g clip-path="url(#clip1)" clip-rule="nonzero">
<path style=" stroke:none;fill-rule:nonzero;fill:rgb(77.56958%,77.160645%,77.262878%);fill-opacity:1;" d="M 3.820312 38.5625 L 66.96875 38.5625 L 66.96875 31.855469 L 3.820312 31.855469 Z M 3.820312 38.5625 "/>
</g>
<g clip-path="url(#clip2)" clip-rule="nonzero">
<path style="fill:none;stroke-width:0.3985;stroke-linecap:round;stroke-linejoin:round;stroke:rgb(13.729858%,12.159729%,12.548828%);stroke-opacity:1;stroke-miterlimit:10;" d="M 0.499313 35.082531 L 63.64775 35.082531 L 63.64775 28.3755 L 0.499313 28.3755 Z M 0.499313 35.082531 " transform="matrix(1,0,0,-1,3.321,66.938)"/>
</g>
<path style="fill-rule:nonzero;fill:rgb(13.729858%,12.159729%,12.548828%);fill-opacity:1;stroke-width:0.3985;stroke-linecap:round;stroke-linejoin:round;stroke:rgb(13.729858%,12.159729%,12.548828%);stroke-opacity:1;stroke-miterlimit:10;" d="M 26.343063 39.988781 L 37.804 39.988781 L 37.804 23.46925 L 26.343063 23.46925 Z M 26.343063 39.988781 " transform="matrix(1,0,0,-1,3.321,66.938)"/>
<g clip-path="url(#clip3)" clip-rule="nonzero">
<path style=" stroke:none;fill-rule:nonzero;fill:rgb(77.56958%,77.160645%,77.262878%);fill-opacity:1;" d="M 34.382812 66.4375 L 36.40625 66.4375 L 36.40625 3.980469 L 34.382812 3.980469 Z M 34.382812 66.4375 "/>
<path style="fill:none;stroke-width:0.3985;stroke-linecap:round;stroke-linejoin:round;stroke:rgb(13.729858%,12.159729%,12.548828%);stroke-opacity:1;stroke-miterlimit:10;" d="M 33.08525 0.5005 L 31.061813 0.5005 L 31.061813 62.957531 L 33.08525 62.957531 Z M 33.08525 0.5005 " transform="matrix(1,0,0,-1,3.321,66.938)"/>
</g>
<path style="fill:none;stroke-width:0.3985;stroke-linecap:round;stroke-linejoin:round;stroke:rgb(13.729858%,12.159729%,12.548828%);stroke-opacity:1;stroke-miterlimit:10;" d="M 0.000625 -0.00031875 L -3.409531 3.41765 C -3.409531 3.41765 -3.413438 3.413744 -3.413438 3.413744 C -5.284531 1.54265 -5.284531 -1.539381 -3.413438 -3.414381 Z M 0.000625 -0.00031875 " transform="matrix(1,0,0,-1,60.015,12.3239)"/>
<path style="fill:none;stroke-width:0.3985;stroke-linecap:round;stroke-linejoin:round;stroke:rgb(13.729858%,12.159729%,12.548828%);stroke-opacity:1;stroke-miterlimit:10;" d="M -0.00015625 -0.0011 L 5.800625 5.799681 " transform="matrix(1,0,0,-1,54.215,18.1239)"/>
<path style="fill:none;stroke-width:0.3985;stroke-linecap:round;stroke-linejoin:round;stroke:rgb(13.729858%,12.159729%,12.548828%);stroke-opacity:1;stroke-miterlimit:10;" d="M -0.00015625 0.0004625 L 5.800625 -5.800319 " transform="matrix(1,0,0,-1,54.215,6.5239)"/>
<path style="fill:none;stroke-width:1.5;stroke-linecap:round;stroke-linejoin:round;stroke:rgb(100%,100%,100%);stroke-opacity:1;stroke-miterlimit:10;" d="M 0.00098125 -0.00000625 C -10.397456 -1.949225 -10.170894 -15.945319 0.00098125 -17.539069 " transform="matrix(1,0,0,-1,56.8623,26.3789)"/>
<path style="fill:none;stroke-width:0.75;stroke-linecap:round;stroke-linejoin:round;stroke:rgb(7.849121%,60.745239%,87.768555%);stroke-opacity:1;stroke-miterlimit:4;" d="M 0.00098125 -0.00000625 C -10.209956 -1.914069 -10.1748 -15.441412 -0.541987 -17.437506 " transform="matrix(1,0,0,-1,56.8623,26.3789)"/>
<path style=" stroke:none;fill-rule:nonzero;fill:rgb(7.849121%,60.745239%,87.768555%);fill-opacity:1;" d="M 52.75 45.332031 C 54.234375 43.890625 56.058594 43.679688 56.058594 43.679688 C 56.058594 43.679688 54.390625 42.089844 54.171875 40.5 C 54.066406 39.761719 54.792969 39.75 54.816406 40.117188 C 54.921875 41.609375 56.261719 42.566406 56.832031 43.515625 C 56.976562 43.757812 56.863281 44.070312 56.59375 44.160156 C 55.675781 44.46875 54.054688 44.820312 53.085938 46.003906 C 52.871094 46.265625 52.199219 45.867188 52.75 45.332031 "/>
<path style="fill-rule:nonzero;fill:rgb(100%,100%,100%);fill-opacity:1;stroke-width:1;stroke-linecap:butt;stroke-linejoin:miter;stroke:rgb(13.729858%,12.159729%,12.548828%);stroke-opacity:1;stroke-miterlimit:10;" d="M 31.061813 59.059094 L 33.08525 59.059094 L 33.08525 50.090344 L 31.061813 50.090344 Z M 31.061813 59.059094 " transform="matrix(1,0,0,-1,3.321,66.938)"/>
<path style="fill:none;stroke-width:0.3985;stroke-linecap:round;stroke-linejoin:round;stroke:rgb(13.729858%,12.159729%,12.548828%);stroke-opacity:1;stroke-miterlimit:10;" d="M -0.00139375 -0.00145 L -1.325612 -1.903794 L 0.506419 -1.903794 L 0.506419 -4.677231 L 2.96345 -2.81395 L 2.96345 2.814956 C 2.96345 5.732925 0.576731 8.12355 -2.345144 8.12355 C -5.243581 8.12355 -7.614675 5.752456 -7.614675 2.854019 L -7.614675 -4.677231 L -9.044362 -4.677231 L -9.044362 -6.696762 L 4.510325 -6.696762 L 4.510325 -4.677231 L -5.833425 -4.677231 L -5.239675 -4.677231 L -5.239675 -0.00145 L -2.009206 -0.00145 L -3.337331 -1.903794 " transform="matrix(1,0,0,-1,13.3803,13.4673)"/>
<path style="fill:none;stroke-width:0.3985;stroke-linecap:round;stroke-linejoin:miter;stroke:rgb(13.729858%,12.159729%,12.548828%);stroke-opacity:1;stroke-miterlimit:10;" d="M 0.00065625 -0.00029375 L 0.00065625 -4.820606 " transform="matrix(1,0,0,-1,8.1595,21.5583)"/>
<path style="fill:none;stroke-width:0.3985;stroke-linecap:round;stroke-linejoin:miter;stroke:rgb(13.729858%,12.159729%,12.548828%);stroke-opacity:1;stroke-miterlimit:10;" d="M 0.00034375 -0.00029375 L 0.00034375 -4.820606 " transform="matrix(1,0,0,-1,13.9645,21.5583)"/>
<g clip-path="url(#clip4)" clip-rule="nonzero">
<path style="fill:none;stroke-width:0.3985;stroke-linecap:round;stroke-linejoin:round;stroke:rgb(98.016357%,71.437073%,8.958435%);stroke-opacity:1;stroke-miterlimit:10;" d="M -0.00135 0.00091875 L 4.733025 4.731388 " transform="matrix(1,0,0,-1,19.2826,8.5517)"/>
</g>
<path style="fill:none;stroke-width:0.3985;stroke-linecap:round;stroke-linejoin:round;stroke:rgb(98.016357%,71.437073%,8.958435%);stroke-opacity:1;stroke-miterlimit:10;" d="M -0.00135 -0.00038125 L 4.733025 -4.73085 " transform="matrix(1,0,0,-1,19.2826,16.1754)"/>
<path style="fill:none;stroke-width:2;stroke-linecap:round;stroke-linejoin:round;stroke:rgb(100%,100%,100%);stroke-opacity:1;stroke-miterlimit:10;" d="M 0.00144375 0.00031875 L -32.24465 0.00031875 " transform="matrix(1,0,0,-1,51.5259,12.3636)"/>
<path style="fill:none;stroke-width:1;stroke-linecap:round;stroke-linejoin:round;stroke:rgb(98.016357%,71.437073%,8.958435%);stroke-opacity:1;stroke-miterlimit:10;" d="M -0.00135 0.00031875 L 32.244744 0.00031875 " transform="matrix(1,0,0,-1,19.2826,12.3636)"/>
</g>
</svg>
