<?xml version="1.0" encoding="UTF-8"?>
<svg xmlns="http://www.w3.org/2000/svg" xmlns:xlink="http://www.w3.org/1999/xlink" width="624" height="37.940933" viewBox="0 0 624 37.940933">
<defs>
<clipPath id="clip-0">
<path clip-rule="nonzero" d="M 97.066406 19.066406 L 110 19.066406 L 110 37.945312 L 97.066406 37.945312 Z M 97.066406 19.066406 "/>
</clipPath>
<clipPath id="clip-1">
<path clip-rule="nonzero" d="M 18 19.066406 L 29 19.066406 L 29 37.945312 L 18 37.945312 Z M 18 19.066406 "/>
</clipPath>
</defs>
<path fill-rule="nonzero" fill="rgb(0%, 0%, 0%)" fill-opacity="1" d="M 17.863281 13.304688 L 17.863281 12.65625 C 18.527344 12.621094 18.929688 12.558594 19.058594 12.464844 C 19.144531 12.410156 19.199219 12.304688 19.21875 12.140625 C 19.253906 11.855469 19.28125 10.933594 19.300781 9.378906 L 19.300781 6.859375 L 19.058594 6.859375 L 17.917969 6.914062 L 17.917969 6.480469 C 18.65625 6.101562 19.042969 5.90625 19.082031 5.882812 C 19.152344 5.828125 19.191406 5.761719 19.191406 5.667969 C 19.191406 5.398438 19.199219 5.070312 19.21875 4.691406 C 19.253906 4.300781 19.285156 4.015625 19.328125 3.851562 C 19.382812 3.691406 19.46875 3.542969 19.597656 3.390625 C 19.773438 3.140625 20.179688 2.734375 20.816406 2.171875 L 21.847656 1.28125 C 22.007812 1.136719 22.199219 1.03125 22.414062 0.953125 C 22.632812 0.867188 22.875 0.820312 23.144531 0.820312 C 23.417969 0.820312 23.703125 0.875 24.011719 0.980469 C 23.917969 1.578125 23.882812 2.140625 23.90625 2.660156 L 23.550781 2.796875 C 23.390625 2.65625 23.234375 2.554688 23.09375 2.5 C 22.941406 2.429688 22.753906 2.390625 22.523438 2.390625 C 22.199219 2.390625 21.941406 2.457031 21.765625 2.578125 C 21.617188 2.675781 21.527344 2.789062 21.496094 2.933594 C 21.417969 3.167969 21.386719 3.738281 21.386719 4.636719 L 21.386719 5.804688 L 22.386719 5.804688 C 22.875 5.789062 23.289062 5.769531 23.632812 5.75 L 23.742188 5.828125 C 23.722656 5.925781 23.703125 6.019531 23.6875 6.128906 L 23.550781 6.859375 L 22.6875 6.859375 C 22.449219 6.84375 22.3125 6.832031 22.28125 6.832031 C 22.171875 6.832031 21.875 6.84375 21.386719 6.859375 L 21.386719 9.539062 C 21.386719 10.15625 21.394531 10.730469 21.414062 11.273438 C 21.425781 11.816406 21.445312 12.140625 21.46875 12.25 C 21.5 12.34375 21.546875 12.410156 21.601562 12.464844 C 21.671875 12.507812 21.773438 12.539062 21.902344 12.574219 C 21.933594 12.574219 22.3125 12.601562 23.039062 12.65625 L 23.039062 13.304688 L 20.167969 13.25 C 19.820312 13.25 19.058594 13.269531 17.863281 13.304688 Z M 17.863281 13.304688 "/>
<path fill-rule="nonzero" fill="rgb(0%, 0%, 0%)" fill-opacity="1" d="M 24.449219 6.535156 L 24.449219 5.882812 C 24.917969 5.871094 25.398438 5.816406 25.886719 5.722656 C 26.386719 5.613281 27.023438 5.421875 27.78125 5.152344 L 27.890625 5.261719 C 27.816406 6.363281 27.78125 7.394531 27.78125 8.347656 L 27.78125 9.296875 C 27.78125 10.09375 27.796875 10.625 27.835938 10.894531 C 27.890625 11.261719 28.027344 11.53125 28.242188 11.707031 C 28.457031 11.890625 28.738281 11.976562 29.082031 11.976562 C 29.496094 11.976562 29.839844 11.871094 30.109375 11.652344 C 30.382812 11.4375 30.570312 11.21875 30.679688 11.003906 C 30.746094 10.859375 30.789062 10.554688 30.789062 10.082031 L 30.789062 8.648438 L 30.761719 7.453125 C 30.761719 7.0625 30.742188 6.824219 30.707031 6.75 C 30.667969 6.695312 30.605469 6.664062 30.515625 6.640625 C 30.441406 6.609375 30.097656 6.574219 29.488281 6.535156 L 29.488281 5.882812 C 30.367188 5.777344 30.964844 5.695312 31.277344 5.640625 C 31.601562 5.574219 32.128906 5.410156 32.875 5.152344 L 33.035156 5.261719 L 32.953125 6.804688 C 32.902344 7.910156 32.875 8.523438 32.875 8.648438 L 32.875 10.378906 C 32.875 11.410156 32.902344 12.050781 32.953125 12.304688 C 32.96875 12.398438 33.015625 12.457031 33.089844 12.492188 C 33.199219 12.566406 33.535156 12.613281 34.121094 12.628906 L 34.121094 13.304688 L 32.386719 13.25 L 30.789062 13.304688 L 30.734375 13.25 L 30.789062 12.601562 C 30.789062 12.492188 30.789062 12.277344 30.789062 11.949219 C 30.570312 12.113281 30.382812 12.269531 30.21875 12.410156 L 29.269531 13.332031 C 28.871094 13.453125 28.472656 13.523438 28.078125 13.523438 C 27.320312 13.523438 26.726562 13.3125 26.292969 12.898438 C 25.859375 12.484375 25.640625 11.9375 25.640625 11.246094 C 25.640625 11.160156 25.648438 10.839844 25.667969 10.296875 C 25.683594 10.027344 25.695312 9.664062 25.695312 9.1875 L 25.667969 7.429688 C 25.667969 7.089844 25.640625 6.878906 25.589844 6.804688 C 25.546875 6.738281 25.488281 6.683594 25.398438 6.640625 C 25.304688 6.589844 24.992188 6.554688 24.449219 6.535156 Z M 24.449219 6.535156 "/>
<path fill-rule="nonzero" fill="rgb(0%, 0%, 0%)" fill-opacity="1" d="M 44.75 12.65625 L 44.75 13.304688 C 43.96875 13.269531 43.339844 13.25 42.851562 13.25 C 42.3125 13.25 41.828125 13.269531 41.417969 13.304688 L 41.253906 13.140625 C 41.269531 13.035156 41.308594 12.546875 41.363281 11.679688 L 41.417969 10.296875 L 41.417969 9.648438 C 41.417969 8.660156 41.371094 8.011719 41.28125 7.699219 C 41.207031 7.394531 41.050781 7.148438 40.820312 6.96875 C 40.585938 6.769531 40.28125 6.667969 39.898438 6.667969 C 39.5 6.667969 39.167969 6.769531 38.898438 6.96875 C 38.640625 7.148438 38.476562 7.339844 38.410156 7.535156 C 38.371094 7.644531 38.355469 8.089844 38.355469 8.863281 L 38.355469 10.296875 C 38.355469 10.71875 38.371094 11.21875 38.410156 11.816406 C 38.410156 12.074219 38.425781 12.242188 38.464844 12.328125 C 38.5 12.382812 38.53125 12.429688 38.574219 12.464844 C 38.640625 12.507812 38.777344 12.546875 38.980469 12.601562 C 39.046875 12.601562 39.285156 12.621094 39.683594 12.65625 L 39.683594 13.304688 C 39.066406 13.292969 38.316406 13.277344 37.4375 13.277344 C 36.40625 13.277344 35.601562 13.292969 35.023438 13.304688 L 35.023438 12.65625 C 35.472656 12.65625 35.785156 12.628906 35.945312 12.574219 C 36.015625 12.539062 36.082031 12.484375 36.136719 12.410156 C 36.191406 12.304688 36.21875 12.105469 36.21875 11.816406 L 36.242188 11.058594 C 36.257812 10.894531 36.269531 10.644531 36.269531 10.296875 L 36.269531 9.1875 C 36.269531 8.6875 36.25 8.078125 36.21875 7.375 C 36.195312 7.015625 36.167969 6.804688 36.136719 6.75 C 36.09375 6.695312 36.054688 6.664062 36 6.640625 C 35.890625 6.609375 35.566406 6.582031 35.023438 6.5625 L 35.023438 5.910156 C 36.054688 5.734375 36.730469 5.605469 37.054688 5.53125 C 37.382812 5.445312 37.742188 5.308594 38.140625 5.125 L 38.355469 5.234375 L 38.355469 6.589844 L 39.898438 5.34375 C 40.078125 5.273438 40.230469 5.226562 40.359375 5.207031 C 40.484375 5.171875 40.664062 5.152344 40.902344 5.152344 C 41.5 5.152344 41.945312 5.226562 42.257812 5.371094 C 42.5625 5.5 42.8125 5.6875 43.015625 5.9375 C 43.230469 6.175781 43.375 6.425781 43.449219 6.695312 C 43.535156 6.96875 43.582031 7.386719 43.582031 7.941406 C 43.582031 8.59375 43.570312 9.011719 43.554688 9.1875 C 43.554688 9.242188 43.554688 9.324219 43.554688 9.433594 L 43.554688 10.296875 C 43.570312 11.238281 43.589844 11.828125 43.609375 12.058594 C 43.625 12.277344 43.671875 12.425781 43.746094 12.492188 C 43.835938 12.566406 44.003906 12.601562 44.261719 12.601562 C 44.347656 12.621094 44.511719 12.640625 44.75 12.65625 Z M 44.75 12.65625 "/>
<path fill-rule="nonzero" fill="rgb(0%, 0%, 0%)" fill-opacity="1" d="M 52.34375 12.195312 L 51.992188 13.007812 C 51.503906 13.242188 51.105469 13.394531 50.800781 13.46875 C 50.488281 13.554688 50.128906 13.601562 49.714844 13.601562 C 48.796875 13.601562 48.042969 13.421875 47.46875 13.0625 C 46.886719 12.703125 46.453125 12.1875 46.167969 11.515625 C 45.953125 11.050781 45.84375 10.421875 45.84375 9.621094 C 45.84375 9.027344 45.898438 8.550781 46.007812 8.1875 C 46.113281 7.808594 46.277344 7.476562 46.492188 7.183594 C 46.636719 6.988281 46.824219 6.804688 47.0625 6.640625 L 48.363281 5.828125 C 48.796875 5.546875 49.09375 5.371094 49.257812 5.316406 C 49.527344 5.207031 49.878906 5.152344 50.3125 5.152344 C 50.671875 5.152344 51.003906 5.195312 51.316406 5.261719 C 51.640625 5.316406 51.925781 5.398438 52.179688 5.503906 L 52.261719 5.667969 L 52.074219 7.046875 C 52.050781 7.15625 52.027344 7.550781 51.992188 8.214844 L 51.316406 8.214844 C 51.273438 7.710938 51.238281 7.332031 51.207031 7.074219 C 51.078125 6.898438 50.886719 6.742188 50.636719 6.617188 C 50.402344 6.492188 50.101562 6.425781 49.742188 6.425781 C 49.308594 6.425781 48.964844 6.507812 48.714844 6.667969 C 48.457031 6.832031 48.269531 7.101562 48.144531 7.480469 C 48.039062 7.847656 47.984375 8.289062 47.984375 8.808594 C 47.984375 9.535156 48.097656 10.175781 48.335938 10.730469 C 48.585938 11.292969 48.910156 11.699219 49.308594 11.949219 C 49.703125 12.207031 50.191406 12.328125 50.773438 12.328125 C 51.023438 12.328125 51.265625 12.304688 51.503906 12.25 C 51.734375 12.195312 51.964844 12.113281 52.179688 12.003906 Z M 52.34375 12.195312 "/>
<path fill-rule="nonzero" fill="rgb(0%, 0%, 0%)" fill-opacity="1" d="M 53.128906 6.886719 L 53.128906 6.507812 L 53.886719 6.019531 C 54.007812 5.953125 54.128906 5.871094 54.238281 5.777344 L 54.238281 4.636719 C 54.238281 4.246094 54.21875 3.746094 54.183594 3.148438 C 54.726562 2.972656 55.078125 2.84375 55.242188 2.769531 C 55.273438 2.769531 55.632812 2.605469 56.324219 2.28125 L 56.539062 2.445312 L 56.460938 3.3125 L 56.40625 4.285156 L 56.324219 5.777344 L 56.59375 5.777344 C 57.332031 5.777344 57.902344 5.75 58.300781 5.695312 L 58.140625 6.832031 C 58.085938 6.832031 58.03125 6.832031 57.976562 6.832031 L 56.324219 6.832031 L 56.324219 9.648438 C 56.324219 10.515625 56.332031 11.023438 56.351562 11.164062 C 56.363281 11.4375 56.460938 11.652344 56.621094 11.816406 C 56.785156 11.964844 57.027344 12.03125 57.351562 12.03125 C 57.53125 12.03125 57.679688 12.023438 57.785156 12.003906 C 57.910156 11.992188 58.0625 11.964844 58.246094 11.921875 L 58.382812 12.277344 L 58.085938 12.574219 C 57.828125 12.832031 57.609375 13.054688 57.433594 13.25 C 57.21875 13.339844 57.015625 13.398438 56.839844 13.441406 C 56.675781 13.472656 56.5 13.496094 56.324219 13.496094 C 55.675781 13.496094 55.160156 13.320312 54.78125 12.980469 C 54.402344 12.640625 54.210938 12.222656 54.210938 11.734375 L 54.238281 8.945312 L 54.238281 6.859375 L 54.023438 6.859375 C 53.710938 6.859375 53.414062 6.871094 53.128906 6.886719 Z M 53.128906 6.886719 "/>
<path fill-rule="nonzero" fill="rgb(0%, 0%, 0%)" fill-opacity="1" d="M 61.398438 1.089844 C 61.757812 1.089844 62.0625 1.21875 62.320312 1.46875 C 62.570312 1.726562 62.699219 2.03125 62.699219 2.390625 C 62.699219 2.757812 62.570312 3.0625 62.320312 3.3125 C 62.0625 3.570312 61.757812 3.691406 61.398438 3.691406 C 61.03125 3.691406 60.726562 3.570312 60.476562 3.3125 C 60.21875 3.0625 60.097656 2.757812 60.097656 2.390625 C 60.097656 2.03125 60.21875 1.726562 60.476562 1.46875 C 60.726562 1.21875 61.03125 1.089844 61.398438 1.089844 Z M 59.070312 13.304688 L 59.070312 12.683594 C 59.699219 12.628906 60.058594 12.585938 60.152344 12.546875 C 60.238281 12.492188 60.300781 12.382812 60.339844 12.222656 C 60.394531 11.917969 60.421875 11.125 60.421875 9.839844 C 60.421875 8.089844 60.394531 7.089844 60.339844 6.832031 C 60.320312 6.722656 60.289062 6.65625 60.234375 6.617188 C 60.125 6.546875 59.730469 6.507812 59.070312 6.507812 L 59.070312 5.855469 C 59.933594 5.769531 60.585938 5.679688 61.019531 5.585938 C 61.453125 5.476562 61.917969 5.328125 62.425781 5.125 L 62.617188 5.234375 C 62.5625 6.101562 62.535156 6.925781 62.535156 7.699219 L 62.535156 10.570312 C 62.535156 11.542969 62.546875 12.125 62.589844 12.304688 C 62.601562 12.410156 62.648438 12.480469 62.726562 12.492188 C 62.867188 12.566406 63.238281 12.621094 63.835938 12.65625 L 63.835938 13.304688 C 63.035156 13.292969 62.167969 13.277344 61.234375 13.277344 C 60.421875 13.277344 59.699219 13.292969 59.070312 13.304688 Z M 59.070312 13.304688 "/>
<path fill-rule="nonzero" fill="rgb(0%, 0%, 0%)" fill-opacity="1" d="M 64.980469 9.324219 C 64.980469 8.367188 65.144531 7.582031 65.46875 6.96875 C 65.792969 6.335938 66.28125 5.855469 66.929688 5.53125 C 67.582031 5.207031 68.339844 5.042969 69.207031 5.042969 C 70.507812 5.042969 71.488281 5.390625 72.160156 6.074219 C 72.84375 6.765625 73.1875 7.765625 73.1875 9.078125 C 73.1875 9.839844 73.085938 10.5 72.890625 11.058594 C 72.6875 11.597656 72.429688 12.046875 72.105469 12.382812 C 71.777344 12.730469 71.425781 12.992188 71.046875 13.167969 C 70.433594 13.453125 69.734375 13.601562 68.960938 13.601562 C 67.675781 13.601562 66.695312 13.242188 66.011719 12.519531 C 65.320312 11.800781 64.980469 10.730469 64.980469 9.324219 Z M 67.308594 8.917969 C 67.308594 10.421875 67.527344 11.484375 67.960938 12.113281 C 68.265625 12.53125 68.679688 12.734375 69.207031 12.734375 C 69.671875 12.734375 70.046875 12.585938 70.316406 12.277344 C 70.675781 11.84375 70.859375 11.015625 70.859375 9.785156 C 70.859375 8.917969 70.785156 8.179688 70.640625 7.5625 C 70.492188 6.953125 70.277344 6.527344 69.992188 6.289062 C 69.722656 6.039062 69.382812 5.910156 68.988281 5.910156 C 68.664062 5.910156 68.375 6.007812 68.121094 6.183594 C 67.867188 6.363281 67.667969 6.664062 67.527344 7.074219 C 67.378906 7.496094 67.308594 8.105469 67.308594 8.917969 Z M 67.308594 8.917969 "/>
<path fill-rule="nonzero" fill="rgb(0%, 0%, 0%)" fill-opacity="1" d="M 84.066406 12.65625 L 84.066406 13.304688 C 83.285156 13.269531 82.65625 13.25 82.167969 13.25 C 81.628906 13.25 81.148438 13.269531 80.734375 13.304688 L 80.570312 13.140625 C 80.585938 13.035156 80.625 12.546875 80.679688 11.679688 L 80.734375 10.296875 L 80.734375 9.648438 C 80.734375 8.660156 80.6875 8.011719 80.597656 7.699219 C 80.523438 7.394531 80.367188 7.148438 80.136719 6.96875 C 79.902344 6.769531 79.597656 6.667969 79.21875 6.667969 C 78.816406 6.667969 78.484375 6.769531 78.214844 6.96875 C 77.957031 7.148438 77.796875 7.339844 77.726562 7.535156 C 77.6875 7.644531 77.671875 8.089844 77.671875 8.863281 L 77.671875 10.296875 C 77.671875 10.71875 77.6875 11.21875 77.726562 11.816406 C 77.726562 12.074219 77.742188 12.242188 77.78125 12.328125 C 77.816406 12.382812 77.851562 12.429688 77.890625 12.464844 C 77.957031 12.507812 78.09375 12.546875 78.296875 12.601562 C 78.363281 12.601562 78.601562 12.621094 79 12.65625 L 79 13.304688 C 78.382812 13.292969 77.632812 13.277344 76.753906 13.277344 C 75.722656 13.277344 74.917969 13.292969 74.34375 13.304688 L 74.34375 12.65625 C 74.789062 12.65625 75.101562 12.628906 75.261719 12.574219 C 75.332031 12.539062 75.398438 12.484375 75.453125 12.410156 C 75.507812 12.304688 75.535156 12.105469 75.535156 11.816406 L 75.5625 11.058594 C 75.574219 10.894531 75.589844 10.644531 75.589844 10.296875 L 75.589844 9.1875 C 75.589844 8.6875 75.566406 8.078125 75.535156 7.375 C 75.515625 7.015625 75.488281 6.804688 75.453125 6.75 C 75.414062 6.695312 75.371094 6.664062 75.316406 6.640625 C 75.210938 6.609375 74.882812 6.582031 74.34375 6.5625 L 74.34375 5.910156 C 75.371094 5.734375 76.046875 5.605469 76.375 5.53125 C 76.699219 5.445312 77.058594 5.308594 77.457031 5.125 L 77.671875 5.234375 L 77.671875 6.589844 L 79.21875 5.34375 C 79.394531 5.273438 79.550781 5.226562 79.679688 5.207031 C 79.800781 5.171875 79.984375 5.152344 80.21875 5.152344 C 80.816406 5.152344 81.261719 5.226562 81.574219 5.371094 C 81.878906 5.5 82.128906 5.6875 82.332031 5.9375 C 82.546875 6.175781 82.691406 6.425781 82.765625 6.695312 C 82.851562 6.96875 82.902344 7.386719 82.902344 7.941406 C 82.902344 8.59375 82.886719 9.011719 82.875 9.1875 C 82.875 9.242188 82.875 9.324219 82.875 9.433594 L 82.875 10.296875 C 82.886719 11.238281 82.90625 11.828125 82.929688 12.058594 C 82.941406 12.277344 82.988281 12.425781 83.0625 12.492188 C 83.152344 12.566406 83.320312 12.601562 83.578125 12.601562 C 83.664062 12.621094 83.828125 12.640625 84.066406 12.65625 Z M 84.066406 12.65625 "/>
<path fill-rule="nonzero" fill="rgb(0%, 0%, 0%)" fill-opacity="1" d="M 89.507812 10.757812 L 90.019531 10.757812 C 90.019531 11.085938 90.027344 11.347656 90.046875 11.542969 C 90.082031 11.726562 90.136719 11.910156 90.210938 12.085938 C 90.277344 12.269531 90.378906 12.425781 90.507812 12.546875 C 90.648438 12.675781 90.804688 12.777344 90.96875 12.84375 C 91.144531 12.917969 91.320312 12.972656 91.484375 13.007812 C 91.660156 13.027344 91.921875 13.035156 92.269531 13.035156 C 92.84375 13.035156 93.3125 12.886719 93.675781 12.574219 C 94.035156 12.269531 94.21875 11.855469 94.21875 11.328125 C 94.21875 11.097656 94.164062 10.886719 94.054688 10.703125 C 93.949219 10.527344 93.785156 10.394531 93.570312 10.296875 C 93.351562 10.191406 92.878906 10.054688 92.160156 9.890625 C 91.457031 9.714844 90.996094 9.585938 90.777344 9.511719 C 90.46875 9.40625 90.21875 9.269531 90.019531 9.105469 C 89.835938 8.929688 89.695312 8.714844 89.585938 8.457031 C 89.480469 8.207031 89.425781 7.929688 89.425781 7.617188 C 89.425781 7.171875 89.539062 6.765625 89.777344 6.398438 C 90.007812 6.019531 90.371094 5.714844 90.859375 5.476562 C 91.359375 5.246094 91.917969 5.125 92.511719 5.125 C 92.871094 5.125 93.277344 5.179688 93.730469 5.289062 C 94.199219 5.382812 94.578125 5.5 94.867188 5.640625 C 94.828125 6.257812 94.800781 6.886719 94.789062 7.535156 L 94.328125 7.535156 C 94.285156 7.125 94.253906 6.851562 94.21875 6.722656 C 94.179688 6.601562 94.125 6.492188 94.054688 6.398438 C 94 6.289062 93.894531 6.183594 93.730469 6.074219 C 93.582031 5.953125 93.390625 5.84375 93.164062 5.75 C 92.925781 5.660156 92.628906 5.613281 92.269531 5.613281 C 91.78125 5.613281 91.382812 5.769531 91.078125 6.074219 C 90.785156 6.363281 90.644531 6.695312 90.644531 7.074219 C 90.644531 7.3125 90.675781 7.507812 90.75 7.671875 C 90.839844 7.820312 90.953125 7.941406 91.105469 8.050781 C 91.265625 8.144531 91.46875 8.226562 91.726562 8.292969 L 93.136719 8.648438 C 93.839844 8.828125 94.328125 8.984375 94.597656 9.105469 C 94.867188 9.234375 95.085938 9.445312 95.246094 9.730469 C 95.410156 10 95.492188 10.324219 95.492188 10.703125 C 95.492188 11.464844 95.171875 12.125 94.542969 12.683594 C 93.90625 13.242188 93.066406 13.523438 92.023438 13.523438 C 91.539062 13.523438 90.894531 13.445312 90.101562 13.304688 C 89.648438 13.238281 89.40625 13.183594 89.371094 13.140625 C 89.351562 13.128906 89.34375 13.101562 89.34375 13.0625 C 89.34375 13.007812 89.351562 12.953125 89.371094 12.898438 C 89.40625 12.667969 89.429688 12.429688 89.453125 12.195312 C 89.464844 11.964844 89.484375 11.484375 89.507812 10.757812 Z M 89.507812 10.757812 "/>
<path fill-rule="nonzero" fill="rgb(0%, 0%, 0%)" fill-opacity="1" d="M 96.417969 6.695312 L 96.417969 6.34375 C 96.972656 6.128906 97.425781 5.929688 97.773438 5.75 C 97.773438 4.414062 97.753906 3.570312 97.71875 3.203125 C 98.292969 3.007812 98.773438 2.789062 99.152344 2.554688 L 99.34375 2.714844 C 99.289062 3.1875 99.222656 4.21875 99.152344 5.804688 C 99.601562 5.804688 99.871094 5.804688 99.964844 5.804688 C 100 5.804688 100.292969 5.804688 100.832031 5.804688 C 101.117188 5.789062 101.332031 5.769531 101.484375 5.75 L 101.535156 5.828125 L 101.375 6.617188 C 101.007812 6.601562 100.675781 6.589844 100.371094 6.589844 C 100.082031 6.589844 99.675781 6.601562 99.152344 6.617188 L 99.097656 10.027344 C 99.078125 10.882812 99.078125 11.382812 99.097656 11.542969 C 99.132812 11.707031 99.1875 11.855469 99.261719 11.976562 C 99.351562 12.085938 99.457031 12.179688 99.585938 12.25 C 99.707031 12.324219 99.925781 12.382812 100.238281 12.4375 C 100.453125 12.4375 100.628906 12.429688 100.777344 12.410156 C 100.921875 12.378906 101.105469 12.324219 101.320312 12.25 L 101.429688 12.574219 C 101.15625 12.789062 100.902344 13.007812 100.671875 13.222656 C 100.453125 13.3125 100.242188 13.367188 100.046875 13.386719 C 99.863281 13.398438 99.65625 13.414062 99.425781 13.414062 C 99.113281 13.414062 98.871094 13.371094 98.691406 13.304688 C 98.53125 13.25 98.375 13.164062 98.234375 13.035156 C 98.082031 12.914062 97.960938 12.757812 97.855469 12.574219 C 97.757812 12.398438 97.699219 12.105469 97.664062 11.707031 C 97.675781 11.328125 97.699219 10.90625 97.71875 10.433594 C 97.71875 10.347656 97.71875 10.246094 97.71875 10.136719 L 97.71875 6.640625 L 97.367188 6.640625 C 97.09375 6.640625 96.777344 6.664062 96.417969 6.695312 Z M 96.417969 6.695312 "/>
<path fill-rule="nonzero" fill="rgb(0%, 0%, 0%)" fill-opacity="1" d="M 107.414062 1.847656 L 107.414062 1.359375 C 108.023438 1.292969 108.550781 1.210938 108.984375 1.117188 C 109.417969 1.03125 109.835938 0.921875 110.257812 0.792969 L 110.367188 0.875 C 110.324219 1.347656 110.296875 2.269531 110.285156 3.636719 L 110.257812 4.992188 L 110.257812 10.273438 C 110.257812 10.832031 110.265625 11.328125 110.285156 11.761719 C 110.296875 12.179688 110.324219 12.429688 110.367188 12.519531 C 110.421875 12.59375 110.5 12.65625 110.609375 12.710938 C 110.730469 12.75 111.097656 12.789062 111.691406 12.84375 L 111.691406 13.304688 C 111.003906 13.269531 110.515625 13.25 110.230469 13.25 C 109.992188 13.25 109.5 13.269531 108.742188 13.304688 C 108.753906 12.925781 108.773438 12.40625 108.796875 11.734375 C 108.558594 11.898438 108.253906 12.140625 107.875 12.464844 C 107.496094 12.789062 107.203125 13.0625 107.007812 13.277344 C 106.554688 13.386719 106.15625 13.441406 105.816406 13.441406 C 105.164062 13.441406 104.570312 13.292969 104.027344 12.980469 C 103.5 12.65625 103.09375 12.195312 102.808594 11.597656 C 102.519531 11.003906 102.375 10.324219 102.375 9.566406 C 102.375 9.011719 102.464844 8.476562 102.648438 7.96875 C 102.824219 7.46875 103.054688 7.074219 103.324219 6.804688 C 103.464844 6.640625 103.8125 6.414062 104.351562 6.101562 C 104.894531 5.777344 105.328125 5.546875 105.652344 5.398438 C 105.992188 5.253906 106.363281 5.179688 106.765625 5.179688 C 107.101562 5.179688 107.449219 5.226562 107.792969 5.316406 C 108.132812 5.410156 108.46875 5.546875 108.796875 5.722656 L 108.796875 3.5 C 108.796875 2.707031 108.753906 2.226562 108.6875 2.066406 C 108.667969 2.011719 108.632812 1.96875 108.578125 1.929688 C 108.449219 1.875 108.0625 1.847656 107.414062 1.847656 Z M 108.796875 7.15625 C 108.414062 6.742188 108.007812 6.4375 107.578125 6.234375 C 107.15625 6.039062 106.75 5.9375 106.359375 5.9375 C 105.882812 5.9375 105.449219 6.058594 105.058594 6.289062 C 104.679688 6.527344 104.386719 6.886719 104.191406 7.375 C 103.988281 7.847656 103.894531 8.417969 103.894531 9.078125 C 103.894531 10.109375 104.144531 10.914062 104.652344 11.492188 C 105.152344 12.074219 105.769531 12.355469 106.492188 12.355469 C 106.871094 12.355469 107.203125 12.289062 107.496094 12.140625 C 107.800781 11.976562 108.0625 11.746094 108.28125 11.4375 C 108.511719 11.132812 108.660156 10.800781 108.714844 10.433594 C 108.769531 10.183594 108.796875 9.566406 108.796875 8.59375 Z M 108.796875 7.15625 "/>
<path fill-rule="nonzero" fill="rgb(0%, 0%, 0%)" fill-opacity="1" d="M 116.988281 16.175781 C 115.773438 15.160156 114.847656 13.960938 114.195312 12.574219 C 113.558594 11.164062 113.25 9.640625 113.25 7.996094 C 113.25 7.023438 113.34375 6.140625 113.546875 5.34375 C 113.761719 4.550781 114.042969 3.839844 114.386719 3.203125 C 114.746094 2.554688 115.171875 1.945312 115.660156 1.359375 C 116.148438 0.765625 116.613281 0.304688 117.066406 -0.0195312 L 117.394531 0.414062 C 116.484375 1.386719 115.808594 2.492188 115.363281 3.71875 C 114.929688 4.929688 114.710938 6.335938 114.710938 7.941406 C 114.710938 9.675781 114.914062 11.132812 115.335938 12.304688 C 115.746094 13.472656 116.429688 14.640625 117.394531 15.796875 Z M 116.988281 16.175781 "/>
<path fill-rule="nonzero" fill="rgb(0%, 0%, 0%)" fill-opacity="1" d="M 126.378906 6.667969 C 126.378906 5.695312 125.945312 4.964844 125.320312 4.964844 C 125.078125 4.964844 124.886719 5.042969 124.753906 5.179688 L 123.886719 5.992188 L 124.074219 6.316406 C 124.238281 6.210938 124.375 6.183594 124.535156 6.183594 C 124.996094 6.183594 125.265625 6.5625 125.265625 7.265625 C 125.265625 9.8125 123.613281 12.628906 122.070312 12.628906 C 121.230469 12.628906 120.691406 11.898438 120.691406 10.785156 C 120.691406 8.972656 121.367188 7.402344 123.074219 5.289062 L 122.882812 4.964844 C 122.558594 5.125 122.316406 5.179688 121.855469 5.179688 C 121.125 5.179688 120.417969 5.125 119.714844 5.070312 C 119.5 5.042969 119.363281 5.097656 119.171875 5.179688 C 118.929688 5.640625 118.738281 6.261719 118.496094 7.210938 L 118.875 7.210938 L 119.171875 6.507812 C 119.308594 6.210938 119.660156 6.019531 120.066406 6.019531 C 120.363281 6.019531 120.691406 6.046875 121.015625 6.046875 C 121.367188 6.046875 121.664062 6.019531 122.097656 5.964844 C 120.175781 8.050781 119.445312 9.484375 119.445312 11.21875 C 119.445312 12.546875 120.257812 13.496094 121.367188 13.496094 C 122.070312 13.496094 122.75 13.195312 123.535156 12.464844 C 124.347656 11.734375 125.1875 10.570312 125.699219 9.378906 C 126.078125 8.511719 126.378906 7.375 126.378906 6.667969 Z M 126.378906 6.667969 "/>
<path fill-rule="nonzero" fill="rgb(0%, 0%, 0%)" fill-opacity="1" d="M 128.996094 16.175781 L 128.671875 15.742188 C 129.570312 14.765625 130.242188 13.671875 130.675781 12.464844 C 131.109375 11.238281 131.324219 9.824219 131.324219 8.214844 C 131.324219 6.5 131.113281 5.058594 130.703125 3.878906 C 130.300781 2.6875 129.625 1.515625 128.671875 0.359375 L 129.078125 -0.0195312 C 130.269531 0.996094 131.1875 2.199219 131.839844 3.609375 C 132.488281 5.003906 132.8125 6.527344 132.8125 8.1875 C 132.8125 9.148438 132.707031 10.019531 132.488281 10.8125 C 132.285156 11.613281 132.007812 12.328125 131.648438 12.980469 C 131.285156 13.609375 130.863281 14.210938 130.375 14.792969 C 129.902344 15.390625 129.441406 15.851562 128.996094 16.175781 Z M 128.996094 16.175781 "/>
<path fill-rule="nonzero" fill="rgb(55.294118%, 54.509804%, 54.509804%)" fill-opacity="1" d="M 495.535156 8.621094 L 488.65625 5.179688 L 488.65625 12.140625 Z M 493.042969 8.621094 L 489.660156 10.246094 L 489.660156 7.023438 Z M 493.042969 8.621094 "/>
<path fill-rule="nonzero" fill="rgb(55.294118%, 54.509804%, 54.509804%)" fill-opacity="1" d="M 508.625 6.667969 C 508.625 5.695312 508.191406 4.964844 507.570312 4.964844 C 507.324219 4.964844 507.136719 5.042969 507 5.179688 L 506.132812 5.992188 L 506.324219 6.316406 C 506.484375 6.210938 506.621094 6.183594 506.785156 6.183594 C 507.246094 6.183594 507.515625 6.5625 507.515625 7.265625 C 507.515625 9.8125 505.863281 12.628906 504.320312 12.628906 C 503.480469 12.628906 502.9375 11.898438 502.9375 10.785156 C 502.9375 8.972656 503.617188 7.402344 505.320312 5.289062 L 505.132812 4.964844 C 504.808594 5.125 504.5625 5.179688 504.101562 5.179688 C 503.371094 5.179688 502.667969 5.125 501.964844 5.070312 C 501.746094 5.042969 501.609375 5.097656 501.421875 5.179688 C 501.179688 5.640625 500.988281 6.261719 500.746094 7.210938 L 501.125 7.210938 L 501.421875 6.507812 C 501.558594 6.210938 501.910156 6.019531 502.316406 6.019531 C 502.613281 6.019531 502.9375 6.046875 503.261719 6.046875 C 503.617188 6.046875 503.914062 6.019531 504.347656 5.964844 C 502.421875 8.050781 501.691406 9.484375 501.691406 11.21875 C 501.691406 12.546875 502.503906 13.496094 503.617188 13.496094 C 504.320312 13.496094 504.996094 13.195312 505.78125 12.464844 C 506.59375 11.734375 507.433594 10.570312 507.949219 9.378906 C 508.328125 8.511719 508.625 7.375 508.625 6.667969 Z M 508.625 6.667969 "/>
<path fill-rule="nonzero" fill="rgb(55.294118%, 54.509804%, 54.509804%)" fill-opacity="1" d="M 516.644531 1.414062 C 516.914062 1.414062 517.140625 1.515625 517.320312 1.714844 C 517.496094 1.894531 517.59375 2.121094 517.59375 2.390625 C 517.59375 2.648438 517.492188 2.863281 517.292969 3.039062 C 517.113281 3.222656 516.894531 3.3125 516.644531 3.3125 C 516.375 3.3125 516.144531 3.222656 515.96875 3.039062 C 515.785156 2.863281 515.695312 2.648438 515.695312 2.390625 C 515.695312 2.121094 515.785156 1.894531 515.96875 1.714844 C 516.144531 1.515625 516.375 1.414062 516.644531 1.414062 Z M 514.585938 6.371094 L 514.585938 5.882812 C 515.667969 5.761719 516.589844 5.523438 517.347656 5.179688 L 517.511719 5.316406 C 517.472656 6.507812 517.457031 7.421875 517.457031 8.050781 L 517.457031 9.59375 C 517.472656 11.058594 517.492188 11.84375 517.511719 11.949219 C 517.511719 12.242188 517.539062 12.453125 517.59375 12.574219 C 517.625 12.628906 517.660156 12.675781 517.699219 12.710938 C 517.753906 12.75 517.824219 12.777344 517.917969 12.789062 C 517.953125 12.8125 518.257812 12.816406 518.839844 12.816406 L 518.839844 13.304688 C 517.984375 13.269531 517.308594 13.25 516.808594 13.25 C 516.355469 13.25 515.617188 13.269531 514.585938 13.304688 L 514.585938 12.816406 L 515.398438 12.816406 C 515.507812 12.816406 515.589844 12.804688 515.644531 12.761719 C 515.710938 12.730469 515.765625 12.675781 515.804688 12.601562 C 515.871094 12.492188 515.921875 12.296875 515.941406 12.003906 C 515.941406 11.9375 515.949219 11.132812 515.96875 9.59375 L 515.96875 8.105469 C 515.96875 7.277344 515.941406 6.777344 515.886719 6.617188 C 515.847656 6.527344 515.785156 6.464844 515.695312 6.425781 C 515.621094 6.390625 515.25 6.371094 514.585938 6.371094 Z M 514.585938 6.371094 "/>
<path fill-rule="nonzero" fill="rgb(55.294118%, 54.509804%, 54.509804%)" fill-opacity="1" d="M 520.019531 10.757812 L 520.53125 10.757812 C 520.53125 11.085938 520.539062 11.347656 520.558594 11.542969 C 520.59375 11.726562 520.648438 11.910156 520.722656 12.085938 C 520.789062 12.269531 520.890625 12.425781 521.019531 12.546875 C 521.160156 12.675781 521.316406 12.777344 521.480469 12.84375 C 521.65625 12.917969 521.832031 12.972656 521.996094 13.007812 C 522.171875 13.027344 522.433594 13.035156 522.78125 13.035156 C 523.355469 13.035156 523.824219 12.886719 524.1875 12.574219 C 524.546875 12.269531 524.730469 11.855469 524.730469 11.328125 C 524.730469 11.097656 524.675781 10.886719 524.566406 10.703125 C 524.460938 10.527344 524.296875 10.394531 524.082031 10.296875 C 523.863281 10.191406 523.390625 10.054688 522.671875 9.890625 C 521.96875 9.714844 521.507812 9.585938 521.289062 9.511719 C 520.980469 9.40625 520.730469 9.269531 520.53125 9.105469 C 520.347656 8.929688 520.207031 8.714844 520.097656 8.457031 C 519.992188 8.207031 519.9375 7.929688 519.9375 7.617188 C 519.9375 7.171875 520.050781 6.765625 520.289062 6.398438 C 520.519531 6.019531 520.882812 5.714844 521.371094 5.476562 C 521.871094 5.246094 522.429688 5.125 523.023438 5.125 C 523.382812 5.125 523.789062 5.179688 524.242188 5.289062 C 524.710938 5.382812 525.089844 5.5 525.378906 5.640625 C 525.339844 6.257812 525.3125 6.886719 525.300781 7.535156 L 524.839844 7.535156 C 524.796875 7.125 524.765625 6.851562 524.730469 6.722656 C 524.691406 6.601562 524.636719 6.492188 524.566406 6.398438 C 524.511719 6.289062 524.40625 6.183594 524.242188 6.074219 C 524.09375 5.953125 523.902344 5.84375 523.675781 5.75 C 523.4375 5.660156 523.140625 5.613281 522.78125 5.613281 C 522.292969 5.613281 521.894531 5.769531 521.589844 6.074219 C 521.296875 6.363281 521.15625 6.695312 521.15625 7.074219 C 521.15625 7.3125 521.1875 7.507812 521.261719 7.671875 C 521.351562 7.820312 521.464844 7.941406 521.617188 8.050781 C 521.777344 8.144531 521.980469 8.226562 522.238281 8.292969 L 523.648438 8.648438 C 524.351562 8.828125 524.839844 8.984375 525.109375 9.105469 C 525.378906 9.234375 525.597656 9.445312 525.757812 9.730469 C 525.921875 10 526.003906 10.324219 526.003906 10.703125 C 526.003906 11.464844 525.683594 12.125 525.054688 12.683594 C 524.417969 13.242188 523.578125 13.523438 522.535156 13.523438 C 522.050781 13.523438 521.40625 13.445312 520.613281 13.304688 C 520.160156 13.238281 519.917969 13.183594 519.882812 13.140625 C 519.863281 13.128906 519.855469 13.101562 519.855469 13.0625 C 519.855469 13.007812 519.863281 12.953125 519.882812 12.898438 C 519.917969 12.667969 519.941406 12.429688 519.964844 12.195312 C 519.976562 11.964844 519.996094 11.484375 520.019531 10.757812 Z M 520.019531 10.757812 "/>
<path fill-rule="nonzero" fill="rgb(55.294118%, 54.509804%, 54.509804%)" fill-opacity="1" d="M 531.246094 6.695312 L 531.246094 6.34375 C 531.800781 6.128906 532.257812 5.929688 532.601562 5.75 C 532.601562 4.414062 532.582031 3.570312 532.546875 3.203125 C 533.121094 3.007812 533.601562 2.789062 533.984375 2.554688 L 534.171875 2.714844 C 534.117188 3.1875 534.050781 4.21875 533.984375 5.804688 C 534.429688 5.804688 534.699219 5.804688 534.796875 5.804688 C 534.828125 5.804688 535.121094 5.804688 535.660156 5.804688 C 535.945312 5.789062 536.164062 5.769531 536.3125 5.75 L 536.367188 5.828125 L 536.203125 6.617188 C 535.835938 6.601562 535.507812 6.589844 535.203125 6.589844 C 534.910156 6.589844 534.503906 6.601562 533.984375 6.617188 L 533.929688 10.027344 C 533.90625 10.882812 533.90625 11.382812 533.929688 11.542969 C 533.960938 11.707031 534.015625 11.855469 534.089844 11.976562 C 534.179688 12.085938 534.289062 12.179688 534.414062 12.25 C 534.539062 12.324219 534.753906 12.382812 535.066406 12.4375 C 535.28125 12.4375 535.457031 12.429688 535.609375 12.410156 C 535.75 12.378906 535.933594 12.324219 536.148438 12.25 L 536.257812 12.574219 C 535.988281 12.789062 535.730469 13.007812 535.5 13.222656 C 535.28125 13.3125 535.074219 13.367188 534.875 13.386719 C 534.695312 13.398438 534.484375 13.414062 534.253906 13.414062 C 533.941406 13.414062 533.699219 13.371094 533.523438 13.304688 C 533.359375 13.25 533.203125 13.164062 533.0625 13.035156 C 532.914062 12.914062 532.789062 12.757812 532.683594 12.574219 C 532.585938 12.398438 532.527344 12.105469 532.492188 11.707031 C 532.507812 11.328125 532.527344 10.90625 532.546875 10.433594 C 532.546875 10.347656 532.546875 10.246094 532.546875 10.136719 L 532.546875 6.640625 L 532.195312 6.640625 C 531.925781 6.640625 531.605469 6.664062 531.246094 6.695312 Z M 531.246094 6.695312 "/>
<path fill-rule="nonzero" fill="rgb(55.294118%, 54.509804%, 54.509804%)" fill-opacity="1" d="M 536.609375 13.304688 L 536.609375 12.816406 L 537.394531 12.816406 C 537.515625 12.816406 537.613281 12.804688 537.664062 12.761719 C 537.734375 12.730469 537.789062 12.675781 537.828125 12.601562 C 537.894531 12.492188 537.9375 12.296875 537.9375 12.003906 C 537.949219 11.9375 537.96875 11.132812 537.992188 9.59375 L 537.992188 5.234375 C 537.992188 4.300781 537.976562 3.324219 537.964844 2.308594 C 537.921875 1.644531 537.890625 1.273438 537.855469 1.199219 C 537.835938 1.144531 537.789062 1.105469 537.71875 1.0625 C 537.625 1.03125 537.238281 1.007812 536.554688 1.007812 L 536.554688 0.523438 C 537.835938 0.359375 538.722656 0.164062 539.210938 -0.0742188 C 539.277344 -0.109375 539.332031 -0.128906 539.371094 -0.128906 C 539.40625 -0.128906 539.433594 -0.109375 539.453125 -0.0742188 C 539.488281 -0.0546875 539.507812 -0.0273438 539.507812 0.0078125 C 539.507812 0.0625 539.492188 0.128906 539.480469 0.195312 L 539.480469 0.46875 C 539.441406 1.484375 539.425781 2.335938 539.425781 3.039062 L 539.398438 4.339844 L 539.398438 6.804688 C 539.488281 6.75 539.710938 6.5625 540.074219 6.234375 C 540.433594 5.910156 540.652344 5.722656 540.726562 5.667969 C 540.835938 5.558594 540.914062 5.5 540.96875 5.476562 C 541.078125 5.410156 541.242188 5.34375 541.457031 5.289062 C 541.742188 5.21875 542.03125 5.179688 542.324219 5.179688 C 542.824219 5.179688 543.3125 5.308594 543.785156 5.558594 C 544.253906 5.796875 544.578125 6.101562 544.761719 6.480469 C 544.9375 6.84375 545.03125 7.386719 545.03125 8.105469 L 545.03125 9.59375 L 545.058594 10.757812 C 545.074219 11.484375 545.085938 11.890625 545.085938 11.976562 C 545.085938 12.25 545.113281 12.453125 545.167969 12.574219 C 545.179688 12.628906 545.207031 12.675781 545.25 12.710938 C 545.304688 12.75 545.371094 12.777344 545.464844 12.789062 C 545.5 12.8125 545.796875 12.816406 546.359375 12.816406 L 546.359375 13.304688 C 545.710938 13.269531 545.234375 13.25 544.949219 13.25 C 544.695312 13.25 544.191406 13.269531 543.433594 13.304688 C 543.503906 12.480469 543.542969 11.667969 543.542969 10.867188 L 543.542969 8.78125 C 543.542969 8.132812 543.496094 7.664062 543.40625 7.375 C 543.3125 7.089844 543.117188 6.832031 542.8125 6.617188 C 542.519531 6.386719 542.132812 6.261719 541.648438 6.261719 C 541.335938 6.261719 541.058594 6.3125 540.808594 6.398438 C 540.570312 6.492188 540.347656 6.628906 540.128906 6.804688 C 539.925781 6.988281 539.765625 7.175781 539.644531 7.375 C 539.566406 7.480469 539.515625 7.609375 539.480469 7.753906 C 539.460938 7.902344 539.453125 8.1875 539.453125 8.621094 L 539.453125 9.59375 C 539.488281 11.058594 539.507812 11.84375 539.507812 11.949219 C 539.519531 12.242188 539.5625 12.453125 539.617188 12.574219 C 539.628906 12.628906 539.65625 12.675781 539.695312 12.710938 C 539.75 12.75 539.820312 12.777344 539.914062 12.789062 C 539.949219 12.8125 540.265625 12.816406 540.863281 12.816406 L 540.863281 13.304688 C 539.847656 13.269531 539.15625 13.25 538.777344 13.25 C 538.449219 13.25 537.726562 13.269531 536.609375 13.304688 Z M 536.609375 13.304688 "/>
<path fill-rule="nonzero" fill="rgb(55.294118%, 54.509804%, 54.509804%)" fill-opacity="1" d="M 554 12.003906 L 553.726562 12.601562 C 553.347656 12.859375 553.066406 13.019531 552.890625 13.089844 C 552.617188 13.195312 552.304688 13.292969 551.96875 13.359375 C 551.644531 13.445312 551.289062 13.496094 550.910156 13.496094 C 550.167969 13.496094 549.488281 13.339844 548.878906 13.035156 C 548.285156 12.730469 547.8125 12.269531 547.472656 11.652344 C 547.148438 11.042969 546.984375 10.320312 546.984375 9.484375 C 546.984375 8.835938 547.074219 8.261719 547.253906 7.753906 C 547.429688 7.230469 547.632812 6.84375 547.851562 6.589844 C 548.015625 6.414062 548.265625 6.203125 548.609375 5.964844 C 548.949219 5.734375 549.292969 5.550781 549.640625 5.421875 C 550.070312 5.226562 550.546875 5.125 551.074219 5.125 C 551.703125 5.125 552.273438 5.273438 552.78125 5.558594 C 553.28125 5.851562 553.652344 6.25 553.890625 6.75 C 554.121094 7.238281 554.242188 7.800781 554.242188 8.429688 C 554.242188 8.578125 554.230469 8.769531 554.214844 9 C 553.816406 9.074219 553.457031 9.121094 553.132812 9.132812 C 552.515625 9.1875 551.914062 9.214844 551.316406 9.214844 L 548.609375 9.214844 C 548.609375 10.015625 548.746094 10.664062 549.015625 11.164062 C 549.285156 11.671875 549.652344 12.046875 550.125 12.277344 C 550.59375 12.511719 551.082031 12.628906 551.589844 12.628906 C 551.925781 12.628906 552.273438 12.574219 552.617188 12.464844 C 552.957031 12.355469 553.375 12.152344 553.863281 11.84375 Z M 548.609375 8.539062 C 548.75 8.558594 549.050781 8.578125 549.503906 8.59375 C 550.328125 8.632812 550.910156 8.648438 551.238281 8.648438 C 551.976562 8.648438 552.460938 8.632812 552.699219 8.59375 C 552.699219 8.46875 552.699219 8.367188 552.699219 8.292969 C 552.699219 7.394531 552.515625 6.738281 552.15625 6.316406 C 551.8125 5.90625 551.332031 5.695312 550.722656 5.695312 C 550.085938 5.695312 549.570312 5.929688 549.179688 6.398438 C 548.800781 6.851562 548.609375 7.5625 548.609375 8.539062 Z M 548.609375 8.539062 "/>
<path fill-rule="nonzero" fill="rgb(55.294118%, 54.509804%, 54.509804%)" fill-opacity="1" d="M 563.445312 13.386719 C 563.230469 12.8125 563.074219 12.425781 562.984375 12.222656 L 562.308594 10.625 L 560.574219 6.589844 C 560.445312 6.335938 560.34375 6.175781 560.277344 6.101562 C 560.203125 6.011719 560.113281 5.957031 560.007812 5.9375 C 559.933594 5.90625 559.722656 5.882812 559.382812 5.882812 L 559.382812 5.371094 C 560.316406 5.410156 561.007812 5.421875 561.441406 5.421875 C 561.910156 5.421875 562.550781 5.410156 563.363281 5.371094 L 563.363281 5.882812 C 562.769531 5.90625 562.417969 5.953125 562.308594 6.019531 C 562.199219 6.074219 562.144531 6.15625 562.144531 6.261719 C 562.144531 6.425781 562.253906 6.792969 562.472656 7.347656 L 563.5 9.890625 L 563.746094 10.488281 C 564.027344 11.160156 564.21875 11.597656 564.3125 11.816406 L 565.152344 9.890625 C 565.207031 9.785156 565.464844 9.15625 565.9375 7.996094 C 566.207031 7.332031 566.386719 6.824219 566.480469 6.480469 C 566.492188 6.371094 566.507812 6.285156 566.507812 6.210938 C 566.507812 6.121094 566.464844 6.058594 566.398438 6.019531 C 566.25 5.953125 565.890625 5.90625 565.316406 5.882812 L 565.316406 5.371094 C 566.140625 5.410156 566.683594 5.421875 566.941406 5.421875 C 567.117188 5.421875 567.652344 5.410156 568.539062 5.371094 L 568.539062 5.882812 C 568.191406 5.90625 567.957031 5.953125 567.832031 6.019531 C 567.726562 6.074219 567.617188 6.203125 567.507812 6.398438 C 567.414062 6.546875 567.109375 7.148438 566.589844 8.214844 L 565.777344 9.945312 C 565.625 10.257812 565.140625 11.402344 564.3125 13.386719 Z M 563.445312 13.386719 "/>
<path fill-rule="nonzero" fill="rgb(55.294118%, 54.509804%, 54.509804%)" fill-opacity="1" d="M 570.738281 7.535156 L 570.277344 7.402344 C 570.277344 7.277344 570.277344 7.101562 570.277344 6.886719 C 570.277344 6.65625 570.277344 6.464844 570.277344 6.316406 C 570.992188 5.851562 571.582031 5.53125 572.035156 5.371094 C 572.375 5.246094 572.769531 5.179688 573.203125 5.179688 C 573.851562 5.179688 574.394531 5.308594 574.828125 5.558594 C 575.257812 5.796875 575.585938 6.140625 575.800781 6.589844 C 575.945312 6.898438 576.019531 7.332031 576.019531 7.886719 L 575.992188 9.433594 L 575.992188 11.949219 C 575.992188 12.207031 576.003906 12.398438 576.046875 12.519531 C 576.078125 12.613281 576.132812 12.675781 576.207031 12.710938 C 576.273438 12.75 576.398438 12.761719 576.558594 12.761719 L 577.128906 12.816406 L 577.128906 13.304688 C 576.65625 13.269531 576.25 13.25 575.910156 13.25 C 575.5625 13.25 575.109375 13.269531 574.554688 13.304688 L 574.609375 11.816406 C 573.453125 12.683594 572.769531 13.167969 572.550781 13.277344 C 572.335938 13.386719 572.0625 13.441406 571.738281 13.441406 C 571.070312 13.441406 570.546875 13.265625 570.167969 12.898438 C 569.789062 12.539062 569.597656 12.058594 569.597656 11.464844 C 569.597656 11.070312 569.660156 10.71875 569.789062 10.40625 C 569.910156 10.082031 570.066406 9.832031 570.25 9.648438 C 570.445312 9.453125 570.636719 9.308594 570.816406 9.214844 C 571.144531 9.054688 571.671875 8.890625 572.414062 8.726562 C 573.152344 8.550781 573.886719 8.421875 574.609375 8.347656 C 574.609375 7.808594 574.535156 7.394531 574.394531 7.101562 C 574.265625 6.796875 574.039062 6.554688 573.714844 6.371094 C 573.390625 6.175781 573 6.074219 572.550781 6.074219 C 572.226562 6.074219 571.933594 6.121094 571.683594 6.210938 C 571.425781 6.304688 571.277344 6.371094 571.222656 6.425781 L 571.0625 6.722656 C 570.914062 7.070312 570.804688 7.339844 570.738281 7.535156 Z M 574.609375 8.863281 C 573.863281 8.972656 573.234375 9.105469 572.714844 9.269531 C 572.207031 9.417969 571.847656 9.566406 571.628906 9.730469 C 571.5 9.839844 571.386719 9.988281 571.277344 10.164062 C 571.128906 10.453125 571.0625 10.773438 571.0625 11.109375 C 571.0625 11.53125 571.175781 11.855469 571.414062 12.085938 C 571.644531 12.324219 571.96875 12.4375 572.390625 12.4375 C 572.769531 12.4375 573.132812 12.328125 573.5 12.113281 C 573.859375 11.898438 574.230469 11.570312 574.609375 11.136719 Z M 574.609375 8.863281 "/>
<path fill-rule="nonzero" fill="rgb(55.294118%, 54.509804%, 54.509804%)" fill-opacity="1" d="M 577.9375 13.304688 L 577.9375 12.816406 C 578.566406 12.816406 578.910156 12.8125 578.964844 12.789062 C 579.054688 12.777344 579.113281 12.75 579.15625 12.710938 C 579.207031 12.675781 579.25 12.621094 579.289062 12.546875 C 579.34375 12.425781 579.378906 12.222656 579.398438 11.949219 C 579.410156 10.453125 579.425781 9.667969 579.425781 9.59375 L 579.425781 8.59375 C 579.425781 8.144531 579.410156 7.65625 579.398438 7.128906 C 579.398438 6.804688 579.378906 6.617188 579.34375 6.5625 C 579.304688 6.492188 579.242188 6.445312 579.15625 6.425781 C 579.058594 6.390625 578.695312 6.371094 578.042969 6.371094 L 578.042969 5.882812 C 579.179688 5.722656 580.007812 5.519531 580.535156 5.261719 C 580.644531 5.207031 580.710938 5.179688 580.753906 5.179688 C 580.785156 5.179688 580.8125 5.199219 580.832031 5.234375 C 580.867188 5.253906 580.886719 5.300781 580.886719 5.371094 C 580.886719 5.410156 580.886719 5.449219 580.886719 5.503906 C 580.847656 5.851562 580.832031 6.371094 580.832031 7.074219 C 581.085938 6.792969 581.320312 6.5 581.539062 6.210938 C 581.753906 5.925781 581.902344 5.742188 582 5.667969 C 582.160156 5.523438 582.351562 5.410156 582.566406 5.316406 C 582.785156 5.226562 583.015625 5.179688 583.269531 5.179688 C 583.5 5.179688 583.730469 5.234375 583.949219 5.34375 L 584.003906 5.449219 C 583.929688 6.195312 583.878906 6.851562 583.867188 7.429688 L 583.488281 7.429688 C 583.359375 7.15625 583.203125 6.960938 583.027344 6.832031 C 582.863281 6.710938 582.648438 6.640625 582.378906 6.640625 C 581.945312 6.640625 581.570312 6.824219 581.265625 7.183594 C 580.976562 7.550781 580.832031 8.078125 580.832031 8.78125 L 580.832031 9.648438 C 580.832031 10.027344 580.839844 10.703125 580.859375 11.679688 C 580.875 12.046875 580.894531 12.269531 580.914062 12.355469 C 580.929688 12.453125 580.957031 12.519531 580.996094 12.574219 C 581.03125 12.613281 581.089844 12.648438 581.1875 12.683594 C 581.347656 12.722656 581.796875 12.761719 582.539062 12.816406 L 582.539062 13.304688 C 581.566406 13.269531 580.726562 13.25 580.019531 13.25 C 579.296875 13.25 578.597656 13.269531 577.9375 13.304688 Z M 577.9375 13.304688 "/>
<path fill-rule="nonzero" fill="rgb(55.294118%, 54.509804%, 54.509804%)" fill-opacity="1" d="M 586.789062 1.414062 C 587.058594 1.414062 587.28125 1.515625 587.464844 1.714844 C 587.640625 1.894531 587.734375 2.121094 587.734375 2.390625 C 587.734375 2.648438 587.632812 2.863281 587.4375 3.039062 C 587.253906 3.222656 587.039062 3.3125 586.789062 3.3125 C 586.515625 3.3125 586.285156 3.222656 586.109375 3.039062 C 585.929688 2.863281 585.839844 2.648438 585.839844 2.390625 C 585.839844 2.121094 585.929688 1.894531 586.109375 1.714844 C 586.285156 1.515625 586.515625 1.414062 586.789062 1.414062 Z M 584.730469 6.371094 L 584.730469 5.882812 C 585.8125 5.761719 586.734375 5.523438 587.492188 5.179688 L 587.65625 5.316406 C 587.613281 6.507812 587.601562 7.421875 587.601562 8.050781 L 587.601562 9.59375 C 587.613281 11.058594 587.632812 11.84375 587.65625 11.949219 C 587.65625 12.242188 587.683594 12.453125 587.734375 12.574219 C 587.769531 12.628906 587.804688 12.675781 587.84375 12.710938 C 587.898438 12.75 587.964844 12.777344 588.0625 12.789062 C 588.09375 12.8125 588.398438 12.816406 588.980469 12.816406 L 588.980469 13.304688 C 588.128906 13.269531 587.453125 13.25 586.949219 13.25 C 586.496094 13.25 585.757812 13.269531 584.730469 13.304688 L 584.730469 12.816406 L 585.542969 12.816406 C 585.652344 12.816406 585.730469 12.804688 585.785156 12.761719 C 585.855469 12.730469 585.90625 12.675781 585.949219 12.601562 C 586.015625 12.492188 586.0625 12.296875 586.082031 12.003906 C 586.082031 11.9375 586.089844 11.132812 586.109375 9.59375 L 586.109375 8.105469 C 586.109375 7.277344 586.082031 6.777344 586.03125 6.617188 C 585.988281 6.527344 585.929688 6.464844 585.839844 6.425781 C 585.765625 6.390625 585.394531 6.371094 584.730469 6.371094 Z M 584.730469 6.371094 "/>
<path fill-rule="nonzero" fill="rgb(55.294118%, 54.509804%, 54.509804%)" fill-opacity="1" d="M 591.21875 7.535156 L 590.757812 7.402344 C 590.757812 7.277344 590.757812 7.101562 590.757812 6.886719 C 590.757812 6.65625 590.757812 6.464844 590.757812 6.316406 C 591.472656 5.851562 592.0625 5.53125 592.515625 5.371094 C 592.855469 5.246094 593.25 5.179688 593.683594 5.179688 C 594.332031 5.179688 594.875 5.308594 595.308594 5.558594 C 595.738281 5.796875 596.066406 6.140625 596.28125 6.589844 C 596.425781 6.898438 596.5 7.332031 596.5 7.886719 L 596.472656 9.433594 L 596.472656 11.949219 C 596.472656 12.207031 596.484375 12.398438 596.527344 12.519531 C 596.558594 12.613281 596.613281 12.675781 596.6875 12.710938 C 596.753906 12.75 596.878906 12.761719 597.039062 12.761719 L 597.609375 12.816406 L 597.609375 13.304688 C 597.136719 13.269531 596.730469 13.25 596.390625 13.25 C 596.042969 13.25 595.589844 13.269531 595.035156 13.304688 L 595.089844 11.816406 C 593.933594 12.683594 593.25 13.167969 593.03125 13.277344 C 592.816406 13.386719 592.542969 13.441406 592.21875 13.441406 C 591.550781 13.441406 591.027344 13.265625 590.648438 12.898438 C 590.269531 12.539062 590.078125 12.058594 590.078125 11.464844 C 590.078125 11.070312 590.140625 10.71875 590.269531 10.40625 C 590.390625 10.082031 590.546875 9.832031 590.730469 9.648438 C 590.925781 9.453125 591.117188 9.308594 591.296875 9.214844 C 591.625 9.054688 592.152344 8.890625 592.894531 8.726562 C 593.632812 8.550781 594.367188 8.421875 595.089844 8.347656 C 595.089844 7.808594 595.015625 7.394531 594.875 7.101562 C 594.746094 6.796875 594.519531 6.554688 594.195312 6.371094 C 593.871094 6.175781 593.480469 6.074219 593.03125 6.074219 C 592.707031 6.074219 592.414062 6.121094 592.164062 6.210938 C 591.90625 6.304688 591.757812 6.371094 591.703125 6.425781 L 591.542969 6.722656 C 591.394531 7.070312 591.285156 7.339844 591.21875 7.535156 Z M 595.089844 8.863281 C 594.34375 8.972656 593.714844 9.105469 593.195312 9.269531 C 592.6875 9.417969 592.328125 9.566406 592.109375 9.730469 C 591.980469 9.839844 591.867188 9.988281 591.757812 10.164062 C 591.609375 10.453125 591.542969 10.773438 591.542969 11.109375 C 591.542969 11.53125 591.65625 11.855469 591.894531 12.085938 C 592.125 12.324219 592.449219 12.4375 592.871094 12.4375 C 593.25 12.4375 593.613281 12.328125 593.980469 12.113281 C 594.339844 11.898438 594.710938 11.570312 595.089844 11.136719 Z M 595.089844 8.863281 "/>
<path fill-rule="nonzero" fill="rgb(55.294118%, 54.509804%, 54.509804%)" fill-opacity="1" d="M 598.253906 13.304688 L 598.253906 12.816406 L 599.039062 12.816406 C 599.160156 12.816406 599.253906 12.804688 599.308594 12.761719 C 599.378906 12.730469 599.433594 12.675781 599.472656 12.601562 C 599.527344 12.492188 599.558594 12.296875 599.582031 12.003906 C 599.582031 11.9375 599.59375 11.132812 599.636719 9.59375 L 599.636719 8.59375 C 599.636719 8.144531 599.621094 7.65625 599.609375 7.128906 C 599.585938 6.804688 599.558594 6.617188 599.527344 6.5625 C 599.484375 6.492188 599.425781 6.445312 599.335938 6.425781 C 599.242188 6.390625 598.882812 6.371094 598.253906 6.371094 L 598.253906 5.882812 C 599.390625 5.722656 600.21875 5.519531 600.746094 5.261719 C 600.855469 5.207031 600.921875 5.179688 600.960938 5.179688 C 600.996094 5.179688 601.023438 5.199219 601.042969 5.234375 C 601.078125 5.253906 601.097656 5.300781 601.097656 5.371094 C 601.097656 5.410156 601.082031 5.449219 601.070312 5.503906 C 601.050781 5.707031 601.042969 6.128906 601.042969 6.777344 L 602.585938 5.421875 C 603.054688 5.261719 603.496094 5.179688 603.914062 5.179688 C 604.359375 5.179688 604.789062 5.28125 605.1875 5.476562 C 605.601562 5.660156 605.90625 5.898438 606.109375 6.183594 C 606.324219 6.453125 606.464844 6.796875 606.542969 7.210938 C 606.574219 7.46875 606.59375 8.179688 606.59375 9.351562 L 606.59375 10.839844 C 606.59375 11.566406 606.609375 12.058594 606.648438 12.328125 C 606.683594 12.492188 606.730469 12.613281 606.785156 12.683594 C 606.839844 12.734375 606.925781 12.777344 607.054688 12.789062 L 607.949219 12.816406 L 607.949219 13.304688 C 607.40625 13.269531 606.953125 13.25 606.59375 13.25 C 606.269531 13.25 605.742188 13.269531 605.023438 13.304688 C 605.09375 11.917969 605.132812 11.042969 605.132812 10.679688 L 605.132812 9.242188 C 605.132812 8.375 605.09375 7.800781 605.023438 7.507812 C 604.929688 7.128906 604.714844 6.832031 604.375 6.617188 C 604.050781 6.386719 603.644531 6.261719 603.15625 6.261719 C 602.734375 6.261719 602.351562 6.363281 601.992188 6.5625 C 601.644531 6.765625 601.402344 6.996094 601.261719 7.265625 C 601.109375 7.523438 601.042969 7.957031 601.042969 8.566406 L 601.042969 9.59375 C 601.058594 11.058594 601.070312 11.84375 601.070312 11.949219 C 601.082031 12.242188 601.125 12.453125 601.179688 12.574219 C 601.191406 12.628906 601.21875 12.675781 601.261719 12.710938 C 601.3125 12.75 601.394531 12.777344 601.503906 12.789062 C 601.539062 12.8125 601.84375 12.816406 602.425781 12.816406 L 602.425781 13.304688 C 601.734375 13.269531 601.109375 13.25 600.554688 13.25 C 600.082031 13.25 599.316406 13.269531 598.253906 13.304688 Z M 598.253906 13.304688 "/>
<path fill-rule="nonzero" fill="rgb(55.294118%, 54.509804%, 54.509804%)" fill-opacity="1" d="M 615.371094 12.328125 L 615.046875 12.898438 C 614.648438 13.117188 614.261719 13.269531 613.882812 13.359375 C 613.503906 13.445312 613.078125 13.496094 612.609375 13.496094 C 611.417969 13.496094 610.46875 13.140625 609.765625 12.4375 C 609.074219 11.71875 608.738281 10.746094 608.738281 9.511719 C 608.738281 8.851562 608.824219 8.265625 609.007812 7.78125 C 609.203125 7.292969 609.441406 6.925781 609.710938 6.667969 C 609.886719 6.472656 610.242188 6.230469 610.769531 5.9375 C 611.289062 5.652344 611.648438 5.464844 611.851562 5.371094 C 612.246094 5.207031 612.703125 5.125 613.234375 5.125 C 613.734375 5.125 614.195312 5.179688 614.613281 5.289062 C 614.863281 5.34375 615.117188 5.449219 615.371094 5.613281 C 615.320312 6.046875 615.269531 6.386719 615.238281 6.617188 C 615.21875 6.832031 615.183594 7.230469 615.128906 7.808594 L 614.640625 7.808594 C 614.601562 7.265625 614.574219 6.933594 614.558594 6.804688 C 614.519531 6.71875 614.464844 6.636719 614.398438 6.5625 C 614.195312 6.398438 613.9375 6.261719 613.613281 6.15625 C 613.300781 6.046875 612.960938 5.992188 612.582031 5.992188 C 612.09375 5.992188 611.675781 6.09375 611.335938 6.289062 C 610.992188 6.472656 610.722656 6.777344 610.523438 7.210938 C 610.34375 7.632812 610.253906 8.144531 610.253906 8.753906 C 610.253906 9.535156 610.390625 10.230469 610.660156 10.839844 C 610.929688 11.457031 611.289062 11.910156 611.742188 12.195312 C 612.210938 12.484375 612.730469 12.628906 613.3125 12.628906 C 613.597656 12.628906 613.882812 12.59375 614.152344 12.519531 C 614.425781 12.453125 614.777344 12.316406 615.210938 12.113281 Z M 615.371094 12.328125 "/>
<path fill-rule="nonzero" fill="rgb(55.294118%, 54.509804%, 54.509804%)" fill-opacity="1" d="M 623.171875 12.003906 L 622.902344 12.601562 C 622.523438 12.859375 622.238281 13.019531 622.0625 13.089844 C 621.789062 13.195312 621.480469 13.292969 621.140625 13.359375 C 620.816406 13.445312 620.464844 13.496094 620.085938 13.496094 C 619.339844 13.496094 618.664062 13.339844 618.054688 13.035156 C 617.457031 12.730469 616.984375 12.269531 616.644531 11.652344 C 616.320312 11.042969 616.15625 10.320312 616.15625 9.484375 C 616.15625 8.835938 616.246094 8.261719 616.429688 7.753906 C 616.605469 7.230469 616.808594 6.84375 617.023438 6.589844 C 617.1875 6.414062 617.4375 6.203125 617.78125 5.964844 C 618.121094 5.734375 618.464844 5.550781 618.8125 5.421875 C 619.246094 5.226562 619.71875 5.125 620.246094 5.125 C 620.875 5.125 621.445312 5.273438 621.953125 5.558594 C 622.453125 5.851562 622.828125 6.25 623.0625 6.75 C 623.292969 7.238281 623.414062 7.800781 623.414062 8.429688 C 623.414062 8.578125 623.402344 8.769531 623.386719 9 C 622.988281 9.074219 622.628906 9.121094 622.304688 9.132812 C 621.6875 9.1875 621.085938 9.214844 620.492188 9.214844 L 617.78125 9.214844 C 617.78125 10.015625 617.917969 10.664062 618.1875 11.164062 C 618.460938 11.671875 618.824219 12.046875 619.300781 12.277344 C 619.765625 12.511719 620.253906 12.628906 620.761719 12.628906 C 621.101562 12.628906 621.445312 12.574219 621.789062 12.464844 C 622.128906 12.355469 622.550781 12.152344 623.035156 11.84375 Z M 617.78125 8.539062 C 617.925781 8.558594 618.222656 8.578125 618.675781 8.59375 C 619.503906 8.632812 620.085938 8.648438 620.410156 8.648438 C 621.148438 8.648438 621.636719 8.632812 621.871094 8.59375 C 621.871094 8.46875 621.871094 8.367188 621.871094 8.292969 C 621.871094 7.394531 621.6875 6.738281 621.332031 6.316406 C 620.984375 5.90625 620.503906 5.695312 619.894531 5.695312 C 619.257812 5.695312 618.742188 5.929688 618.351562 6.398438 C 617.972656 6.851562 617.78125 7.5625 617.78125 8.539062 Z M 617.78125 8.539062 "/>
<path fill-rule="nonzero" fill="rgb(0%, 0%, 0%)" fill-opacity="1" d="M 48.535156 33.378906 L 48.535156 34.027344 C 47.898438 33.992188 47.195312 33.972656 46.421875 33.972656 C 45.535156 33.972656 44.621094 33.992188 43.6875 34.027344 L 43.6875 33.378906 C 44.132812 33.378906 44.445312 33.351562 44.609375 33.296875 C 44.675781 33.261719 44.742188 33.207031 44.796875 33.132812 C 44.851562 33.023438 44.878906 32.828125 44.878906 32.539062 L 44.90625 31.777344 C 44.90625 31.617188 44.90625 31.367188 44.90625 31.019531 L 44.90625 29.910156 C 44.90625 29.410156 44.890625 28.800781 44.878906 28.097656 C 44.859375 27.738281 44.832031 27.527344 44.796875 27.472656 C 44.757812 27.417969 44.714844 27.386719 44.660156 27.363281 C 44.554688 27.332031 44.226562 27.304688 43.6875 27.285156 L 43.6875 26.632812 C 44.714844 26.457031 45.394531 26.328125 45.71875 26.253906 C 46.042969 26.167969 46.402344 26.03125 46.800781 25.847656 L 47.019531 25.957031 L 47.019531 27.636719 C 47.375 27.277344 47.65625 26.972656 47.859375 26.714844 C 48.140625 26.375 48.359375 26.144531 48.507812 26.039062 C 48.703125 25.914062 48.976562 25.847656 49.320312 25.847656 C 49.515625 25.847656 49.707031 25.886719 49.890625 25.957031 L 49.835938 27.148438 C 49.8125 27.796875 49.792969 28.171875 49.78125 28.257812 L 49.429688 28.367188 C 49.28125 28.191406 49.144531 28.0625 49.023438 27.988281 C 48.820312 27.867188 48.59375 27.796875 48.34375 27.796875 C 48.019531 27.796875 47.730469 27.90625 47.476562 28.121094 C 47.242188 28.324219 47.105469 28.527344 47.070312 28.746094 C 47.03125 28.875 47.019531 29.355469 47.019531 30.179688 L 47.019531 31.019531 L 47.046875 32.160156 C 47.046875 32.589844 47.050781 32.863281 47.070312 32.972656 C 47.105469 33.066406 47.167969 33.132812 47.261719 33.1875 C 47.351562 33.242188 47.546875 33.289062 47.859375 33.324219 Z M 48.535156 33.378906 "/>
<path fill-rule="nonzero" fill="rgb(0%, 0%, 0%)" fill-opacity="1" d="M 57.71875 32.726562 L 57.339844 33.566406 C 56.886719 33.835938 56.421875 34.039062 55.933594 34.191406 C 55.554688 34.277344 55.132812 34.324219 54.6875 34.324219 C 54.125 34.324219 53.628906 34.257812 53.195312 34.136719 C 52.777344 34.011719 52.417969 33.835938 52.113281 33.621094 C 51.800781 33.390625 51.53125 33.105469 51.300781 32.78125 C 51.085938 32.457031 50.921875 32.078125 50.8125 31.644531 C 50.71875 31.210938 50.679688 30.742188 50.679688 30.234375 C 50.679688 29.496094 50.773438 28.839844 50.976562 28.257812 C 51.097656 27.867188 51.253906 27.574219 51.4375 27.390625 C 51.558594 27.285156 51.855469 27.082031 52.332031 26.769531 C 52.796875 26.445312 53.144531 26.242188 53.359375 26.144531 C 53.753906 25.96875 54.210938 25.875 54.742188 25.875 C 55.5 25.875 56.109375 26.039062 56.582031 26.363281 C 57.070312 26.675781 57.410156 27.066406 57.613281 27.554688 C 57.828125 28.042969 57.9375 28.636719 57.9375 29.339844 C 57.9375 29.503906 57.921875 29.660156 57.910156 29.800781 C 57.761719 29.84375 57.542969 29.898438 57.257812 29.964844 C 56.878906 30.039062 56.625 30.074219 56.5 30.074219 C 56.066406 30.113281 55.507812 30.128906 54.820312 30.128906 C 54.132812 30.128906 53.753906 30.140625 53.683594 30.152344 C 53.609375 30.152344 53.527344 30.152344 53.441406 30.152344 L 52.871094 30.152344 C 52.90625 31.042969 53.175781 31.746094 53.683594 32.265625 C 54.207031 32.773438 54.835938 33.023438 55.582031 33.023438 C 55.886719 33.023438 56.175781 32.992188 56.445312 32.917969 C 56.71875 32.847656 57.078125 32.699219 57.53125 32.484375 Z M 55.714844 29.234375 C 55.730469 28.351562 55.613281 27.730469 55.363281 27.363281 C 55.09375 27.003906 54.742188 26.824219 54.308594 26.824219 C 53.875 26.824219 53.507812 27.011719 53.222656 27.390625 C 52.933594 27.757812 52.796875 28.367188 52.816406 29.234375 C 53.144531 29.289062 53.691406 29.316406 54.46875 29.316406 C 54.972656 29.316406 55.390625 29.289062 55.714844 29.234375 Z M 55.714844 29.234375 "/>
<path fill-rule="nonzero" fill="rgb(0%, 0%, 0%)" fill-opacity="1" d="M 58.90625 27.609375 L 58.90625 27.230469 L 59.664062 26.742188 C 59.785156 26.675781 59.910156 26.59375 60.015625 26.496094 L 60.015625 25.359375 C 60.015625 24.96875 59.996094 24.464844 59.960938 23.871094 C 60.503906 23.695312 60.855469 23.566406 61.019531 23.492188 C 61.054688 23.492188 61.410156 23.328125 62.101562 23.003906 L 62.320312 23.167969 L 62.238281 24.035156 L 62.183594 25.007812 L 62.101562 26.496094 L 62.375 26.496094 C 63.109375 26.496094 63.679688 26.472656 64.078125 26.417969 L 63.917969 27.554688 C 63.863281 27.554688 63.808594 27.554688 63.753906 27.554688 L 62.101562 27.554688 L 62.101562 30.371094 C 62.101562 31.238281 62.109375 31.746094 62.128906 31.886719 C 62.144531 32.160156 62.238281 32.375 62.398438 32.539062 C 62.5625 32.6875 62.804688 32.753906 63.132812 32.753906 C 63.308594 32.753906 63.457031 32.746094 63.566406 32.726562 C 63.6875 32.714844 63.84375 32.6875 64.023438 32.644531 L 64.160156 32.996094 L 63.863281 33.296875 C 63.605469 33.554688 63.390625 33.777344 63.210938 33.972656 C 62.996094 34.0625 62.792969 34.121094 62.617188 34.164062 C 62.453125 34.195312 62.277344 34.214844 62.101562 34.214844 C 61.453125 34.214844 60.9375 34.039062 60.558594 33.703125 C 60.179688 33.363281 59.988281 32.945312 59.988281 32.457031 L 60.015625 29.667969 L 60.015625 27.582031 L 59.800781 27.582031 C 59.488281 27.582031 59.191406 27.59375 58.90625 27.609375 Z M 58.90625 27.609375 "/>
<path fill-rule="nonzero" fill="rgb(0%, 0%, 0%)" fill-opacity="1" d="M 64.738281 27.257812 L 64.738281 26.605469 C 65.207031 26.59375 65.6875 26.539062 66.171875 26.445312 C 66.675781 26.335938 67.3125 26.144531 68.070312 25.875 L 68.179688 25.984375 C 68.101562 27.085938 68.070312 28.117188 68.070312 29.070312 L 68.070312 30.019531 C 68.070312 30.816406 68.082031 31.347656 68.125 31.617188 C 68.179688 31.980469 68.3125 32.253906 68.53125 32.429688 C 68.746094 32.613281 69.023438 32.699219 69.371094 32.699219 C 69.78125 32.699219 70.128906 32.589844 70.398438 32.375 C 70.667969 32.160156 70.859375 31.941406 70.96875 31.726562 C 71.035156 31.582031 71.074219 31.277344 71.074219 30.804688 L 71.074219 29.367188 L 71.046875 28.175781 C 71.046875 27.785156 71.027344 27.546875 70.996094 27.472656 C 70.953125 27.417969 70.894531 27.386719 70.804688 27.363281 C 70.730469 27.332031 70.386719 27.296875 69.777344 27.257812 L 69.777344 26.605469 C 70.65625 26.496094 71.25 26.417969 71.5625 26.363281 C 71.886719 26.292969 72.417969 26.132812 73.160156 25.875 L 73.324219 25.984375 L 73.242188 27.527344 C 73.1875 28.628906 73.160156 29.246094 73.160156 29.367188 L 73.160156 31.101562 C 73.160156 32.132812 73.1875 32.773438 73.242188 33.023438 C 73.257812 33.121094 73.304688 33.179688 73.378906 33.214844 C 73.484375 33.289062 73.824219 33.335938 74.40625 33.351562 L 74.40625 34.027344 L 72.671875 33.972656 L 71.074219 34.027344 L 71.023438 33.972656 L 71.074219 33.324219 C 71.074219 33.214844 71.074219 32.996094 71.074219 32.671875 C 70.859375 32.835938 70.667969 32.992188 70.507812 33.132812 L 69.558594 34.054688 C 69.160156 34.175781 68.761719 34.242188 68.367188 34.242188 C 67.609375 34.242188 67.011719 34.035156 66.578125 33.621094 C 66.148438 33.207031 65.929688 32.660156 65.929688 31.96875 C 65.929688 31.878906 65.9375 31.5625 65.957031 31.019531 C 65.96875 30.75 65.984375 30.382812 65.984375 29.910156 L 65.957031 28.148438 C 65.957031 27.8125 65.929688 27.601562 65.875 27.527344 C 65.835938 27.460938 65.773438 27.40625 65.6875 27.363281 C 65.589844 27.308594 65.28125 27.277344 64.738281 27.257812 Z M 64.738281 27.257812 "/>
<path fill-rule="nonzero" fill="rgb(0%, 0%, 0%)" fill-opacity="1" d="M 80.1875 33.378906 L 80.1875 34.027344 C 79.550781 33.992188 78.847656 33.972656 78.074219 33.972656 C 77.1875 33.972656 76.273438 33.992188 75.339844 34.027344 L 75.339844 33.378906 C 75.785156 33.378906 76.097656 33.351562 76.261719 33.296875 C 76.328125 33.261719 76.394531 33.207031 76.449219 33.132812 C 76.503906 33.023438 76.53125 32.828125 76.53125 32.539062 L 76.558594 31.777344 C 76.558594 31.617188 76.558594 31.367188 76.558594 31.019531 L 76.558594 29.910156 C 76.558594 29.410156 76.546875 28.800781 76.53125 28.097656 C 76.511719 27.738281 76.484375 27.527344 76.449219 27.472656 C 76.410156 27.417969 76.371094 27.386719 76.316406 27.363281 C 76.207031 27.332031 75.882812 27.304688 75.339844 27.285156 L 75.339844 26.632812 C 76.371094 26.457031 77.046875 26.328125 77.371094 26.253906 C 77.695312 26.167969 78.054688 26.03125 78.453125 25.847656 L 78.671875 25.957031 L 78.671875 27.636719 C 79.03125 27.277344 79.308594 26.972656 79.511719 26.714844 C 79.796875 26.375 80.011719 26.144531 80.160156 26.039062 C 80.355469 25.914062 80.628906 25.847656 80.972656 25.847656 C 81.167969 25.847656 81.359375 25.886719 81.542969 25.957031 L 81.488281 27.148438 C 81.46875 27.796875 81.449219 28.171875 81.433594 28.257812 L 81.082031 28.367188 C 80.933594 28.191406 80.796875 28.0625 80.675781 27.988281 C 80.472656 27.867188 80.25 27.796875 80 27.796875 C 79.671875 27.796875 79.382812 27.90625 79.132812 28.121094 C 78.894531 28.324219 78.757812 28.527344 78.726562 28.746094 C 78.683594 28.875 78.671875 29.355469 78.671875 30.179688 L 78.671875 31.019531 L 78.699219 32.160156 C 78.699219 32.589844 78.707031 32.863281 78.726562 32.972656 C 78.757812 33.066406 78.820312 33.132812 78.914062 33.1875 C 79.003906 33.242188 79.199219 33.289062 79.511719 33.324219 Z M 80.1875 33.378906 "/>
<path fill-rule="nonzero" fill="rgb(0%, 0%, 0%)" fill-opacity="1" d="M 91.757812 33.378906 L 91.757812 34.027344 C 90.976562 33.992188 90.347656 33.972656 89.859375 33.972656 C 89.320312 33.972656 88.839844 33.992188 88.425781 34.027344 L 88.261719 33.863281 C 88.277344 33.757812 88.316406 33.269531 88.371094 32.402344 L 88.425781 31.019531 L 88.425781 30.371094 C 88.425781 29.382812 88.378906 28.730469 88.289062 28.421875 C 88.214844 28.117188 88.058594 27.871094 87.828125 27.691406 C 87.59375 27.492188 87.289062 27.390625 86.910156 27.390625 C 86.507812 27.390625 86.175781 27.492188 85.90625 27.691406 C 85.648438 27.871094 85.488281 28.0625 85.417969 28.257812 C 85.378906 28.367188 85.363281 28.8125 85.363281 29.585938 L 85.363281 31.019531 C 85.363281 31.441406 85.378906 31.941406 85.417969 32.539062 C 85.417969 32.792969 85.433594 32.964844 85.472656 33.050781 C 85.507812 33.105469 85.542969 33.152344 85.582031 33.1875 C 85.648438 33.226562 85.785156 33.269531 85.988281 33.324219 C 86.054688 33.324219 86.292969 33.34375 86.691406 33.378906 L 86.691406 34.027344 C 86.074219 34.011719 85.324219 34 84.445312 34 C 83.414062 34 82.609375 34.011719 82.035156 34.027344 L 82.035156 33.378906 C 82.480469 33.378906 82.792969 33.351562 82.953125 33.296875 C 83.023438 33.261719 83.089844 33.207031 83.144531 33.132812 C 83.199219 33.023438 83.226562 32.828125 83.226562 32.539062 L 83.253906 31.777344 C 83.265625 31.617188 83.28125 31.367188 83.28125 31.019531 L 83.28125 29.910156 C 83.28125 29.410156 83.257812 28.800781 83.226562 28.097656 C 83.207031 27.738281 83.179688 27.527344 83.144531 27.472656 C 83.105469 27.417969 83.0625 27.386719 83.007812 27.363281 C 82.902344 27.332031 82.574219 27.304688 82.035156 27.285156 L 82.035156 26.632812 C 83.0625 26.457031 83.738281 26.328125 84.066406 26.253906 C 84.390625 26.167969 84.75 26.03125 85.148438 25.847656 L 85.363281 25.957031 L 85.363281 27.308594 L 86.910156 26.066406 C 87.085938 25.996094 87.242188 25.949219 87.371094 25.929688 C 87.492188 25.894531 87.675781 25.875 87.910156 25.875 C 88.507812 25.875 88.953125 25.949219 89.265625 26.089844 C 89.570312 26.21875 89.820312 26.410156 90.023438 26.660156 C 90.238281 26.898438 90.382812 27.148438 90.457031 27.417969 C 90.542969 27.691406 90.59375 28.109375 90.59375 28.664062 C 90.59375 29.316406 90.578125 29.734375 90.566406 29.910156 C 90.566406 29.964844 90.566406 30.046875 90.566406 30.152344 L 90.566406 31.019531 C 90.578125 31.960938 90.597656 32.550781 90.621094 32.78125 C 90.632812 32.996094 90.679688 33.148438 90.753906 33.214844 C 90.84375 33.289062 91.011719 33.324219 91.269531 33.324219 C 91.355469 33.34375 91.519531 33.363281 91.757812 33.378906 Z M 91.757812 33.378906 "/>
<g clip-path="url(#clip-0)">
<path fill-rule="nonzero" fill="rgb(0%, 0%, 0%)" fill-opacity="1" d="M 109.761719 19.746094 L 108.707031 19.746094 L 104.5625 33.992188 L 100.988281 26.410156 L 97.492188 28.277344 L 97.710938 28.65625 L 99.660156 27.925781 L 104.453125 37.945312 Z M 109.761719 19.746094 "/>
</g>
<path fill="none" stroke-width="0.583" stroke-linecap="butt" stroke-linejoin="miter" stroke="rgb(0%, 0%, 0%)" stroke-opacity="1" stroke-miterlimit="10" d="M -0.00121102 -0.00121425 L 5.58097 -0.00121425 " transform="matrix(1.733333, 0, 0, -1.733333, 109.189599, 20.271333)"/>
<path fill-rule="nonzero" fill="rgb(0%, 0%, 0%)" fill-opacity="1" d="M 117.59375 27.390625 C 117.59375 26.417969 117.160156 25.683594 116.539062 25.683594 C 116.292969 25.683594 116.105469 25.765625 115.96875 25.902344 L 115.101562 26.714844 L 115.292969 27.039062 C 115.453125 26.929688 115.589844 26.902344 115.753906 26.902344 C 116.214844 26.902344 116.484375 27.285156 116.484375 27.988281 C 116.484375 30.535156 114.832031 33.351562 113.289062 33.351562 C 112.449219 33.351562 111.90625 32.617188 111.90625 31.507812 C 111.90625 29.695312 112.585938 28.121094 114.289062 26.011719 L 114.101562 25.683594 C 113.777344 25.847656 113.53125 25.902344 113.070312 25.902344 C 112.339844 25.902344 111.636719 25.847656 110.933594 25.792969 C 110.714844 25.765625 110.578125 25.820312 110.390625 25.902344 C 110.148438 26.363281 109.957031 26.984375 109.714844 27.933594 L 110.09375 27.933594 L 110.390625 27.230469 C 110.527344 26.929688 110.878906 26.742188 111.285156 26.742188 C 111.582031 26.742188 111.90625 26.769531 112.230469 26.769531 C 112.585938 26.769531 112.882812 26.742188 113.316406 26.6875 C 111.390625 28.773438 110.660156 30.207031 110.660156 31.941406 C 110.660156 33.269531 111.472656 34.214844 112.585938 34.214844 C 113.289062 34.214844 113.964844 33.917969 114.75 33.1875 C 115.5625 32.457031 116.402344 31.292969 116.917969 30.101562 C 117.296875 29.234375 117.59375 28.097656 117.59375 27.390625 Z M 117.59375 27.390625 "/>
<g clip-path="url(#clip-1)">
<path fill="none" stroke-width="0.49814" stroke-linecap="round" stroke-linejoin="round" stroke="rgb(56.862745%, 56.078431%, 56.078431%)" stroke-opacity="1" stroke-miterlimit="10" d="M 1.196855 10.458711 L 1.196855 2.990262 C 1.196855 1.338369 2.533244 -0.0025265 4.185137 -0.0025265 L 6.177324 -0.0025265 " transform="matrix(1.733333, 0, 0, -1.733333, 17.269201, 37.940933)"/>
</g>
</svg>
