<?xml version="1.0" encoding="UTF-8" standalone="no"?>
<!-- Created with Inkscape (http://www.inkscape.org/) -->

<svg
   xmlns:dc="http://purl.org/dc/elements/1.1/"
   xmlns:cc="http://creativecommons.org/ns#"
   xmlns:rdf="http://www.w3.org/1999/02/22-rdf-syntax-ns#"
   xmlns:svg="http://www.w3.org/2000/svg"
   xmlns="http://www.w3.org/2000/svg"
   xmlns:sodipodi="http://sodipodi.sourceforge.net/DTD/sodipodi-0.dtd"
   xmlns:inkscape="http://www.inkscape.org/namespaces/inkscape"
   width="582.73395"
   height="668.88123"
   id="svg4431"
   version="1.1"
   inkscape:version="0.48.4 r9939"
   sodipodi:docname="drawing11.svg">
  <sodipodi:namedview
     id="base"
     pagecolor="#ffffff"
     bordercolor="#666666"
     borderopacity="1.0"
     inkscape:pageopacity="0.0"
     inkscape:pageshadow="2"
     inkscape:zoom="0.98994949"
     inkscape:cx="251.33532"
     inkscape:cy="278.63691"
     inkscape:document-units="px"
     inkscape:current-layer="layer1"
     showgrid="false"
     inkscape:window-width="1440"
     inkscape:window-height="856"
     inkscape:window-x="-8"
     inkscape:window-y="-8"
     inkscape:window-maximized="1"
     fit-margin-top="0"
     fit-margin-left="0"
     fit-margin-right="0"
     fit-margin-bottom="0" />
  <defs
     id="defs4433">
    <marker
       style="overflow:visible"
       id="Arrow1Lend"
       refX="0"
       refY="0"
       orient="auto"
       inkscape:stockid="Arrow1Lend">
      <path
         transform="matrix(-0.8,0,0,-0.8,-10,0)"
         style="fill-rule:evenodd;stroke:#000000;stroke-width:1pt"
         d="M 0,0 5,-5 -12.5,0 5,5 0,0 z"
         id="path3759"
         inkscape:connector-curvature="0" />
    </marker>
    <marker
       style="overflow:visible"
       id="Arrow1Lstart"
       refX="0"
       refY="0"
       orient="auto"
       inkscape:stockid="Arrow1Lstart">
      <path
         transform="matrix(0.8,0,0,0.8,10,0)"
         style="fill-rule:evenodd;stroke:#000000;stroke-width:1pt"
         d="M 0,0 5,-5 -12.5,0 5,5 0,0 z"
         id="path3756"
         inkscape:connector-curvature="0" />
    </marker>
    <marker
       style="overflow:visible"
       id="Arrow1Lendm"
       refX="0"
       refY="0"
       orient="auto"
       inkscape:stockid="Arrow1Lendm">
      <path
         transform="matrix(-0.8,0,0,-0.8,-10,0)"
         style="fill:#0000ff;fill-rule:evenodd;stroke:#0000ff;stroke-width:1pt"
         d="M 0,0 5,-5 -12.5,0 5,5 0,0 z"
         id="path4898"
         inkscape:connector-curvature="0" />
    </marker>
    <marker
       style="overflow:visible"
       id="Arrow1Lendk"
       refX="0"
       refY="0"
       orient="auto"
       inkscape:stockid="Arrow1Lendk">
      <path
         transform="matrix(-0.8,0,0,-0.8,-10,0)"
         style="fill:#0000ff;fill-rule:evenodd;stroke:#0000ff;stroke-width:1pt"
         d="M 0,0 5,-5 -12.5,0 5,5 0,0 z"
         id="path5073"
         inkscape:connector-curvature="0" />
    </marker>
    <marker
       style="overflow:visible"
       id="Arrow1Lendo"
       refX="0"
       refY="0"
       orient="auto"
       inkscape:stockid="Arrow1Lendo">
      <path
         transform="matrix(-0.8,0,0,-0.8,-10,0)"
         style="fill:#0000ff;fill-rule:evenodd;stroke:#0000ff;stroke-width:1pt"
         d="M 0,0 5,-5 -12.5,0 5,5 0,0 z"
         id="path5076"
         inkscape:connector-curvature="0" />
    </marker>
    <marker
       style="overflow:visible"
       id="Arrow1Lendl"
       refX="0"
       refY="0"
       orient="auto"
       inkscape:stockid="Arrow1Lendl">
      <path
         transform="matrix(-0.8,0,0,-0.8,-10,0)"
         style="fill:#0000ff;fill-rule:evenodd;stroke:#0000ff;stroke-width:1pt"
         d="M 0,0 5,-5 -12.5,0 5,5 0,0 z"
         id="path5079"
         inkscape:connector-curvature="0" />
    </marker>
    <marker
       style="overflow:visible"
       id="Arrow1Lendy"
       refX="0"
       refY="0"
       orient="auto"
       inkscape:stockid="Arrow1Lendy">
      <path
         transform="matrix(-0.8,0,0,-0.8,-10,0)"
         style="fill:#0000ff;fill-rule:evenodd;stroke:#0000ff;stroke-width:1pt"
         d="M 0,0 5,-5 -12.5,0 5,5 0,0 z"
         id="path5082"
         inkscape:connector-curvature="0" />
    </marker>
    <marker
       style="overflow:visible"
       id="Arrow1LendS"
       refX="0"
       refY="0"
       orient="auto"
       inkscape:stockid="Arrow1LendS">
      <path
         transform="matrix(-0.8,0,0,-0.8,-10,0)"
         style="fill:#0000ff;fill-rule:evenodd;stroke:#0000ff;stroke-width:1pt"
         d="M 0,0 5,-5 -12.5,0 5,5 0,0 z"
         id="path5085"
         inkscape:connector-curvature="0" />
    </marker>
    <marker
       style="overflow:visible"
       id="Arrow1LstartR"
       refX="0"
       refY="0"
       orient="auto"
       inkscape:stockid="Arrow1LstartR">
      <path
         transform="matrix(0.8,0,0,0.8,10,0)"
         style="fill:#000000;fill-rule:evenodd;stroke:#000000;stroke-width:1pt"
         d="M 0,0 5,-5 -12.5,0 5,5 0,0 z"
         id="path5088"
         inkscape:connector-curvature="0" />
    </marker>
    <marker
       style="overflow:visible"
       id="Arrow1Lendc"
       refX="0"
       refY="0"
       orient="auto"
       inkscape:stockid="Arrow1Lendc">
      <path
         transform="matrix(-0.8,0,0,-0.8,-10,0)"
         style="fill:#000000;fill-rule:evenodd;stroke:#000000;stroke-width:1pt"
         d="M 0,0 5,-5 -12.5,0 5,5 0,0 z"
         id="path5091"
         inkscape:connector-curvature="0" />
    </marker>
    <marker
       style="overflow:visible"
       id="Arrow1Lstarty"
       refX="0"
       refY="0"
       orient="auto"
       inkscape:stockid="Arrow1Lstarty">
      <path
         transform="matrix(0.8,0,0,0.8,10,0)"
         style="fill:#000000;fill-rule:evenodd;stroke:#000000;stroke-width:1pt"
         d="M 0,0 5,-5 -12.5,0 5,5 0,0 z"
         id="path5094"
         inkscape:connector-curvature="0" />
    </marker>
    <marker
       style="overflow:visible"
       id="Arrow1Lend3"
       refX="0"
       refY="0"
       orient="auto"
       inkscape:stockid="Arrow1Lend3">
      <path
         transform="matrix(-0.8,0,0,-0.8,-10,0)"
         style="fill:#000000;fill-rule:evenodd;stroke:#000000;stroke-width:1pt"
         d="M 0,0 5,-5 -12.5,0 5,5 0,0 z"
         id="path5097"
         inkscape:connector-curvature="0" />
    </marker>
    <marker
       style="overflow:visible"
       id="Arrow1Lstartm"
       refX="0"
       refY="0"
       orient="auto"
       inkscape:stockid="Arrow1Lstartm">
      <path
         transform="matrix(0.8,0,0,0.8,10,0)"
         style="fill:#000000;fill-rule:evenodd;stroke:#000000;stroke-width:1pt"
         d="M 0,0 5,-5 -12.5,0 5,5 0,0 z"
         id="path5100"
         inkscape:connector-curvature="0" />
    </marker>
    <marker
       style="overflow:visible"
       id="Arrow1LendF"
       refX="0"
       refY="0"
       orient="auto"
       inkscape:stockid="Arrow1LendF">
      <path
         transform="matrix(-0.8,0,0,-0.8,-10,0)"
         style="fill:#000000;fill-rule:evenodd;stroke:#000000;stroke-width:1pt"
         d="M 0,0 5,-5 -12.5,0 5,5 0,0 z"
         id="path5103"
         inkscape:connector-curvature="0" />
    </marker>
    <marker
       style="overflow:visible"
       id="Arrow1Lstarte"
       refX="0"
       refY="0"
       orient="auto"
       inkscape:stockid="Arrow1Lstarte">
      <path
         transform="matrix(0.8,0,0,0.8,10,0)"
         style="fill:#000000;fill-rule:evenodd;stroke:#000000;stroke-width:1pt"
         d="M 0,0 5,-5 -12.5,0 5,5 0,0 z"
         id="path5106"
         inkscape:connector-curvature="0" />
    </marker>
    <marker
       style="overflow:visible"
       id="Arrow1LendSu"
       refX="0"
       refY="0"
       orient="auto"
       inkscape:stockid="Arrow1LendSu">
      <path
         transform="matrix(-0.8,0,0,-0.8,-10,0)"
         style="fill:#000000;fill-rule:evenodd;stroke:#000000;stroke-width:1pt"
         d="M 0,0 5,-5 -12.5,0 5,5 0,0 z"
         id="path5109"
         inkscape:connector-curvature="0" />
    </marker>
    <marker
       style="overflow:visible"
       id="Arrow1LstartT"
       refX="0"
       refY="0"
       orient="auto"
       inkscape:stockid="Arrow1LstartT">
      <path
         transform="matrix(0.8,0,0,0.8,10,0)"
         style="fill:#000000;fill-rule:evenodd;stroke:#000000;stroke-width:1pt"
         d="M 0,0 5,-5 -12.5,0 5,5 0,0 z"
         id="path5112"
         inkscape:connector-curvature="0" />
    </marker>
    <marker
       style="overflow:visible"
       id="Arrow1LendK"
       refX="0"
       refY="0"
       orient="auto"
       inkscape:stockid="Arrow1LendK">
      <path
         transform="matrix(-0.8,0,0,-0.8,-10,0)"
         style="fill:#000000;fill-rule:evenodd;stroke:#000000;stroke-width:1pt"
         d="M 0,0 5,-5 -12.5,0 5,5 0,0 z"
         id="path5115"
         inkscape:connector-curvature="0" />
    </marker>
    <marker
       style="overflow:visible"
       id="Arrow1LstartJ"
       refX="0"
       refY="0"
       orient="auto"
       inkscape:stockid="Arrow1LstartJ">
      <path
         transform="matrix(0.8,0,0,0.8,10,0)"
         style="fill:#000000;fill-rule:evenodd;stroke:#000000;stroke-width:1pt"
         d="M 0,0 5,-5 -12.5,0 5,5 0,0 z"
         id="path5118"
         inkscape:connector-curvature="0" />
    </marker>
    <marker
       style="overflow:visible"
       id="Arrow1Lend8"
       refX="0"
       refY="0"
       orient="auto"
       inkscape:stockid="Arrow1Lend8">
      <path
         transform="matrix(-0.8,0,0,-0.8,-10,0)"
         style="fill:#000000;fill-rule:evenodd;stroke:#000000;stroke-width:1pt"
         d="M 0,0 5,-5 -12.5,0 5,5 0,0 z"
         id="path5121"
         inkscape:connector-curvature="0" />
    </marker>
    <marker
       style="overflow:visible"
       id="Arrow1LendM"
       refX="0"
       refY="0"
       orient="auto"
       inkscape:stockid="Arrow1LendM">
      <path
         transform="matrix(-0.8,0,0,-0.8,-10,0)"
         style="fill:#0000ff;fill-rule:evenodd;stroke:#0000ff;stroke-width:1pt"
         d="M 0,0 5,-5 -12.5,0 5,5 0,0 z"
         id="path5124"
         inkscape:connector-curvature="0" />
    </marker>
    <marker
       style="overflow:visible"
       id="Arrow1LendP"
       refX="0"
       refY="0"
       orient="auto"
       inkscape:stockid="Arrow1LendP">
      <path
         transform="matrix(-0.8,0,0,-0.8,-10,0)"
         style="fill:#0000ff;fill-rule:evenodd;stroke:#0000ff;stroke-width:1pt"
         d="M 0,0 5,-5 -12.5,0 5,5 0,0 z"
         id="path5127"
         inkscape:connector-curvature="0" />
    </marker>
    <marker
       style="overflow:visible"
       id="Arrow1Lend4"
       refX="0"
       refY="0"
       orient="auto"
       inkscape:stockid="Arrow1Lend4">
      <path
         transform="matrix(-0.8,0,0,-0.8,-10,0)"
         style="fill:#0000ff;fill-rule:evenodd;stroke:#0000ff;stroke-width:1pt"
         d="M 0,0 5,-5 -12.5,0 5,5 0,0 z"
         id="path5130"
         inkscape:connector-curvature="0" />
    </marker>
    <marker
       style="overflow:visible"
       id="Arrow1Lend9"
       refX="0"
       refY="0"
       orient="auto"
       inkscape:stockid="Arrow1Lend9">
      <path
         transform="matrix(-0.8,0,0,-0.8,-10,0)"
         style="fill:#0000ff;fill-rule:evenodd;stroke:#0000ff;stroke-width:1pt"
         d="M 0,0 5,-5 -12.5,0 5,5 0,0 z"
         id="path5133"
         inkscape:connector-curvature="0" />
    </marker>
    <marker
       style="overflow:visible"
       id="Arrow1Lends"
       refX="0"
       refY="0"
       orient="auto"
       inkscape:stockid="Arrow1Lends">
      <path
         transform="matrix(-0.8,0,0,-0.8,-10,0)"
         style="fill:#0000ff;fill-rule:evenodd;stroke:#0000ff;stroke-width:1pt"
         d="M 0,0 5,-5 -12.5,0 5,5 0,0 z"
         id="path5136"
         inkscape:connector-curvature="0" />
    </marker>
    <marker
       style="overflow:visible"
       id="Arrow1LendL"
       refX="0"
       refY="0"
       orient="auto"
       inkscape:stockid="Arrow1LendL">
      <path
         transform="matrix(-0.8,0,0,-0.8,-10,0)"
         style="fill:#0000ff;fill-rule:evenodd;stroke:#0000ff;stroke-width:1pt"
         d="M 0,0 5,-5 -12.5,0 5,5 0,0 z"
         id="path5139"
         inkscape:connector-curvature="0" />
    </marker>
    <marker
       style="overflow:visible"
       id="Arrow1LendN"
       refX="0"
       refY="0"
       orient="auto"
       inkscape:stockid="Arrow1LendN">
      <path
         transform="matrix(-0.8,0,0,-0.8,-10,0)"
         style="fill:#0000ff;fill-rule:evenodd;stroke:#0000ff;stroke-width:1pt"
         d="M 0,0 5,-5 -12.5,0 5,5 0,0 z"
         id="path5142"
         inkscape:connector-curvature="0" />
    </marker>
    <marker
       style="overflow:visible"
       id="Arrow1Lendm7"
       refX="0"
       refY="0"
       orient="auto"
       inkscape:stockid="Arrow1Lendm7">
      <path
         transform="matrix(-0.8,0,0,-0.8,-10,0)"
         style="fill:#0000ff;fill-rule:evenodd;stroke:#0000ff;stroke-width:1pt"
         d="M 0,0 5,-5 -12.5,0 5,5 0,0 z"
         id="path5145"
         inkscape:connector-curvature="0" />
    </marker>
    <marker
       style="overflow:visible"
       id="Arrow1Lend6"
       refX="0"
       refY="0"
       orient="auto"
       inkscape:stockid="Arrow1Lend6">
      <path
         transform="matrix(-0.8,0,0,-0.8,-10,0)"
         style="fill:#0000ff;fill-rule:evenodd;stroke:#0000ff;stroke-width:1pt"
         d="M 0,0 5,-5 -12.5,0 5,5 0,0 z"
         id="path5148"
         inkscape:connector-curvature="0" />
    </marker>
    <marker
       style="overflow:visible"
       id="Arrow1Lstart6"
       refX="0"
       refY="0"
       orient="auto"
       inkscape:stockid="Arrow1Lstart6">
      <path
         transform="matrix(0.8,0,0,0.8,10,0)"
         style="fill:#000000;fill-rule:evenodd;stroke:#000000;stroke-width:1pt"
         d="M 0,0 5,-5 -12.5,0 5,5 0,0 z"
         id="path5151"
         inkscape:connector-curvature="0" />
    </marker>
    <marker
       style="overflow:visible"
       id="Arrow1Lende"
       refX="0"
       refY="0"
       orient="auto"
       inkscape:stockid="Arrow1Lende">
      <path
         transform="matrix(-0.8,0,0,-0.8,-10,0)"
         style="fill:#000000;fill-rule:evenodd;stroke:#000000;stroke-width:1pt"
         d="M 0,0 5,-5 -12.5,0 5,5 0,0 z"
         id="path5154"
         inkscape:connector-curvature="0" />
    </marker>
    <marker
       style="overflow:visible"
       id="Arrow1Lendb"
       refX="0"
       refY="0"
       orient="auto"
       inkscape:stockid="Arrow1Lendb">
      <path
         transform="matrix(-0.8,0,0,-0.8,-10,0)"
         style="fill:#0000ff;fill-rule:evenodd;stroke:#0000ff;stroke-width:1pt"
         d="M 0,0 5,-5 -12.5,0 5,5 0,0 z"
         id="path5157"
         inkscape:connector-curvature="0" />
    </marker>
    <marker
       style="overflow:visible"
       id="Arrow1LendoK"
       refX="0"
       refY="0"
       orient="auto"
       inkscape:stockid="Arrow1LendoK">
      <path
         transform="matrix(-0.8,0,0,-0.8,-10,0)"
         style="fill:#0000ff;fill-rule:evenodd;stroke:#0000ff;stroke-width:1pt"
         d="M 0,0 5,-5 -12.5,0 5,5 0,0 z"
         id="path5160"
         inkscape:connector-curvature="0" />
    </marker>
    <marker
       style="overflow:visible"
       id="Arrow1Lend5"
       refX="0"
       refY="0"
       orient="auto"
       inkscape:stockid="Arrow1Lend5">
      <path
         transform="matrix(-0.8,0,0,-0.8,-10,0)"
         style="fill:#0000ff;fill-rule:evenodd;stroke:#0000ff;stroke-width:1pt"
         d="M 0,0 5,-5 -12.5,0 5,5 0,0 z"
         id="path5163"
         inkscape:connector-curvature="0" />
    </marker>
    <marker
       style="overflow:visible"
       id="Arrow1LstartZ"
       refX="0"
       refY="0"
       orient="auto"
       inkscape:stockid="Arrow1LstartZ">
      <path
         transform="matrix(0.8,0,0,0.8,10,0)"
         style="fill:#000000;fill-rule:evenodd;stroke:#000000;stroke-width:1pt"
         d="M 0,0 5,-5 -12.5,0 5,5 0,0 z"
         id="path5166"
         inkscape:connector-curvature="0" />
    </marker>
    <marker
       style="overflow:visible"
       id="Arrow1Lend9n"
       refX="0"
       refY="0"
       orient="auto"
       inkscape:stockid="Arrow1Lend9n">
      <path
         transform="matrix(-0.8,0,0,-0.8,-10,0)"
         style="fill:#000000;fill-rule:evenodd;stroke:#000000;stroke-width:1pt"
         d="M 0,0 5,-5 -12.5,0 5,5 0,0 z"
         id="path5169"
         inkscape:connector-curvature="0" />
    </marker>
    <marker
       style="overflow:visible"
       id="Arrow1Lend4h"
       refX="0"
       refY="0"
       orient="auto"
       inkscape:stockid="Arrow1Lend4h">
      <path
         transform="matrix(-0.8,0,0,-0.8,-10,0)"
         style="fill:#0000ff;fill-rule:evenodd;stroke:#0000ff;stroke-width:1pt"
         d="M 0,0 5,-5 -12.5,0 5,5 0,0 z"
         id="path5172"
         inkscape:connector-curvature="0" />
    </marker>
    <marker
       style="overflow:visible"
       id="Arrow1Lenda"
       refX="0"
       refY="0"
       orient="auto"
       inkscape:stockid="Arrow1Lenda">
      <path
         transform="matrix(-0.8,0,0,-0.8,-10,0)"
         style="fill:#0000ff;fill-rule:evenodd;stroke:#0000ff;stroke-width:1pt"
         d="M 0,0 5,-5 -12.5,0 5,5 0,0 z"
         id="path5175"
         inkscape:connector-curvature="0" />
    </marker>
    <marker
       style="overflow:visible"
       id="Arrow1LendD"
       refX="0"
       refY="0"
       orient="auto"
       inkscape:stockid="Arrow1LendD">
      <path
         transform="matrix(-0.8,0,0,-0.8,-10,0)"
         style="fill:#0000ff;fill-rule:evenodd;stroke:#0000ff;stroke-width:1pt"
         d="M 0,0 5,-5 -12.5,0 5,5 0,0 z"
         id="path5178"
         inkscape:connector-curvature="0" />
    </marker>
  </defs>
  <metadata
     id="metadata4436">
    <rdf:RDF>
      <cc:Work
         rdf:about="">
        <dc:format>image/svg+xml</dc:format>
        <dc:type
           rdf:resource="http://purl.org/dc/dcmitype/StillImage" />
        <dc:title />
      </cc:Work>
    </rdf:RDF>
  </metadata>
  <g
     id="layer1"
     inkscape:groupmode="layer"
     inkscape:label="Layer 1"
     transform="translate(-112.45787,-399.20273)">
    <path
       inkscape:connector-curvature="0"
       id="path2982"
       d="m 169.28571,431.6479 0,107.85714 202.85715,0"
       style="fill:none;stroke:#000000;stroke-width:1px;stroke-linecap:butt;stroke-linejoin:miter;stroke-opacity:1;marker-start:url(#Arrow1Lstarty);marker-end:url(#Arrow1Lend3)" />
    <text
       sodipodi:linespacing="125%"
       id="text4382"
       y="415.21933"
       x="176.42857"
       style="font-size:22px;font-style:normal;font-weight:normal;text-align:center;line-height:125%;letter-spacing:0px;word-spacing:0px;text-anchor:middle;fill:#000000;fill-opacity:1;stroke:none;font-family:Sans"
       xml:space="preserve"><tspan
         y="415.21933"
         x="176.42857"
         id="tspan4384"
         sodipodi:role="line">motor |H(jw)|</tspan></text>
    <text
       sodipodi:linespacing="125%"
       id="text4386"
       y="545.2193"
       x="381.42856"
       style="font-size:22px;font-style:normal;font-weight:normal;text-align:center;line-height:125%;letter-spacing:0px;word-spacing:0px;text-anchor:middle;fill:#000000;fill-opacity:1;stroke:none;font-family:Sans"
       xml:space="preserve"><tspan
         y="545.2193"
         x="381.42856"
         id="tspan4388"
         sodipodi:role="line">w</tspan></text>
    <path
       style="fill:none;stroke:#000000;stroke-width:1px;stroke-linecap:butt;stroke-linejoin:miter;stroke-opacity:1;marker-start:url(#Arrow1LstartZ);marker-end:url(#Arrow1Lend9n)"
       d="m 438.57142,431.6479 0,107.85714 202.85715,0"
       id="path4390"
       inkscape:connector-curvature="0" />
    <text
       xml:space="preserve"
       style="font-size:22px;font-style:normal;font-weight:normal;text-align:center;line-height:125%;letter-spacing:0px;word-spacing:0px;text-anchor:middle;fill:#000000;fill-opacity:1;stroke:none;font-family:Sans"
       x="445.71429"
       y="415.21933"
       id="text4392"
       sodipodi:linespacing="125%"><tspan
         sodipodi:role="line"
         id="tspan4394"
         x="445.71429"
         y="415.21933">motor/load |H(jw)|</tspan></text>
    <text
       xml:space="preserve"
       style="font-size:22px;font-style:normal;font-weight:normal;text-align:center;line-height:125%;letter-spacing:0px;word-spacing:0px;text-anchor:middle;fill:#000000;fill-opacity:1;stroke:none;font-family:Sans"
       x="650.71429"
       y="545.2193"
       id="text4396"
       sodipodi:linespacing="125%"><tspan
         sodipodi:role="line"
         id="tspan4398"
         x="650.71429"
         y="545.2193">w</tspan></text>
    <text
       sodipodi:linespacing="125%"
       id="text4400"
       y="443.07648"
       x="630.71429"
       style="font-size:22px;font-style:normal;font-weight:normal;text-align:center;line-height:125%;letter-spacing:0px;word-spacing:0px;text-anchor:middle;fill:#000000;fill-opacity:1;stroke:none;font-family:Sans"
       xml:space="preserve"><tspan
         y="443.07648"
         x="630.71429"
         id="tspan4402"
         sodipodi:role="line" /></text>
    <path
       sodipodi:nodetypes="cc"
       inkscape:connector-curvature="0"
       id="path4404"
       d="m 169.28571,453.79075 c 155,-0.71429 43.57143,80.71429 178.57143,80"
       style="fill:none;stroke:#0000ff;stroke-width:1px;stroke-linecap:butt;stroke-linejoin:miter;stroke-opacity:1" />
    <path
       style="fill:none;stroke:#0000ff;stroke-width:1px;stroke-linecap:butt;stroke-linejoin:miter;stroke-opacity:1"
       d="m 440,453.79075 c 155,-0.71429 43.57143,80.71429 178.57143,80"
       id="path4406"
       inkscape:connector-curvature="0"
       sodipodi:nodetypes="cc" />
    <path
       style="fill:none;stroke:#000000;stroke-width:1px;stroke-linecap:butt;stroke-linejoin:miter;stroke-opacity:1;marker-start:url(#Arrow1LstartJ);marker-end:url(#Arrow1Lend8)"
       d="m 169.28571,598.07647 0,107.85714 202.85715,0"
       id="path4408"
       inkscape:connector-curvature="0" />
    <text
       xml:space="preserve"
       style="font-size:22px;font-style:normal;font-weight:normal;text-align:center;line-height:125%;letter-spacing:0px;word-spacing:0px;text-anchor:middle;fill:#000000;fill-opacity:1;stroke:none;font-family:Sans"
       x="252.42857"
       y="581.64789"
       id="text4410"
       sodipodi:linespacing="125%"><tspan
         sodipodi:role="line"
         id="tspan4412"
         x="252.42857"
         y="581.64789">input line spectrum low freq</tspan></text>
    <text
       xml:space="preserve"
       style="font-size:22px;font-style:normal;font-weight:normal;text-align:center;line-height:125%;letter-spacing:0px;word-spacing:0px;text-anchor:middle;fill:#000000;fill-opacity:1;stroke:none;font-family:Sans"
       x="381.42856"
       y="711.64789"
       id="text4414"
       sodipodi:linespacing="125%"><tspan
         sodipodi:role="line"
         id="tspan4416"
         x="381.42856"
         y="711.64789">w</tspan></text>
    <path
       inkscape:connector-curvature="0"
       id="path4418"
       d="m 438.57142,598.07647 0,107.85714 202.85715,0"
       style="fill:none;stroke:#000000;stroke-width:1px;stroke-linecap:butt;stroke-linejoin:miter;stroke-opacity:1;marker-start:url(#Arrow1LstartR);marker-end:url(#Arrow1Lendc)" />
    <text
       sodipodi:linespacing="125%"
       id="text4420"
       y="581.64789"
       x="543.71429"
       style="font-size:22px;font-style:normal;font-weight:normal;text-align:center;line-height:125%;letter-spacing:0px;word-spacing:0px;text-anchor:middle;fill:#000000;fill-opacity:1;stroke:none;font-family:Sans"
       xml:space="preserve"><tspan
         y="581.64789"
         x="543.71429"
         id="tspan4422"
         sodipodi:role="line">input line spectrum high freq</tspan></text>
    <text
       sodipodi:linespacing="125%"
       id="text4424"
       y="711.64789"
       x="650.71429"
       style="font-size:22px;font-style:normal;font-weight:normal;text-align:center;line-height:125%;letter-spacing:0px;word-spacing:0px;text-anchor:middle;fill:#000000;fill-opacity:1;stroke:none;font-family:Sans"
       xml:space="preserve"><tspan
         y="711.64789"
         x="650.71429"
         id="tspan4426"
         sodipodi:role="line">w</tspan></text>
    <path
       inkscape:connector-curvature="0"
       id="path4432"
       d="m 169.28571,703.79075 0,-80"
       style="fill:none;stroke:#0000ff;stroke-width:1px;stroke-linecap:butt;stroke-linejoin:miter;stroke-opacity:1;marker-end:url(#Arrow1Lendy)" />
    <path
       sodipodi:nodetypes="cc"
       style="fill:none;stroke:#0000ff;stroke-width:1px;stroke-linecap:butt;stroke-linejoin:miter;stroke-opacity:1;marker-end:url(#Arrow1LendL)"
       d="m 193.28571,703.79075 0,-67.85714"
       id="path4618"
       inkscape:connector-curvature="0" />
    <path
       inkscape:connector-curvature="0"
       id="path4620"
       d="m 219.71428,703.79075 0,-53.57143"
       style="fill:none;stroke:#0000ff;stroke-width:1px;stroke-linecap:butt;stroke-linejoin:miter;stroke-opacity:1;marker-end:url(#Arrow1Lend9)"
       sodipodi:nodetypes="cc" />
    <path
       sodipodi:nodetypes="cc"
       style="fill:none;stroke:#0000ff;stroke-width:1px;stroke-linecap:butt;stroke-linejoin:miter;stroke-opacity:1;marker-end:url(#Arrow1Lends)"
       d="m 245.71428,703.79075 0,-40.71429"
       id="path4622"
       inkscape:connector-curvature="0" />
    <path
       inkscape:connector-curvature="0"
       id="path4624"
       d="m 269.71428,703.79075 0,-31.42857"
       style="fill:none;stroke:#0000ff;stroke-width:1px;stroke-linecap:butt;stroke-linejoin:miter;stroke-opacity:1;marker-end:url(#Arrow1LendM)"
       sodipodi:nodetypes="cc" />
    <path
       sodipodi:nodetypes="cc"
       style="fill:none;stroke:#0000ff;stroke-width:1px;stroke-linecap:butt;stroke-linejoin:miter;stroke-opacity:1;marker-end:url(#Arrow1Lend4)"
       d="m 293.71428,703.79075 0,-21.42857"
       id="path4626"
       inkscape:connector-curvature="0" />
    <path
       inkscape:connector-curvature="0"
       id="path4628"
       d="m 319.71428,703.79075 0,-16.42857"
       style="fill:none;stroke:#0000ff;stroke-width:1px;stroke-linecap:butt;stroke-linejoin:miter;stroke-opacity:1;marker-end:url(#Arrow1Lend4h)"
       sodipodi:nodetypes="cc" />
    <text
       sodipodi:linespacing="125%"
       id="text4630"
       y="730.21936"
       x="192.14285"
       style="font-size:22px;font-style:normal;font-weight:normal;text-align:center;line-height:125%;letter-spacing:0px;word-spacing:0px;text-anchor:middle;fill:#000000;fill-opacity:1;stroke:none;font-family:Sans"
       xml:space="preserve"><tspan
         y="730.21936"
         x="192.14285"
         id="tspan4632"
         sodipodi:role="line">w0</tspan></text>
    <path
       style="fill:none;stroke:#0000ff;stroke-width:1px;stroke-linecap:butt;stroke-linejoin:miter;stroke-opacity:1;marker-end:url(#Arrow1Lend6)"
       d="m 439.28571,703.79075 0,-80"
       id="path4634"
       inkscape:connector-curvature="0" />
    <path
       inkscape:connector-curvature="0"
       id="path4636"
       d="m 556.85714,703.79075 0,-67.85714"
       style="fill:none;stroke:#0000ff;stroke-width:1px;stroke-linecap:butt;stroke-linejoin:miter;stroke-opacity:1;marker-end:url(#Arrow1Lenda)"
       sodipodi:nodetypes="cc" />
    <path
       sodipodi:nodetypes="cc"
       style="fill:none;stroke:#0000ff;stroke-width:1px;stroke-linecap:butt;stroke-linejoin:miter;stroke-opacity:1;marker-end:url(#Arrow1LendD)"
       d="m 679.71428,703.79075 0,-53.57143"
       id="path4638"
       inkscape:connector-curvature="0" />
    <text
       xml:space="preserve"
       style="font-size:22px;font-style:normal;font-weight:normal;text-align:center;line-height:125%;letter-spacing:0px;word-spacing:0px;text-anchor:middle;fill:#000000;fill-opacity:1;stroke:none;font-family:Sans"
       x="559.28571"
       y="730.21936"
       id="text4640"
       sodipodi:linespacing="125%"><tspan
         sodipodi:role="line"
         id="tspan4642"
         x="559.28571"
         y="730.21936">w0</tspan></text>
    <path
       inkscape:connector-curvature="0"
       id="path4644"
       d="m 169.28571,780.93361 0,107.85714 202.85715,0"
       style="fill:none;stroke:#000000;stroke-width:1px;stroke-linecap:butt;stroke-linejoin:miter;stroke-opacity:1;marker-start:url(#Arrow1Lstart6);marker-end:url(#Arrow1Lende)" />
    <text
       sodipodi:linespacing="125%"
       id="text4646"
       y="764.505"
       x="252.42857"
       style="font-size:22px;font-style:normal;font-weight:normal;text-align:center;line-height:125%;letter-spacing:0px;word-spacing:0px;text-anchor:middle;fill:#000000;fill-opacity:1;stroke:none;font-family:Sans"
       xml:space="preserve"><tspan
         y="764.505"
         x="252.42857"
         id="tspan4648"
         sodipodi:role="line">output line spectrum low freq</tspan></text>
    <text
       sodipodi:linespacing="125%"
       id="text4650"
       y="894.505"
       x="381.42856"
       style="font-size:22px;font-style:normal;font-weight:normal;text-align:center;line-height:125%;letter-spacing:0px;word-spacing:0px;text-anchor:middle;fill:#000000;fill-opacity:1;stroke:none;font-family:Sans"
       xml:space="preserve"><tspan
         y="894.505"
         x="381.42856"
         id="tspan4652"
         sodipodi:role="line">w</tspan></text>
    <path
       style="fill:none;stroke:#000000;stroke-width:1px;stroke-linecap:butt;stroke-linejoin:miter;stroke-opacity:1;marker-start:url(#Arrow1Lstarte);marker-end:url(#Arrow1LendSu)"
       d="m 438.57142,780.93361 0,107.85714 202.85715,0"
       id="path4654"
       inkscape:connector-curvature="0" />
    <text
       xml:space="preserve"
       style="font-size:22px;font-style:normal;font-weight:normal;text-align:center;line-height:125%;letter-spacing:0px;word-spacing:0px;text-anchor:middle;fill:#000000;fill-opacity:1;stroke:none;font-family:Sans"
       x="543.71429"
       y="764.505"
       id="text4656"
       sodipodi:linespacing="125%"><tspan
         sodipodi:role="line"
         id="tspan4658"
         x="543.71429"
         y="764.505">output line spectrum high freq</tspan></text>
    <text
       xml:space="preserve"
       style="font-size:22px;font-style:normal;font-weight:normal;text-align:center;line-height:125%;letter-spacing:0px;word-spacing:0px;text-anchor:middle;fill:#000000;fill-opacity:1;stroke:none;font-family:Sans"
       x="650.71429"
       y="894.505"
       id="text4660"
       sodipodi:linespacing="125%"><tspan
         sodipodi:role="line"
         id="tspan4662"
         x="650.71429"
         y="894.505">w</tspan></text>
    <path
       style="fill:none;stroke:#0000ff;stroke-width:1px;stroke-linecap:butt;stroke-linejoin:miter;stroke-opacity:1;marker-end:url(#Arrow1LendN)"
       d="m 169.28571,886.64789 0,-80"
       id="path4664"
       inkscape:connector-curvature="0" />
    <path
       inkscape:connector-curvature="0"
       id="path4666"
       d="m 193.28571,886.64789 0,-67.85714"
       style="fill:none;stroke:#0000ff;stroke-width:1px;stroke-linecap:butt;stroke-linejoin:miter;stroke-opacity:1;marker-end:url(#Arrow1Lendm7)"
       sodipodi:nodetypes="cc" />
    <path
       sodipodi:nodetypes="cc"
       style="fill:none;stroke:#0000ff;stroke-width:1px;stroke-linecap:butt;stroke-linejoin:miter;stroke-opacity:1;marker-end:url(#Arrow1LendP)"
       d="m 219.71428,886.64789 0,-53.57143"
       id="path4668"
       inkscape:connector-curvature="0" />
    <path
       inkscape:connector-curvature="0"
       id="path4670"
       d="m 245.71428,886.64789 0,-32.14286"
       style="fill:none;stroke:#0000ff;stroke-width:1px;stroke-linecap:butt;stroke-linejoin:miter;stroke-opacity:1;marker-end:url(#Arrow1LendS)"
       sodipodi:nodetypes="cc" />
    <path
       sodipodi:nodetypes="cc"
       style="fill:none;stroke:#0000ff;stroke-width:1px;stroke-linecap:butt;stroke-linejoin:miter;stroke-opacity:1;marker-end:url(#Arrow1Lendl)"
       d="m 269.71428,886.64789 0,-19.28571"
       id="path4672"
       inkscape:connector-curvature="0" />
    <path
       inkscape:connector-curvature="0"
       id="path4674"
       d="m 293.71428,886.64789 0,-14.28571"
       style="fill:none;stroke:#0000ff;stroke-width:1px;stroke-linecap:butt;stroke-linejoin:miter;stroke-opacity:1;marker-end:url(#Arrow1Lendo)"
       sodipodi:nodetypes="cc" />
    <path
       sodipodi:nodetypes="cc"
       style="fill:none;stroke:#0000ff;stroke-width:1px;stroke-linecap:butt;stroke-linejoin:miter;stroke-opacity:1;marker-end:url(#Arrow1Lendk)"
       d="m 319.71428,886.64789 0,-12.85714"
       id="path4676"
       inkscape:connector-curvature="0" />
    <text
       xml:space="preserve"
       style="font-size:22px;font-style:normal;font-weight:normal;text-align:center;line-height:125%;letter-spacing:0px;word-spacing:0px;text-anchor:middle;fill:#000000;fill-opacity:1;stroke:none;font-family:Sans"
       x="192.14285"
       y="913.07648"
       id="text4678"
       sodipodi:linespacing="125%"><tspan
         sodipodi:role="line"
         id="tspan4680"
         x="192.14285"
         y="913.07648">w0</tspan></text>
    <path
       inkscape:connector-curvature="0"
       id="path4682"
       d="m 439.28571,886.64789 0,-80"
       style="fill:none;stroke:#0000ff;stroke-width:1px;stroke-linecap:butt;stroke-linejoin:miter;stroke-opacity:1;marker-end:url(#Arrow1Lend5)" />
    <path
       sodipodi:nodetypes="cc"
       style="fill:none;stroke:#0000ff;stroke-width:1px;stroke-linecap:butt;stroke-linejoin:miter;stroke-opacity:1;marker-end:url(#Arrow1LendoK)"
       d="m 556.85714,886.64789 0,-17.14285"
       id="path4684"
       inkscape:connector-curvature="0" />
    <path
       inkscape:connector-curvature="0"
       id="path4686"
       d="m 679.71428,886.64789 0,-12.14286"
       style="fill:none;stroke:#0000ff;stroke-width:1px;stroke-linecap:butt;stroke-linejoin:miter;stroke-opacity:1;marker-end:url(#Arrow1Lendb)"
       sodipodi:nodetypes="cc" />
    <text
       sodipodi:linespacing="125%"
       id="text4688"
       y="913.07648"
       x="559.28571"
       style="font-size:22px;font-style:normal;font-weight:normal;text-align:center;line-height:125%;letter-spacing:0px;word-spacing:0px;text-anchor:middle;fill:#000000;fill-opacity:1;stroke:none;font-family:Sans"
       xml:space="preserve"><tspan
         y="913.07648"
         x="559.28571"
         id="tspan4690"
         sodipodi:role="line">w0</tspan></text>
    <path
       style="fill:none;stroke:#000000;stroke-width:1px;stroke-linecap:butt;stroke-linejoin:miter;stroke-opacity:1;marker-start:url(#Arrow1Lstartm);marker-end:url(#Arrow1LendF)"
       d="m 169.28571,955.07647 0,107.85713 202.85715,0"
       id="path4692"
       inkscape:connector-curvature="0" />
    <text
       sodipodi:linespacing="125%"
       id="text4694"
       y="1067.9336"
       x="385.85715"
       style="font-size:22px;font-style:normal;font-weight:normal;text-align:center;line-height:125%;letter-spacing:0px;word-spacing:0px;text-anchor:middle;fill:#000000;fill-opacity:1;stroke:none;font-family:Sans"
       xml:space="preserve"><tspan
         y="1067.9336"
         x="385.85715"
         id="tspan4696"
         sodipodi:role="line">t</tspan></text>
    <path
       inkscape:connector-curvature="0"
       id="path4698"
       d="m 439.28571,955.07647 0,107.85713 202.85715,0"
       style="fill:none;stroke:#000000;stroke-width:1px;stroke-linecap:butt;stroke-linejoin:miter;stroke-opacity:1;marker-start:url(#Arrow1LstartT);marker-end:url(#Arrow1LendK)" />
    <text
       xml:space="preserve"
       style="font-size:22px;font-style:normal;font-weight:normal;text-align:center;line-height:125%;letter-spacing:0px;word-spacing:0px;text-anchor:middle;fill:#000000;fill-opacity:1;stroke:none;font-family:Sans"
       x="655.85718"
       y="1067.9336"
       id="text4700"
       sodipodi:linespacing="125%"><tspan
         sodipodi:role="line"
         id="tspan4702"
         x="655.85718"
         y="1067.9336">t</tspan></text>
    <path
       inkscape:connector-curvature="0"
       id="path4704"
       d="m 175.71429,1057.2193 c 1.19047,0 2.38095,0 3.57142,0 0.2381,0 0.47619,0 0.71429,0 0.2381,0 0.54593,0.1684 0.71429,0 0.16835,-0.1683 -0.16836,-0.5459 0,-0.7143 0.16835,-0.1683 0.54592,0.1684 0.71428,0 0.16836,-0.1683 -0.10648,-0.5013 0,-0.7142 0.4791,-0.9582 0.94947,-0.4704 1.42857,-1.4286 0.10648,-0.213 -0.10648,-0.5013 0,-0.7143 0.48383,-0.9677 0.94475,-0.4609 1.42857,-1.4286 0.10648,-0.2129 -0.10647,-0.5013 0,-0.7143 0.15059,-0.3011 0.56371,-0.4131 0.71429,-0.7142 0.10648,-0.213 -0.21296,-0.6079 0,-0.7143 0.42592,-0.213 1.00265,0.2129 1.42857,0 0.2965,-0.1483 -0.24932,-1.8936 0,-2.1429 0.16836,-0.1683 0.60781,0.213 0.71429,0 0.0475,-0.095 -0.0445,-2.59 0,-2.8571 0.16139,-0.9684 0.52176,-1.8945 0.71428,-2.8572 0.0934,-0.4669 0,-0.9524 0,-1.4285 0,-1.4286 0,-2.8572 0,-4.2858 0,-4.2857 0,-8.5714 0,-12.8571 0,-1.4286 0,-2.8572 0,-4.2857 0,-0.4762 -0.21296,-1.0027 0,-1.4286 0.10648,-0.2129 0.50133,0.1065 0.71429,0 0.30117,-0.1506 0.41312,-0.5637 0.71428,-0.7143 0.21296,-0.1065 0.54593,0.1684 0.71429,0 0.16836,-0.1683 -0.16836,-0.5459 0,-0.7143 0.16836,-0.1683 0.47619,0 0.71429,0 0.47619,0 1.00265,0.213 1.42857,0 0.21296,-0.1064 0,-0.4761 0,-0.7142 0.47619,0 0.95238,0 1.42857,0 0.33678,0 3.53905,-0.032 3.57143,0 0.16836,0.1683 -0.16836,0.5459 0,0.7142 0.16836,0.1684 0.50132,-0.1064 0.71428,0 0.30117,0.1506 0.41312,0.5637 0.71429,0.7143 0.42592,0.213 1.00265,-0.2129 1.42857,0 1.53283,0.7664 0.0329,0.7801 0.71429,2.1429 0.10648,0.2129 0.47619,0 0.71428,0 1.19048,0 2.38095,0 3.57143,0 0.2381,0 0.54593,0.1683 0.71429,0 0.16835,-0.1684 -0.16836,-0.5459 0,-0.7143 0.48523,-0.4852 1.42054,0.7303 2.14285,-0.7143 0.10648,-0.2129 -0.10648,-0.5013 0,-0.7143 0.15059,-0.3011 0.5637,-0.4131 0.71429,-0.7143 0.10648,-0.2129 -0.2381,-0.7142 0,-0.7142 0.23809,0 -0.16836,0.8826 0,0.7142 0.37646,-0.3764 0.33782,-1.0521 0.71428,-1.4285 0.82077,-0.8208 1.26324,-0.7143 2.14286,-0.7143 0.2381,0 0.47619,0 0.71429,0 0.23809,0 0.50132,-0.1065 0.71428,0 1.42103,0.7105 0.33364,2.4295 0.71429,3.5714 0.0753,0.2259 0.54593,-0.1684 0.71428,0 0.16836,0.1684 -0.10647,0.5013 0,0.7143 0.44133,0.8826 0.68963,0.7143 1.42858,0.7143 0.23809,0 0.71428,-0.2381 0.71428,0 0,0.2381 -0.95238,0 -0.71428,0 0.47619,0 0.95238,0 1.42857,0 1.90476,0 -0.2381,0.2381 0.71428,-0.7143 0.16836,-0.1684 0.54593,0.1684 0.71429,0 0.16836,-0.1684 -0.16836,-0.5459 0,-0.7143 0.95238,-0.9524 0.6854,1.5152 1.42857,-0.7143 0.15058,-0.4517 -0.21296,-1.0026 0,-1.4285 0.10648,-0.213 0.48841,0.075 0.71429,0 0.47619,-0.2381 0.95238,-0.4762 1.42857,-0.7143 0,-0.2381 -0.16836,-0.546 0,-0.7143 0.023,-0.023 1.96962,0 2.14285,0 0.2381,0 0.47619,0 0.71429,0 0.2381,0 0.54593,-0.1684 0.71429,0 0.16835,0.1683 0,0.4762 0,0.7143 0,1.9047 0,3.8095 0,5.7142 0,6.4286 0,12.8572 0,19.2858 0,1.9047 0,3.8095 0,5.7143 0,0.3735 -0.0939,2.6693 0,2.8571 1.48634,2.9727 -0.0493,-0.7636 1.42857,0.7143 0.16836,0.1683 -0.16836,0.5459 0,0.7143 0.23669,0.2367 1.19187,-0.2367 1.42857,0 0.16836,0.1683 -0.21296,0.6078 0,0.7143 0.42592,0.2129 0.97682,-0.1506 1.42857,0 2.64793,0.8826 -0.87068,0.7142 1.42857,0.7142 0.2381,0 0.95238,0 0.71429,0 -0.47619,0 -1.90476,0 -1.42857,0 3.33333,0 6.66666,0 10,0 1.42857,0 2.85714,0 4.28571,0 0.2381,0 0.71429,-0.2381 0.71429,0 0,0.2381 -0.71429,-0.2381 -0.71429,0 0,0.3368 0.41312,0.5637 0.71429,0.7143 0.21295,0.1065 0.47619,0 0.71428,0 1.42857,0 2.85714,0 4.28572,0 0.23809,0 0.54592,0.1684 0.71428,0 0.33672,-0.3367 -0.33672,-1.0918 0,-1.4285 0.16836,-0.1684 0.54593,0.1683 0.71429,0 0.95238,-0.9524 -1.51523,-0.6854 0.71428,-1.4286 0.38019,-0.1267 5.10122,0 5.71429,0 0.23809,0 0.47619,0 0.71428,0 0.2381,0 0.54593,-0.1684 0.71429,0 0.16836,0.1683 -0.16836,0.5459 0,0.7143 0.10073,0.1007 1.99634,0.073 2.14286,0 1.40217,-0.7011 0.32157,-1.3575 0.71428,-2.1429 0.15059,-0.3012 0.60781,-0.3948 0.71429,-0.7143 0.15058,-0.4517 0,-0.9524 0,-1.4285 0,-0.2381 -0.10648,-0.5014 0,-0.7143 0.15058,-0.3012 0.60781,-0.3949 0.71428,-0.7143 0.3251,-0.9753 -0.32509,-3.3105 0,-4.2857 0.10648,-0.3195 0.56371,-0.4131 0.71429,-0.7143 0.19209,-0.3842 -0.11409,-2.2867 0,-2.8572 0.19253,-0.9626 0.52176,-1.8945 0.71429,-2.8571 0.18319,-0.916 -0.22684,-1.9498 0,-2.8571 0.12912,-0.5165 0.58516,-0.9121 0.71428,-1.4286 0.11549,-0.462 0,-0.9524 0,-1.4286 0,-1.1905 0,-2.3809 0,-3.5714 0,-0.4762 -0.21296,-1.0027 0,-1.4286 0.10648,-0.2129 0.50133,0.1065 0.71429,0 0.30117,-0.1506 0.5637,-0.4131 0.71428,-0.7143 0.10648,-0.2129 0,-0.4762 0,-0.7143 0,-0.2381 0,-0.4761 0,-0.7142 0,-0.7143 0,-1.4286 0,-2.1429 0,-0.2793 -0.10269,-4.6919 0,-5 0.10648,-0.3194 0.60781,-0.3948 0.71429,-0.7143 0.15058,-0.4517 -0.21296,-1.0026 0,-1.4286 0.059,-0.1179 1.95282,0 2.14286,0 1.66666,0 3.33333,0 5,0 0.23809,0 0.54592,-0.1683 0.71428,0 0.16836,0.1684 -0.16836,0.546 0,0.7143 0.21898,0.219 3.35068,-0.2207 3.57143,0 0.16836,0.1684 -0.16836,0.546 0,0.7143 0.16836,0.1684 0.47619,0 0.71429,0 0.17323,0 2.11988,0.023 2.14285,0 0.33672,-0.3367 -0.33671,-1.0918 0,-1.4286 0.16836,-0.1683 0.54593,0.1684 0.71429,0 0.16836,-0.1683 -0.16836,-0.5459 0,-0.7142 0.16836,-0.1684 0.50133,0.1064 0.71428,0 0.30117,-0.1506 0.41312,-0.5637 0.71429,-0.7143 0.21296,-0.1065 0.47619,0 0.71429,0 0.23809,0 0.47619,0 0.71428,0 0.2381,0 0.95238,0 0.71429,0 -0.47619,0 -1.90476,0 -1.42857,0 0.71428,0 1.54853,-0.3962 2.14285,0 0.39622,0.2641 -0.15058,0.9768 0,1.4285 0.74317,2.2296 0.47619,-0.2381 1.42857,0.7143 0.16836,0.1684 -0.16835,0.546 0,0.7143 0.16836,0.1684 0.4762,0 0.71429,0 0.2381,0 0.47619,0 0.71429,0 0.37351,0 2.66932,0.094 2.85714,0 2.97268,-1.4863 -0.7636,0.049 0.71428,-1.4286 0.16836,-0.1683 0.50133,0.1065 0.71429,0 0.30117,-0.1505 0.39485,-0.6078 0.71429,-0.7142 0.39501,-0.1317 3.56639,0 4.28571,0 0.17323,0 2.11989,-0.023 2.14286,0 0.16836,0.1683 0,0.4761 0,0.7142 0,1.6667 0,3.3334 0,5 0,7.6191 0,15.2381 0,22.8572 0,0.286 0,2.1267 0,2.8571 0,0.2381 0,0.4762 0,0.7143 0,0.2381 -0.16836,0.5459 0,0.7143 0.16836,0.1684 0.54592,-0.1684 0.71428,0 0.16836,0.1684 -0.10648,0.5013 0,0.7143 2.36899,2.369 -0.33671,-0.6735 0.71429,1.4286 0.15058,0.3011 0.5637,0.4131 0.71428,0.7142 0.10648,0.213 -0.16835,0.546 0,0.7143 0.16836,0.1684 0.54593,-0.1683 0.71429,0 0.16836,0.1684 -0.16836,0.546 0,0.7143 0.16836,0.1684 0.54593,-0.1683 0.71429,0 0.16835,0.1684 -0.16836,0.5459 0,0.7143 0.16835,0.1684 0.47619,0 0.71428,0 0.2381,0 0.47619,0 0.71429,0 2.38095,0 4.7619,0 7.14285,0 0.2381,0 0.4762,0 0.71429,0 0.2381,0 0.54593,-0.1684 0.71429,0 0.16835,0.1684 -0.10648,0.5013 0,0.7143 0.15058,0.3012 0.5637,0.4131 0.71428,0.7143 0.10648,0.2129 -0.16836,0.5459 0,0.7143 0.16836,0.1683 0.60781,-0.213 0.71429,0 0.21296,0.4259 -0.21296,1.0026 0,1.4285 0.10648,0.213 0.47619,0 0.71428,0 0.95238,0 1.90477,0 2.85715,0 3.09523,0 6.19047,0 9.28571,0 0.49681,0 3.31312,0.1292 3.57143,0 0.30117,-0.1506 0.47619,-0.4762 0.71428,-0.7143 0.2381,-0.2381 0.56371,-0.4131 0.71429,-0.7142 0.10648,-0.213 -0.0753,-0.4885 0,-0.7143 0.16836,-0.5051 0.58516,-0.9121 0.71429,-1.4286 0.64164,-2.5666 0.71428,-4.6424 0.71428,-7.1429 0,-3.8095 0,-7.619 0,-11.4285 0,-3.8096 0,-7.6191 0,-11.4286 0,-0.2381 0,-0.4762 0,-0.7143 0,-0.2381 -0.16836,-0.5459 0,-0.7143 0.16836,-0.1683 0.54593,0.1684 0.71429,0 0.19096,-0.1909 -0.22781,-3.1158 0,-3.5714 0.15058,-0.3012 0.5637,-0.4131 0.71428,-0.7143 0.10648,-0.2129 -0.16836,-0.5459 0,-0.7143 0.37646,-0.3764 1.05211,-0.3378 1.42857,-0.7143 0.70463,-0.7046 -1.46362,-1.4285 0.71429,-1.4285 1.19048,0 2.38095,0 3.57143,0 0.23809,0 0.54593,-0.1684 0.71428,0 0.33672,0.3367 -0.33671,1.0918 0,1.4285 0.86999,0.87 1.59587,0.3346 2.14286,1.4286 0.21296,0.4259 -0.33672,1.0919 0,1.4286 0.16836,0.1683 0.54593,-0.1684 0.71429,0 0.37646,0.3764 0.54592,0.9235 0.71428,1.4286 0.0753,0.2258 -0.16836,0.5459 0,0.7142 0.16836,0.1684 0.54593,0.1684 0.71429,0 0.0736,-0.074 -0.0594,-3.3933 0,-3.5714 0.4738,-1.4214 0.66667,-0.3333 1.42857,-0.7143 2.97269,-1.4863 -0.7636,0.049 0.71429,-1.4285 0.37646,-0.3765 0.95238,-0.4762 1.42857,-0.7143 0.47619,-0.2381 0.92349,-0.546 1.42857,-0.7143 0.42591,-0.142 3.59367,0 4.28571,0 2.61905,0 5.2381,0 7.85715,0 0.33678,0 3.53905,0.032 3.57142,0 0.16836,-0.1684 -0.16835,-0.5459 0,-0.7143 0.33672,-0.3367 1.09186,0.3367 1.42858,0 0.16835,-0.1684 -0.16836,-0.5459 0,-0.7143 0.16835,-0.1683 0.47619,0 0.71428,0 0.2381,0 0.47619,0 0.71429,0"
       style="fill:none;stroke:#0000ff;stroke-width:1px;stroke-linecap:butt;stroke-linejoin:miter;stroke-opacity:1" />
    <path
       inkscape:connector-curvature="0"
       id="path4708"
       d="m 449.28571,1012.2193 c 67.14222,-5.7028 140.00147,5.2216 183.57143,0.7143"
       style="fill:none;stroke:#0000ff;stroke-width:1px;stroke-linecap:butt;stroke-linejoin:miter;stroke-opacity:1" />
    <text
       sodipodi:linespacing="125%"
       id="text4710"
       y="1003.6479"
       x="451.32269"
       style="font-size:22px;font-style:normal;font-weight:normal;text-align:start;line-height:125%;letter-spacing:0px;word-spacing:0px;text-anchor:start;fill:#000000;fill-opacity:1;stroke:none;font-family:Sans"
       xml:space="preserve"><tspan
         y="1003.6479"
         x="451.32269"
         id="tspan4712"
         sodipodi:role="line">average value plus ripple</tspan></text>
    <text
       xml:space="preserve"
       style="font-size:22px;font-style:normal;font-weight:normal;text-align:center;line-height:125%;letter-spacing:0px;word-spacing:0px;text-anchor:middle;fill:#000000;fill-opacity:1;stroke:none;font-family:Sans"
       x="252.42857"
       y="944.31213"
       id="text4714"
       sodipodi:linespacing="125%"><tspan
         sodipodi:role="line"
         id="tspan4716"
         x="252.42857"
         y="944.31213">output amplitude low freq</tspan></text>
    <text
       sodipodi:linespacing="125%"
       id="text4718"
       y="944.31213"
       x="543.71429"
       style="font-size:22px;font-style:normal;font-weight:normal;text-align:center;line-height:125%;letter-spacing:0px;word-spacing:0px;text-anchor:middle;fill:#000000;fill-opacity:1;stroke:none;font-family:Sans"
       xml:space="preserve"><tspan
         y="944.31213"
         x="543.71429"
         id="tspan4720"
         sodipodi:role="line">output amplitude high freq</tspan></text>
  </g>
</svg>
