<?xml version="1.0" encoding="utf-8"?>
<!-- Generator: Adobe Illustrator 26.5.1, SVG Export Plug-In . SVG Version: 6.00 Build 0)  -->
<svg version="1.1" xmlns="http://www.w3.org/2000/svg" xmlns:xlink="http://www.w3.org/1999/xlink" x="0px" y="0px" width="64.15px"
	 height="63.62px" viewBox="0 0 64.15 63.62" style="enable-background:new 0 0 64.15 63.62;" xml:space="preserve">
<style type="text/css">
	.st0{fill:#C4C6C8;stroke:#000000;stroke-linecap:round;stroke-linejoin:round;stroke-miterlimit:10;}
	.st1{stroke:#000000;stroke-linecap:round;stroke-linejoin:round;stroke-miterlimit:10;}
	.st2{fill:none;stroke:#000000;stroke-linecap:round;stroke-linejoin:round;stroke-miterlimit:10;}
	.st3{fill:none;stroke:#FFFFFF;stroke-width:1.5;stroke-linecap:round;stroke-linejoin:round;stroke-miterlimit:10;}
	.st4{fill:none;stroke:#009BDD;stroke-width:0.75;stroke-linecap:round;stroke-linejoin:round;}
	.st5{fill:#009BDD;}
	.st6{fill:#FFFFFF;stroke:#000000;stroke-miterlimit:10;}
	.st7{fill:#FFFFFF;stroke:#000000;stroke-linecap:round;stroke-miterlimit:10;}
	.st8{fill:none;stroke:#FEBD27;stroke-linecap:round;stroke-linejoin:round;stroke-miterlimit:10;}
	.st9{fill:none;stroke:#FFFFFF;stroke-width:2;stroke-linecap:round;stroke-linejoin:round;stroke-miterlimit:10;}
</style>
<g id="Layer_1">
	<rect x="0.5" y="28.54" class="st0" width="63.15" height="6.71"/>
	<rect x="26.34" y="23.63" class="st1" width="11.46" height="16.52"/>
	<rect x="31.06" y="0.66" class="st0" width="2.02" height="62.46"/>
	<g>
		<path class="st2" d="M56.69,9l-3.41-3.42c0,0,0,0,0,0c-1.87,1.87-1.87,4.95,0,6.83L56.69,9z"/>
		<line class="st2" x1="50.89" y1="14.8" x2="56.69" y2="9"/>
		<line class="st2" x1="50.89" y1="3.2" x2="56.69" y2="9"/>
	</g>
	<path class="st3" d="M53.54,23.06c-10.4,1.95-10.17,15.94,0,17.54"/>
	<g>
		<g>
			<path class="st4" d="M53.54,23.06C43.33,24.97,43.37,38.5,53,40.5"/>
			<g>
				<path class="st5" d="M49.43,42.01c1.49-1.44,3.31-1.65,3.31-1.65s-1.67-1.59-1.89-3.18c-0.1-0.74,0.62-0.75,0.65-0.38
					c0.1,1.49,1.45,2.45,2.01,3.4c0.15,0.24,0.03,0.55-0.24,0.64c-0.92,0.31-2.54,0.66-3.51,1.84
					C49.55,42.95,48.88,42.55,49.43,42.01z"/>
			</g>
		</g>
	</g>
	<rect x="31.06" y="4.56" class="st6" width="2.02" height="8.97"/>
</g>
<g id="Layer_2">
	<path class="st2" d="M10.06,10.15l-1.33,1.9h1.83v2.77l2.46-1.86V7.33v0c0-2.92-2.39-5.31-5.31-5.31h0c-2.9,0-5.27,2.37-5.27,5.27
		v0.04v7.49H1.02v2.02h1.43h11.21h0.9h0.01v-2.02h-0.91H4.23h0.59v-4.68h3.23l-1.33,1.9"/>
	<line class="st7" x1="4.84" y1="18.24" x2="4.84" y2="23.06"/>
	<line class="st7" x1="10.64" y1="18.24" x2="10.64" y2="23.06"/>
	<line class="st8" x1="15.96" y1="5.23" x2="20.69" y2="0.5"/>
	<line class="st8" x1="15.96" y1="12.86" x2="20.69" y2="17.59"/>
	<line class="st9" x1="48.2" y1="9.04" x2="15.96" y2="9.04"/>
	<line class="st8" x1="15.96" y1="9.04" x2="48.2" y2="9.04"/>
	<g>
	</g>
</g>
</svg>
