<?xml version="1.0" encoding="utf-8"?>
<!-- Generator: Adobe Illustrator 26.5.0, SVG Export Plug-In . SVG Version: 6.00 Build 0)  -->
<svg version="1.1" id="Layer_1" xmlns="http://www.w3.org/2000/svg" xmlns:xlink="http://www.w3.org/1999/xlink" x="0px" y="0px"
	 width="355.55px" height="152.75px" viewBox="0 0 355.55 152.75" style="enable-background:new 0 0 355.55 152.75;"
	 xml:space="preserve">
<style type="text/css">
	.st0{fill:#F47729;}
	.st1{fill:none;stroke:#000000;stroke-width:0.9815;stroke-linecap:round;stroke-linejoin:round;}
	.st2{fill:none;stroke:#009BDD;stroke-width:0.9815;stroke-linecap:round;stroke-linejoin:round;}
	.st3{fill:none;stroke:#000000;stroke-linecap:round;stroke-linejoin:round;}
	.st4{fill:#F47729;stroke:#000000;stroke-width:0.9815;stroke-linecap:round;stroke-linejoin:round;}
	.st5{fill:#54B848;stroke:#000000;stroke-width:0.9815;stroke-linecap:round;stroke-linejoin:round;}
	.st6{fill:none;stroke:#009BDD;stroke-linecap:round;stroke-linejoin:round;}
	.st7{fill:none;stroke:#009BDD;stroke-width:2;stroke-linecap:round;stroke-linejoin:round;}
	.st8{fill:#F47729;stroke:#000000;stroke-linecap:round;stroke-linejoin:round;}
	.st9{fill:#813795;stroke:#000000;stroke-linecap:round;stroke-linejoin:round;}
	.st10{fill:none;stroke:#000000;stroke-width:0.5;stroke-linecap:round;stroke-linejoin:round;}
	.st11{stroke:#000000;stroke-linecap:round;stroke-linejoin:round;}
	.st12{font-family:'Palatino-Roman';}
	.st13{font-size:8px;}
	.st14{fill:#009BDD;}
	.st15{fill:#813795;}
	.st16{fill:none;stroke:#008CCA;stroke-width:2;stroke-linecap:round;stroke-linejoin:round;}
	.st17{fill:#FFFFFF;}
	.st18{font-family:'Palatino-Bold';}
</style>
<g>
	<g>
		<g id="XMLID_00000156570053596593232790000003838162552167647918_">
			<g>
				<path class="st0" d="M119.91,104.1c-0.05,0.06-0.11,0.11-0.16,0.16C119.56,103.93,119.6,103.78,119.91,104.1z"/>
				<path class="st0" d="M116.4,100.44c0,2.02-0.65,3.88-1.74,5.41c-0.95-0.41-1.6-1.16-1.85-1.59c0.05-0.05,0.11-0.1,0.16-0.16
					c-0.31-0.32-0.35-0.17-0.16,0.16c-3.69,3.67-6.38,0.98-6.94-0.01c0.05-0.05,0.1-0.1,0.15-0.15c-0.3-0.32-0.34-0.17-0.15,0.15
					c-3.69,3.69-6.38,0.99-6.94,0c0.05-0.05,0.1-0.1,0.15-0.15c-0.3-0.32-0.34-0.17-0.15,0.15c-0.08,0.08-0.15,0.15-0.22,0.21
					c-0.59-1.22-0.92-2.58-0.92-4.02c0-5.14,4.17-9.3,9.3-9.3C112.23,91.14,116.4,95.3,116.4,100.44z"/>
				<path class="st0" d="M112.97,104.1c-0.05,0.06-0.11,0.11-0.16,0.16C112.62,103.93,112.66,103.78,112.97,104.1z"/>
				<path class="st0" d="M106.02,104.1c-0.05,0.05-0.1,0.1-0.15,0.15C105.68,103.93,105.72,103.78,106.02,104.1z"/>
				<path class="st0" d="M99.08,104.1c-0.05,0.05-0.1,0.1-0.15,0.15C98.74,103.93,98.78,103.78,99.08,104.1z"/>
				<path class="st0" d="M92.14,104.1c-0.05,0.05-0.1,0.1-0.15,0.15C91.79,103.93,91.83,103.78,92.14,104.1z"/>
				<path class="st0" d="M85.2,104.1c-0.05,0.05-0.1,0.1-0.15,0.15C84.85,103.93,84.89,103.78,85.2,104.1z"/>
				<path class="st0" d="M78.26,104.1c-0.05,0.05-0.1,0.1-0.15,0.15C77.91,103.93,77.95,103.78,78.26,104.1z"/>
				<path class="st0" d="M71.32,104.1c-0.05,0.05-0.1,0.1-0.15,0.15C70.97,103.93,71.01,103.78,71.32,104.1z"/>
				<path class="st0" d="M64.38,104.1c-0.05,0.06-0.11,0.11-0.16,0.16C64.03,103.93,64.07,103.78,64.38,104.1z"/>
				<path class="st0" d="M57.44,104.1c-0.05,0.06-0.11,0.11-0.16,0.16C57.09,103.93,57.13,103.78,57.44,104.1z"/>
				<path class="st0" d="M50.5,104.1c-0.05,0.06-0.11,0.11-0.16,0.16C50.15,103.93,50.19,103.78,50.5,104.1z"/>
			</g>
			<g>
				<path class="st1" d="M98.71,104.46c-0.59-1.22-0.92-2.58-0.92-4.02c0-5.14,4.17-9.3,9.3-9.3c5.14,0,9.31,4.16,9.31,9.3
					c0,2.02-0.65,3.88-1.74,5.41"/>
				<path class="st2" d="M43.56,104.1c-1.25-1.29,1.89,5.03,6.78,0.16c0.05-0.05,0.11-0.1,0.16-0.16"/>
				<path class="st2" d="M50.5,104.1c-0.31-0.32-0.35-0.17-0.16,0.16c0.57,0.99,3.26,3.67,6.94,0c0.05-0.05,0.11-0.1,0.16-0.16"/>
				<path class="st2" d="M57.44,104.1c-0.31-0.32-0.35-0.17-0.16,0.16c0.57,0.99,3.26,3.67,6.94,0c0.05-0.05,0.11-0.1,0.16-0.16"/>
				<path class="st2" d="M64.38,104.1c-0.31-0.32-0.35-0.17-0.16,0.16c0.57,0.99,3.26,3.67,6.95-0.01c0.05-0.05,0.1-0.1,0.15-0.15"
					/>
				<path class="st2" d="M71.32,104.1c-0.31-0.32-0.35-0.17-0.15,0.15c0.56,1,3.26,3.69,6.94,0c0.05-0.05,0.1-0.1,0.15-0.15"/>
				<path class="st2" d="M78.26,104.1c-0.31-0.32-0.35-0.17-0.15,0.15c0.56,1,3.26,3.69,6.94,0c0.05-0.05,0.1-0.1,0.15-0.15"/>
				<path class="st2" d="M85.2,104.1c-0.31-0.32-0.35-0.17-0.15,0.15c0.56,1,3.26,3.69,6.94,0c0.05-0.05,0.1-0.1,0.15-0.15"/>
				<path class="st2" d="M92.14,104.1c-0.31-0.32-0.35-0.17-0.15,0.15c0.55,0.98,3.15,3.58,6.72,0.22v-0.01
					c0.07-0.06,0.14-0.13,0.22-0.21c0.05-0.05,0.1-0.1,0.15-0.15"/>
				<path class="st2" d="M99.08,104.1c-0.3-0.32-0.34-0.17-0.15,0.15c0.56,0.99,3.25,3.69,6.94,0c0.05-0.05,0.1-0.1,0.15-0.15"/>
				<path class="st2" d="M106.02,104.1c-0.3-0.32-0.34-0.17-0.15,0.15c0.56,0.99,3.25,3.68,6.94,0.01c0.05-0.05,0.11-0.1,0.16-0.16"
					/>
				<path class="st2" d="M119.91,104.1c-0.31-0.32-0.35-0.17-0.16,0.16c0.58,1.01,3.34,3.75,7.1-0.16"/>
				<path class="st2" d="M112.97,104.1c-0.31-0.32-0.35-0.17-0.16,0.16c0.25,0.43,0.9,1.18,1.85,1.59c1.25,0.53,3.01,0.48,5.09-1.59
					c0.05-0.05,0.11-0.1,0.16-0.16"/>
			</g>
		</g>
	</g>
	<path class="st3" d="M32.81,82.8c0,0,14.34,0,19.12,0c3.14,0,3.73,1.51,3.73,3.73v4.9"/>
	<path class="st3" d="M61.72,91.42V82.8c0-4.75-1.07-5.83-9.79-5.83c-4.78,0-19.12,0-19.12,0"/>
	
		<ellipse transform="matrix(0.3921 -0.9199 0.9199 0.3921 -59.1002 70.0959)" class="st4" cx="23.49" cy="79.76" rx="9.56" ry="9.56"/>
	<line class="st5" x1="16.73" y1="73.01" x2="30.24" y2="86.52"/>
	<line class="st5" x1="30.24" y1="73.01" x2="16.73" y2="86.52"/>
	<line class="st3" x1="4.77" y1="82.8" x2="14.35" y2="82.8"/>
	<line class="st3" x1="14.35" y1="76.97" x2="2.4" y2="76.97"/>
	<path class="st3" d="M3.9,72.77c0,0-6.99,18.42-0.93,9.79c6.06-8.63,0.82,1.97-0.81,7.09"/>
	<line class="st6" x1="58.64" y1="92.03" x2="58.46" y2="101.3"/>
	<path class="st6" d="M57.24,91.86c0,0,0.21,7.13-2.62,9.97"/>
	<path class="st6" d="M60.04,91.86c0,0-0.17,6.99,2.45,9.62"/>
	<polyline class="st7" points="43.56,89.99 43.56,140.41 140.33,140.41 	"/>
	<polyline class="st7" points="140.33,133.09 126.51,133.09 126.51,89.99 	"/>
	<path class="st6" d="M141.37,136.63c0,0,10.49-1.4,19.82,11.66"/>
	<path class="st6" d="M142.13,134.77c0,0,12.88-0.58,19.3,5.83"/>
	<path class="st6" d="M141.61,138.5c0,0,7.46-1.63,11.19,13.75"/>
	<path class="st6" d="M154.43,138.5c0,0,3.5,0.7,8.16,7.23"/>
	<path class="st6" d="M150.23,141.29c0,0,3.26,1.63,6.53,10.72"/>
	<polyline class="st8" points="25.32,42.94 25.32,70.21 22.29,70.21 22.29,43.02 	"/>
	<polyline class="st8" points="108.81,63.69 108.81,91.14 105.78,91.14 105.78,63.78 	"/>
	<polygon class="st9" points="56.46,55.64 52.21,48.08 47.96,55.64 	"/>
	<line class="st3" x1="44.21" y1="55.64" x2="59.78" y2="55.64"/>
	<line class="st10" x1="46.23" y1="55.77" x2="44.75" y2="57.72"/>
	<line class="st10" x1="47.81" y1="55.77" x2="46.32" y2="57.72"/>
	<line class="st10" x1="49.47" y1="55.77" x2="47.98" y2="57.72"/>
	<line class="st10" x1="51.04" y1="55.77" x2="49.56" y2="57.72"/>
	<line class="st10" x1="52.7" y1="55.77" x2="51.22" y2="57.72"/>
	<line class="st10" x1="54.28" y1="55.77" x2="52.79" y2="57.72"/>
	<line class="st10" x1="55.94" y1="55.77" x2="54.45" y2="57.72"/>
	<line class="st10" x1="57.51" y1="55.77" x2="56.03" y2="57.72"/>
	<line class="st10" x1="59.09" y1="55.77" x2="57.6" y2="57.72"/>
	<path class="st9" d="M103.95,55.62l-75.61-18.8l0.02,0.07c-0.65-1.92-2.46-3.3-4.59-3.3c-2.68,0-4.85,2.17-4.85,4.85
		c0,2.68,2.17,4.85,4.85,4.85c1.42,0,2.7-0.61,3.58-1.58l0,0l75.18,18.7l0.01,0.02c0.54,2.09,2.44,3.62,4.69,3.62
		c2.68,0,4.85-2.17,4.85-4.85c0-2.68-2.17-4.85-4.85-4.85C105.96,54.34,104.81,54.82,103.95,55.62"/>
	<path class="st11" d="M24.76,38.43c0,0.55-0.44,0.99-0.99,0.99c-0.55,0-0.99-0.44-0.99-0.99c0-0.55,0.44-0.99,0.99-0.99
		C24.31,37.44,24.76,37.88,24.76,38.43z"/>
	<path class="st11" d="M108.22,59.18c0,0.55-0.44,0.99-0.99,0.99c-0.55,0-0.99-0.44-0.99-0.99c0-0.55,0.44-0.99,0.99-0.99
		C107.77,58.19,108.22,58.64,108.22,59.18z"/>
</g>
<g>
	<g>
		<text transform="matrix(1 0 0 1 94.3005 13.1567)" class="st12 st13">Process</text>
		<rect x="82.44" y="6.78" class="st14" width="6.9" height="6.9"/>
	</g>
	<g>
		<text transform="matrix(1 0 0 1 94.4361 23.3367)" class="st12 st13">Control / Measurement</text>
	</g>
	<g>
		<text transform="matrix(1 0 0 1 94.6361 33.517)" class="st12 st13">Decision / Logic</text>
	</g>
</g>
<rect x="82.44" y="17.09" class="st0" width="6.9" height="6.9"/>
<rect x="82.44" y="27.15" class="st15" width="6.9" height="6.9"/>
<g>
	<g>
		<g id="XMLID_00000074402761225719522410000014514939949829988235_">
			<g>
				<path class="st0" d="M305.17,104.14c-0.05,0.05-0.1,0.1-0.15,0.15C304.82,103.97,304.86,103.82,305.17,104.14z"/>
				<path class="st0" d="M298.27,104.14c-0.05,0.05-0.1,0.1-0.15,0.15C297.92,103.97,297.96,103.82,298.27,104.14z"/>
				<path class="st0" d="M291.36,104.14c-0.05,0.05-0.1,0.1-0.15,0.15C291.02,103.97,291.06,103.82,291.36,104.14z"/>
				<path class="st0" d="M284.31,104.29c-0.19-0.32-0.15-0.47,0.15-0.15C284.41,104.19,284.36,104.24,284.31,104.29z"/>
				<path class="st0" d="M301.68,100.5c0,2.01-0.64,3.86-1.73,5.38c-0.95-0.41-1.6-1.16-1.83-1.59c0.05-0.05,0.1-0.1,0.15-0.15
					c-0.31-0.32-0.35-0.17-0.15,0.15c-3.67,3.66-6.35,0.99-6.91,0c0.05-0.05,0.1-0.1,0.15-0.15c-0.3-0.32-0.34-0.17-0.15,0.15
					c-3.67,3.66-6.34,0.99-6.9,0c0.05-0.05,0.1-0.1,0.15-0.15c-0.3-0.32-0.34-0.17-0.15,0.15c-0.08,0.08-0.15,0.15-0.22,0.21
					c-0.58-1.21-0.91-2.56-0.91-4c0-5.11,4.14-9.25,9.25-9.25C297.54,91.25,301.68,95.39,301.68,100.5z"/>
				<path class="st0" d="M277.56,104.14c-0.05,0.05-0.1,0.1-0.15,0.15C277.22,103.97,277.26,103.82,277.56,104.14z"/>
				<path class="st0" d="M270.66,104.14c-0.05,0.05-0.1,0.1-0.15,0.15C270.32,103.97,270.36,103.82,270.66,104.14z"/>
				<path class="st0" d="M263.76,104.14c-0.05,0.05-0.1,0.1-0.15,0.15C263.42,103.97,263.46,103.82,263.76,104.14z"/>
				<path class="st0" d="M256.86,104.14c-0.05,0.05-0.1,0.1-0.15,0.15C256.52,103.97,256.56,103.82,256.86,104.14z"/>
				<path class="st0" d="M249.96,104.14c-0.05,0.05-0.1,0.1-0.15,0.15C249.62,103.97,249.66,103.82,249.96,104.14z"/>
				<path class="st0" d="M243.06,104.14c-0.05,0.05-0.1,0.1-0.15,0.15C242.72,103.97,242.76,103.82,243.06,104.14z"/>
				<path class="st0" d="M236.16,104.14c-0.05,0.05-0.1,0.1-0.15,0.15C235.82,103.97,235.86,103.82,236.16,104.14z"/>
			</g>
			<g>
				<path class="st1" d="M284.09,104.5c-0.58-1.21-0.91-2.56-0.91-4c0-5.11,4.14-9.25,9.25-9.25c5.11,0,9.25,4.14,9.25,9.25
					c0,2.01-0.64,3.86-1.73,5.38"/>
				<path class="st2" d="M229.26,104.14c-1.24-1.29,1.89,5.01,6.75,0.15c0.05-0.05,0.1-0.1,0.15-0.15"/>
				<path class="st2" d="M236.16,104.14c-0.3-0.32-0.34-0.17-0.15,0.15c0.56,0.99,3.23,3.66,6.9,0c0.05-0.05,0.1-0.1,0.15-0.15"/>
				<path class="st2" d="M243.06,104.14c-0.3-0.32-0.34-0.17-0.15,0.15c0.56,0.99,3.23,3.66,6.9,0c0.05-0.05,0.1-0.1,0.15-0.15"/>
				<path class="st2" d="M249.96,104.14c-0.3-0.32-0.34-0.17-0.15,0.15c0.56,0.99,3.23,3.66,6.9,0c0.05-0.05,0.1-0.1,0.15-0.15"/>
				<path class="st2" d="M256.86,104.14c-0.3-0.32-0.34-0.17-0.15,0.15c0.56,0.99,3.23,3.66,6.9,0c0.05-0.05,0.1-0.1,0.15-0.15"/>
				<path class="st2" d="M263.76,104.14c-0.3-0.32-0.34-0.17-0.15,0.15c0.56,0.99,3.23,3.66,6.9,0c0.05-0.05,0.1-0.1,0.15-0.15"/>
				<path class="st2" d="M270.66,104.14c-0.3-0.32-0.34-0.17-0.15,0.15c0.56,0.99,3.23,3.66,6.9,0c0.05-0.05,0.1-0.1,0.15-0.15"/>
				<path class="st2" d="M277.56,104.14c-0.3-0.32-0.34-0.17-0.15,0.15c0.54,0.97,3.13,3.56,6.68,0.22v-0.01
					c0.07-0.06,0.14-0.13,0.22-0.21c0.05-0.05,0.1-0.1,0.15-0.15"/>
				<path class="st2" d="M284.46,104.14c-0.3-0.32-0.34-0.17-0.15,0.15c0.56,0.99,3.23,3.66,6.9,0c0.05-0.05,0.1-0.1,0.15-0.15"/>
				<path class="st2" d="M291.36,104.14c-0.3-0.32-0.34-0.17-0.15,0.15c0.56,0.99,3.24,3.66,6.91,0c0.05-0.05,0.1-0.1,0.15-0.15"/>
				<path class="st2" d="M305.17,104.14c-0.31-0.32-0.35-0.17-0.15,0.15c0.56,1,3.31,3.73,7.05-0.15"/>
				<path class="st2" d="M298.27,104.14c-0.31-0.32-0.35-0.17-0.15,0.15c0.23,0.43,0.88,1.18,1.83,1.59c1.24,0.53,3,0.48,5.07-1.59
					c0.05-0.05,0.1-0.1,0.15-0.15"/>
			</g>
		</g>
	</g>
	<path class="st3" d="M218.57,82.96c0,0,14.25,0,19.01,0c3.39,0,3.71,0.95,3.71,3.71v4.87"/>
	<path class="st3" d="M247.31,91.53v-8.58c0-5.16-1.41-5.8-9.73-5.8c-4.75,0-19.01,0-19.01,0"/>
	<path class="st4" d="M218.8,79.94c0,5.25-4.25,9.5-9.5,9.5c-5.25,0-9.5-4.25-9.5-9.5c0-5.25,4.25-9.5,9.5-9.5
		C214.55,70.44,218.8,74.7,218.8,79.94z"/>
	<line class="st5" x1="202.58" y1="73.22" x2="216.02" y2="86.66"/>
	<line class="st5" x1="216.02" y1="73.22" x2="202.58" y2="86.66"/>
	<line class="st3" x1="190.69" y1="82.96" x2="200.21" y2="82.96"/>
	<line class="st3" x1="200.21" y1="77.16" x2="188.34" y2="77.16"/>
	<path class="st3" d="M189.83,72.99c0,0-6.95,18.31-0.93,9.73c6.03-8.58,0.81,1.95-0.81,7.05"/>
	<line class="st6" x1="244.22" y1="92.23" x2="244.04" y2="101.44"/>
	<path class="st6" d="M242.83,92.05c0,0,0.21,7.09-2.61,9.91"/>
	<path class="st6" d="M245.61,92.05c0,0-0.17,6.95,2.43,9.56"/>
	<polyline class="st7" points="229.26,90.12 229.26,140.25 325.48,140.25 	"/>
	<polyline class="st16" points="325.48,132.97 311.73,132.97 311.73,90.12 	"/>
	<path class="st6" d="M326.77,136.51c0,0,10.43-1.39,19.7,11.59"/>
	<path class="st6" d="M327.52,134.66c0,0,12.81-0.58,19.18,5.79"/>
	<path class="st6" d="M327,138.37c0,0,7.42-1.62,11.13,13.68"/>
	<path class="st6" d="M339.75,138.37c0,0,3.48,0.7,8.11,7.19"/>
	<path class="st6" d="M335.58,141.15c0,0,3.24,1.62,6.49,10.66"/>
	<polyline class="st8" points="211.12,43.82 211.12,70.44 208.11,70.44 208.11,43.9 	"/>
	<polyline class="st8" points="294.13,63.96 294.13,91.25 291.12,91.25 291.12,64.05 	"/>
	<rect x="284.86" y="54.49" class="st4" width="15.3" height="15.3"/>
	<rect x="201.88" y="43.82" class="st4" width="15.3" height="15.3"/>
	<text transform="matrix(1 0 0 1 304.8913 65.6299)" class="st12 st13">level sensor</text>
	<text transform="matrix(1 0 0 1 200.0163 29.7749)"><tspan x="0" y="0" class="st12 st13">valve</tspan><tspan x="-4.96" y="9.6" class="st12 st13">actuator</tspan></text>
	<line class="st3" x1="275.13" y1="35.02" x2="275.13" y2="20.41"/>
	<text transform="matrix(1 0 0 1 285.8024 30.2632)" class="st12 st13">input</text>
	<text transform="matrix(1 0 0 1 243.6334 30.2632)" class="st12 st13">output</text>
	<polyline class="st3" points="314.76,20.41 314.76,35.02 235.49,35.02 235.49,20.41 	"/>
	<polyline class="st3" points="209.53,51.47 255.66,51.47 255.66,35.02 	"/>
	<rect x="235.49" y="5.81" class="st9" width="79.27" height="14.6"/>
	<line class="st3" x1="292.51" y1="62.13" x2="292.51" y2="35.02"/>
	<g>
		<g>
			<g>
				<line class="st3" x1="315.34" y1="11.61" x2="354.98" y2="11.61"/>
				<g>
					<path d="M318.5,14.26c-1.07-1.9-2.85-2.65-2.85-2.65s2.16-1.11,2.85-2.65c0.32-0.72-0.4-0.94-0.54-0.58
						c-0.55,1.48-2.19,2.05-3.05,2.84c-0.22,0.2-0.2,0.55,0.05,0.72c0.84,0.59,2.37,1.42,3,2.91
						C318.1,15.17,318.89,14.96,318.5,14.26z"/>
				</g>
				<g>
					<path d="M351.82,14.26c1.07-1.9,2.85-2.65,2.85-2.65s-2.16-1.11-2.85-2.65c-0.32-0.72,0.4-0.94,0.54-0.58
						c0.55,1.48,2.19,2.05,3.05,2.84c0.22,0.2,0.2,0.55-0.05,0.72c-0.84,0.59-2.37,1.42-3,2.91
						C352.22,15.17,351.42,14.96,351.82,14.26z"/>
				</g>
			</g>
		</g>
	</g>
	<text transform="matrix(1 0 0 1 327.6674 6.7792)" class="st12 st13">com</text>
	<text transform="matrix(1 0 0 1 240.3532 15.4429)" class="st17 st18 st13">real-time computer</text>
</g>
</svg>
