<?xml version="1.0" encoding="utf-8"?>
<!-- Generator: Adobe Illustrator 26.0.2, SVG Export Plug-In . SVG Version: 6.00 Build 0)  -->
<svg version="1.1" id="Layer_1" xmlns="http://www.w3.org/2000/svg" xmlns:xlink="http://www.w3.org/1999/xlink" x="0px" y="0px"
	 viewBox="0 0 38.8 38.8" style="enable-background:new 0 0 38.8 38.8;" xml:space="preserve">
<style type="text/css">
	.st0{fill:#FFFFFF;stroke:#000000;stroke-miterlimit:10;}
	.st1{fill:#FFFFFF;}
</style>
<circle class="st0" cx="19.4" cy="19.4" r="2.6"/>
<circle class="st0" cx="19.4" cy="19.4" r="2.6"/>
<path d="M38.8,21.5v-4.3l-5.7-1.9c-0.3-1-0.7-2-1.2-2.8l2.6-5.3l-3-3l-5.3,2.7c-0.9-0.5-1.8-0.9-2.8-1.2L21.5,0h-4.3l-1.9,5.7
	c-1,0.3-1.9,0.7-2.8,1.2L7.2,4.2l-3,3l2.6,5.3c-0.5,0.9-0.9,1.8-1.2,2.8L0,17.2v4.3l5.7,1.9c0.3,1,0.7,2,1.2,2.8l-2.6,5.3l3,3
	l5.3-2.6c0.9,0.5,1.8,0.9,2.8,1.2l1.9,5.7h4.3l1.9-5.7c1-0.3,1.9-0.7,2.8-1.2l5.3,2.6l3-3L32,26.3c0.5-0.9,0.9-1.8,1.2-2.8
	L38.8,21.5z"/>
<g>
	<path class="st1" d="M14.5,18.2c0.4-0.1,0.7-0.1,0.9-0.2c0.3-0.1,0.5-0.3,0.5-0.6c0-0.3-0.1-0.6-0.4-0.7c-0.2-0.1-0.6-0.2-1.1-0.2
		c-0.5,0-0.9,0.1-1.1,0.4c-0.2,0.2-0.3,0.5-0.3,0.8h-2.1c0-0.7,0.3-1.4,0.6-1.8c0.6-0.8,1.6-1.1,3-1.1c0.9,0,1.8,0.2,2.5,0.6
		c0.7,0.4,1.1,1.1,1.1,2.1v3.9c0,0.3,0,0.6,0,1c0,0.3,0.1,0.5,0.1,0.6c0.1,0.1,0.2,0.2,0.3,0.3v0.3h-2.4C16,23.2,16,23.1,16,22.9
		c0-0.2,0-0.3-0.1-0.5c-0.3,0.3-0.7,0.6-1.1,0.9c-0.5,0.3-1,0.4-1.6,0.4c-0.8,0-1.4-0.2-1.9-0.7c-0.5-0.4-0.8-1.1-0.8-1.9
		c0-1,0.4-1.8,1.2-2.3c0.4-0.3,1.1-0.4,2-0.5L14.5,18.2z M15.8,19.3c-0.1,0.1-0.3,0.2-0.4,0.2c-0.1,0.1-0.3,0.1-0.6,0.2l-0.5,0.1
		c-0.5,0.1-0.8,0.2-1,0.3c-0.4,0.2-0.5,0.5-0.5,0.9c0,0.4,0.1,0.7,0.3,0.8c0.2,0.2,0.5,0.3,0.8,0.3c0.5,0,0.9-0.1,1.3-0.4
		s0.6-0.8,0.6-1.5V19.3z"/>
	<path class="st1" d="M22.3,23.4H20V11.9h2.2V23.4z"/>
	<path class="st1" d="M23.6,16.6V15h1.2v-2.4H27V15h1.4v1.6H27v4.5c0,0.3,0,0.6,0.1,0.7s0.4,0.1,0.8,0.1c0.1,0,0.1,0,0.2,0
		s0.1,0,0.2,0v1.7l-1.1,0c-1.1,0-1.8-0.1-2.2-0.5c-0.2-0.3-0.4-0.6-0.4-1.2v-5.2H23.6z"/>
</g>
<g>
</g>
<g>
</g>
<g>
</g>
<g>
</g>
<g>
</g>
<g>
</g>
</svg>
