<?xml version="1.0" encoding="utf-8"?>
<!-- Generator: Adobe Illustrator 27.7.0, SVG Export Plug-In . SVG Version: 6.00 Build 0)  -->
<svg version="1.1" id="Layer_1" xmlns="http://www.w3.org/2000/svg" xmlns:xlink="http://www.w3.org/1999/xlink" x="0px" y="0px"
	 width="69.63px" height="25.54px" viewBox="0 0 69.63 25.54" style="enable-background:new 0 0 69.63 25.54;" xml:space="preserve"
	>
<style type="text/css">
	.st0{fill:none;stroke:#000000;stroke-miterlimit:10;}
	.st1{stroke:#000000;stroke-miterlimit:10;}
</style>
<path class="st0" d="M66.13,25.04H3.5c-1.65,0-3-1.34-3-3V3.5c0-1.65,1.34-3,3-3h62.64c1.65,0,3,1.34,3,3v18.55
	C69.13,23.7,67.79,25.04,66.13,25.04z"/>
<path class="st1" d="M6.66,6.57H3.48c-0.55,0-1-0.45-1-1V3.97c0-0.55,0.45-1,1-1h3.19c0.55,0,1,0.45,1,1v1.59
	C7.67,6.12,7.22,6.57,6.66,6.57z"/>
<path class="st0" d="M6.66,11.9H3.48c-0.55,0-1-0.45-1-1V9.31c0-0.55,0.45-1,1-1h3.19c0.55,0,1,0.45,1,1v1.59
	C7.67,11.45,7.22,11.9,6.66,11.9z"/>
<path class="st0" d="M14.1,17.24H3.48c-0.55,0-1-0.45-1-1v-1.59c0-0.55,0.45-1,1-1H14.1c0.55,0,1,0.45,1,1v1.59
	C15.11,16.79,14.66,17.24,14.1,17.24z"/>
<path class="st0" d="M6.66,22.58H3.48c-0.55,0-1-0.45-1-1v-1.59c0-0.55,0.45-1,1-1h3.19c0.55,0,1,0.45,1,1v1.59
	C7.67,22.13,7.22,22.58,6.66,22.58z"/>
<path class="st0" d="M14.1,6.57h-3.19c-0.55,0-1-0.45-1-1V3.97c0-0.55,0.45-1,1-1h3.19c0.55,0,1,0.45,1,1v1.59
	C15.11,6.12,14.66,6.57,14.1,6.57z"/>
<path class="st0" d="M14.1,11.9h-3.19c-0.55,0-1-0.45-1-1V9.31c0-0.55,0.45-1,1-1h3.19c0.55,0,1,0.45,1,1v1.59
	C15.11,11.45,14.66,11.9,14.1,11.9z"/>
<path class="st0" d="M14.1,22.58h-3.19c-0.55,0-1-0.45-1-1v-1.59c0-0.55,0.45-1,1-1h3.19c0.55,0,1,0.45,1,1v1.59
	C15.11,22.13,14.66,22.58,14.1,22.58z"/>
<path class="st0" d="M21.54,6.57h-3.19c-0.55,0-1-0.45-1-1V3.97c0-0.55,0.45-1,1-1h3.19c0.55,0,1,0.45,1,1v1.59
	C22.54,6.12,22.09,6.57,21.54,6.57z"/>
<path class="st0" d="M21.54,11.9h-3.19c-0.55,0-1-0.45-1-1V9.31c0-0.55,0.45-1,1-1h3.19c0.55,0,1,0.45,1,1v1.59
	C22.54,11.45,22.09,11.9,21.54,11.9z"/>
<path class="st0" d="M21.54,17.24h-3.19c-0.55,0-1-0.45-1-1v-1.59c0-0.55,0.45-1,1-1h3.19c0.55,0,1,0.45,1,1v1.59
	C22.54,16.79,22.09,17.24,21.54,17.24z"/>
<path class="st0" d="M43.84,22.58H18.35c-0.55,0-1-0.45-1-1v-1.59c0-0.55,0.45-1,1-1h25.49c0.55,0,1,0.45,1,1v1.59
	C44.85,22.13,44.4,22.58,43.84,22.58z"/>
<path class="st0" d="M28.97,6.57h-3.19c-0.55,0-1-0.45-1-1V3.97c0-0.55,0.45-1,1-1h3.19c0.55,0,1,0.45,1,1v1.59
	C29.98,6.12,29.53,6.57,28.97,6.57z"/>
<path class="st0" d="M28.97,11.9h-3.19c-0.55,0-1-0.45-1-1V9.31c0-0.55,0.45-1,1-1h3.19c0.55,0,1,0.45,1,1v1.59
	C29.98,11.45,29.53,11.9,28.97,11.9z"/>
<path class="st0" d="M28.97,17.24h-3.19c-0.55,0-1-0.45-1-1v-1.59c0-0.55,0.45-1,1-1h3.19c0.55,0,1,0.45,1,1v1.59
	C29.98,16.79,29.53,17.24,28.97,17.24z"/>
<path class="st0" d="M36.41,6.57h-3.19c-0.55,0-1-0.45-1-1V3.97c0-0.55,0.45-1,1-1h3.19c0.55,0,1,0.45,1,1v1.59
	C37.41,6.12,36.96,6.57,36.41,6.57z"/>
<path class="st0" d="M36.41,11.9h-3.19c-0.55,0-1-0.45-1-1V9.31c0-0.55,0.45-1,1-1h3.19c0.55,0,1,0.45,1,1v1.59
	C37.41,11.45,36.96,11.9,36.41,11.9z"/>
<path class="st0" d="M36.41,17.24h-3.19c-0.55,0-1-0.45-1-1v-1.59c0-0.55,0.45-1,1-1h3.19c0.55,0,1,0.45,1,1v1.59
	C37.41,16.79,36.96,17.24,36.41,17.24z"/>
<path class="st0" d="M43.84,6.57h-3.19c-0.55,0-1-0.45-1-1V3.97c0-0.55,0.45-1,1-1h3.19c0.55,0,1,0.45,1,1v1.59
	C44.85,6.12,44.4,6.57,43.84,6.57z"/>
<path class="st0" d="M43.84,11.9h-3.19c-0.55,0-1-0.45-1-1V9.31c0-0.55,0.45-1,1-1h3.19c0.55,0,1,0.45,1,1v1.59
	C44.85,11.45,44.4,11.9,43.84,11.9z"/>
<path class="st0" d="M43.84,17.24h-3.19c-0.55,0-1-0.45-1-1v-1.59c0-0.55,0.45-1,1-1h3.19c0.55,0,1,0.45,1,1v1.59
	C44.85,16.79,44.4,17.24,43.84,17.24z"/>
<g>
	<path class="st0" d="M51.28,6.57h-3.19c-0.55,0-1-0.45-1-1V3.97c0-0.55,0.45-1,1-1h3.19c0.55,0,1,0.45,1,1v1.59
		C52.28,6.12,51.84,6.57,51.28,6.57z"/>
	<path class="st0" d="M51.28,11.9h-3.19c-0.55,0-1-0.45-1-1V9.31c0-0.55,0.45-1,1-1h3.19c0.55,0,1,0.45,1,1v1.59
		C52.28,11.45,51.84,11.9,51.28,11.9z"/>
	<path class="st0" d="M51.28,17.24h-3.19c-0.55,0-1-0.45-1-1v-1.59c0-0.55,0.45-1,1-1h3.19c0.55,0,1,0.45,1,1v1.59
		C52.28,16.79,51.84,17.24,51.28,17.24z"/>
	<path class="st0" d="M51.28,22.58h-3.19c-0.55,0-1-0.45-1-1v-1.59c0-0.55,0.45-1,1-1h3.19c0.55,0,1,0.45,1,1v1.59
		C52.28,22.13,51.84,22.58,51.28,22.58z"/>
</g>
<path class="st0" d="M58.72,6.57h-3.19c-0.55,0-1-0.45-1-1V3.97c0-0.55,0.45-1,1-1h3.19c0.55,0,1,0.45,1,1v1.59
	C59.72,6.12,59.27,6.57,58.72,6.57z"/>
<path class="st0" d="M58.72,11.9h-3.19c-0.55,0-1-0.45-1-1V9.31c0-0.55,0.45-1,1-1h3.19c0.55,0,1,0.45,1,1v1.59
	C59.72,11.45,59.27,11.9,58.72,11.9z"/>
<path class="st0" d="M66.15,17.24H55.53c-0.55,0-1-0.45-1-1v-1.59c0-0.55,0.45-1,1-1h10.62c0.55,0,1,0.45,1,1v1.59
	C67.16,16.79,66.71,17.24,66.15,17.24z"/>
<path class="st0" d="M58.72,22.58h-3.19c-0.55,0-1-0.45-1-1v-1.59c0-0.55,0.45-1,1-1h3.19c0.55,0,1,0.45,1,1v1.59
	C59.72,22.13,59.27,22.58,58.72,22.58z"/>
<path class="st0" d="M66.15,6.57h-3.19c-0.55,0-1-0.45-1-1V3.97c0-0.55,0.45-1,1-1h3.19c0.55,0,1,0.45,1,1v1.59
	C67.16,6.12,66.71,6.57,66.15,6.57z"/>
<path class="st0" d="M66.15,11.9h-3.19c-0.55,0-1-0.45-1-1V9.31c0-0.55,0.45-1,1-1h3.19c0.55,0,1,0.45,1,1v1.59
	C67.16,11.45,66.71,11.9,66.15,11.9z"/>
<path class="st0" d="M66.15,22.58h-3.19c-0.55,0-1-0.45-1-1v-1.59c0-0.55,0.45-1,1-1h3.19c0.55,0,1,0.45,1,1v1.59
	C67.16,22.13,66.71,22.58,66.15,22.58z"/>
</svg>
