<?xml version="1.0" encoding="utf-8"?>
<!-- Generator: Adobe Illustrator 27.7.0, SVG Export Plug-In . SVG Version: 6.00 Build 0)  -->
<svg version="1.1" id="Layer_1" xmlns="http://www.w3.org/2000/svg" xmlns:xlink="http://www.w3.org/1999/xlink" x="0px" y="0px"
	 width="35.31px" height="25.54px" viewBox="0 0 35.31 25.54" style="enable-background:new 0 0 35.31 25.54;" xml:space="preserve"
	>
<style type="text/css">
	.st0{fill:none;stroke:#000000;stroke-miterlimit:10;}
</style>
<path class="st0" d="M31.82,25.04H3.5c-1.65,0-3-1.34-3-3V3.5c0-1.65,1.34-3,3-3h28.32c1.65,0,3,1.34,3,3v18.55
	C34.81,23.7,33.47,25.04,31.82,25.04z"/>
<g>
	<g>
		<path class="st0" d="M7.93,6.52h-4.1c-0.55,0-1-0.45-1-1V3.93c0-0.55,0.45-1,1-1h4.1c0.55,0,1,0.45,1,1v1.59
			C8.94,6.07,8.49,6.52,7.93,6.52z"/>
		<path class="st0" d="M7.93,11.89h-4.1c-0.55,0-1-0.45-1-1V9.29c0-0.55,0.45-1,1-1h4.1c0.55,0,1,0.45,1,1v1.59
			C8.94,11.44,8.49,11.89,7.93,11.89z"/>
		<path class="st0" d="M7.93,17.26h-4.1c-0.55,0-1-0.45-1-1v-1.59c0-0.55,0.45-1,1-1h4.1c0.55,0,1,0.45,1,1v1.59
			C8.94,16.81,8.49,17.26,7.93,17.26z"/>
		<path class="st0" d="M7.93,22.62h-4.1c-0.55,0-1-0.45-1-1v-1.59c0-0.55,0.45-1,1-1h4.1c0.55,0,1,0.45,1,1v1.59
			C8.94,22.17,8.49,22.62,7.93,22.62z"/>
	</g>
	<g>
		<path class="st0" d="M15.78,6.52h-4.1c-0.55,0-1-0.45-1-1V3.93c0-0.55,0.45-1,1-1h4.1c0.55,0,1,0.45,1,1v1.59
			C16.79,6.07,16.34,6.52,15.78,6.52z"/>
		<path class="st0" d="M15.78,11.89h-4.1c-0.55,0-1-0.45-1-1V9.29c0-0.55,0.45-1,1-1h4.1c0.55,0,1,0.45,1,1v1.59
			C16.79,11.44,16.34,11.89,15.78,11.89z"/>
		<path class="st0" d="M15.78,17.26h-4.1c-0.55,0-1-0.45-1-1v-1.59c0-0.55,0.45-1,1-1h4.1c0.55,0,1,0.45,1,1v1.59
			C16.79,16.81,16.34,17.26,15.78,17.26z"/>
		<path class="st0" d="M15.78,22.62h-4.1c-0.55,0-1-0.45-1-1v-1.59c0-0.55,0.45-1,1-1h4.1c0.55,0,1,0.45,1,1v1.59
			C16.79,22.17,16.34,22.62,15.78,22.62z"/>
	</g>
	<g>
		<path class="st0" d="M23.64,6.52h-4.1c-0.55,0-1-0.45-1-1V3.93c0-0.55,0.45-1,1-1h4.1c0.55,0,1,0.45,1,1v1.59
			C24.64,6.07,24.19,6.52,23.64,6.52z"/>
		<path class="st0" d="M23.64,11.89h-4.1c-0.55,0-1-0.45-1-1V9.29c0-0.55,0.45-1,1-1h4.1c0.55,0,1,0.45,1,1v1.59
			C24.64,11.44,24.19,11.89,23.64,11.89z"/>
		<path class="st0" d="M23.64,17.26h-4.1c-0.55,0-1-0.45-1-1v-1.59c0-0.55,0.45-1,1-1h4.1c0.55,0,1,0.45,1,1v1.59
			C24.64,16.81,24.19,17.26,23.64,17.26z"/>
		<path class="st0" d="M23.64,22.62h-4.1c-0.55,0-1-0.45-1-1v-1.59c0-0.55,0.45-1,1-1h4.1c0.55,0,1,0.45,1,1v1.59
			C24.64,22.17,24.19,22.62,23.64,22.62z"/>
	</g>
	<g>
		<path class="st0" d="M31.49,6.52h-4.1c-0.55,0-1-0.45-1-1V3.93c0-0.55,0.45-1,1-1h4.1c0.55,0,1,0.45,1,1v1.59
			C32.49,6.07,32.04,6.52,31.49,6.52z"/>
		<path class="st0" d="M31.49,11.89h-4.1c-0.55,0-1-0.45-1-1V9.29c0-0.55,0.45-1,1-1h4.1c0.55,0,1,0.45,1,1v1.59
			C32.49,11.44,32.04,11.89,31.49,11.89z"/>
		<path class="st0" d="M31.49,17.26h-4.1c-0.55,0-1-0.45-1-1v-1.59c0-0.55,0.45-1,1-1h4.1c0.55,0,1,0.45,1,1v1.59
			C32.49,16.81,32.04,17.26,31.49,17.26z"/>
		<path class="st0" d="M31.49,22.62h-4.1c-0.55,0-1-0.45-1-1v-1.59c0-0.55,0.45-1,1-1h4.1c0.55,0,1,0.45,1,1v1.59
			C32.49,22.17,32.04,22.62,31.49,22.62z"/>
	</g>
</g>
</svg>
