<?xml version="1.0" encoding="utf-8"?>
<!-- Generator: Adobe Illustrator 26.4.1, SVG Export Plug-In . SVG Version: 6.00 Build 0)  -->
<svg version="1.1" id="Layer_1" xmlns="http://www.w3.org/2000/svg" xmlns:xlink="http://www.w3.org/1999/xlink" x="0px" y="0px"
	 width="60.36px" height="69.39px" viewBox="0 0 60.36 69.39" style="enable-background:new 0 0 60.36 69.39;" xml:space="preserve"
	>
<style type="text/css">
	.st0{fill:none;stroke:#000000;stroke-miterlimit:10;}
</style>
<path class="st0" d="M56.86,68.89H3.5c-1.65,0-3-1.34-3-3V3.5c0-1.65,1.34-3,3-3h53.37c1.65,0,3,1.34,3,3v62.4
	C59.86,67.55,58.52,68.89,56.86,68.89z"/>
<g>
	<g>
		<path class="st0" d="M14.09,17.29H5.52c-0.55,0-1-0.45-1-1V8.26c0-0.55,0.45-1,1-1h8.57c0.55,0,1,0.45,1,1v8.03
			C15.09,16.84,14.64,17.29,14.09,17.29z"/>
		<path class="st0" d="M14.09,32.24H5.52c-0.55,0-1-0.45-1-1v-8.03c0-0.55,0.45-1,1-1h8.57c0.55,0,1,0.45,1,1v8.03
			C15.09,31.79,14.64,32.24,14.09,32.24z"/>
		<path class="st0" d="M14.09,47.19H5.52c-0.55,0-1-0.45-1-1v-8.03c0-0.55,0.45-1,1-1h8.57c0.55,0,1,0.45,1,1v8.03
			C15.09,46.74,14.64,47.19,14.09,47.19z"/>
		<path class="st0" d="M14.09,62.14H5.52c-0.55,0-1-0.45-1-1v-8.03c0-0.55,0.45-1,1-1h8.57c0.55,0,1,0.45,1,1v8.03
			C15.09,61.69,14.64,62.14,14.09,62.14z"/>
	</g>
	<g>
		<path class="st0" d="M27.67,17.29H19.1c-0.55,0-1-0.45-1-1V8.26c0-0.55,0.45-1,1-1h8.57c0.55,0,1,0.45,1,1v8.03
			C28.68,16.84,28.23,17.29,27.67,17.29z"/>
		<path class="st0" d="M27.67,32.24H19.1c-0.55,0-1-0.45-1-1v-8.03c0-0.55,0.45-1,1-1h8.57c0.55,0,1,0.45,1,1v8.03
			C28.68,31.79,28.23,32.24,27.67,32.24z"/>
		<path class="st0" d="M27.67,47.19H19.1c-0.55,0-1-0.45-1-1v-8.03c0-0.55,0.45-1,1-1h8.57c0.55,0,1,0.45,1,1v8.03
			C28.68,46.74,28.23,47.19,27.67,47.19z"/>
		<path class="st0" d="M27.67,62.14H19.1c-0.55,0-1-0.45-1-1v-8.03c0-0.55,0.45-1,1-1h8.57c0.55,0,1,0.45,1,1v8.03
			C28.68,61.69,28.23,62.14,27.67,62.14z"/>
	</g>
	<g>
		<path class="st0" d="M41.26,17.29h-8.57c-0.55,0-1-0.45-1-1V8.26c0-0.55,0.45-1,1-1h8.57c0.55,0,1,0.45,1,1v8.03
			C42.26,16.84,41.81,17.29,41.26,17.29z"/>
		<path class="st0" d="M41.26,32.24h-8.57c-0.55,0-1-0.45-1-1v-8.03c0-0.55,0.45-1,1-1h8.57c0.55,0,1,0.45,1,1v8.03
			C42.26,31.79,41.81,32.24,41.26,32.24z"/>
		<path class="st0" d="M41.26,47.19h-8.57c-0.55,0-1-0.45-1-1v-8.03c0-0.55,0.45-1,1-1h8.57c0.55,0,1,0.45,1,1v8.03
			C42.26,46.74,41.81,47.19,41.26,47.19z"/>
		<path class="st0" d="M41.26,62.14h-8.57c-0.55,0-1-0.45-1-1v-8.03c0-0.55,0.45-1,1-1h8.57c0.55,0,1,0.45,1,1v8.03
			C42.26,61.69,41.81,62.14,41.26,62.14z"/>
	</g>
	<g>
		<path class="st0" d="M54.84,17.29h-8.57c-0.55,0-1-0.45-1-1V8.26c0-0.55,0.45-1,1-1h8.57c0.55,0,1,0.45,1,1v8.03
			C55.84,16.84,55.39,17.29,54.84,17.29z"/>
		<path class="st0" d="M54.84,32.24h-8.57c-0.55,0-1-0.45-1-1v-8.03c0-0.55,0.45-1,1-1h8.57c0.55,0,1,0.45,1,1v8.03
			C55.84,31.79,55.39,32.24,54.84,32.24z"/>
		<path class="st0" d="M54.84,47.19h-8.57c-0.55,0-1-0.45-1-1v-8.03c0-0.55,0.45-1,1-1h8.57c0.55,0,1,0.45,1,1v8.03
			C55.84,46.74,55.39,47.19,54.84,47.19z"/>
		<path class="st0" d="M54.84,62.14h-8.57c-0.55,0-1-0.45-1-1v-8.03c0-0.55,0.45-1,1-1h8.57c0.55,0,1,0.45,1,1v8.03
			C55.84,61.69,55.39,62.14,54.84,62.14z"/>
	</g>
</g>
<g>
	<path d="M10.04,14.38h0.78v0.49H8.67v-0.49h0.79v-4.33l-0.88,0.08V9.79l1-0.37h0.46V14.38z"/>
</g>
<g>
	<path d="M24.97,14.38v0.49h-3.16v-0.5c0.79-1.99,2.58-2.19,2.58-3.53c0-0.54-0.34-1.04-0.92-1.04c-0.61,0-1.01,0.57-1.09,1.13
		l-0.5-0.14c0.17-0.83,0.75-1.48,1.63-1.48c0.87,0,1.45,0.67,1.45,1.51c0,1.63-2.1,2.02-2.58,3.56H24.97z"/>
</g>
<g>
	<path d="M36.33,12.28v-0.53l0.46,0.01c0.81,0,1.16-0.43,1.16-0.98c0-0.61-0.37-0.98-0.98-0.98c-0.48,0-0.79,0.3-1.04,0.67
		l-0.41-0.29c0.38-0.52,0.91-0.87,1.56-0.87c0.9,0,1.42,0.64,1.42,1.4c0,0.64-0.26,0.99-0.81,1.27c0.63,0.21,0.96,0.71,0.96,1.37
		c0,1.01-0.69,1.63-1.68,1.63c-0.73,0-1.32-0.39-1.65-1.02l0.44-0.27c0.29,0.46,0.64,0.8,1.22,0.8c0.66,0,1.1-0.4,1.1-1.07
		c0-0.89-0.57-1.18-1.38-1.18L36.33,12.28z"/>
</g>
<g>
	<path d="M50.44,10.99v1.62c0,0.48-0.33,0.76-0.82,0.76c-0.49,0-0.82-0.28-0.82-0.76v-1.62h0.47v1.47c0,0.39,0.12,0.51,0.35,0.51
		c0.24,0,0.35-0.12,0.35-0.51v-1.47H50.44z"/>
	<path d="M51.64,10.99c0.54,0,0.77,0.4,0.77,0.74c0,0.35-0.21,0.71-0.89,0.71h-0.32v0.9h-0.47v-2.34H51.64z M51.31,12.04
		c0.26,0,0.62,0.04,0.62-0.32s-0.37-0.32-0.62-0.32h-0.1v0.65H51.31z"/>
</g>
<g>
	<path d="M11.59,28.75h-0.83v1.3h-0.57v-1.3H8.03v-0.49l1.95-3.66h0.78v3.66h0.83V28.75z M10.18,25.2h-0.01l-1.58,3.06h1.59V25.2z"
		/>
</g>
<g>
	<path d="M24.61,25.1H22.6l-0.15,1.73c0.27-0.32,0.59-0.46,1.01-0.46c1.02,0,1.53,0.9,1.53,1.81c0,1.04-0.59,1.98-1.7,1.98
		c-0.73,0-1.18-0.39-1.49-1.01l0.46-0.27c0.19,0.44,0.55,0.79,1.05,0.79c0.81,0,1.11-0.76,1.11-1.45c0-0.91-0.48-1.37-1-1.37
		c-0.46,0-0.81,0.35-1.04,0.72l-0.43-0.09l0.19-2.89h2.49V25.1z"/>
</g>
<g>
	<path d="M38.16,25.27c-0.25-0.2-0.48-0.29-0.81-0.29c-0.56,0-1.41,0.46-1.48,2.3l0.01,0.01c0.28-0.43,0.73-0.71,1.26-0.71
		c0.58,0,1.51,0.43,1.51,1.72c0,1.42-0.96,1.86-1.6,1.86c-0.87,0-1.74-0.72-1.74-2.5c0-2.14,0.94-3.17,2.04-3.17
		c0.43,0,0.73,0.12,1.08,0.36L38.16,25.27z M35.88,28.08c0.06,1.44,0.84,1.6,1.17,1.6c0.43,0,1.02-0.34,1.02-1.4
		c0-0.58-0.28-1.2-0.91-1.2C36.57,27.07,36.11,27.57,35.88,28.08z"/>
</g>
<g>
	<path d="M47.89,26.18c0.89,0,1.21,0.51,1.21,1.17c0,0.66-0.35,1.17-1.04,1.17h-0.73v-2.34H47.89z M48.01,28.12
		c0.37,0,0.6-0.23,0.6-0.83c0-0.49-0.21-0.72-0.65-0.72h-0.18v1.54H48.01z"/>
	<path d="M51.27,28.52h-0.48l-0.31-1.62h-0.01l-0.32,1.62h-0.48l-0.49-2.34h0.46l0.28,1.65h0.01l0.29-1.65h0.52l0.29,1.65h0.01
		l0.3-1.65h0.46L51.27,28.52z"/>
	<path d="M52.62,26.18l0.7,1.54h0.01v-1.54h0.47v2.34h-0.5l-0.88-1.88h-0.01v1.88h-0.47v-2.34H52.62z"/>
</g>
<g>
	<path d="M11.43,39.91l-1.99,5.04H8.79l2.07-4.96H8.39V39.5h3.04V39.91z"/>
</g>
<g>
	<path d="M25.13,43.57c0,0.97-0.84,1.49-1.73,1.49c-0.9,0-1.76-0.48-1.76-1.48c0-0.8,0.45-1.2,1.11-1.54
		c-0.53-0.32-0.9-0.64-0.9-1.31c0-0.86,0.77-1.34,1.56-1.34c0.88,0,1.54,0.5,1.54,1.34c0,0.65-0.43,1.06-0.98,1.32
		C24.65,42.37,25.13,42.77,25.13,43.57z M22.19,43.53c0,0.69,0.55,1.04,1.18,1.04c0.64,0,1.21-0.34,1.21-1.04
		c0-0.73-0.69-1.03-1.29-1.22C22.74,42.52,22.19,42.87,22.19,43.53z M24.41,40.76c0-0.57-0.42-0.88-0.97-0.88
		c-0.5,0-1.04,0.27-1.04,0.84c0,0.55,0.55,0.9,1.02,1.06C23.91,41.65,24.41,41.35,24.41,40.76z"/>
</g>
<g>
	<path d="M35.79,44.29c0.25,0.2,0.48,0.29,0.81,0.29c0.56,0,1.41-0.46,1.48-2.3l-0.01-0.01c-0.28,0.43-0.73,0.71-1.26,0.71
		c-0.58,0-1.51-0.43-1.51-1.72c0-1.41,0.96-1.86,1.6-1.86c0.87,0,1.74,0.72,1.74,2.5c0,2.14-0.94,3.17-2.04,3.17
		c-0.43,0-0.73-0.12-1.08-0.36L35.79,44.29z M38.07,41.48c-0.06-1.44-0.84-1.6-1.17-1.6c-0.43,0-1.02,0.34-1.02,1.4
		c0,0.58,0.28,1.2,0.91,1.2C37.38,42.49,37.83,41.98,38.07,41.48z"/>
</g>
<g>
	<path d="M48.33,41.47h-0.99v0.56h0.82v0.4h-0.82v0.59h1.04v0.4h-1.51v-2.34h1.46V41.47z"/>
	<path d="M49.36,41.08l0.7,1.54h0.01v-1.54h0.47v2.34h-0.5l-0.88-1.88h-0.01v1.88h-0.47v-2.34H49.36z"/>
	<path d="M52.4,41.47h-0.61v1.94h-0.47v-1.94h-0.61v-0.4h1.68V41.47z"/>
	<path d="M53.5,41.08c0.54,0,0.75,0.38,0.75,0.68c0,0.26-0.16,0.49-0.4,0.59l0.47,1.07h-0.49l-0.42-0.97h-0.36v0.97h-0.47v-2.34
		H53.5z M53.26,42.05c0.2,0,0.52,0.01,0.52-0.28c0-0.32-0.32-0.29-0.55-0.29h-0.17v0.57H53.26z"/>
</g>
<g>
	<path d="M11.51,56.99c0,1.2-0.27,2.84-1.7,2.84s-1.7-1.63-1.7-2.84s0.27-2.84,1.7-2.84S11.51,55.78,11.51,56.99z M8.64,56.99
		c0,0.87,0.1,2.35,1.17,2.35s1.17-1.48,1.17-2.35c0-0.87-0.1-2.35-1.17-2.35S8.64,56.12,8.64,56.99z"/>
</g>
<g>
</g>
<g>
	<path d="M38.72,56.84v0.49h-3.5v-0.49H38.72z"/>
</g>
<g>
	<path d="M52.77,57.48h-3.41c0.26,0.29,0.44,0.6,0.55,0.92h-0.25c-0.32-0.46-0.76-0.8-1.33-1.01v-0.17
		c0.57-0.21,1.01-0.54,1.33-1.01h0.25c-0.11,0.33-0.3,0.64-0.55,0.93h3.41V57.48z"/>
</g>
<g>
</g>
<g>
</g>
<g>
</g>
<g>
</g>
<g>
</g>
<g>
</g>
</svg>
