<?xml version="1.0" encoding="utf-8"?>
<!-- Generator: Adobe Illustrator 26.2.1, SVG Export Plug-In . SVG Version: 6.00 Build 0)  -->
<svg version="1.1" id="Layer_1" xmlns="http://www.w3.org/2000/svg" xmlns:xlink="http://www.w3.org/1999/xlink" x="0px" y="0px"
	 viewBox="0 0 147.15 136.89" style="enable-background:new 0 0 147.15 136.89;" xml:space="preserve">
<style type="text/css">
	.st0{font-family:'Palatino-Roman';}
	.st1{font-size:7px;}
	.st2{fill:none;stroke:#000000;stroke-width:0.5;stroke-linecap:round;stroke-linejoin:round;stroke-miterlimit:10;}
	.st3{fill:none;stroke:#FFFFFF;stroke-width:2;stroke-linecap:round;stroke-linejoin:round;stroke-miterlimit:10;}
	.st4{stroke:#000000;stroke-width:0.5;stroke-linecap:round;stroke-linejoin:round;stroke-miterlimit:10;}
	.st5{fill:none;stroke:#000000;stroke-linecap:round;stroke-linejoin:round;}
</style>
<g>
	<text transform="matrix(1 0 0 1 3.1179 43.7583)" class="st0 st1">DIO4</text>
	<polygon class="st2" points="22.23,46 0.25,46 0.25,37.4 22.23,37.4 25.42,41.7 	"/>
</g>
<g>
	<text transform="matrix(1 0 0 1 3.1179 73.6782)" class="st0 st1">DIO5</text>
	<polygon class="st2" points="22.23,75.92 0.25,75.92 0.25,67.32 22.23,67.32 25.42,71.62 	"/>
</g>
<g>
	<text transform="matrix(1 0 0 1 3.1179 103.5976)" class="st0 st1">DIO6</text>
	<polygon class="st2" points="22.23,105.84 0.25,105.84 0.25,97.24 22.23,97.24 25.42,101.54 	"/>
</g>
<g>
	<text transform="matrix(1 0 0 1 3.1179 133.5175)" class="st0 st1">DIO7</text>
	<polygon class="st2" points="22.23,135.76 0.25,135.76 0.25,127.16 22.23,127.16 25.42,131.46 	"/>
</g>
<line class="st2" x1="25.42" y1="41.7" x2="124.22" y2="41.7"/>
<line class="st2" x1="25.42" y1="131.46" x2="124.22" y2="131.46"/>
<line class="st2" x1="25.42" y1="101.54" x2="124.22" y2="101.54"/>
<line class="st2" x1="25.42" y1="71.62" x2="124.22" y2="71.62"/>
<g>
	<line class="st3" x1="141.63" y1="25.42" x2="141.63" y2="127.64"/>
	<line class="st2" x1="141.63" y1="25.42" x2="141.63" y2="127.64"/>
</g>
<g>
	<line class="st3" x1="111.71" y1="25.42" x2="111.71" y2="127.64"/>
	<line class="st2" x1="111.71" y1="25.42" x2="111.71" y2="127.64"/>
</g>
<g>
	<line class="st3" x1="81.79" y1="25.42" x2="81.79" y2="127.64"/>
	<line class="st2" x1="81.79" y1="25.42" x2="81.79" y2="127.64"/>
</g>
<g>
	<line class="st3" x1="51.87" y1="25.42" x2="51.87" y2="127.64"/>
	<line class="st2" x1="51.87" y1="25.42" x2="51.87" y2="127.64"/>
</g>
<g>
	<line class="st2" x1="38.02" y1="35.75" x2="48.27" y2="35.75"/>
	<line class="st2" x1="43.15" y1="31.25" x2="43.15" y2="35.75"/>
	<polyline class="st2" points="40.02,38 34.77,38 34.77,42.46 	"/>
	<line class="st2" x1="46.07" y1="38" x2="51.75" y2="38"/>
	<circle class="st4" cx="34.77" cy="41.7" r="1.43"/>
	<circle class="st4" cx="51.75" cy="38" r="1.43"/>
</g>
<g>
	<line class="st2" x1="67.75" y1="35.75" x2="78" y2="35.75"/>
	<line class="st2" x1="72.87" y1="31.25" x2="72.87" y2="35.75"/>
	<polyline class="st2" points="69.75,38 64.5,38 64.5,42.46 	"/>
	<line class="st2" x1="75.79" y1="38" x2="81.48" y2="38"/>
	<circle class="st4" cx="64.5" cy="41.7" r="1.43"/>
	<circle class="st4" cx="81.48" cy="38" r="1.43"/>
</g>
<g>
	<line class="st2" x1="97.75" y1="35.75" x2="108" y2="35.75"/>
	<line class="st2" x1="102.88" y1="31.25" x2="102.88" y2="35.75"/>
	<polyline class="st2" points="99.75,38 94.5,38 94.5,42.46 	"/>
	<line class="st2" x1="105.8" y1="38" x2="111.48" y2="38"/>
	<circle class="st4" cx="94.5" cy="41.7" r="1.43"/>
	<circle class="st4" cx="111.48" cy="38" r="1.43"/>
</g>
<g>
	<line class="st2" x1="127.47" y1="35.75" x2="137.72" y2="35.75"/>
	<line class="st2" x1="132.6" y1="31.25" x2="132.6" y2="35.75"/>
	<polyline class="st2" points="129.47,38 124.22,38 124.22,42.46 	"/>
	<line class="st2" x1="135.52" y1="38" x2="141.21" y2="38"/>
	<circle class="st4" cx="124.22" cy="41.7" r="1.43"/>
	<circle class="st4" cx="141.21" cy="38" r="1.43"/>
</g>
<g>
	<line class="st2" x1="38.02" y1="65.39" x2="48.27" y2="65.39"/>
	<line class="st2" x1="43.15" y1="60.89" x2="43.15" y2="65.39"/>
	<polyline class="st2" points="40.02,67.64 34.77,67.64 34.77,72.1 	"/>
	<line class="st2" x1="46.07" y1="67.64" x2="51.75" y2="67.64"/>
	<circle class="st4" cx="34.77" cy="71.34" r="1.43"/>
	<circle class="st4" cx="51.75" cy="67.64" r="1.43"/>
</g>
<g>
	<line class="st2" x1="67.75" y1="65.39" x2="78" y2="65.39"/>
	<line class="st2" x1="72.87" y1="60.89" x2="72.87" y2="65.39"/>
	<polyline class="st2" points="69.75,67.64 64.5,67.64 64.5,72.1 	"/>
	<line class="st2" x1="75.79" y1="67.64" x2="81.48" y2="67.64"/>
	<circle class="st4" cx="64.5" cy="71.34" r="1.43"/>
	<circle class="st4" cx="81.48" cy="67.64" r="1.43"/>
</g>
<g>
	<line class="st2" x1="97.75" y1="65.39" x2="108" y2="65.39"/>
	<line class="st2" x1="102.88" y1="60.89" x2="102.88" y2="65.39"/>
	<polyline class="st2" points="99.75,67.64 94.5,67.64 94.5,72.1 	"/>
	<line class="st2" x1="105.8" y1="67.64" x2="111.48" y2="67.64"/>
	<circle class="st4" cx="94.5" cy="71.34" r="1.43"/>
	<circle class="st4" cx="111.48" cy="67.64" r="1.43"/>
</g>
<g>
	<line class="st2" x1="127.47" y1="65.39" x2="137.72" y2="65.39"/>
	<line class="st2" x1="132.6" y1="60.89" x2="132.6" y2="65.39"/>
	<polyline class="st2" points="129.47,67.64 124.22,67.64 124.22,72.1 	"/>
	<line class="st2" x1="135.52" y1="67.64" x2="141.21" y2="67.64"/>
	<circle class="st4" cx="124.22" cy="71.34" r="1.43"/>
	<circle class="st4" cx="141.21" cy="67.64" r="1.43"/>
</g>
<g>
	<line class="st2" x1="38.02" y1="95.75" x2="48.27" y2="95.75"/>
	<line class="st2" x1="43.15" y1="91.25" x2="43.15" y2="95.75"/>
	<polyline class="st2" points="40.02,98 34.77,98 34.77,102.46 	"/>
	<line class="st2" x1="46.07" y1="98" x2="51.75" y2="98"/>
	<circle class="st4" cx="34.77" cy="101.7" r="1.43"/>
	<circle class="st4" cx="51.75" cy="98" r="1.43"/>
</g>
<g>
	<line class="st2" x1="67.75" y1="95.75" x2="78" y2="95.75"/>
	<line class="st2" x1="72.87" y1="91.25" x2="72.87" y2="95.75"/>
	<polyline class="st2" points="69.75,98 64.5,98 64.5,102.46 	"/>
	<line class="st2" x1="75.79" y1="98" x2="81.48" y2="98"/>
	<circle class="st4" cx="64.5" cy="101.7" r="1.43"/>
	<circle class="st4" cx="81.48" cy="98" r="1.43"/>
</g>
<g>
	<line class="st2" x1="97.75" y1="95.75" x2="108" y2="95.75"/>
	<line class="st2" x1="102.88" y1="91.25" x2="102.88" y2="95.75"/>
	<polyline class="st2" points="99.75,98 94.5,98 94.5,102.46 	"/>
	<line class="st2" x1="105.8" y1="98" x2="111.48" y2="98"/>
	<circle class="st4" cx="94.5" cy="101.7" r="1.43"/>
	<circle class="st4" cx="111.48" cy="98" r="1.43"/>
</g>
<g>
	<line class="st2" x1="127.47" y1="95.75" x2="137.72" y2="95.75"/>
	<line class="st2" x1="132.6" y1="91.25" x2="132.6" y2="95.75"/>
	<polyline class="st2" points="129.47,98 124.22,98 124.22,102.46 	"/>
	<line class="st2" x1="135.52" y1="98" x2="141.21" y2="98"/>
	<circle class="st4" cx="124.22" cy="101.7" r="1.43"/>
	<circle class="st4" cx="141.21" cy="98" r="1.43"/>
</g>
<g>
	<line class="st2" x1="38.02" y1="125.39" x2="48.27" y2="125.39"/>
	<line class="st2" x1="43.15" y1="120.89" x2="43.15" y2="125.39"/>
	<polyline class="st2" points="40.02,127.64 34.77,127.64 34.77,132.1 	"/>
	<line class="st2" x1="46.07" y1="127.64" x2="51.75" y2="127.64"/>
	<circle class="st4" cx="34.77" cy="131.34" r="1.43"/>
	<circle class="st4" cx="51.75" cy="127.64" r="1.43"/>
</g>
<g>
	<line class="st2" x1="67.75" y1="125.39" x2="78" y2="125.39"/>
	<line class="st2" x1="72.87" y1="120.89" x2="72.87" y2="125.39"/>
	<polyline class="st2" points="69.75,127.64 64.5,127.64 64.5,132.1 	"/>
	<line class="st2" x1="75.79" y1="127.64" x2="81.48" y2="127.64"/>
	<circle class="st4" cx="64.5" cy="131.34" r="1.43"/>
	<circle class="st4" cx="81.48" cy="127.64" r="1.43"/>
</g>
<g>
	<line class="st2" x1="97.75" y1="125.39" x2="108" y2="125.39"/>
	<line class="st2" x1="102.88" y1="120.89" x2="102.88" y2="125.39"/>
	<polyline class="st2" points="99.75,127.64 94.5,127.64 94.5,132.1 	"/>
	<line class="st2" x1="105.8" y1="127.64" x2="111.48" y2="127.64"/>
	<circle class="st4" cx="94.5" cy="131.34" r="1.43"/>
	<circle class="st4" cx="111.48" cy="127.64" r="1.43"/>
</g>
<g>
	<line class="st2" x1="127.47" y1="125.39" x2="137.72" y2="125.39"/>
	<line class="st2" x1="132.6" y1="120.89" x2="132.6" y2="125.39"/>
	<polyline class="st2" points="129.47,127.64 124.22,127.64 124.22,132.1 	"/>
	<line class="st2" x1="135.52" y1="127.64" x2="141.21" y2="127.64"/>
	<circle class="st4" cx="124.22" cy="131.34" r="1.43"/>
	<circle class="st4" cx="141.21" cy="127.64" r="1.43"/>
</g>
<text transform="matrix(1 0 0 1 36.5605 31.0864)" class="st0 st1">1</text>
<text transform="matrix(1 0 0 1 66.894 30.0864)" class="st0 st1">2</text>
<text transform="matrix(1 0 0 1 95.894 31.0864)" class="st0 st1">3</text>
<text transform="matrix(1 0 0 1 123.2275 30.0864)" class="st0 st1">UP</text>
<text transform="matrix(1 0 0 1 36.5605 60.0864)" class="st0 st1">4</text>
<text transform="matrix(1 0 0 1 66.894 59.0864)" class="st0 st1">5</text>
<text transform="matrix(1 0 0 1 95.894 60.0864)" class="st0 st1">6</text>
<text transform="matrix(1 0 0 1 119.2275 59.0864)" class="st0 st1">DWN</text>
<text transform="matrix(1 0 0 1 36.5605 91.0864)" class="st0 st1">7</text>
<text transform="matrix(1 0 0 1 66.894 90.0864)" class="st0 st1">8</text>
<text transform="matrix(1 0 0 1 95.894 91.0864)" class="st0 st1">9</text>
<text transform="matrix(1 0 0 1 119.2275 90.0864)" class="st0 st1">ENTR</text>
<text transform="matrix(1 0 0 1 36.5605 120.0864)" class="st0 st1">0</text>
<text transform="matrix(1 0 0 1 66.894 119.0864)" class="st0 st1">.</text>
<text transform="matrix(1 0 0 1 95.894 120.0864)" class="st0 st1">–</text>
<g>
	<g>
		<line class="st5" x1="128.64" y1="116.75" x2="133.23" y2="116.75"/>
		<g>
			<path d="M129.53,116.75l1.1-1.8l-0.06-0.04l-2.94,1.17c-1.02,0.23-2.05,0.45-3.07,0.68c1.02,0.23,2.05,0.45,3.07,0.68l2.94,1.17
				l0.06-0.03L129.53,116.75z"/>
		</g>
	</g>
	<line x1="124.56" y1="116.75" x2="133.23" y2="116.75"/>
</g>
<g>
	<text transform="matrix(0 -1 1 0 113.8569 19.8657)" class="st0 st1">DIO2</text>
	<polygon class="st2" points="107.41,22.23 107.41,0.25 116.01,0.25 116.01,22.23 111.71,25.42 	"/>
</g>
<g>
	<polygon class="st2" points="137.33,22.23 137.33,0.25 145.93,0.25 145.93,22.23 141.63,25.42 	"/>
	<text transform="matrix(0 -1 1 0 143.7773 19.8657)" class="st0 st1">DIO3</text>
</g>
<g>
	<text transform="matrix(0 -1 1 0 83.937 19.8657)" class="st0 st1">DIO1</text>
	<polygon class="st2" points="77.49,22.23 77.49,0.25 86.09,0.25 86.09,22.23 81.79,25.42 	"/>
</g>
<g>
	<text transform="matrix(0 -1 1 0 54.2338 19.8657)" class="st0 st1">DIO0</text>
	<polygon class="st2" points="47.57,22.23 47.57,0.25 56.17,0.25 56.17,22.23 51.87,25.42 	"/>
</g>
</svg>
