<?xml version="1.0" encoding="utf-8"?>
<!-- Generator: Adobe Illustrator 26.4.1, SVG Export Plug-In . SVG Version: 6.00 Build 0)  -->
<svg version="1.1" id="Layer_1" xmlns="http://www.w3.org/2000/svg" xmlns:xlink="http://www.w3.org/1999/xlink" x="0px" y="0px"
	 width="319.36px" height="103px" viewBox="0 0 319.36 103" style="enable-background:new 0 0 319.36 103;" xml:space="preserve">
<style type="text/css">
	.st0{fill:none;stroke:#009BDD;stroke-miterlimit:10;}
	.st1{fill:none;stroke:#F47729;stroke-miterlimit:10;}
	.st2{fill:none;stroke:#010101;stroke-miterlimit:10;}
	.st3{fill:#AF89BE;stroke:#010101;stroke-miterlimit:10;}
	.st4{fill:#010101;}
	.st5{fill:#FFFFFF;stroke:#010101;stroke-miterlimit:10;}
	.st6{fill:none;stroke:#010101;stroke-width:1.5;stroke-linecap:round;stroke-miterlimit:10;}
	.st7{font-family:'Palatino-Roman';}
	.st8{font-size:8px;}
</style>
<path class="st0" d="M45.4,9.57c-4.98,0-4.98,18.25-9.96,18.25c-4.98,0-4.98-18.25-9.96-18.25s-4.98,18.25-9.96,18.25
	c-4.98,0-4.98-18.25-9.96-18.25"/>
<path class="st0" d="M236.25,9.57c-4.98,0-4.98,18.25-9.96,18.25c-4.98,0-4.98-18.25-9.96-18.25s-4.98,18.25-9.96,18.25
	c-4.98,0-4.98-18.25-9.96-18.25"/>
<path class="st1" d="M196.42,19.01c1.3-2.82,2.54-5.75,5.12-5.75c4.98,0,4.98,10.86,9.96,10.86c4.98,0,4.98-10.86,9.96-10.86
	c4.98,0,4.98,10.86,9.96,10.86c2.43,0,3.67-2.59,4.89-5.24"/>
<path class="st2" d="M49.69,38.5H3.5c-1.66,0-3-1.34-3-3v-32c0-1.66,1.34-3,3-3h76c1.66,0,3,1.34,3,3v32c0,1.66-1.34,3-3,3H61.73"/>
<path class="st2" d="M156.5,51.5v48c0,1.66-1.34,3-3,3h-32c-1.66,0-3-1.34-3-3v-48c0-1.66,1.34-3,3-3h32
	C155.16,48.5,156.5,49.84,156.5,51.5z"/>
<line class="st2" x1="180.74" y1="58.6" x2="180.74" y2="61.01"/>
<path class="st3" d="M180.74,65.55v32.82c0,1.66-1.34,3-3,3H159.5c-1.66,0-3-1.34-3-3V52.63c0-1.66,1.34-3,3-3h18.24
	c1.66,0,3,1.34,3,3v1.43"/>
<g>
	<path class="st4" d="M270.5,1.5c1.1,0,2,0.9,2,2v32c0,1.1-0.9,2-2,2h-76c-1.1,0-2-0.9-2-2v-32c0-1.1,0.9-2,2-2H270.5 M270.5,0.5
		h-76c-1.66,0-3,1.34-3,3v32c0,1.66,1.34,3,3,3h76c1.66,0,3-1.34,3-3v-32C273.5,1.84,272.16,0.5,270.5,0.5L270.5,0.5z"/>
</g>
<path class="st2" d="M60.23,42.88h-9.04c-0.83,0-1.5-0.67-1.5-1.5v-3.2c0-0.83,0.67-1.5,1.5-1.5h9.04c0.83,0,1.5,0.67,1.5,1.5v3.2
	C61.73,42.2,61.06,42.88,60.23,42.88z"/>
<path class="st2" d="M52.73,47.41h-1.54c-0.83,0-1.5-0.67-1.5-1.5v-1.54c0-0.83,0.67-1.5,1.5-1.5h1.54c0.83,0,1.5,0.67,1.5,1.5v1.54
	C54.23,46.74,53.56,47.41,52.73,47.41z"/>
<path class="st5" d="M180.74,54.06h0.77c0.83,0,1.5,0.67,1.5,1.5v1.54c0,0.83-0.67,1.5-1.5,1.5h-1.54c-0.83,0-1.5-0.67-1.5-1.5
	v-1.54c0-0.83,0.67-1.5,1.5-1.5H180.74"/>
<path class="st5" d="M181.5,65.55h-1.54c-0.83,0-1.5-0.67-1.5-1.5v-1.54c0-0.83,0.67-1.5,1.5-1.5h1.54c0.83,0,1.5,0.67,1.5,1.5v1.54
	C183,64.88,182.33,65.55,181.5,65.55z"/>
<path class="st2" d="M60.23,47.41h-1.54c-0.83,0-1.5-0.67-1.5-1.5v-1.54c0-0.83,0.67-1.5,1.5-1.5h1.54c0.83,0,1.5,0.67,1.5,1.5v1.54
	C61.73,46.74,61.06,47.41,60.23,47.41z"/>
<g>
	<line class="st2" x1="53.44" y1="31.27" x2="53.44" y2="36.67"/>
</g>
<g>
	<line class="st2" x1="57.98" y1="31.27" x2="57.98" y2="36.67"/>
</g>
<circle class="st2" cx="55.71" cy="31.27" r="2.27"/>
<circle class="st2" cx="247.45" cy="31.27" r="2.27"/>
<circle class="st2" cx="256.36" cy="31.27" r="2.27"/>
<g>
	<path class="st4" d="M233.84,5.56c1.1,0,2,0.9,2,2v23.41c0,1.1-0.9,2-2,2h-35c-1.1,0-2-0.9-2-2V7.56c0-1.1,0.9-2,2-2H233.84
		 M233.84,4.56h-35c-1.66,0-3,1.34-3,3v23.41c0,1.66,1.34,3,3,3h35c1.66,0,3-1.34,3-3V7.56C236.84,5.91,235.49,4.56,233.84,4.56
		L233.84,4.56z"/>
</g>
<g>
	<path class="st4" d="M42.98,5.56c1.1,0,2,0.9,2,2v23.41c0,1.1-0.9,2-2,2h-35c-1.1,0-2-0.9-2-2V7.56c0-1.1,0.9-2,2-2H42.98
		 M42.98,4.56h-35c-1.66,0-3,1.34-3,3v23.41c0,1.66,1.34,3,3,3h35c1.66,0,3-1.34,3-3V7.56C45.98,5.91,44.64,4.56,42.98,4.56
		L42.98,4.56z"/>
</g>
<g>
	<path class="st6" d="M59.46,47.73c0,19.7,39.33-9.23,70.89-9.18c64.76,0.09,56.86,4.33,95.77,4.33c11.79,0,21.32,0.19,21.32-11.61"
		/>
</g>
<g>
	<path class="st6" d="M51.96,47.73c0,46.14,39.33-3.53,70.89-3.53c27.25,0,43.02,1.36,60.61,1.63c8.34,0.13,8.04,10.51-0.09,10.51"
		/>
</g>
<path class="st6" d="M183.28,63.28c14.93,0,49.39-1.32,59.31-5.27c9.81-3.9,13.77-16.19,13.77-26.74"/>
<text transform="matrix(1 0 0 1 124.5801 77.5)" class="st7 st8">myRIO</text>
<text transform="matrix(1 0 0 1 184.3511 86.034)" class="st7 st8">C Board</text>
<text transform="matrix(1 0 0 1 86.2647 8.031)" class="st7 st8">function generator</text>
<text transform="matrix(1 0 0 1 276.7515 8.031)" class="st7 st8">oscilloscope</text>
<text transform="matrix(1 0 0 1 57.0726 75.5)" class="st7 st8">BNC cables</text>
<text transform="matrix(1 0 0 1 12.7085 50.8361)" class="st7 st8">Y-adapter</text>
</svg>
