<?xml version="1.0" encoding="utf-8"?>
<!-- Generator: Adobe Illustrator 26.4.1, SVG Export Plug-In . SVG Version: 6.00 Build 0)  -->
<svg version="1.1" id="Layer_1" xmlns="http://www.w3.org/2000/svg" xmlns:xlink="http://www.w3.org/1999/xlink" x="0px" y="0px"
	 viewBox="0 0 328.58 165.08" style="enable-background:new 0 0 328.58 165.08;" xml:space="preserve">
<style type="text/css">
	
		.st0{clip-path:url(#SVGID_00000137098735600441791160000005971676145103762087_);fill:none;stroke:#000000;stroke-width:0.5;stroke-linecap:round;stroke-linejoin:round;}
	.st1{clip-path:url(#SVGID_00000137098735600441791160000005971676145103762087_);}
	
		.st2{clip-path:url(#SVGID_00000033363171056592866620000008849023201218660749_);fill:none;stroke:#000000;stroke-linecap:round;stroke-linejoin:round;}
	
		.st3{clip-path:url(#SVGID_00000033363171056592866620000008849023201218660749_);fill:none;stroke:#000000;stroke-width:0.5;stroke-linecap:round;stroke-linejoin:round;}
	
		.st4{clip-path:url(#SVGID_00000033363171056592866620000008849023201218660749_);fill:none;stroke:#000000;stroke-width:0.75;stroke-linecap:round;stroke-linejoin:round;}
	.st5{font-family:'Palatino-Roman';}
	.st6{font-size:7px;}
	
		.st7{clip-path:url(#SVGID_00000079448973521439827970000005579177389491495841_);fill:none;stroke:#000000;stroke-linecap:round;stroke-linejoin:round;}
	
		.st8{clip-path:url(#SVGID_00000139263579878108277190000011756873301266762903_);fill:none;stroke:#000000;stroke-linecap:round;stroke-linejoin:round;}
	
		.st9{clip-path:url(#SVGID_00000042730736249908966260000000129778158848506303_);fill:none;stroke:#000000;stroke-linecap:round;stroke-linejoin:round;}
	
		.st10{clip-path:url(#SVGID_00000158009706461964764790000003440737814261126017_);fill:none;stroke:#000000;stroke-linecap:round;stroke-linejoin:round;}
	.st11{clip-path:url(#SVGID_00000079443931602587703290000012261679849153023881_);fill:#F1F2F2;}
	
		.st12{clip-path:url(#SVGID_00000079443931602587703290000012261679849153023881_);fill:none;stroke:#000000;stroke-width:0.5;stroke-linecap:round;stroke-linejoin:round;}
	.st13{clip-path:url(#SVGID_00000097498679500958299400000012147487403857806231_);fill:#EFEFF0;}
	
		.st14{clip-path:url(#SVGID_00000097498679500958299400000012147487403857806231_);fill:none;stroke:#000000;stroke-width:0.5;stroke-linecap:round;stroke-linejoin:round;}
	
		.st15{clip-path:url(#SVGID_00000083080242879753972220000016116982963439113149_);fill:none;stroke:#000000;stroke-linecap:round;stroke-linejoin:round;}
	.st16{clip-path:url(#SVGID_00000083080242879753972220000016116982963439113149_);fill:none;stroke:#000000;stroke-miterlimit:10;}
	
		.st17{clip-path:url(#SVGID_00000083080242879753972220000016116982963439113149_);fill:none;stroke:#000000;stroke-linecap:round;stroke-linejoin:round;stroke-miterlimit:10;}
	.st18{opacity:0;clip-path:url(#SVGID_00000083080242879753972220000016116982963439113149_);}
	
		.st19{clip-path:url(#SVGID_00000063608748965527437750000006482893038713509771_);fill:none;stroke:#000000;stroke-width:0;stroke-miterlimit:10;}
	.st20{opacity:0;clip-path:url(#SVGID_00000096751802335111794620000000768704338128809903_);}
	.st21{clip-path:url(#SVGID_00000096751802335111794620000000768704338128809903_);}
	
		.st22{clip-path:url(#SVGID_00000054262505919630247980000010814381768646184594_);fill:none;stroke:#000000;stroke-linecap:round;stroke-linejoin:round;}
	.st23{clip-path:url(#SVGID_00000054262505919630247980000010814381768646184594_);fill:none;stroke:#000000;stroke-miterlimit:10;}
	
		.st24{clip-path:url(#SVGID_00000054262505919630247980000010814381768646184594_);fill:none;stroke:#000000;stroke-linecap:round;stroke-linejoin:round;stroke-miterlimit:10;}
</style>
<g>
	<defs>
		<rect id="SVGID_1_" width="328.58" height="165.08"/>
	</defs>
	<clipPath id="SVGID_00000165956164867785113680000008282626414859227537_">
		<use xlink:href="#SVGID_1_"  style="overflow:visible;"/>
	</clipPath>
	
		<polygon style="clip-path:url(#SVGID_00000165956164867785113680000008282626414859227537_);fill:none;stroke:#000000;stroke-width:0.5;stroke-linecap:round;stroke-linejoin:round;" points="
		215.45,75.25 238.78,90.58 215.45,106.58 	"/>
	
		<line style="clip-path:url(#SVGID_00000165956164867785113680000008282626414859227537_);fill:none;stroke:#000000;stroke-width:0.5;stroke-linecap:round;stroke-linejoin:round;" x1="192.78" y1="90.25" x2="214.92" y2="90.25"/>
	<g style="clip-path:url(#SVGID_00000165956164867785113680000008282626414859227537_);">
		<defs>
			<rect id="SVGID_00000087404419669403168520000005052002473853560468_" width="328.59" height="165.08"/>
		</defs>
		<clipPath id="SVGID_00000013915961036853182850000002994805157576867981_">
			<use xlink:href="#SVGID_00000087404419669403168520000005052002473853560468_"  style="overflow:visible;"/>
		</clipPath>
		
			<path style="clip-path:url(#SVGID_00000013915961036853182850000002994805157576867981_);fill:none;stroke:#000000;stroke-linecap:round;stroke-linejoin:round;" d="
			M47.83,68.66c1.65,0,3-1.35,3-3V49.17c0-1.65-1.35-3-3-3H3.5c-1.65,0-3,1.35-3,3v16.49c0,1.65,1.35,3,3,3H47.83z"/>
		
			<rect x="21.65" y="83.41" style="clip-path:url(#SVGID_00000013915961036853182850000002994805157576867981_);fill:none;stroke:#000000;stroke-width:0.5;stroke-linecap:round;stroke-linejoin:round;" width="5.33" height="5.33"/>
		
			<rect x="28.98" y="83.41" style="clip-path:url(#SVGID_00000013915961036853182850000002994805157576867981_);fill:none;stroke:#000000;stroke-width:0.5;stroke-linecap:round;stroke-linejoin:round;" width="5.33" height="5.33"/>
		
			<rect x="35.98" y="83.41" style="clip-path:url(#SVGID_00000013915961036853182850000002994805157576867981_);fill:none;stroke:#000000;stroke-width:0.5;stroke-linecap:round;stroke-linejoin:round;" width="5.33" height="5.33"/>
		
			<rect x="43.31" y="83.41" style="clip-path:url(#SVGID_00000013915961036853182850000002994805157576867981_);fill:none;stroke:#000000;stroke-width:0.5;stroke-linecap:round;stroke-linejoin:round;" width="5.33" height="5.33"/>
		
			<rect x="21.65" y="90.41" style="clip-path:url(#SVGID_00000013915961036853182850000002994805157576867981_);fill:none;stroke:#000000;stroke-width:0.5;stroke-linecap:round;stroke-linejoin:round;" width="5.33" height="5.33"/>
		
			<rect x="28.98" y="90.41" style="clip-path:url(#SVGID_00000013915961036853182850000002994805157576867981_);fill:none;stroke:#000000;stroke-width:0.5;stroke-linecap:round;stroke-linejoin:round;" width="5.33" height="5.33"/>
		
			<rect x="35.98" y="90.41" style="clip-path:url(#SVGID_00000013915961036853182850000002994805157576867981_);fill:none;stroke:#000000;stroke-width:0.5;stroke-linecap:round;stroke-linejoin:round;" width="5.33" height="5.33"/>
		
			<rect x="43.31" y="90.41" style="clip-path:url(#SVGID_00000013915961036853182850000002994805157576867981_);fill:none;stroke:#000000;stroke-width:0.5;stroke-linecap:round;stroke-linejoin:round;" width="5.33" height="5.33"/>
		
			<rect x="21.65" y="98.08" style="clip-path:url(#SVGID_00000013915961036853182850000002994805157576867981_);fill:none;stroke:#000000;stroke-width:0.5;stroke-linecap:round;stroke-linejoin:round;" width="5.33" height="5.33"/>
		
			<rect x="28.98" y="98.08" style="clip-path:url(#SVGID_00000013915961036853182850000002994805157576867981_);fill:none;stroke:#000000;stroke-width:0.5;stroke-linecap:round;stroke-linejoin:round;" width="5.33" height="5.33"/>
		
			<rect x="35.98" y="98.08" style="clip-path:url(#SVGID_00000013915961036853182850000002994805157576867981_);fill:none;stroke:#000000;stroke-width:0.5;stroke-linecap:round;stroke-linejoin:round;" width="5.33" height="5.33"/>
		
			<rect x="43.31" y="98.08" style="clip-path:url(#SVGID_00000013915961036853182850000002994805157576867981_);fill:none;stroke:#000000;stroke-width:0.5;stroke-linecap:round;stroke-linejoin:round;" width="5.33" height="5.33"/>
		
			<rect x="21.65" y="105.08" style="clip-path:url(#SVGID_00000013915961036853182850000002994805157576867981_);fill:none;stroke:#000000;stroke-width:0.5;stroke-linecap:round;stroke-linejoin:round;" width="5.33" height="5.33"/>
		
			<rect x="28.98" y="105.08" style="clip-path:url(#SVGID_00000013915961036853182850000002994805157576867981_);fill:none;stroke:#000000;stroke-width:0.5;stroke-linecap:round;stroke-linejoin:round;" width="5.33" height="5.33"/>
		
			<rect x="35.98" y="105.08" style="clip-path:url(#SVGID_00000013915961036853182850000002994805157576867981_);fill:none;stroke:#000000;stroke-width:0.5;stroke-linecap:round;stroke-linejoin:round;" width="5.33" height="5.33"/>
		
			<rect x="43.31" y="105.08" style="clip-path:url(#SVGID_00000013915961036853182850000002994805157576867981_);fill:none;stroke:#000000;stroke-width:0.5;stroke-linecap:round;stroke-linejoin:round;" width="5.33" height="5.33"/>
		
			<rect x="19.65" y="80.74" style="clip-path:url(#SVGID_00000013915961036853182850000002994805157576867981_);fill:none;stroke:#000000;stroke-width:0.75;stroke-linecap:round;stroke-linejoin:round;" width="31" height="31.67"/>
		
			<line style="clip-path:url(#SVGID_00000013915961036853182850000002994805157576867981_);fill:none;stroke:#000000;stroke-width:0.5;stroke-linecap:round;stroke-linejoin:round;" x1="62.48" y1="107.37" x2="50.65" y2="107.37"/>
		
			<line style="clip-path:url(#SVGID_00000013915961036853182850000002994805157576867981_);fill:none;stroke:#000000;stroke-width:0.5;stroke-linecap:round;stroke-linejoin:round;" x1="110.83" y1="107.37" x2="88.98" y2="107.37"/>
		
			<line style="clip-path:url(#SVGID_00000013915961036853182850000002994805157576867981_);fill:none;stroke:#000000;stroke-width:0.5;stroke-linecap:round;stroke-linejoin:round;" x1="62.48" y1="62.15" x2="50.65" y2="62.15"/>
		
			<line style="clip-path:url(#SVGID_00000013915961036853182850000002994805157576867981_);fill:none;stroke:#000000;stroke-width:0.5;stroke-linecap:round;stroke-linejoin:round;" x1="175.2" y1="90.15" x2="152.5" y2="90.15"/>
		
			<line style="clip-path:url(#SVGID_00000013915961036853182850000002994805157576867981_);fill:none;stroke:#000000;stroke-width:0.5;stroke-linecap:round;stroke-linejoin:round;" x1="175.28" y1="110.2" x2="152.5" y2="110.2"/>
		
			<line style="clip-path:url(#SVGID_00000013915961036853182850000002994805157576867981_);fill:none;stroke:#000000;stroke-width:0.5;stroke-linecap:round;stroke-linejoin:round;" x1="110.83" y1="62.15" x2="88.98" y2="62.15"/>
	</g>
	<g style="clip-path:url(#SVGID_00000165956164867785113680000008282626414859227537_);">
		<text transform="matrix(1 0 0 1 5.4341 59.3037)" class="st5 st6">LCD Display</text>
	</g>
	<g style="clip-path:url(#SVGID_00000165956164867785113680000008282626414859227537_);">
		<text transform="matrix(1 0 0 1 22.9902 119.168)" class="st5 st6">Keypad</text>
	</g>
	<g style="clip-path:url(#SVGID_00000165956164867785113680000008282626414859227537_);">
		<text transform="matrix(1 0 0 1 228.2578 71.4136)"><tspan x="0" y="0" class="st5 st6">cur</tspan><tspan x="10.09" y="0" class="st5 st6">r</tspan><tspan x="12.74" y="0" class="st5 st6">ent</tspan></text>
	</g>
	<g style="clip-path:url(#SVGID_00000165956164867785113680000008282626414859227537_);">
		<text transform="matrix(1 0 0 1 228.2578 79.8135)" class="st5 st6">amplifier</text>
	</g>
	<g style="clip-path:url(#SVGID_00000165956164867785113680000008282626414859227537_);">
		<text transform="matrix(1 0 0 1 196.7793 152.1728)" class="st5 st6">encoder</text>
	</g>
	<g style="clip-path:url(#SVGID_00000165956164867785113680000008282626414859227537_);">
		<text transform="matrix(1 0 0 1 105.1211 24.9126)" class="st5 st6">Xilinx Zynq-7010</text>
	</g>
	<g style="clip-path:url(#SVGID_00000165956164867785113680000008282626414859227537_);">
		<text transform="matrix(1 0 0 1 107.2422 9.2466)" class="st5 st6">NI myRIO-1900</text>
	</g>
	<g style="clip-path:url(#SVGID_00000165956164867785113680000008282626414859227537_);">
		<text transform="matrix(1 0 0 1 122.3062 93.2471)" class="st5 st6">FPGA</text>
	</g>
	<g style="clip-path:url(#SVGID_00000165956164867785113680000008282626414859227537_);">
		<text transform="matrix(1 0 0 1 115.3623 41.8389)"><tspan x="0" y="0" class="st5 st6">P</tspan><tspan x="4.23" y="0" class="st5 st6">r</tspan><tspan x="6.87" y="0" class="st5 st6">ocessors</tspan></text>
	</g>
	<g style="clip-path:url(#SVGID_00000165956164867785113680000008282626414859227537_);">
		<defs>
			<rect id="SVGID_00000033336856595941624850000000022716219699747467_" width="328.59" height="165.08"/>
		</defs>
		<clipPath id="SVGID_00000075137688468503122460000006787260536240119736_">
			<use xlink:href="#SVGID_00000033336856595941624850000000022716219699747467_"  style="overflow:visible;"/>
		</clipPath>
		
			<path style="clip-path:url(#SVGID_00000075137688468503122460000006787260536240119736_);fill:none;stroke:#000000;stroke-linecap:round;stroke-linejoin:round;" d="
			M159.67,123.75h-56c-1.66,0-3-1.34-3-3v-104c0-1.66,1.34-3,3-3h56c1.66,0,3,1.34,3,3v104
			C162.67,122.4,161.32,123.75,159.67,123.75z"/>
		
			<path style="clip-path:url(#SVGID_00000075137688468503122460000006787260536240119736_);fill:none;stroke:#000000;stroke-linecap:round;stroke-linejoin:round;" d="
			M149.5,70.75h-35.67c-1.66,0-3-1.34-3-3V34.06c0-1.66,1.34-3,3-3h35.67c1.66,0,3,1.34,3,3v33.69
			C152.5,69.4,151.16,70.75,149.5,70.75z"/>
		
			<path style="clip-path:url(#SVGID_00000075137688468503122460000006787260536240119736_);fill:none;stroke:#000000;stroke-linecap:round;stroke-linejoin:round;" d="
			M149.5,118.08h-35.67c-1.66,0-3-1.34-3-3v-30c0-1.66,1.34-3,3-3h35.67c1.66,0,3,1.34,3,3v30
			C152.5,116.74,151.16,118.08,149.5,118.08z"/>
	</g>
	<g style="clip-path:url(#SVGID_00000165956164867785113680000008282626414859227537_);">
		<text transform="matrix(1 0 0 1 178.4717 92.456)" class="st5 st6">AO</text>
	</g>
	<g style="clip-path:url(#SVGID_00000165956164867785113680000008282626414859227537_);">
		<defs>
			<rect id="SVGID_00000180366791644291928180000003344444894184199359_" width="328.59" height="165.08"/>
		</defs>
		<clipPath id="SVGID_00000126301368563542561560000005303464523950210493_">
			<use xlink:href="#SVGID_00000180366791644291928180000003344444894184199359_"  style="overflow:visible;"/>
		</clipPath>
		
			<path style="clip-path:url(#SVGID_00000126301368563542561560000005303464523950210493_);fill:none;stroke:#000000;stroke-linecap:round;stroke-linejoin:round;" d="
			M192.7,95.9c0,1.65-1.35,3-3,3h-11.5c-1.65,0-3-1.35-3-3V84.4c0-1.65,1.35-3,3-3h11.5c1.65,0,3,1.35,3,3V95.9z"/>
	</g>
	<g style="clip-path:url(#SVGID_00000165956164867785113680000008282626414859227537_);">
		<text transform="matrix(1 0 0 1 177.3887 113.6006)" class="st5 st6">DIO</text>
	</g>
	<g style="clip-path:url(#SVGID_00000165956164867785113680000008282626414859227537_);">
		<defs>
			<rect id="SVGID_00000039827073623648547750000005373928171309797524_" width="328.59" height="165.08"/>
		</defs>
		<clipPath id="SVGID_00000178884440020682025890000014011802808102146227_">
			<use xlink:href="#SVGID_00000039827073623648547750000005373928171309797524_"  style="overflow:visible;"/>
		</clipPath>
		
			<path style="clip-path:url(#SVGID_00000178884440020682025890000014011802808102146227_);fill:none;stroke:#000000;stroke-linecap:round;stroke-linejoin:round;" d="
			M192.78,117.19c0,1.65-1.35,3-3,3h-11.5c-1.65,0-3-1.35-3-3v-11.5c0-1.65,1.35-3,3-3h11.5c1.65,0,3,1.35,3,3V117.19z"/>
	</g>
	<g style="clip-path:url(#SVGID_00000165956164867785113680000008282626414859227537_);">
		<text transform="matrix(1 0 0 1 69.0977 111.7363)" class="st5 st6">DIO</text>
	</g>
	<g style="clip-path:url(#SVGID_00000165956164867785113680000008282626414859227537_);">
		<defs>
			<rect id="SVGID_00000099621012451365997170000012600113669893662126_" width="328.59" height="165.08"/>
		</defs>
		<clipPath id="SVGID_00000096059196740645068750000009677143842407919247_">
			<use xlink:href="#SVGID_00000099621012451365997170000012600113669893662126_"  style="overflow:visible;"/>
		</clipPath>
		
			<path style="clip-path:url(#SVGID_00000096059196740645068750000009677143842407919247_);fill:none;stroke:#000000;stroke-linecap:round;stroke-linejoin:round;" d="
			M88.98,115.19c0,1.65-1.35,3-3,3h-20.5c-1.65,0-3-1.35-3-3v-11.5c0-1.65,1.35-3,3-3h20.5c1.65,0,3,1.35,3,3V115.19z"/>
		
			<path style="clip-path:url(#SVGID_00000096059196740645068750000009677143842407919247_);fill:none;stroke:#000000;stroke-linecap:round;stroke-linejoin:round;" d="
			M88.98,67.9c0,1.65-1.35,3-3,3h-20.5c-1.65,0-3-1.35-3-3V56.4c0-1.65,1.35-3,3-3h20.5c1.65,0,3,1.35,3,3V67.9z"/>
	</g>
	<g style="clip-path:url(#SVGID_00000165956164867785113680000008282626414859227537_);">
		<text transform="matrix(1 0 0 1 65.9326 64.2104)"><tspan x="0" y="0" class="st5 st6">UA</tspan><tspan x="10.89" y="0" class="st5 st6">R</tspan><tspan x="15.31" y="0" class="st5 st6">T</tspan></text>
	</g>
	<g style="clip-path:url(#SVGID_00000165956164867785113680000008282626414859227537_);">
		<text transform="matrix(1 0 0 1 55.0615 109.4375)" class="st5 st6">/</text>
	</g>
	<g style="clip-path:url(#SVGID_00000165956164867785113680000008282626414859227537_);">
		<text transform="matrix(1 0 0 1 55.0615 117.8379)" class="st5 st6">8</text>
	</g>
	<g style="clip-path:url(#SVGID_00000165956164867785113680000008282626414859227537_);">
		<defs>
			<rect id="SVGID_00000139993159525345853540000010793472902937415579_" width="328.59" height="165.08"/>
		</defs>
		<clipPath id="SVGID_00000181071557280591691150000013834148387263079813_">
			<use xlink:href="#SVGID_00000139993159525345853540000010793472902937415579_"  style="overflow:visible;"/>
		</clipPath>
		<path style="clip-path:url(#SVGID_00000181071557280591691150000013834148387263079813_);fill:#F1F2F2;" d="M231.59,153.27
			c4.98,0,9.02-10.61,9.02-23.69s-4.04-23.69-9.02-23.69s-9.02,10.61-9.02,23.69S226.61,153.27,231.59,153.27"/>
		
			<ellipse style="clip-path:url(#SVGID_00000181071557280591691150000013834148387263079813_);fill:none;stroke:#000000;stroke-width:0.5;stroke-linecap:round;stroke-linejoin:round;" cx="231.59" cy="129.58" rx="9.02" ry="23.69"/>
		
			<path style="clip-path:url(#SVGID_00000181071557280591691150000013834148387263079813_);fill:none;stroke:#000000;stroke-width:0.5;stroke-linecap:round;stroke-linejoin:round;" d="
			M291.96,153.27c4.98,0,9.02-10.61,9.02-23.69s-4.04-23.69-9.02-23.69"/>
		
			<line style="clip-path:url(#SVGID_00000181071557280591691150000013834148387263079813_);fill:none;stroke:#000000;stroke-width:0.5;stroke-linecap:round;stroke-linejoin:round;" x1="231.59" y1="105.89" x2="291.46" y2="105.89"/>
		
			<line style="clip-path:url(#SVGID_00000181071557280591691150000013834148387263079813_);fill:none;stroke:#000000;stroke-width:0.5;stroke-linecap:round;stroke-linejoin:round;" x1="231.59" y1="153.27" x2="291.46" y2="153.27"/>
		
			<path style="clip-path:url(#SVGID_00000181071557280591691150000013834148387263079813_);fill:none;stroke:#000000;stroke-width:0.5;stroke-linecap:round;stroke-linejoin:round;" d="
			M326.21,125.33c1.17,0,2.12,2.35,2.12,4.5s-0.95,3.89-2.12,3.89"/>
		
			<line style="clip-path:url(#SVGID_00000181071557280591691150000013834148387263079813_);fill:none;stroke:#000000;stroke-width:0.5;stroke-linecap:round;stroke-linejoin:round;" x1="326.21" y1="125.33" x2="300.71" y2="125.33"/>
		
			<line style="clip-path:url(#SVGID_00000181071557280591691150000013834148387263079813_);fill:none;stroke:#000000;stroke-width:0.5;stroke-linecap:round;stroke-linejoin:round;" x1="326.21" y1="133.72" x2="300.71" y2="133.72"/>
		
			<line style="clip-path:url(#SVGID_00000181071557280591691150000013834148387263079813_);fill:none;stroke:#000000;stroke-width:0.5;stroke-linecap:round;stroke-linejoin:round;" x1="265.46" y1="153.33" x2="265.46" y2="160.58"/>
		
			<line style="clip-path:url(#SVGID_00000181071557280591691150000013834148387263079813_);fill:none;stroke:#000000;stroke-width:0.5;stroke-linecap:round;stroke-linejoin:round;" x1="259.96" y1="160.83" x2="270.71" y2="160.83"/>
		
			<line style="clip-path:url(#SVGID_00000181071557280591691150000013834148387263079813_);fill:none;stroke:#000000;stroke-width:0.5;stroke-linecap:round;stroke-linejoin:round;" x1="262.21" y1="162.83" x2="268.71" y2="162.83"/>
		
			<line style="clip-path:url(#SVGID_00000181071557280591691150000013834148387263079813_);fill:none;stroke:#000000;stroke-width:0.5;stroke-linecap:round;stroke-linejoin:round;" x1="264.21" y1="164.83" x2="266.71" y2="164.83"/>
	</g>
	<g style="clip-path:url(#SVGID_00000165956164867785113680000008282626414859227537_);">
		<text transform="matrix(1 0 0 1 269.9023 127.6699)" class="st5 st6">DC</text>
	</g>
	<g style="clip-path:url(#SVGID_00000165956164867785113680000008282626414859227537_);">
		<text transform="matrix(1 0 0 1 269.9023 136.0703)" class="st5 st6">motor</text>
	</g>
	<g style="clip-path:url(#SVGID_00000165956164867785113680000008282626414859227537_);">
		<defs>
			<rect id="SVGID_00000006682992024232865570000003260652191189219725_" width="328.59" height="165.08"/>
		</defs>
		<clipPath id="SVGID_00000118395196330483673800000010321225280165015979_">
			<use xlink:href="#SVGID_00000006682992024232865570000003260652191189219725_"  style="overflow:visible;"/>
		</clipPath>
		<path style="clip-path:url(#SVGID_00000118395196330483673800000010321225280165015979_);fill:#EFEFF0;" d="M231.59,153.27h14.88
			c4.98,0,9.02-10.61,9.02-23.69s-4.04-23.69-9.02-23.69h-14.88c4.98,0,9.02,10.61,9.02,23.69S236.57,153.27,231.59,153.27"/>
		
			<path style="clip-path:url(#SVGID_00000118395196330483673800000010321225280165015979_);fill:none;stroke:#000000;stroke-width:0.5;stroke-linecap:round;stroke-linejoin:round;" d="
			M231.59,153.27h14.88c4.98,0,9.02-10.61,9.02-23.69s-4.04-23.69-9.02-23.69h-14.88c4.98,0,9.02,10.61,9.02,23.69
			S236.57,153.27,231.59,153.27z"/>
		
			<path style="clip-path:url(#SVGID_00000118395196330483673800000010321225280165015979_);fill:none;stroke:#000000;stroke-width:0.5;stroke-linecap:round;stroke-linejoin:round;" d="
			M265.21,105.5V93.58c0-1.66-1.34-3-3-3h-23.44"/>
		
			<path style="clip-path:url(#SVGID_00000118395196330483673800000010321225280165015979_);fill:none;stroke:#000000;stroke-width:0.5;stroke-linecap:round;stroke-linejoin:round;" d="
			M192.78,109.9h8.35c1.66,0,3,1.34,3,3v13.68c0,1.66,1.34,3,3,3h24.46"/>
	</g>
	<g style="clip-path:url(#SVGID_00000165956164867785113680000008282626414859227537_);">
		<text transform="matrix(1 0 0 1 214.917 132.0224)" class="st5 st6">/</text>
	</g>
	<g style="clip-path:url(#SVGID_00000165956164867785113680000008282626414859227537_);">
		<text transform="matrix(1 0 0 1 214.917 140.4228)" class="st5 st6">2</text>
	</g>
	<g style="clip-path:url(#SVGID_00000165956164867785113680000008282626414859227537_);">
		<defs>
			<rect id="SVGID_00000118392700573237902360000016626590852724676491_" width="328.59" height="165.08"/>
		</defs>
		<clipPath id="SVGID_00000028282928146186725600000009842331741083227806_">
			<use xlink:href="#SVGID_00000118392700573237902360000016626590852724676491_"  style="overflow:visible;"/>
		</clipPath>
		
			<line style="clip-path:url(#SVGID_00000028282928146186725600000009842331741083227806_);fill:none;stroke:#000000;stroke-linecap:round;stroke-linejoin:round;" x1="133.24" y1="71.71" x2="133.24" y2="81.27"/>
		
			<line style="clip-path:url(#SVGID_00000028282928146186725600000009842331741083227806_);fill:none;stroke:#000000;stroke-miterlimit:10;" x1="136.96" y1="75.36" x2="136.96" y2="75.36"/>
		
			<path style="clip-path:url(#SVGID_00000028282928146186725600000009842331741083227806_);fill:none;stroke:#000000;stroke-linecap:round;stroke-linejoin:round;stroke-miterlimit:10;" d="
			M129.52,74.73c3.72-1.37,3.72-3.33,3.72-3.33s0,1.96,3.72,3.33"/>
		
			<line style="clip-path:url(#SVGID_00000028282928146186725600000009842331741083227806_);fill:none;stroke:#000000;stroke-miterlimit:10;" x1="136.96" y1="77.62" x2="136.96" y2="77.62"/>
		
			<path style="clip-path:url(#SVGID_00000028282928146186725600000009842331741083227806_);fill:none;stroke:#000000;stroke-linecap:round;stroke-linejoin:round;stroke-miterlimit:10;" d="
			M129.52,78.24c3.72,1.37,3.72,3.33,3.72,3.33s0-1.96,3.72-3.33"/>
		
			<path style="clip-path:url(#SVGID_00000028282928146186725600000009842331741083227806_);fill:none;stroke:#000000;stroke-linecap:round;stroke-linejoin:round;" d="
			M163.76,127.92H99.57c-1.66,0-3-1.34-3-3V3.5c0-1.66,1.34-3,3-3h64.19c1.66,0,3,1.34,3,3v121.42
			C166.76,126.58,165.42,127.92,163.76,127.92z"/>
		<g style="opacity:0;clip-path:url(#SVGID_00000028282928146186725600000009842331741083227806_);">
			<g>
				<defs>
					<polygon id="SVGID_00000108300577460023771600000018206179339345594533_" points="222.44,90.77 222.44,90.77 222.44,90.77 
											"/>
				</defs>
				<clipPath id="SVGID_00000105417097631892423550000008229148965369244803_">
					<use xlink:href="#SVGID_00000108300577460023771600000018206179339345594533_"  style="overflow:visible;"/>
				</clipPath>
				
					<path style="clip-path:url(#SVGID_00000105417097631892423550000008229148965369244803_);fill:none;stroke:#000000;stroke-width:0;stroke-miterlimit:10;" d="
					M222.44,90.77L222.44,90.77z"/>
			</g>
		</g>
	</g>
	<g style="clip-path:url(#SVGID_00000165956164867785113680000008282626414859227537_);">
		<defs>
			<rect id="SVGID_00000168829906213844962450000000269989091062872968_" x="218.07" y="86.74" width="9" height="7"/>
		</defs>
		<clipPath id="SVGID_00000041281016719680558170000018329494693917610671_">
			<use xlink:href="#SVGID_00000168829906213844962450000000269989091062872968_"  style="overflow:visible;"/>
		</clipPath>
		<g style="opacity:0;clip-path:url(#SVGID_00000041281016719680558170000018329494693917610671_);">
			<g>
				<defs>
					<path id="SVGID_00000123432464446125585870000013749097240342137530_" d="M222.62,90.25L222.62,90.25z"/>
				</defs>
				<clipPath id="SVGID_00000087385085338207426970000012085739621447540669_">
					<use xlink:href="#SVGID_00000123432464446125585870000013749097240342137530_"  style="overflow:visible;"/>
				</clipPath>
			</g>
		</g>
		<path style="clip-path:url(#SVGID_00000041281016719680558170000018329494693917610671_);" d="M219.93,89.9
			c0.76,0.77,1.55,1.5,2.29,2.29l0.6-0.22l0.01-0.08c-0.43-0.38-1.59-1.53-2.34-2.29c-0.03-0.03-0.03-0.04-0.03-0.06
			c0-0.02,0.03-0.06,0.06-0.08l2.05-2.07l0.01-0.06h-0.63l-2.02,2.29l-0.06-0.01c0-1.42,0.03-2,0.11-2.23l-0.05-0.05h-1.11
			l-0.06,0.05l-0.01,0.12c0.04,0,0.46,0.11,0.53,0.23c0.03,0.07,0.03,0.15,0.03,0.22v3.14v1.03l0.06,0.03l0.57-0.2
			c-0.04-0.68-0.04-1.37-0.04-2.06L219.93,89.9z"/>
		<path style="clip-path:url(#SVGID_00000041281016719680558170000018329494693917610671_);" d="M225.49,92.66
			c-0.16,0.11-0.36,0.22-0.58,0.22c-0.21,0-0.43-0.04-0.55-0.2c-0.13-0.17-0.16-0.38-0.16-0.59c0.01-0.49,0.17-0.76,0.3-0.87
			c0.15-0.12,0.33-0.19,0.53-0.19c0.14,0,0.27,0.07,0.37,0.16c0.09,0.08,0.09,0.21,0.09,0.34V92.66z M225.62,91.04
			c-0.18-0.11-0.42-0.17-0.59-0.17c-0.93,0-1.32,0.67-1.32,1.37c0,0.45,0.21,0.97,0.82,0.97c0.32,0,0.62-0.15,0.9-0.31l0.08,0.02
			c0.03,0.17,0.11,0.29,0.31,0.29c0.18,0,0.48-0.17,0.69-0.28l-0.03-0.12c-0.12,0.04-0.29,0.09-0.36,0.09
			c-0.19,0-0.21-0.2-0.21-0.32c0-0.19-0.01-0.38-0.01-0.57c0-0.36,0.01-0.73,0.04-1.09l-0.03-0.03L225.62,91.04z"/>
	</g>
	<g style="clip-path:url(#SVGID_00000165956164867785113680000008282626414859227537_);">
		<defs>
			<rect id="SVGID_00000115508312241741020650000009577531397244854150_" width="328.59" height="165.08"/>
		</defs>
		<clipPath id="SVGID_00000127761536964801734880000000674676294249748633_">
			<use xlink:href="#SVGID_00000115508312241741020650000009577531397244854150_"  style="overflow:visible;"/>
		</clipPath>
		
			<path style="clip-path:url(#SVGID_00000127761536964801734880000000674676294249748633_);fill:none;stroke:#000000;stroke-linecap:round;stroke-linejoin:round;" d="
			M309.65,121.1c13.6-6.99,14.35,22.56,0.74,17.29"/>
		
			<line style="clip-path:url(#SVGID_00000127761536964801734880000000674676294249748633_);fill:none;stroke:#000000;stroke-miterlimit:10;" x1="312.95" y1="142.86" x2="312.95" y2="142.86"/>
		
			<path style="clip-path:url(#SVGID_00000127761536964801734880000000674676294249748633_);fill:none;stroke:#000000;stroke-linecap:round;stroke-linejoin:round;stroke-miterlimit:10;" d="
			M314.34,135.52c-2.32,3.22-4.21,2.69-4.21,2.69s1.89,0.53,2.21,4.48"/>
	</g>
</g>
</svg>
