<?xml version="1.0" encoding="utf-8"?>
<!-- Generator: Adobe Illustrator 26.0.2, SVG Export Plug-In . SVG Version: 6.00 Build 0)  -->
<svg version="1.1" id="Layer_1" xmlns="http://www.w3.org/2000/svg" xmlns:xlink="http://www.w3.org/1999/xlink" x="0px" y="0px"
	 viewBox="0 0 63.3 39" style="enable-background:new 0 0 63.3 39;" xml:space="preserve">
<style type="text/css">
	.st0{fill:#FFFFFF;}
</style>
<path d="M59.1,34.9H4.2c-0.3,0-0.6-0.3-0.6-0.6V1.6C3.6,0.7,4.4,0,5.3,0h52.8c0.9,0,1.6,0.7,1.6,1.6v32.7
	C59.7,34.7,59.4,34.9,59.1,34.9z"/>
<rect x="6.2" y="2.5" class="st0" width="51" height="29.9"/>
<path d="M63.3,35.6c0,0.9-0.5,1.8-1.2,2.4c-0.8,0.6-1.9,1-3.1,1H4.3C1.9,39,0,37.5,0,35.6h25.9c0.1,0.5,0.7,0.8,1.4,0.8h8.9
	c0.7,0,1.2-0.4,1.4-0.8H63.3z"/>
<g>
	<path d="M26.8,17c0.4-0.1,0.7-0.1,0.9-0.2c0.3-0.1,0.5-0.3,0.5-0.6c0-0.3-0.1-0.6-0.4-0.7s-0.6-0.2-1.1-0.2c-0.5,0-0.9,0.1-1.1,0.4
		c-0.2,0.2-0.3,0.5-0.3,0.8h-2.1c0-0.7,0.3-1.4,0.6-1.8c0.6-0.8,1.6-1.1,3-1.1c0.9,0,1.8,0.2,2.5,0.6c0.7,0.4,1.1,1.1,1.1,2.1V20
		c0,0.3,0,0.6,0,1c0,0.3,0.1,0.5,0.1,0.6c0.1,0.1,0.2,0.2,0.3,0.3v0.3h-2.4c-0.1-0.2-0.1-0.3-0.1-0.5c0-0.2,0-0.3-0.1-0.5
		c-0.3,0.3-0.7,0.6-1.1,0.9c-0.5,0.3-1,0.4-1.6,0.4c-0.8,0-1.4-0.2-1.9-0.7c-0.5-0.4-0.8-1.1-0.8-1.9c0-1,0.4-1.8,1.2-2.3
		c0.4-0.3,1.1-0.4,2-0.5L26.8,17z M28.1,18c-0.1,0.1-0.3,0.2-0.4,0.2s-0.3,0.1-0.6,0.2l-0.5,0.1c-0.5,0.1-0.8,0.2-1,0.3
		C25.2,19,25,19.3,25,19.7c0,0.4,0.1,0.7,0.3,0.8c0.2,0.2,0.5,0.3,0.8,0.3c0.5,0,0.9-0.1,1.3-0.4s0.6-0.8,0.6-1.5V18z"/>
	<path d="M34.6,22.1h-2.2V10.6h2.2V22.1z"/>
	<path d="M35.8,15.3v-1.6H37v-2.4h2.2v2.4h1.4v1.6h-1.4v4.5c0,0.3,0,0.6,0.1,0.7s0.4,0.1,0.8,0.1c0.1,0,0.1,0,0.2,0
		c0.1,0,0.1,0,0.2,0v1.7l-1.1,0c-1.1,0-1.8-0.1-2.2-0.5c-0.2-0.3-0.4-0.6-0.4-1.2v-5.2H35.8z"/>
</g>
<g>
</g>
<g>
</g>
<g>
</g>
<g>
</g>
<g>
</g>
<g>
</g>
</svg>
