<?xml version="1.0" encoding="utf-8"?>
<!-- Generator: Adobe Illustrator 27.7.0, SVG Export Plug-In . SVG Version: 6.00 Build 0)  -->
<svg version="1.1" id="Layer_1" xmlns="http://www.w3.org/2000/svg" xmlns:xlink="http://www.w3.org/1999/xlink" x="0px" y="0px"
	 width="63.06px" height="25.54px" viewBox="0 0 63.06 25.54" style="enable-background:new 0 0 63.06 25.54;" xml:space="preserve"
	>
<style type="text/css">
	.st0{fill:none;stroke:#000000;stroke-miterlimit:10;}
</style>
<rect x="0.5" y="0.54" class="st0" width="62.06" height="24.54"/>
<g>
	<path d="M5.3,7.14V4.96l0.82-0.82v3.21L5.81,7.65L5.3,7.14z M6.12,8.28v3.2L5.3,10.66V8.47l0.51-0.51L6.12,8.28z"/>
	<path d="M8.6,7.35V4.14l0.82,0.82v2.18L8.9,7.65L8.6,7.35z M12.31,7.4l0.41,0.41l-0.41,0.41H9.46l-0.4-0.41l0.4-0.41H12.31z
		 M12.35,7.14V4.96l0.82-0.82v3.21l-0.3,0.31L12.35,7.14z M13.17,8.28v3.2l-0.82-0.82V8.47l0.52-0.51L13.17,8.28z"/>
	<path d="M17.67,7.4l0.4,0.41l-0.4,0.41h-2.85l-0.4-0.41l0.4-0.41H17.67z"/>
	<path d="M20.58,7.14l-0.51,0.51l-0.31-0.31V4.96l0.4-0.41l0.41,0.41V7.14z M20.17,11.62l-0.4-0.4l0.4-0.41h3.21l0.4,0.41l-0.4,0.4
		H20.17z M23.48,7.4l0.41,0.41l-0.41,0.41h-2.85l-0.4-0.41l0.4-0.41H23.48z M24.34,4.4l-0.41,0.41h-3.2l-0.4-0.41l0.4-0.4h3.21
		L24.34,4.4z M24.34,10.65l-0.41,0.41l-0.41-0.41V8.47l0.52-0.51l0.3,0.32V10.65z"/>
	<path d="M25.65,7.35V4.14l0.82,0.82v2.18l-0.51,0.51L25.65,7.35z M26.46,8.47v2.18l-0.82,0.82v-3.2l0.31-0.32L26.46,8.47z M30.22,4
		l-0.81,0.82h-2.8L25.8,4H30.22z M30.22,11.62H25.8l0.81-0.82h2.8L30.22,11.62z M29.36,7.4l0.41,0.41l-0.41,0.41h-2.85l-0.4-0.41
		l0.4-0.41H29.36z"/>
	<path d="M32.34,7.14l-0.51,0.51l-0.31-0.31V4.96l0.4-0.41l0.41,0.41V7.14z M32.34,10.65l-0.41,0.41l-0.4-0.41V8.28l0.31-0.32
		l0.51,0.51V10.65z M35.94,4l-0.81,0.82h-2.65l-0.4-0.41l0.4-0.4H35.94z M35.14,11.62l0.4-0.4l-0.4-0.41h-2.65l-0.4,0.41l0.4,0.4
		H35.14z M35.65,7.81l-0.41,0.41h-0.92l-0.4-0.41l0.4-0.41h0.92L35.65,7.81z M36.1,10.65l-0.41,0.41l-0.41-0.41V8.47l0.52-0.51
		l0.3,0.32V10.65z"/>
	<path d="M37.41,7.35V4.14l0.82,0.82v2.18l-0.51,0.51L37.41,7.35z M38.22,8.47v2.34l-0.82,0.82V8.28l0.31-0.32L38.22,8.47z M41.82,4
		l-0.81,0.82h-2.65L37.56,4H41.82z M39.28,5.43l0.4-0.4l0.41,0.4v1.81l-0.41,0.41l-0.4-0.41V5.43z M41.16,7.14V4.96l0.82-0.82v3.21
		l-0.3,0.31L41.16,7.14z M41.98,8.28v3.35l-0.82-0.82V8.47l0.52-0.51L41.98,8.28z"/>
	<path d="M43.29,7.35V4.14l0.82,0.82v2.18l-0.51,0.51L43.29,7.35z M44.1,8.47v2.18l-0.82,0.82v-3.2l0.31-0.32L44.1,8.47z M47.86,4
		l-0.81,0.82h-2.8L43.44,4H47.86z M47.86,11.62h-4.42l0.81-0.82h2.8L47.86,11.62z M46.99,7.4l0.41,0.41l-0.41,0.41h-2.85l-0.4-0.41
		l0.4-0.41H46.99z"/>
	<path d="M49.17,7.35V4l0.82,0.82v2.33l-0.51,0.51L49.17,7.35z M49.98,8.47v2.34l-0.82,0.82V8.28l0.31-0.32L49.98,8.47z M50.17,5.39
		l0-0.58h0.58l1.98,1.99v0.58l-0.57,0L50.17,5.39z M52.92,7.14V4.81l0.82-0.82v3.36l-0.3,0.31L52.92,7.14z M53.74,8.28v3.35
		l-0.82-0.82V8.47l0.52-0.51L53.74,8.28z"/>
	<path d="M59.62,4l-0.81,0.82h-2.95L55.05,4H59.62z M57.74,7.76l-0.31,0.29l-0.51-0.5V5.37l0.4-0.4l0.41,0.4V7.76z M57.74,11.22
		l-0.41,0.4l-0.4-0.4V8.88l0.51-0.51l0.31,0.31V11.22z"/>
	<path d="M4.27,17.14l-0.51,0.51l-0.31-0.31v-3.21l0.82,0.82V17.14z M4.27,20.65l-0.82,0.82v-3.2l0.31-0.32l0.51,0.51V20.65z
		 M7.46,14.4l-0.4,0.41H4.41L3.6,14h3.46L7.46,14.4z M7.46,21.22l-0.4,0.4H3.6l0.81-0.82h2.65L7.46,21.22z M8.02,17.35l-0.3,0.31
		L7.2,17.14v-2.18l0.41-0.41l0.41,0.41V17.35z M8.02,20.65l-0.41,0.41L7.2,20.65v-2.18l0.52-0.51l0.3,0.32V20.65z"/>
	<path d="M11.28,17.35l-0.31,0.31l-0.51-0.51V14.4l0.4-0.4l0.41,0.4V17.35z M11.28,21.22l-0.41,0.4l-0.4-0.4v-2.75l0.51-0.51
		l0.31,0.32V21.22z"/>
	<path d="M14.68,17.14l-0.51,0.51l-0.31-0.31v-2.39l0.4-0.41l0.41,0.41V17.14z M14.27,21.62l-0.4-0.4l0.4-0.41h3.21l0.4,0.41
		l-0.4,0.4H14.27z M17.57,17.4l0.41,0.41l-0.41,0.41h-2.85l-0.4-0.41l0.4-0.41H17.57z M18.43,14.4l-0.41,0.41h-3.2l-0.4-0.41
		l0.4-0.4h3.21L18.43,14.4z M18.43,20.65l-0.41,0.41l-0.41-0.41v-2.18l0.52-0.51l0.3,0.32V20.65z"/>
	<path d="M20.56,17.14l-0.51,0.51l-0.31-0.31v-3.21l0.82,0.82V17.14z M20.56,20.81l-0.82,0.82v-3.35l0.31-0.32l0.51,0.51V20.81z
		 M23.76,14.4l-0.4,0.41H20.7L19.89,14h3.46L23.76,14.4z M23.45,17.4l0.41,0.41l-0.41,0.41H20.6l-0.4-0.41l0.4-0.41H23.45z
		 M24.31,17.35l-0.3,0.31l-0.52-0.51v-2.18l0.41-0.41l0.41,0.41V17.35z"/>
	<path d="M25.62,17.35V14l0.82,0.82v2.33l-0.51,0.51L25.62,17.35z M26.44,18.47v2.18l-0.82,0.82v-3.2l0.31-0.32L26.44,18.47z
		 M30.19,21.62h-4.42l0.81-0.82h2.8L30.19,21.62z"/>
	<path d="M31.5,17.35v-3.21l0.82,0.82v2.18l-0.51,0.51L31.5,17.35z M32.32,18.47v2.34l-0.82,0.82v-3.35l0.31-0.32L32.32,18.47z
		 M35.92,14l-0.81,0.82h-2.65L31.65,14H35.92z M35.21,17.4l0.41,0.41l-0.41,0.41h-2.85l-0.4-0.41l0.4-0.41H35.21z M35.25,17.14
		v-2.18l0.82-0.82v3.21l-0.3,0.31L35.25,17.14z M36.07,18.28v3.35l-0.82-0.82v-2.33l0.52-0.51L36.07,18.28z"/>
	<path d="M37.38,13.99l0.82,0.82v2.33l-0.51,0.51l-0.31-0.31V13.99z M38.24,17.4l-0.4,0.41l0.4,0.41h2.85l0.41-0.41l-0.41-0.41
		H38.24z M40.99,21.62l0.4-0.4l-0.4-0.41h-2.65l-0.4,0.41l0.4,0.4H40.99z M41.95,14l-0.82,0.82v2.33l0.52,0.51l0.3-0.31V14z
		 M41.95,18.28l-0.3-0.32l-0.52,0.51v2.18l0.41,0.41l0.41-0.41V18.28z"/>
	<path d="M52.23,17.35l-0.31,0.31l-0.51-0.51V14.4l0.4-0.4l0.41,0.4V17.35z M52.23,21.22l-0.41,0.4l-0.4-0.4v-2.75l0.51-0.51
		l0.31,0.32V21.22z"/>
	<path d="M57.16,14.4l-0.4,0.41h-0.75L55.19,14h1.57L57.16,14.4z M57.16,21.22l-0.4,0.4h-1.57l0.82-0.82h0.75L57.16,21.22z
		 M57.73,17.35l-0.31,0.31l-0.51-0.51v-2.18l0.4-0.41l0.41,0.41V17.35z M57.73,20.65l-0.41,0.41l-0.4-0.41v-2.18l0.51-0.51
		l0.31,0.32V20.65z"/>
</g>
</svg>
