<?xml version="1.0" encoding="utf-8"?>
<!-- Generator: Adobe Illustrator 27.7.0, SVG Export Plug-In . SVG Version: 6.00 Build 0)  -->
<svg version="1.1" id="Layer_1" xmlns="http://www.w3.org/2000/svg" xmlns:xlink="http://www.w3.org/1999/xlink" x="0px" y="0px"
	 width="77.78px" height="25.54px" viewBox="0 0 77.78 25.54" style="enable-background:new 0 0 77.78 25.54;" xml:space="preserve"
	>
<style type="text/css">
	.st0{fill:none;stroke:#000000;stroke-miterlimit:10;}
</style>
<g>
	<path d="M3.73,4.55V3.67h0.88v0.88H3.73z M3.73,5.72V4.84h0.88v0.88H3.73z M3.73,6.89V6.01h0.88v0.88H3.73z M3.73,8.05V7.18h0.88
		v0.88H3.73z M3.73,9.23V8.35h0.88v0.88H3.73z M3.73,10.4V9.53h0.88v0.88H3.73z M3.73,11.57v-0.88h0.88v0.88H3.73z M4.91,11.58V10.7
		h0.88v0.88H4.91z M4.92,4.55V3.67H5.8v0.88H4.92z M6.07,11.58V10.7h0.88v0.88H6.07z M6.08,4.55V3.67h0.88v0.88H6.08z M7.25,11.58
		V10.7h0.88v0.88H7.25z M7.27,4.55V3.67h0.88v0.88H7.27z M8.42,5.72V4.84H9.3v0.88H8.42z M8.42,6.89V6.01H9.3v0.88H8.42z M8.42,8.05
		V7.18H9.3v0.88H8.42z M8.42,9.23V8.35H9.3v0.88H8.42z M8.42,10.4V9.53H9.3v0.88H8.42z"/>
	<path d="M10.77,5.72V4.84h0.88v0.88H10.77z M10.77,6.89V6.01h0.88v0.88H10.77z M10.77,8.05V7.18h0.88v0.88H10.77z M10.77,9.23V8.35
		h0.88v0.88H10.77z M10.77,10.4V9.53h0.88v0.88H10.77z M11.94,11.58V10.7h0.88v0.88H11.94z M11.95,4.55V3.67h0.88v0.88H11.95z
		 M13.1,11.58V10.7h0.88v0.88H13.1z M13.12,4.55V3.67h0.88v0.88H13.12z M14.28,11.58V10.7h0.88v0.88H14.28z M14.3,4.55V3.67h0.88
		v0.88H14.3z M15.45,5.72V4.84h0.88v0.88H15.45z M15.45,6.89V6.01h0.88v0.88H15.45z M15.45,8.05V7.18h0.88v0.88H15.45z M15.45,9.23
		V8.35h0.88v0.88H15.45z M15.45,10.4V9.53h0.88v0.88H15.45z"/>
	<path d="M17.8,4.55V3.67h0.88v0.88H17.8z M18.98,4.55V3.67h0.88v0.88H18.98z M20.14,5.72V4.84h0.88v0.88H20.14z M20.14,9.23V8.35
		h0.88v0.88H20.14z M20.14,10.4V9.53h0.88v0.88H20.14z M20.14,11.58V10.7h0.88v0.88H20.14z M20.15,4.55V3.67h0.88v0.88H20.15z
		 M20.15,6.89V6.01h0.88v0.88H20.15z M20.15,8.05V7.18h0.88v0.88H20.15z M21.33,4.55V3.67h0.88v0.88H21.33z M22.48,4.55V3.67h0.88
		v0.88H22.48z"/>
	<path d="M26.01,9.23V8.35h0.88v0.88H26.01z M27.17,9.23V8.35h0.88v0.88H27.17z M28.36,9.23V8.35h0.88v0.88H28.36z M29.52,9.23V8.35
		h0.88v0.88H29.52z"/>
	<path d="M31.86,4.55V3.67h0.88v0.88H31.86z M31.86,5.72V4.84h0.88v0.88H31.86z M31.86,6.89V6.01h0.88v0.88H31.86z M31.86,8.05V7.18
		h0.88v0.88H31.86z M31.86,9.23V8.35h0.88v0.88H31.86z M31.86,10.4V9.53h0.88v0.88H31.86z M31.86,11.57v-0.88h0.88v0.88H31.86z
		 M33.04,5.72V4.84h0.88v0.88H33.04z M34.21,6.89V6.01h0.88v0.88H34.21z M34.21,8.05V7.18h0.88v0.88H34.21z M35.39,5.72V4.84h0.88
		v0.88H35.39z M36.55,4.55V3.67h0.88v0.88H36.55z M36.55,5.72V4.84h0.88v0.88H36.55z M36.55,6.89V6.01h0.88v0.88H36.55z M36.55,8.05
		V7.18h0.88v0.88H36.55z M36.55,9.23V8.35h0.88v0.88H36.55z M36.55,10.4V9.53h0.88v0.88H36.55z M36.55,11.57v-0.88h0.88v0.88H36.55z
		"/>
	<path d="M38.89,5.72V4.84h0.88v0.88H38.89z M38.89,6.89V6.01h0.88v0.88H38.89z M38.89,8.05V7.18h0.88v0.88H38.89z M38.89,9.23V8.35
		h0.88v0.88H38.89z M38.89,10.4V9.53h0.88v0.88H38.89z M38.89,11.57v-0.88h0.88v0.88H38.89z M40.07,4.55V3.67h0.88v0.88H40.07z
		 M40.07,8.05V7.18h0.88v0.88H40.07z M41.24,4.55V3.67h0.88v0.88H41.24z M41.24,8.05V7.18h0.88v0.88H41.24z M42.42,4.55V3.67h0.88
		v0.88H42.42z M42.42,8.05V7.18h0.88v0.88H42.42z M43.58,5.72V4.84h0.88v0.88H43.58z M43.58,6.89V6.01h0.88v0.88H43.58z M43.58,8.05
		V7.18h0.88v0.88H43.58z M43.58,9.23V8.35h0.88v0.88H43.58z M43.58,10.4V9.53h0.88v0.88H43.58z M43.58,11.57v-0.88h0.88v0.88H43.58z
		"/>
	<path d="M45.92,4.55V3.67h0.88v0.88H45.92z M47.11,4.55V3.67h0.88v0.88H47.11z M48.26,5.72V4.84h0.88v0.88H48.26z M48.26,9.23V8.35
		h0.88v0.88H48.26z M48.26,10.4V9.53h0.88v0.88H48.26z M48.26,11.58V10.7h0.88v0.88H48.26z M48.27,4.55V3.67h0.88v0.88H48.27z
		 M48.27,6.89V6.01h0.88v0.88H48.27z M48.27,8.05V7.18h0.88v0.88H48.27z M49.46,4.55V3.67h0.88v0.88H49.46z M50.61,4.55V3.67h0.88
		v0.88H50.61z"/>
	<path d="M52.95,4.55V3.67h0.88v0.88H52.95z M52.95,5.72V4.84h0.88v0.88H52.95z M52.95,6.89V6.01h0.88v0.88H52.95z M52.95,8.05V7.18
		h0.88v0.88H52.95z M52.95,9.23V8.35h0.88v0.88H52.95z M52.95,10.4V9.53h0.88v0.88H52.95z M52.95,11.57v-0.88h0.88v0.88H52.95z
		 M54.14,4.55V3.67h0.88v0.88H54.14z M54.14,8.05V7.18h0.88v0.88H54.14z M55.29,9.23V8.35h0.88v0.88H55.29z M55.3,4.55V3.67h0.88
		v0.88H55.3z M55.3,8.05V7.18h0.88v0.88H55.3z M56.49,4.55V3.67h0.88v0.88H56.49z M56.49,8.05V7.18h0.88v0.88H56.49z M56.49,10.4
		V9.53h0.88v0.88H56.49z M57.64,5.72V4.84h0.88v0.88H57.64z M57.64,6.89V6.01h0.88v0.88H57.64z M57.64,11.57v-0.88h0.88v0.88H57.64z
		"/>
	<path d="M62.32,5.72V4.84h0.88v0.88H62.32z M62.32,9.23V8.35h0.88v0.88H62.32z M62.32,10.4V9.53h0.88v0.88H62.32z M62.32,11.58
		V10.7h0.88v0.88H62.32z M62.33,4.55V3.67h0.88v0.88H62.33z M62.33,6.89V6.01h0.88v0.88H62.33z M62.33,8.05V7.18h0.88v0.88H62.33z"
		/>
	<path d="M67.02,4.55V3.67h0.88v0.88H67.02z M67.02,5.72V4.84h0.88v0.88H67.02z M67.02,10.4V9.53h0.88v0.88H67.02z M67.02,11.57
		v-0.88h0.88v0.88H67.02z M68.2,6.89V6.01h0.88v0.88H68.2z M68.2,9.23V8.35h0.88v0.88H68.2z M69.37,8.05V7.18h0.88v0.88H69.37z
		 M70.55,6.89V6.01h0.88v0.88H70.55z M70.55,9.23V8.35h0.88v0.88H70.55z M71.7,4.55V3.67h0.88v0.88H71.7z M71.7,5.72V4.84h0.88v0.88
		H71.7z M71.7,10.4V9.53h0.88v0.88H71.7z M71.7,11.57v-0.88h0.88v0.88H71.7z"/>
	<path d="M3.73,14.55v-0.88h0.88v0.88H3.73z M3.73,15.72v-0.88h0.88v0.88H3.73z M3.73,16.89v-0.88h0.88v0.88H3.73z M3.73,18.05
		v-0.88h0.88v0.88H3.73z M3.73,19.23v-0.88h0.88v0.88H3.73z M3.73,20.4v-0.88h0.88v0.88H3.73z M3.73,21.57v-0.88h0.88v0.88H3.73z
		 M4.91,21.58V20.7h0.88v0.88H4.91z M4.92,14.55v-0.88H5.8v0.88H4.92z M6.07,21.58V20.7h0.88v0.88H6.07z M6.08,14.55v-0.88h0.88
		v0.88H6.08z M7.25,21.58V20.7h0.88v0.88H7.25z M7.27,14.55v-0.88h0.88v0.88H7.27z M8.42,15.72v-0.88H9.3v0.88H8.42z M8.42,16.89
		v-0.88H9.3v0.88H8.42z M8.42,18.05v-0.88H9.3v0.88H8.42z M8.42,19.23v-0.88H9.3v0.88H8.42z M8.42,20.4v-0.88H9.3v0.88H8.42z"/>
	<path d="M13.1,15.72v-0.88h0.88v0.88H13.1z M13.1,19.23v-0.88h0.88v0.88H13.1z M13.1,20.4v-0.88h0.88v0.88H13.1z M13.1,21.58V20.7
		h0.88v0.88H13.1z M13.12,14.55v-0.88h0.88v0.88H13.12z M13.12,16.89v-0.88h0.88v0.88H13.12z M13.12,18.05v-0.88h0.88v0.88H13.12z"
		/>
	<path d="M17.8,15.72v-0.88h0.88v0.88H17.8z M17.8,16.89v-0.88h0.88v0.88H17.8z M17.8,21.57v-0.88h0.88v0.88H17.8z M18.97,21.58
		V20.7h0.88v0.88H18.97z M18.98,14.55v-0.88h0.88v0.88H18.98z M18.98,18.05v-0.88h0.88v0.88H18.98z M20.14,21.58V20.7h0.88v0.88
		H20.14z M20.15,14.55v-0.88h0.88v0.88H20.15z M20.15,18.05v-0.88h0.88v0.88H20.15z M21.31,21.58V20.7h0.88v0.88H21.31z
		 M21.33,14.55v-0.88h0.88v0.88H21.33z M21.33,18.05v-0.88h0.88v0.88H21.33z M22.48,14.55v-0.88h0.88v0.88H22.48z M22.48,19.23
		v-0.88h0.88v0.88H22.48z M22.48,20.4v-0.88h0.88v0.88H22.48z"/>
	<path d="M24.83,14.55v-0.88h0.88v0.88H24.83z M24.83,15.72v-0.88h0.88v0.88H24.83z M24.83,16.89v-0.88h0.88v0.88H24.83z
		 M24.83,18.05v-0.88h0.88v0.88H24.83z M24.83,19.23v-0.88h0.88v0.88H24.83z M24.83,20.4v-0.88h0.88v0.88H24.83z M24.83,21.57v-0.88
		h0.88v0.88H24.83z M26.01,14.55v-0.88h0.88v0.88H26.01z M26.01,18.05v-0.88h0.88v0.88H26.01z M27.18,14.55v-0.88h0.88v0.88H27.18z
		 M27.18,18.05v-0.88h0.88v0.88H27.18z M28.36,14.55v-0.88h0.88v0.88H28.36z M28.36,18.05v-0.88h0.88v0.88H28.36z M29.52,15.72
		v-0.88h0.88v0.88H29.52z M29.52,16.89v-0.88h0.88v0.88H29.52z"/>
	<path d="M31.86,14.55v-0.88h0.88v0.88H31.86z M31.86,15.72v-0.88h0.88v0.88H31.86z M31.86,16.89v-0.88h0.88v0.88H31.86z
		 M31.86,18.05v-0.88h0.88v0.88H31.86z M31.86,19.23v-0.88h0.88v0.88H31.86z M31.86,20.4v-0.88h0.88v0.88H31.86z M31.86,21.57v-0.88
		h0.88v0.88H31.86z M33.03,21.58V20.7h0.88v0.88H33.03z M34.2,21.58V20.7h0.88v0.88H34.2z M35.38,21.58V20.7h0.88v0.88H35.38z"/>
	<path d="M38.89,15.72v-0.88h0.88v0.88H38.89z M38.89,16.89v-0.88h0.88v0.88H38.89z M38.89,18.05v-0.88h0.88v0.88H38.89z
		 M38.89,19.23v-0.88h0.88v0.88H38.89z M38.89,20.4v-0.88h0.88v0.88H38.89z M38.89,21.57v-0.88h0.88v0.88H38.89z M40.07,14.55v-0.88
		h0.88v0.88H40.07z M40.07,18.05v-0.88h0.88v0.88H40.07z M41.24,14.55v-0.88h0.88v0.88H41.24z M41.24,18.05v-0.88h0.88v0.88H41.24z
		 M42.42,14.55v-0.88h0.88v0.88H42.42z M42.42,18.05v-0.88h0.88v0.88H42.42z M43.58,15.72v-0.88h0.88v0.88H43.58z M43.58,16.89
		v-0.88h0.88v0.88H43.58z M43.58,18.05v-0.88h0.88v0.88H43.58z M43.58,19.23v-0.88h0.88v0.88H43.58z M43.58,20.4v-0.88h0.88v0.88
		H43.58z M43.58,21.57v-0.88h0.88v0.88H43.58z"/>
	<path d="M45.92,14.55v-0.88h0.88v0.88H45.92z M45.92,15.72v-0.88h0.88v0.88H45.92z M47.11,16.89v-0.88h0.88v0.88H47.11z
		 M48.26,19.23v-0.88h0.88v0.88H48.26z M48.26,20.4v-0.88h0.88v0.88H48.26z M48.26,21.58V20.7h0.88v0.88H48.26z M48.27,18.05v-0.88
		h0.88v0.88H48.27z M49.46,16.89v-0.88h0.88v0.88H49.46z M50.61,14.55v-0.88h0.88v0.88H50.61z M50.61,15.72v-0.88h0.88v0.88H50.61z"
		/>
	<path d="M62.32,23.92v-0.88h0.88v0.88H62.32z M63.5,21.58V20.7h0.88v0.88H63.5z M63.52,16.89v-0.88h0.88v0.88H63.52z M63.52,22.75
		v-0.88h0.88v0.88H63.52z"/>
	<path d="M69.35,22.75v-0.88h0.88v0.88H69.35z M69.37,13.38v-0.88h0.88v0.88H69.37z M70.55,14.55v-0.88h0.88v0.88H70.55z
		 M70.55,15.72v-0.88h0.88v0.88H70.55z M70.55,16.89v-0.88h0.88v0.88H70.55z M70.55,18.05v-0.88h0.88v0.88H70.55z M70.55,19.23
		v-0.88h0.88v0.88H70.55z M70.55,20.4v-0.88h0.88v0.88H70.55z M70.55,21.58V20.7h0.88v0.88H70.55z"/>
</g>
<rect x="0.5" y="0.5" class="st0" width="76.78" height="24.54"/>
</svg>
