<?xml version="1.0" encoding="utf-8"?>
<!-- Generator: Adobe Illustrator 27.7.0, SVG Export Plug-In . SVG Version: 6.00 Build 0)  -->
<svg version="1.1" id="Layer_1" xmlns="http://www.w3.org/2000/svg" xmlns:xlink="http://www.w3.org/1999/xlink" x="0px" y="0px"
	 width="77.78px" height="25.54px" viewBox="0 0 77.78 25.54" style="enable-background:new 0 0 77.78 25.54;" xml:space="preserve"
	>
<style type="text/css">
	.st0{fill:#009BDD;}
	.st1{fill:none;stroke:#000000;stroke-miterlimit:10;}
	.st2{fill:#FFDD67;}
	.st3{fill:#674E27;}
	.st4{fill:#91752C;}
</style>
<g>
	<path class="st0" d="M5.62,11.37c-0.02,0.18-0.06,0.3-0.13,0.37s-0.18,0.1-0.33,0.1c-0.16,0-0.29-0.05-0.37-0.14
		s-0.13-0.25-0.14-0.47L4.57,9.87V9.77c0-0.19,0.04-0.32,0.11-0.4s0.19-0.12,0.36-0.12c0.23,0,0.4,0.17,0.5,0.5
		c0.05,0.17,0.09,0.29,0.13,0.38c0.14,0.27,0.35,0.48,0.65,0.63s0.65,0.22,1.06,0.22c0.5,0,0.91-0.12,1.23-0.36s0.47-0.54,0.47-0.91
		c0-0.31-0.1-0.56-0.29-0.74S8.32,8.67,7.95,8.61L7.08,8.49c-0.81-0.11-1.4-0.33-1.77-0.64S4.75,7.1,4.75,6.54
		c0-0.6,0.25-1.1,0.74-1.51s1.11-0.61,1.85-0.61c0.21,0,0.44,0.03,0.68,0.08c0.24,0.06,0.51,0.15,0.81,0.27
		c0.01-0.11,0.04-0.19,0.09-0.23s0.15-0.06,0.28-0.06c0.17,0,0.29,0.03,0.36,0.08s0.11,0.17,0.12,0.36l0.08,1.22V6.2
		c0,0.14-0.04,0.24-0.12,0.32S9.47,6.63,9.32,6.63c-0.21,0-0.37-0.14-0.48-0.43C8.79,6.03,8.73,5.91,8.68,5.83
		c-0.13-0.2-0.31-0.35-0.56-0.45C7.88,5.27,7.61,5.22,7.3,5.22c-0.47,0-0.86,0.12-1.15,0.35S5.7,6.11,5.7,6.49
		c0,0.3,0.11,0.53,0.33,0.7s0.56,0.29,1.01,0.35l0.94,0.12c0.68,0.09,1.19,0.3,1.54,0.62s0.52,0.77,0.52,1.32
		c0,0.66-0.24,1.18-0.73,1.58s-1.14,0.59-1.96,0.59c-0.28,0-0.56-0.03-0.84-0.1S5.93,11.51,5.62,11.37z"/>
	<path class="st0" d="M16.39,4.82c0.04-0.11,0.09-0.18,0.16-0.22s0.17-0.06,0.3-0.06c0.14,0,0.25,0.04,0.3,0.11s0.09,0.21,0.09,0.43
		c0,0.38,0,0.74,0.01,1.07s0.01,0.47,0.01,0.43c0,0.18-0.03,0.31-0.09,0.37s-0.17,0.1-0.33,0.1c-0.26,0-0.43-0.18-0.5-0.55
		c-0.03-0.11-0.05-0.19-0.06-0.25c-0.07-0.29-0.25-0.53-0.53-0.72s-0.61-0.28-0.99-0.28c-0.69,0-1.25,0.25-1.66,0.76
		c-0.42,0.51-0.63,1.18-0.63,2.03s0.21,1.53,0.64,2.03s0.98,0.76,1.68,0.76c0.23,0,0.46-0.03,0.69-0.1s0.46-0.16,0.69-0.29
		c0.11-0.05,0.25-0.15,0.43-0.28s0.31-0.2,0.39-0.2c0.12,0,0.22,0.04,0.31,0.12s0.13,0.18,0.13,0.3s-0.05,0.23-0.14,0.34
		c-0.09,0.11-0.26,0.24-0.51,0.4c-0.33,0.22-0.66,0.38-0.99,0.48s-0.68,0.15-1.05,0.15c-0.96,0-1.76-0.34-2.39-1.02
		s-0.94-1.55-0.94-2.62c0-1.05,0.32-1.92,0.96-2.62s1.44-1.04,2.4-1.04c0.26,0,0.52,0.03,0.79,0.09S16.09,4.7,16.39,4.82z"/>
	<path class="st0" d="M20.43,10.75h0.4c0.23,0,0.39,0.03,0.48,0.09s0.14,0.17,0.14,0.31c0,0.16-0.04,0.27-0.12,0.33
		s-0.24,0.09-0.46,0.09h-1.97c-0.13,0-0.23-0.04-0.3-0.11s-0.11-0.18-0.11-0.31c0-0.14,0.04-0.25,0.12-0.31s0.21-0.09,0.39-0.09
		h0.19h0.34V5.42h-0.34c-0.29,0-0.48-0.03-0.57-0.08s-0.13-0.16-0.13-0.31c0-0.13,0.03-0.23,0.1-0.3s0.17-0.1,0.31-0.1h2.47
		c0.6,0,1.04,0.03,1.34,0.08S23.25,4.87,23.45,5c0.26,0.18,0.47,0.41,0.62,0.7s0.23,0.6,0.23,0.93c0,0.45-0.14,0.83-0.41,1.16
		s-0.66,0.55-1.15,0.67c0.1,0.06,0.19,0.13,0.27,0.21s0.16,0.17,0.23,0.28l1.18,1.8h0.19c0.22,0,0.37,0.03,0.45,0.09
		s0.12,0.17,0.12,0.31c0,0.14-0.03,0.24-0.1,0.31s-0.17,0.11-0.3,0.11h-0.66c-0.19,0-0.38-0.14-0.56-0.42
		c-0.02-0.02-0.04-0.04-0.05-0.06l-1.12-1.71c-0.23-0.35-0.42-0.57-0.57-0.67s-0.35-0.15-0.59-0.15h-0.78V10.75z M20.43,5.42v2.37
		h1.21c0.55,0,0.96-0.1,1.23-0.3S23.29,7,23.29,6.61c0-0.39-0.13-0.69-0.4-0.89s-0.67-0.3-1.21-0.3H20.43z"/>
	<path class="st0" d="M26.43,11.58h-0.28c-0.14,0-0.25-0.04-0.32-0.11s-0.11-0.18-0.11-0.32c0-0.16,0.04-0.26,0.13-0.32
		s0.28-0.08,0.58-0.08h0.38V5.47h-0.38c-0.29,0-0.48-0.03-0.57-0.09s-0.13-0.17-0.13-0.33c0-0.14,0.04-0.25,0.11-0.32
		s0.18-0.1,0.33-0.1h0.26h4.84c0.13,0,0.23,0.04,0.3,0.12s0.1,0.2,0.1,0.35v1.38c0,0.2-0.03,0.34-0.09,0.42s-0.16,0.12-0.32,0.12
		c-0.16,0-0.27-0.04-0.33-0.13s-0.09-0.28-0.09-0.58V5.47h-3.12v1.97h1.54V7.13c0-0.21,0.03-0.36,0.08-0.44s0.16-0.12,0.3-0.12
		c0.14,0,0.23,0.04,0.28,0.13s0.08,0.28,0.08,0.57v1.09c0,0.29-0.03,0.48-0.08,0.56s-0.15,0.12-0.29,0.12S29.4,9,29.34,8.9
		s-0.08-0.28-0.08-0.54V8.15h-1.54v2.6h3.12V9.8c0-0.3,0.03-0.49,0.09-0.58s0.17-0.13,0.33-0.13c0.15,0,0.25,0.04,0.31,0.12
		s0.09,0.23,0.09,0.45v1.48c0,0.14-0.04,0.25-0.11,0.32s-0.17,0.11-0.3,0.11H26.43z"/>
	<path class="st0" d="M33.63,11.58h-0.28c-0.14,0-0.25-0.04-0.32-0.11s-0.11-0.18-0.11-0.32c0-0.16,0.04-0.26,0.13-0.32
		s0.28-0.08,0.58-0.08H34V5.47h-0.38c-0.29,0-0.48-0.03-0.57-0.09s-0.13-0.17-0.13-0.33c0-0.14,0.04-0.25,0.11-0.32
		s0.18-0.1,0.33-0.1h0.26h4.84c0.13,0,0.23,0.04,0.3,0.12s0.1,0.2,0.1,0.35v1.38c0,0.2-0.03,0.34-0.09,0.42s-0.16,0.12-0.32,0.12
		c-0.16,0-0.27-0.04-0.33-0.13s-0.09-0.28-0.09-0.58V5.47h-3.12v1.97h1.54V7.13c0-0.21,0.03-0.36,0.08-0.44s0.16-0.12,0.3-0.12
		c0.14,0,0.23,0.04,0.28,0.13s0.08,0.28,0.08,0.57v1.09c0,0.29-0.03,0.48-0.08,0.56s-0.15,0.12-0.29,0.12S36.6,9,36.54,8.9
		s-0.08-0.28-0.08-0.54V8.15h-1.54v2.6h3.12V9.8c0-0.3,0.03-0.49,0.09-0.58s0.17-0.13,0.33-0.13c0.15,0,0.25,0.04,0.31,0.12
		s0.09,0.23,0.09,0.45v1.48c0,0.14-0.04,0.25-0.11,0.32s-0.17,0.11-0.3,0.11H33.63z"/>
	<path class="st0" d="M41.74,10.75h0.3h0.43c0.21,0,0.36,0.03,0.45,0.09s0.13,0.17,0.13,0.31c0,0.16-0.04,0.27-0.13,0.33
		s-0.27,0.09-0.55,0.09h-1.46h-0.28c-0.14,0-0.25-0.04-0.32-0.11s-0.11-0.18-0.11-0.32c0-0.16,0.04-0.26,0.12-0.32
		s0.24-0.08,0.47-0.08h0.11V5.47h-0.15c-0.33,0-0.55-0.03-0.67-0.09s-0.17-0.17-0.17-0.33c0-0.14,0.05-0.25,0.15-0.31
		s0.26-0.1,0.48-0.1c0.16-0.01,0.27-0.01,0.35-0.01h0.55c0.18,0,0.31,0.02,0.38,0.06S42,4.83,42.1,5l2.95,5.1V5.47h-0.23h-0.42
		c-0.21,0-0.36-0.03-0.46-0.1s-0.14-0.17-0.14-0.32c0-0.16,0.04-0.27,0.12-0.33s0.25-0.09,0.52-0.09h1.4h0.28
		c0.14,0,0.25,0.04,0.31,0.11s0.1,0.18,0.1,0.32c0,0.16-0.04,0.27-0.13,0.33s-0.24,0.09-0.46,0.09h-0.07v5.9
		c0,0.11-0.03,0.19-0.08,0.23s-0.17,0.06-0.37,0.06s-0.31-0.01-0.35-0.03s-0.12-0.12-0.23-0.3l-3.12-5.37V10.75z"/>
	<path class="st0" d="M5.93,21.58H5.01H4.74c-0.14,0-0.25-0.04-0.33-0.11s-0.11-0.18-0.11-0.32c0-0.15,0.04-0.26,0.13-0.32
		s0.24-0.09,0.48-0.09h0.11v-5.28H4.92c-0.23,0-0.4-0.03-0.48-0.09s-0.13-0.17-0.13-0.33c0-0.14,0.04-0.25,0.11-0.32
		s0.18-0.1,0.34-0.1h0.25h0.93h1.29c0.97,0,1.75,0.31,2.33,0.94s0.87,1.47,0.87,2.54c0,0.52-0.08,1-0.25,1.45s-0.41,0.84-0.72,1.17
		c-0.29,0.3-0.65,0.53-1.07,0.67c-0.42,0.14-0.96,0.21-1.62,0.21c-0.08,0-0.21,0-0.4-0.01S6.03,21.58,5.93,21.58z M5.93,20.75
		c0.12,0.01,0.25,0.02,0.37,0.03s0.24,0.01,0.36,0.01c0.96,0,1.67-0.21,2.11-0.64s0.67-1.11,0.67-2.03c0-0.93-0.22-1.61-0.67-2.03
		s-1.17-0.64-2.16-0.64c-0.18,0-0.32,0-0.42,0.01s-0.18,0.01-0.27,0.02V20.75z"/>
	<path class="st0" d="M16.32,20.75c0.3,0,0.49,0.03,0.58,0.08s0.13,0.16,0.13,0.32c0,0.16-0.04,0.27-0.13,0.33s-0.28,0.09-0.58,0.09
		h-3.56h-0.28c-0.14,0-0.25-0.04-0.32-0.11s-0.11-0.18-0.11-0.32c0-0.16,0.04-0.26,0.13-0.32s0.28-0.08,0.58-0.08h1.32v-5.28h-1.32
		c-0.29,0-0.48-0.03-0.57-0.09s-0.13-0.17-0.13-0.33c0-0.14,0.04-0.25,0.11-0.32s0.19-0.1,0.33-0.1h0.26h3.56h0.28
		c0.14,0,0.25,0.04,0.32,0.11s0.11,0.18,0.11,0.32c0,0.16-0.04,0.27-0.13,0.33s-0.28,0.09-0.57,0.09h-1.32v5.28H16.32z"/>
	<path class="st0" d="M20.02,21.37c-0.02,0.18-0.06,0.3-0.13,0.37s-0.18,0.1-0.33,0.1c-0.16,0-0.29-0.05-0.37-0.14
		s-0.13-0.25-0.14-0.47l-0.08-1.36v-0.11c0-0.19,0.04-0.32,0.11-0.4s0.19-0.12,0.36-0.12c0.23,0,0.4,0.17,0.5,0.5
		c0.05,0.17,0.09,0.29,0.13,0.38c0.14,0.27,0.35,0.48,0.65,0.63s0.65,0.22,1.06,0.22c0.5,0,0.91-0.12,1.23-0.36s0.47-0.54,0.47-0.91
		c0-0.31-0.1-0.56-0.29-0.74s-0.48-0.31-0.85-0.36l-0.87-0.12c-0.81-0.11-1.4-0.33-1.77-0.64s-0.56-0.75-0.56-1.32
		c0-0.6,0.25-1.1,0.74-1.51s1.11-0.61,1.85-0.61c0.21,0,0.44,0.03,0.68,0.08s0.51,0.15,0.81,0.27c0.01-0.11,0.04-0.19,0.09-0.23
		s0.15-0.06,0.28-0.06c0.17,0,0.29,0.03,0.36,0.08s0.11,0.17,0.12,0.36l0.08,1.22v0.06c0,0.14-0.04,0.24-0.12,0.32
		s-0.19,0.11-0.33,0.11c-0.21,0-0.37-0.14-0.48-0.43c-0.05-0.16-0.11-0.29-0.16-0.37c-0.13-0.2-0.31-0.35-0.56-0.45
		s-0.52-0.16-0.83-0.16c-0.47,0-0.86,0.12-1.15,0.35s-0.44,0.54-0.44,0.92c0,0.3,0.11,0.53,0.33,0.7s0.56,0.29,1.01,0.35l0.94,0.12
		c0.68,0.09,1.19,0.3,1.54,0.62s0.52,0.77,0.52,1.32c0,0.66-0.24,1.18-0.73,1.58s-1.14,0.59-1.96,0.59c-0.28,0-0.56-0.03-0.84-0.1
		S20.34,21.51,20.02,21.37z"/>
	<path class="st0" d="M29.18,20.75c0.19,0,0.33,0.03,0.42,0.1s0.13,0.17,0.13,0.31c0,0.16-0.04,0.27-0.12,0.33s-0.24,0.09-0.47,0.09
		h-2.87c-0.13,0-0.23-0.04-0.3-0.11s-0.11-0.18-0.11-0.31s0.03-0.24,0.1-0.3s0.17-0.1,0.32-0.1h0.76v-5.28h-0.41
		c-0.34,0-0.56-0.03-0.64-0.09s-0.13-0.17-0.13-0.33c0-0.14,0.04-0.24,0.11-0.31s0.17-0.11,0.3-0.11h2.71
		c0.95,0,1.67,0.18,2.16,0.55s0.74,0.91,0.74,1.62s-0.24,1.25-0.73,1.62s-1.21,0.54-2.17,0.54h-1.03v1.79H29.18z M27.95,15.47v2.72
		h1.1c0.61,0,1.07-0.11,1.38-0.34s0.46-0.57,0.46-1.03c0-0.45-0.15-0.79-0.46-1.01s-0.76-0.34-1.37-0.34H27.95z"/>
	<path class="st0" d="M38.35,19.21c0-0.29,0.03-0.48,0.09-0.57s0.17-0.13,0.33-0.13c0.14,0,0.25,0.04,0.32,0.11s0.11,0.18,0.11,0.34
		v0.25v1.93c0,0.14-0.04,0.24-0.11,0.32s-0.18,0.11-0.31,0.11h-5.2H33.3c-0.14,0-0.25-0.04-0.32-0.11s-0.11-0.18-0.11-0.32
		c0-0.16,0.04-0.26,0.13-0.32s0.27-0.08,0.57-0.08h0.73v-5.28h-0.73c-0.29,0-0.48-0.03-0.57-0.09s-0.13-0.17-0.13-0.33
		c0-0.14,0.04-0.25,0.11-0.32s0.18-0.1,0.34-0.1h0.25h2.64h0.28c0.14,0,0.25,0.04,0.32,0.11s0.11,0.18,0.11,0.32
		c0,0.16-0.04,0.27-0.13,0.33s-0.28,0.09-0.58,0.09h-0.98v5.28h3.12V19.21z"/>
	<path class="st0" d="M42.43,15.47h-0.86c-0.24,0-0.41-0.03-0.5-0.1s-0.14-0.17-0.14-0.33c0-0.16,0.04-0.27,0.13-0.33
		s0.31-0.09,0.69-0.09h1.67c0.21,0,0.36,0.03,0.44,0.08s0.15,0.16,0.21,0.31l2.29,5.72h0.1c0.21,0,0.36,0.03,0.43,0.09
		S47,21,47,21.15c0,0.16-0.04,0.27-0.11,0.33s-0.21,0.09-0.42,0.09h-1.59c-0.3,0-0.49-0.03-0.57-0.09s-0.13-0.17-0.13-0.33
		c0-0.15,0.05-0.25,0.14-0.31s0.26-0.09,0.52-0.09h0.54l-0.57-1.39h-2.98l-0.5,1.39h0.57c0.26,0,0.43,0.03,0.53,0.09
		s0.14,0.17,0.14,0.31c0,0.16-0.04,0.27-0.13,0.33s-0.27,0.09-0.55,0.09h-1.54c-0.25,0-0.42-0.03-0.5-0.09s-0.12-0.17-0.12-0.33
		c0-0.15,0.04-0.26,0.12-0.32s0.24-0.09,0.47-0.09h0.11L42.43,15.47z M42.13,18.58h2.4l-1.26-3.11L42.13,18.58z"/>
	<path class="st0" d="M51.83,20.75c0.3,0,0.49,0.03,0.58,0.08s0.13,0.16,0.13,0.32c0,0.16-0.04,0.27-0.13,0.33s-0.25,0.09-0.51,0.09
		h-2.78c-0.25,0-0.42-0.03-0.5-0.09s-0.12-0.17-0.12-0.33c0-0.16,0.05-0.26,0.14-0.32s0.28-0.08,0.57-0.08h0.85V18.8l-1.95-3.33H48
		c-0.23,0-0.39-0.03-0.48-0.09s-0.13-0.17-0.13-0.33c0-0.14,0.04-0.25,0.11-0.32s0.18-0.1,0.34-0.1h0.26h1.34
		c0.23,0,0.39,0.03,0.47,0.09s0.12,0.17,0.12,0.33s-0.05,0.27-0.14,0.33s-0.27,0.09-0.52,0.09h-0.19l1.42,2.54l1.47-2.54h-0.24
		c-0.21,0-0.36-0.03-0.44-0.09s-0.12-0.17-0.12-0.33c0-0.16,0.04-0.28,0.11-0.33s0.25-0.09,0.53-0.09h0.15h0.93
		c0.3,0,0.49,0.03,0.57,0.09s0.13,0.17,0.13,0.33c0,0.16-0.04,0.27-0.13,0.33s-0.24,0.09-0.48,0.09h-0.09l-1.99,3.42v1.86H51.83z"/>
</g>
<rect x="0.5" y="0.5" class="st1" width="76.78" height="24.54"/>
<g>
	<g>
		<circle class="st2" cx="66.82" cy="17.38" r="5.62"/>
		<circle class="st3" cx="64.99" cy="17.3" r="0.94"/>
		<path class="st4" d="M70.42,16.54c-0.61-0.51-1.41-0.73-2.19-0.59c-0.11,0.02-0.2-0.38-0.07-0.4c0.9-0.16,1.83,0.09,2.53,0.68
			C70.79,16.32,70.5,16.61,70.42,16.54z"/>
		<path class="st4" d="M65.41,14.9c-0.78-0.14-1.59,0.07-2.19,0.59c-0.08,0.07-0.37-0.23-0.26-0.31c0.7-0.59,1.63-0.84,2.53-0.68
			C65.62,14.52,65.52,14.92,65.41,14.9z"/>
		<path class="st3" d="M70.23,17.8c-0.33-0.66-0.82-0.99-1.31-0.99c-0.49,0-0.98,0.33-1.31,0.99c-0.03,0.07,0.14,0.19,0.22,0.12
			c0.32-0.24,0.69-0.34,1.09-0.34c0.39,0,0.77,0.1,1.09,0.34C70.09,17.98,70.26,17.87,70.23,17.8z"/>
		<path class="st3" d="M69.1,19.29c-1.3,0.68-3.07,0.54-3.59,0.54c-0.14,0-0.22,0.06-0.19,0.17c0.38,1.31,3.19,1.31,3.96-0.51
			C69.37,19.29,69.21,19.23,69.1,19.29z"/>
	</g>
</g>
</svg>
