<svg xmlns="http://www.w3.org/2000/svg" viewBox="0 0 158.25 28.62"><defs><style>.a{fill:#fff;}</style></defs><rect y="14.09" width="158.25" height="14.53"/><path d="M8.47,10.52H5.54L3.3,7v3.48H1v-9H4.61a3.58,3.58,0,0,1,1.32.22,2.76,2.76,0,0,1,.93.6,2.65,2.65,0,0,1,.55.89A3.23,3.23,0,0,1,7.6,4.27,2.69,2.69,0,0,1,7.1,6a2.58,2.58,0,0,1-1.47.87Zm-5.17-5h.44a1.73,1.73,0,0,0,1.07-.29,1,1,0,0,0,.37-.83,1,1,0,0,0-.37-.82,1.66,1.66,0,0,0-1.07-.29H3.3Z" transform="translate(0 -0.43)"/><path d="M11.08,7.81q0,1.41,1.32,1.41a1.18,1.18,0,0,0,1.06-.58h2.1a2.93,2.93,0,0,1-3.18,2.11A4.27,4.27,0,0,1,11,10.52a3.08,3.08,0,0,1-1.11-.67,3,3,0,0,1-.72-1,3.4,3.4,0,0,1-.25-1.34,3.79,3.79,0,0,1,.24-1.39A3,3,0,0,1,9.8,5a3.13,3.13,0,0,1,1.08-.67,4.19,4.19,0,0,1,1.42-.23,4.07,4.07,0,0,1,1.4.23,3,3,0,0,1,1.06.68,2.93,2.93,0,0,1,.66,1.09,4.35,4.35,0,0,1,.23,1.44v.23Zm2.54-1.26a1.31,1.31,0,0,0-.44-.73,1.29,1.29,0,0,0-.82-.28,1.21,1.21,0,0,0-.82.27,1.15,1.15,0,0,0-.4.74Z" transform="translate(0 -0.43)"/><path d="M21.64,4.37h2.18v6.15H21.64V9.84a2.32,2.32,0,0,1-1.89.88,3.07,3.07,0,0,1-1.23-.25,2.85,2.85,0,0,1-1-.69,3.1,3.1,0,0,1-.65-1,3.51,3.51,0,0,1-.24-1.31,3.56,3.56,0,0,1,.23-1.26,3.2,3.2,0,0,1,.64-1,2.87,2.87,0,0,1,2.22-1,2.5,2.5,0,0,1,1.91.8ZM18.9,7.43a1.47,1.47,0,0,0,.4,1,1.61,1.61,0,0,0,.45.3,1.56,1.56,0,0,0,1.1,0,1.55,1.55,0,0,0,.44-.3,1.37,1.37,0,0,0,.3-.45,1.27,1.27,0,0,0,0-1.08,1.19,1.19,0,0,0-.3-.45,1.23,1.23,0,0,0-.44-.3,1.42,1.42,0,0,0-1.55.3,1.37,1.37,0,0,0-.4,1Z" transform="translate(0 -0.43)"/><path d="M27.47.56v10H25.3V.56Z" transform="translate(0 -0.43)"/><path d="M28.21,6.41h3.45V8.22H28.21Z" transform="translate(0 -0.43)"/><path d="M36.18,3.47v7H33.83v-7H31.9v-2h6.21v2Z" transform="translate(0 -0.43)"/><path d="M39,2a1.27,1.27,0,0,1,.09-.47,1.36,1.36,0,0,1,.27-.39,1.16,1.16,0,0,1,.39-.26,1.07,1.07,0,0,1,.47-.1,1.12,1.12,0,0,1,.48.1,1.4,1.4,0,0,1,.39.26,1.16,1.16,0,0,1,.26.39,1.28,1.28,0,0,1,.1.47,1.29,1.29,0,0,1-.1.48,1.16,1.16,0,0,1-.26.39,1.4,1.4,0,0,1-.39.26,1.12,1.12,0,0,1-.48.1,1.07,1.07,0,0,1-.47-.1,1.16,1.16,0,0,1-.39-.26,1.36,1.36,0,0,1-.27-.39A1.28,1.28,0,0,1,39,2ZM41.3,4.37v6.15H39.13V4.37Z" transform="translate(0 -0.43)"/><path d="M42.79,4.37H45v.75a2.87,2.87,0,0,1,2-.85A2.32,2.32,0,0,1,49,5.42a2.35,2.35,0,0,1,2.09-1.16,2.47,2.47,0,0,1,.82.13,1.7,1.7,0,0,1,.66.39,2,2,0,0,1,.44.7,3.22,3.22,0,0,1,.16,1v4H51v-3A4,4,0,0,0,51,6.72a1.21,1.21,0,0,0-.19-.47.66.66,0,0,0-.3-.23A1,1,0,0,0,50.12,6c-.69,0-1,.51-1,1.53v3H46.91v-3a4.26,4.26,0,0,0-.06-.78,1.34,1.34,0,0,0-.18-.48A.59.59,0,0,0,46.38,6,1.33,1.33,0,0,0,46,5.92a1.16,1.16,0,0,0-.38.06.64.64,0,0,0-.32.23,1.34,1.34,0,0,0-.22.48,3.4,3.4,0,0,0-.08.8v3H42.79Z" transform="translate(0 -0.43)"/><path d="M56.65,7.81q0,1.41,1.32,1.41A1.2,1.2,0,0,0,59,8.64h2.1A2.93,2.93,0,0,1,58,10.75a4.33,4.33,0,0,1-1.43-.23,3.26,3.26,0,0,1-1.11-.67,3,3,0,0,1-.71-1,3.4,3.4,0,0,1-.25-1.34,3.79,3.79,0,0,1,.24-1.39,2.76,2.76,0,0,1,.68-1,3,3,0,0,1,1.07-.67,4.25,4.25,0,0,1,1.43-.23,4.11,4.11,0,0,1,1.4.23,2.93,2.93,0,0,1,1,.68A3.08,3.08,0,0,1,61,6.14a4.35,4.35,0,0,1,.22,1.44v.23ZM59.2,6.55a1.32,1.32,0,0,0-.45-.73,1.36,1.36,0,0,0-1.64,0,1.2,1.2,0,0,0-.4.74Z" transform="translate(0 -0.43)"/><path d="M73.26,4.5a2.54,2.54,0,0,0-2-1,2.37,2.37,0,0,0-1,.2,2.22,2.22,0,0,0-.78.52A2.29,2.29,0,0,0,69,5a2.72,2.72,0,0,0-.19,1A2.64,2.64,0,0,0,69,7a2.4,2.4,0,0,0,.52.8,2.47,2.47,0,0,0,1.73.72,2.73,2.73,0,0,0,2-1v2.78L73,10.4a6.88,6.88,0,0,1-1,.29,4.86,4.86,0,0,1-.92.09,4.59,4.59,0,0,1-1.8-.36,4.76,4.76,0,0,1-1.51-1,5,5,0,0,1-1-1.53A4.71,4.71,0,0,1,66.33,6a4.49,4.49,0,0,1,.4-1.92,4.54,4.54,0,0,1,1-1.5,4.67,4.67,0,0,1,1.52-1,4.64,4.64,0,0,1,1.81-.36,4.72,4.72,0,0,1,1.06.12,5.8,5.8,0,0,1,1.1.35Z" transform="translate(0 -0.43)"/><path d="M74.3,7.39a3,3,0,0,1,.28-1.28,3.1,3.1,0,0,1,.77-1,3.55,3.55,0,0,1,1.17-.69,4.48,4.48,0,0,1,3,0,3.72,3.72,0,0,1,1.18.68,3.17,3.17,0,0,1,.77,1,3.27,3.27,0,0,1,.27,1.34,3.09,3.09,0,0,1-.28,1.34,3.17,3.17,0,0,1-.77,1,3.35,3.35,0,0,1-1.18.68,4.54,4.54,0,0,1-1.5.24,4.34,4.34,0,0,1-1.46-.24,3.52,3.52,0,0,1-1.16-.68,3.22,3.22,0,0,1-.76-1.06A3.27,3.27,0,0,1,74.3,7.39Zm2.29,0a1.39,1.39,0,0,0,.12.57,1.37,1.37,0,0,0,.3.45,1.55,1.55,0,0,0,.44.3,1.45,1.45,0,0,0,.55.1,1.4,1.4,0,0,0,.54-.1,1.61,1.61,0,0,0,.45-.3,1.77,1.77,0,0,0,.3-.45,1.51,1.51,0,0,0,.11-.56,1.46,1.46,0,0,0-.11-.55,1.77,1.77,0,0,0-.3-.45,1.27,1.27,0,0,0-.45-.3A1.41,1.41,0,0,0,78,6a1.46,1.46,0,0,0-.55.11,1.23,1.23,0,0,0-.44.3,1.37,1.37,0,0,0-.3.45A1.19,1.19,0,0,0,76.59,7.42Z" transform="translate(0 -0.43)"/><path d="M82.94,4.37h2.17v.75a2.87,2.87,0,0,1,2-.85,2.32,2.32,0,0,1,2.08,1.15,2.35,2.35,0,0,1,2.09-1.16,2.47,2.47,0,0,1,.82.13,1.7,1.7,0,0,1,.66.39,2,2,0,0,1,.44.7,3.22,3.22,0,0,1,.16,1v4H91.19v-3a4,4,0,0,0-.07-.77,1.21,1.21,0,0,0-.19-.47.66.66,0,0,0-.3-.23A1,1,0,0,0,90.27,6c-.69,0-1,.51-1,1.53v3H87.06v-3A4.26,4.26,0,0,0,87,6.71a1.34,1.34,0,0,0-.18-.48A.59.59,0,0,0,86.53,6a1.33,1.33,0,0,0-.42-.06,1.16,1.16,0,0,0-.38.06.64.64,0,0,0-.32.23,1.34,1.34,0,0,0-.22.48,3.4,3.4,0,0,0-.08.8v3H82.94Z" transform="translate(0 -0.43)"/><path d="M97.23,13.6H95.06V4.37h2.17v.68a2.31,2.31,0,0,1,1.9-.87,3,3,0,0,1,1.23.25,3.2,3.2,0,0,1,1,.71,3,3,0,0,1,.65,1,3.43,3.43,0,0,1,.24,1.28A3.39,3.39,0,0,1,102,8.74a3.31,3.31,0,0,1-.64,1,3.06,3.06,0,0,1-1,.69,3,3,0,0,1-1.23.26,2.59,2.59,0,0,1-1.92-.8ZM100,7.46a1.4,1.4,0,0,0-.1-.54,1.37,1.37,0,0,0-.3-.45,1.34,1.34,0,0,0-.45-.31,1.42,1.42,0,0,0-.55-.11,1.22,1.22,0,0,0-.54.11,1.23,1.23,0,0,0-.44.3,1.19,1.19,0,0,0-.3.45,1.25,1.25,0,0,0-.12.54,1.41,1.41,0,0,0,.11.54,1.23,1.23,0,0,0,.3.44,1.77,1.77,0,0,0,.45.3,1.29,1.29,0,0,0,.55.11,1.4,1.4,0,0,0,.54-.1,1.71,1.71,0,0,0,.44-.3,1.77,1.77,0,0,0,.3-.45A1.36,1.36,0,0,0,100,7.46Z" transform="translate(0 -0.43)"/><path d="M105.65,4.37V7.84c0,.76.36,1.14,1.1,1.14s1.1-.38,1.1-1.14V4.37H110V8.26a2.21,2.21,0,0,1-.83,1.87,5.15,5.15,0,0,1-4.9,0,2.21,2.21,0,0,1-.83-1.87V4.37Z" transform="translate(0 -0.43)"/><path d="M113.93,6.18v4.34h-2.18V6.18H111V4.37h.72V2.52h2.18V4.37h1.23V6.18Z" transform="translate(0 -0.43)"/><path d="M116,2a1.1,1.1,0,0,1,.1-.47,1.2,1.2,0,0,1,.65-.65,1.12,1.12,0,0,1,.48-.1,1.1,1.1,0,0,1,.47.1,1.2,1.2,0,0,1,.65.65,1.1,1.1,0,0,1,.1.47,1.12,1.12,0,0,1-.1.48,1.2,1.2,0,0,1-.65.65,1.1,1.1,0,0,1-.47.1,1.12,1.12,0,0,1-.48-.1,1.2,1.2,0,0,1-.65-.65A1.12,1.12,0,0,1,116,2Zm2.32,2.37v6.15h-2.17V4.37Z" transform="translate(0 -0.43)"/><path d="M119.81,4.37H122v.78a2.36,2.36,0,0,1,.9-.73A2.89,2.89,0,0,1,124,4.24a2.68,2.68,0,0,1,1.11.21,2.15,2.15,0,0,1,.78.59,1.62,1.62,0,0,1,.36.7,3.25,3.25,0,0,1,.1.87v3.91h-2.17V7.42a3.56,3.56,0,0,0-.07-.74.88.88,0,0,0-.23-.45A.84.84,0,0,0,123.5,6a1.21,1.21,0,0,0-.38-.06,1.09,1.09,0,0,0-.85.33,1.42,1.42,0,0,0-.29,1v3.28h-2.17Z" transform="translate(0 -0.43)"/><path d="M134.66,4.37V10.1a6.41,6.41,0,0,1-.06.93,3.46,3.46,0,0,1-.17.72,2.14,2.14,0,0,1-.45.74,3.31,3.31,0,0,1-.73.59,4.11,4.11,0,0,1-1,.4,5,5,0,0,1-1.18.14,4.58,4.58,0,0,1-1.32-.18,3.65,3.65,0,0,1-1.05-.5,2.89,2.89,0,0,1-.74-.74,2.71,2.71,0,0,1-.39-.93H130a1,1,0,0,0,1,.61,1.39,1.39,0,0,0,1.05-.38,1.48,1.48,0,0,0,.37-1.07V9.84a3.68,3.68,0,0,1-.46.38,2.46,2.46,0,0,1-.45.24,1.9,1.9,0,0,1-.48.14,3.16,3.16,0,0,1-.55,0,3.23,3.23,0,0,1-1.22-.22,3.12,3.12,0,0,1-1-.64,2.69,2.69,0,0,1-.62-1,3.4,3.4,0,0,1-.23-1.26,3.56,3.56,0,0,1,.24-1.32,3.34,3.34,0,0,1,.66-1,2.91,2.91,0,0,1,1-.71,3,3,0,0,1,1.24-.26,2.38,2.38,0,0,1,1.84.82V4.37Zm-4.87,3.05a1.42,1.42,0,0,0,.11.55,1.29,1.29,0,0,0,.29.45,1.43,1.43,0,0,0,1.55.3,1.23,1.23,0,0,0,.44-.3,1.19,1.19,0,0,0,.3-.45,1.25,1.25,0,0,0,.12-.54,1.23,1.23,0,0,0-.12-.55,1.38,1.38,0,0,0-.75-.75,1.41,1.41,0,0,0-.54-.11,1.25,1.25,0,0,0-.54.12,1.43,1.43,0,0,0-.44.3,1.4,1.4,0,0,0-.31.44A1.33,1.33,0,0,0,129.79,7.42Z" transform="translate(0 -0.43)"/><path d="M142.57,6.18v4.34H140.4V6.18h-.78V4.37h.78V3.44a4.39,4.39,0,0,1,.14-1.22,2.07,2.07,0,0,1,.39-.71,2.76,2.76,0,0,1,.61-.57,3.07,3.07,0,0,1,.77-.38,2.84,2.84,0,0,1,.8-.13,2.1,2.1,0,0,1,.51.06,3,3,0,0,1,.47.17v1.9a1.92,1.92,0,0,0-.4-.17,1.6,1.6,0,0,0-.39-.05.84.84,0,0,0-.27,0,.61.61,0,0,0-.26.18.71.71,0,0,0-.16.37,4.06,4.06,0,0,0,0,.67v.77h1.52V6.18Z" transform="translate(0 -0.43)"/><path d="M144.78,7.39a3.09,3.09,0,0,1,.27-1.28,3.24,3.24,0,0,1,.77-1A3.77,3.77,0,0,1,147,4.39a4.18,4.18,0,0,1,1.48-.25,4.13,4.13,0,0,1,1.47.25,3.51,3.51,0,0,1,1.18.68,3,3,0,0,1,.77,1,3.12,3.12,0,0,1,.28,1.34,3.09,3.09,0,0,1-.28,1.34,3.2,3.2,0,0,1-.78,1,3.27,3.27,0,0,1-1.18.68,4.52,4.52,0,0,1-1.49.24,4.36,4.36,0,0,1-1.47-.24,3.47,3.47,0,0,1-1.15-.68,3.25,3.25,0,0,1-.77-1.06A3.43,3.43,0,0,1,144.78,7.39Zm2.29,0a1.56,1.56,0,0,0,.11.57,1.77,1.77,0,0,0,.3.45,1.77,1.77,0,0,0,.45.3,1.4,1.4,0,0,0,.54.1,1.42,1.42,0,0,0,.55-.1,1.55,1.55,0,0,0,.44-.3,1.37,1.37,0,0,0,.3-.45,1.34,1.34,0,0,0,.12-.56,1.3,1.3,0,0,0-.12-.55,1.37,1.37,0,0,0-.3-.45,1.23,1.23,0,0,0-.44-.3,1.41,1.41,0,0,0-1.09,0,1.37,1.37,0,0,0-.45.3,1.77,1.77,0,0,0-.3.45A1.33,1.33,0,0,0,147.07,7.42Z" transform="translate(0 -0.43)"/><path d="M153.42,4.37h2.17v1a2.56,2.56,0,0,1,.85-.85,2.27,2.27,0,0,1,1.18-.29h.18a1.06,1.06,0,0,1,.24,0V6.34a2,2,0,0,0-.94-.22,1.39,1.39,0,0,0-1.13.45,2,2,0,0,0-.38,1.31v2.64h-2.17Z" transform="translate(0 -0.43)"/><path class="a" d="M12,25.51l1.54-9h2.33l1.81,4.82,1.8-4.82h2.33l1.53,9.05H21L20.2,20.3l-2.13,5.21h-.94l-2-5.21-.78,5.21Z" transform="translate(0 -0.43)"/><path class="a" d="M26.24,22.79q0,1.41,1.32,1.41a1.18,1.18,0,0,0,1.07-.58h2.1a2.94,2.94,0,0,1-3.18,2.11,4.09,4.09,0,0,1-1.43-.23A3.26,3.26,0,0,1,25,24.83a2.9,2.9,0,0,1-.72-1A3.59,3.59,0,0,1,24,22.46a3.82,3.82,0,0,1,.24-1.39A2.91,2.91,0,0,1,25,20,2.85,2.85,0,0,1,26,19.36a4.29,4.29,0,0,1,2.83,0,2.87,2.87,0,0,1,1.05.67,2.93,2.93,0,0,1,.66,1.09,4.37,4.37,0,0,1,.23,1.45v.22Zm2.54-1.26a1.34,1.34,0,0,0-.44-.73,1.28,1.28,0,0,0-.82-.27,1.22,1.22,0,0,0-.82.26,1.17,1.17,0,0,0-.4.74Z" transform="translate(0 -0.43)"/><path class="a" d="M36.69,21.34A2.07,2.07,0,0,0,35.55,21a1.4,1.4,0,0,0-.58.11,1.5,1.5,0,0,0-.48.3,1.38,1.38,0,0,0-.31.47,1.48,1.48,0,0,0-.12.61,1.45,1.45,0,0,0,.12.59,1.38,1.38,0,0,0,.31.47,1.35,1.35,0,0,0,.47.3,1.47,1.47,0,0,0,.59.11,1.79,1.79,0,0,0,1.14-.42v1.85a3.88,3.88,0,0,1-1.52.35,3.63,3.63,0,0,1-1.28-.23,3.24,3.24,0,0,1-1.07-.65,3.43,3.43,0,0,1-.74-1,3.19,3.19,0,0,1-.27-1.33,3.27,3.27,0,0,1,.26-1.34,3.34,3.34,0,0,1,.72-1,3.38,3.38,0,0,1,1.09-.69,3.76,3.76,0,0,1,1.35-.24,3.29,3.29,0,0,1,1.46.33Z" transform="translate(0 -0.43)"/><path class="a" d="M38.23,15.55H40.4v4.58a2.36,2.36,0,0,1,.9-.73,2.89,2.89,0,0,1,1.07-.18,2.25,2.25,0,0,1,1.75.64,2.44,2.44,0,0,1,.6,1.73v3.92H42.55V22.4a3.1,3.1,0,0,0-.08-.76.76.76,0,0,0-.24-.44,1,1,0,0,0-.69-.25,1.09,1.09,0,0,0-.85.33,1.39,1.39,0,0,0-.29.94v3.29H38.23Z" transform="translate(0 -0.43)"/><path class="a" d="M51,19.35h2.18v6.16H51v-.69a2.29,2.29,0,0,1-1.89.88,2.91,2.91,0,0,1-1.23-.25,2.85,2.85,0,0,1-1-.69,3,3,0,0,1-.65-1A3.51,3.51,0,0,1,46,22.41a3.47,3.47,0,0,1,.23-1.25,3,3,0,0,1,.64-1,3,3,0,0,1,2.22-1A2.54,2.54,0,0,1,51,20Zm-2.74,3.06a1.47,1.47,0,0,0,.11.56,1.51,1.51,0,0,0,.29.45,1.27,1.27,0,0,0,.45.3,1.43,1.43,0,0,0,1.1,0,1.23,1.23,0,0,0,.44-.3,1.37,1.37,0,0,0,.3-.45,1.19,1.19,0,0,0,.12-.54,1.25,1.25,0,0,0-.12-.54,1.37,1.37,0,0,0-.3-.45,1.23,1.23,0,0,0-.44-.3,1.43,1.43,0,0,0-1.1,0,1.27,1.27,0,0,0-.45.3,1.46,1.46,0,0,0-.29.44A1.32,1.32,0,0,0,48.21,22.41Z" transform="translate(0 -0.43)"/><path class="a" d="M54.61,19.35h2.17v.78a2.36,2.36,0,0,1,.9-.73,2.89,2.89,0,0,1,1.07-.18,2.68,2.68,0,0,1,1.11.21,2.27,2.27,0,0,1,.78.59,1.62,1.62,0,0,1,.36.7,3.3,3.3,0,0,1,.1.87v3.92H58.93V22.4a3.56,3.56,0,0,0-.07-.74.88.88,0,0,0-.23-.45.82.82,0,0,0-.33-.2,1.21,1.21,0,0,0-.38-.06,1.09,1.09,0,0,0-.85.33,1.39,1.39,0,0,0-.29.94v3.29H54.61Z" transform="translate(0 -0.43)"/><path class="a" d="M62.43,17a1.28,1.28,0,0,1,.09-.48,1.36,1.36,0,0,1,.27-.39,1.16,1.16,0,0,1,.39-.26,1.07,1.07,0,0,1,.47-.1,1.12,1.12,0,0,1,.48.1,1.4,1.4,0,0,1,.39.26,1.16,1.16,0,0,1,.26.39,1.12,1.12,0,0,1,.1.48,1.1,1.1,0,0,1-.1.47,1.16,1.16,0,0,1-.26.39,1.4,1.4,0,0,1-.39.26,1.12,1.12,0,0,1-.48.1,1.07,1.07,0,0,1-.47-.1,1.16,1.16,0,0,1-.39-.26,1.36,1.36,0,0,1-.27-.39A1.27,1.27,0,0,1,62.43,17Zm2.32,2.36v6.16H62.57V19.35Z" transform="translate(0 -0.43)"/><path class="a" d="M70.88,21.34A2.07,2.07,0,0,0,69.74,21a1.52,1.52,0,0,0-1.06.41,1.4,1.4,0,0,0-.32.47,1.66,1.66,0,0,0-.11.61,1.63,1.63,0,0,0,.11.59,1.54,1.54,0,0,0,.31.47,1.39,1.39,0,0,0,.48.3,1.44,1.44,0,0,0,.59.11,1.83,1.83,0,0,0,1.14-.42v1.85a3.92,3.92,0,0,1-1.53.35,3.67,3.67,0,0,1-1.28-.23A3.19,3.19,0,0,1,67,24.82a3.26,3.26,0,0,1-.74-1A3,3,0,0,1,66,22.47a3.27,3.27,0,0,1,.27-1.34,3,3,0,0,1,.72-1,3.33,3.33,0,0,1,1.08-.69,3.76,3.76,0,0,1,1.35-.24,3.3,3.3,0,0,1,1.47.33Z" transform="translate(0 -0.43)"/><path class="a" d="M76.86,19.35h2.19v6.16H76.86v-.69A2.26,2.26,0,0,1,75,25.7a3,3,0,0,1-1.24-.25,2.91,2.91,0,0,1-1-.69,3,3,0,0,1-.65-1,3.51,3.51,0,0,1-.24-1.31,3.47,3.47,0,0,1,.23-1.25,3,3,0,0,1,.64-1,3,3,0,0,1,2.22-1,2.51,2.51,0,0,1,1.9.8Zm-2.73,3.06a1.3,1.3,0,0,0,.11.56,1.51,1.51,0,0,0,.29.45,1.23,1.23,0,0,0,.44.3,1.51,1.51,0,0,0,.56.11,1.46,1.46,0,0,0,.55-.11,1.23,1.23,0,0,0,.44-.3,1.37,1.37,0,0,0,.3-.45,1.19,1.19,0,0,0,.12-.54,1.25,1.25,0,0,0-.12-.54,1.37,1.37,0,0,0-.3-.45,1.23,1.23,0,0,0-.44-.3,1.46,1.46,0,0,0-.55-.11,1.51,1.51,0,0,0-.56.11,1.23,1.23,0,0,0-.44.3,1.46,1.46,0,0,0-.29.44A1.17,1.17,0,0,0,74.13,22.41Z" transform="translate(0 -0.43)"/><path class="a" d="M82.7,15.55v10H80.52v-10Z" transform="translate(0 -0.43)"/><path class="a" d="M93.62,18.45h-2.8V20h2.64v2H90.82v1.56h2.8v2H88.47v-9h5.15Z" transform="translate(0 -0.43)"/><path class="a" d="M95.1,19.35h2.18v.78a2.36,2.36,0,0,1,.9-.73,2.87,2.87,0,0,1,1.06-.18,2.62,2.62,0,0,1,1.11.21,2.31,2.31,0,0,1,.79.59,1.62,1.62,0,0,1,.36.7,3.78,3.78,0,0,1,.1.87v3.92H99.42V22.4a3.67,3.67,0,0,0-.06-.74.89.89,0,0,0-.24-.45.72.72,0,0,0-.32-.2,1.21,1.21,0,0,0-.38-.06,1.09,1.09,0,0,0-.85.33,1.34,1.34,0,0,0-.29.94v3.29H95.1Z" transform="translate(0 -0.43)"/><path class="a" d="M110,19.35v5.74a6.36,6.36,0,0,1-.06.92,4.24,4.24,0,0,1-.17.72,2.14,2.14,0,0,1-.45.74,2.92,2.92,0,0,1-.74.59,3.87,3.87,0,0,1-1,.4,5,5,0,0,1-1.19.14,4.58,4.58,0,0,1-1.32-.18,3.4,3.4,0,0,1-1-.5,2.85,2.85,0,0,1-.73-.74,2.4,2.4,0,0,1-.39-.93h2.45a1,1,0,0,0,1,.61,1.39,1.39,0,0,0,1-.38,1.47,1.47,0,0,0,.37-1.07v-.59a4.59,4.59,0,0,1-.46.38,3.37,3.37,0,0,1-.45.25,2.14,2.14,0,0,1-.48.13,3.24,3.24,0,0,1-.56.05,3.18,3.18,0,0,1-1.21-.23,2.86,2.86,0,0,1-1.58-1.62,3.73,3.73,0,0,1,0-2.58,3.34,3.34,0,0,1,.66-1.05,2.91,2.91,0,0,1,1-.71,3,3,0,0,1,1.24-.26,2.38,2.38,0,0,1,1.84.82v-.65Zm-4.87,3a1.33,1.33,0,0,0,.11.56,1.51,1.51,0,0,0,.29.45,1.55,1.55,0,0,0,.44.3,1.5,1.5,0,0,0,.56.1,1.45,1.45,0,0,0,.55-.1,1.55,1.55,0,0,0,.44-.3,1.37,1.37,0,0,0,.3-.45,1.33,1.33,0,0,0,.12-.55,1.26,1.26,0,0,0-.12-.55,1.54,1.54,0,0,0-.3-.45,1.77,1.77,0,0,0-.45-.3,1.44,1.44,0,0,0-.54-.1,1.24,1.24,0,0,0-.54.11,1.71,1.71,0,0,0-.44.3,1.33,1.33,0,0,0-.42,1Z" transform="translate(0 -0.43)"/><path class="a" d="M111.29,17a1.12,1.12,0,0,1,.1-.48,1.2,1.2,0,0,1,.65-.65,1.12,1.12,0,0,1,.48-.1,1.1,1.1,0,0,1,.47.1,1.2,1.2,0,0,1,.65.65,1.12,1.12,0,0,1,.1.48,1.1,1.1,0,0,1-.1.47,1.2,1.2,0,0,1-.65.65,1.1,1.1,0,0,1-.47.1,1.12,1.12,0,0,1-.48-.1,1.2,1.2,0,0,1-.65-.65A1.1,1.1,0,0,1,111.29,17Zm2.32,2.36v6.16h-2.17V19.35Z" transform="translate(0 -0.43)"/><path class="a" d="M115.1,19.35h2.17v.78a2.36,2.36,0,0,1,.9-.73,2.89,2.89,0,0,1,1.07-.18,2.68,2.68,0,0,1,1.11.21,2.27,2.27,0,0,1,.78.59,1.62,1.62,0,0,1,.36.7,3.3,3.3,0,0,1,.1.87v3.92h-2.17V22.4a3.56,3.56,0,0,0-.07-.74.88.88,0,0,0-.23-.45.82.82,0,0,0-.33-.2,1.21,1.21,0,0,0-.38-.06,1.09,1.09,0,0,0-.85.33,1.39,1.39,0,0,0-.29.94v3.29H115.1Z" transform="translate(0 -0.43)"/><path class="a" d="M125,22.79q0,1.41,1.32,1.41a1.18,1.18,0,0,0,1.07-.58h2.1a2.94,2.94,0,0,1-3.18,2.11,4.09,4.09,0,0,1-1.43-.23,3.26,3.26,0,0,1-1.11-.67,2.76,2.76,0,0,1-.71-1,3.41,3.41,0,0,1-.26-1.34,3.82,3.82,0,0,1,.24-1.39,2.91,2.91,0,0,1,.69-1.05,2.85,2.85,0,0,1,1.07-.66,4,4,0,0,1,1.42-.24,3.93,3.93,0,0,1,1.41.24,2.79,2.79,0,0,1,1,.67,2.93,2.93,0,0,1,.66,1.09,4.13,4.13,0,0,1,.23,1.45v.22Zm2.54-1.26a1.34,1.34,0,0,0-.44-.73,1.26,1.26,0,0,0-.82-.27,1.14,1.14,0,0,0-1.22,1Z" transform="translate(0 -0.43)"/><path class="a" d="M132.78,22.79q0,1.41,1.32,1.41a1.17,1.17,0,0,0,1.07-.58h2.1a2.93,2.93,0,0,1-3.18,2.11,4.13,4.13,0,0,1-1.43-.23,3.26,3.26,0,0,1-1.11-.67,3,3,0,0,1-.71-1,3.4,3.4,0,0,1-.25-1.34,3.82,3.82,0,0,1,.24-1.39,3,3,0,0,1,.68-1.05,3,3,0,0,1,1.08-.66,4,4,0,0,1,1.42-.24,3.84,3.84,0,0,1,1.4.24,2.83,2.83,0,0,1,1.06.67,2.93,2.93,0,0,1,.66,1.09,4.37,4.37,0,0,1,.23,1.45v.22Zm2.55-1.26a1.3,1.3,0,0,0-.45-.73,1.24,1.24,0,0,0-.81-.27,1.21,1.21,0,0,0-.82.26,1.19,1.19,0,0,0-.41.74Z" transform="translate(0 -0.43)"/><path class="a" d="M138.59,19.35h2.17v1a2.58,2.58,0,0,1,.86-.85,2.31,2.31,0,0,1,1.17-.29H143l.23,0v2.08a2,2,0,0,0-.93-.22,1.4,1.4,0,0,0-1.14.45,2,2,0,0,0-.38,1.32v2.64h-2.17Z" transform="translate(0 -0.43)"/><path class="a" d="M148.23,20.93a2.63,2.63,0,0,0-1.18-.31.85.85,0,0,0-.48.12.37.37,0,0,0-.19.33.4.4,0,0,0,0,.17.32.32,0,0,0,.13.13,1.16,1.16,0,0,0,.3.1,5.22,5.22,0,0,0,.52.12,2.52,2.52,0,0,1,1.35.65,1.64,1.64,0,0,1,.44,1.18,2.19,2.19,0,0,1-.21,1,2.24,2.24,0,0,1-.6.73,3.1,3.1,0,0,1-.93.45,4,4,0,0,1-1.19.16,4.85,4.85,0,0,1-2.46-.7l.8-1.54a3,3,0,0,0,1.72.62.87.87,0,0,0,.5-.13.41.41,0,0,0,.19-.33.56.56,0,0,0,0-.2.35.35,0,0,0-.13-.15,1.29,1.29,0,0,0-.28-.12l-.49-.11a2.82,2.82,0,0,1-1.41-.61,1.51,1.51,0,0,1-.4-1.11,2.34,2.34,0,0,1,.19-.93,2,2,0,0,1,.56-.7,2.55,2.55,0,0,1,.87-.44,3.63,3.63,0,0,1,1.13-.16,5,5,0,0,1,2,.4Z" transform="translate(0 -0.43)"/></svg>