<svg xmlns="http://www.w3.org/2000/svg" viewBox="0 0 26.94 45.06"><defs><style>.a{fill:#fff;}.b{fill:#231f20;}.c,.d{fill:none;stroke:#231f20;stroke-miterlimit:10;stroke-width:2px;}.d{stroke-linecap:round;}</style></defs><path class="a" d="M25.94,13.47V31.59A12.47,12.47,0,0,1,1,31.59V16.36H13.47V1A12.46,12.46,0,0,1,25.94,13.47Z"/><path class="b" d="M13.47,1V16.36H1V13.47A12.47,12.47,0,0,1,13.47,1Z"/><path class="c" d="M13.47,1A12.46,12.46,0,0,1,25.94,13.47V31.59A12.47,12.47,0,0,1,1,31.59V13.47A12.47,12.47,0,0,1,13.47,1Z"/><line class="d" x1="13.47" y1="1" x2="13.47" y2="16.36"/><line class="c" x1="13.47" y1="16.36" x2="1" y2="16.36"/></svg>