<?xml version="1.0" encoding="utf-8"?>
<!-- Generator: Adobe Illustrator 26.4.1, SVG Export Plug-In . SVG Version: 6.00 Build 0)  -->
<svg version="1.1" id="Layer_1" xmlns="http://www.w3.org/2000/svg" xmlns:xlink="http://www.w3.org/1999/xlink" x="0px" y="0px"
	 viewBox="0 0 298.1 149.58" style="enable-background:new 0 0 298.1 149.58;" xml:space="preserve">
<style type="text/css">
	.st0{fill:none;stroke:#009BDD;stroke-linecap:round;stroke-linejoin:round;}
	.st1{fill:#009BDD;}
	.st2{font-family:'Palatino-Roman';}
	.st3{font-size:8px;}
	.st4{stroke:#000000;stroke-width:0.5;stroke-linecap:round;stroke-linejoin:round;stroke-dasharray:3;}
	.st5{fill:none;stroke:#F47729;stroke-linecap:round;stroke-linejoin:round;}
	.st6{fill:none;stroke:#813795;stroke-linecap:round;stroke-linejoin:round;}
	.st7{fill:#F47729;}
	.st8{fill:none;stroke:#000000;stroke-width:0.5;stroke-linecap:round;stroke-linejoin:round;}
	.st9{fill:#813795;}
	.st10{fill:none;stroke:#000000;stroke-width:0.75;stroke-linecap:round;stroke-linejoin:round;}
	.st11{fill:none;stroke:#000000;stroke-miterlimit:10;}
	.st12{fill:none;stroke:#000000;stroke-linecap:round;stroke-linejoin:round;stroke-miterlimit:10;}
	
		.st13{opacity:0;fill:none;stroke:#000000;stroke-width:1.000000e-06;stroke-linecap:round;stroke-linejoin:round;stroke-miterlimit:10;}
	
		.st14{opacity:0;clip-path:url(#SVGID_00000128474490419541150220000012987113769606389666_);fill:none;stroke:#000000;stroke-width:1.000000e-06;stroke-linecap:round;stroke-linejoin:round;stroke-miterlimit:10;}
	
		.st15{clip-path:url(#SVGID_00000128474490419541150220000012987113769606389666_);fill:none;stroke:#000000;stroke-width:0.3184;stroke-linecap:round;stroke-linejoin:round;stroke-miterlimit:10;}
	.st16{clip-path:url(#SVGID_00000128474490419541150220000012987113769606389666_);}
	
		.st17{opacity:0;clip-path:url(#SVGID_00000152240843533587014420000008238830137638257809_);fill:none;stroke:#000000;stroke-width:1.000000e-06;stroke-linecap:round;stroke-linejoin:round;stroke-miterlimit:10;}
	
		.st18{clip-path:url(#SVGID_00000152240843533587014420000008238830137638257809_);fill:none;stroke:#000000;stroke-width:0.3184;stroke-linecap:round;stroke-linejoin:round;stroke-miterlimit:10;}
	.st19{clip-path:url(#SVGID_00000152240843533587014420000008238830137638257809_);}
	
		.st20{opacity:0;clip-path:url(#SVGID_00000150096780296022843300000017985518584319560382_);fill:#F47729;stroke:#000000;stroke-width:1.000000e-06;stroke-linecap:round;stroke-linejoin:round;stroke-miterlimit:10;}
	.st21{clip-path:url(#SVGID_00000150096780296022843300000017985518584319560382_);fill:#F47729;}
	
		.st22{clip-path:url(#SVGID_00000150096780296022843300000017985518584319560382_);fill:none;stroke:#F47729;stroke-width:0.3184;stroke-linecap:round;stroke-linejoin:round;stroke-miterlimit:10;}
	
		.st23{opacity:0;clip-path:url(#SVGID_00000146490977628238842760000007732040824214032804_);fill:none;stroke:#000000;stroke-width:1.000000e-06;stroke-linecap:round;stroke-linejoin:round;stroke-miterlimit:10;}
	.st24{clip-path:url(#SVGID_00000146490977628238842760000007732040824214032804_);fill:#813795;}
	
		.st25{clip-path:url(#SVGID_00000146490977628238842760000007732040824214032804_);stroke:#813795;stroke-width:0.3184;stroke-linecap:round;stroke-linejoin:round;stroke-miterlimit:10;}
	.st26{opacity:0;fill:none;stroke:#000000;stroke-width:1.000000e-06;stroke-miterlimit:10;}
	
		.st27{opacity:0;clip-path:url(#SVGID_00000067202792899017170600000002336750125881190543_);fill:none;stroke:#000000;stroke-width:1.000000e-06;stroke-miterlimit:10;}
	.st28{clip-path:url(#SVGID_00000067202792899017170600000002336750125881190543_);}
	
		.st29{opacity:0;clip-path:url(#SVGID_00000172414952888982805250000000459898103501620139_);fill:none;stroke:#000000;stroke-width:1.000000e-06;stroke-miterlimit:10;}
	.st30{clip-path:url(#SVGID_00000172414952888982805250000000459898103501620139_);}
	
		.st31{opacity:0;clip-path:url(#SVGID_00000102525389613325905070000006943611853298063779_);fill:none;stroke:#000000;stroke-width:1.000000e-06;stroke-miterlimit:10;}
	.st32{clip-path:url(#SVGID_00000102525389613325905070000006943611853298063779_);}
	
		.st33{opacity:0;clip-path:url(#SVGID_00000030454514735811811830000003474824507446877084_);fill:none;stroke:#000000;stroke-width:1.000000e-06;stroke-miterlimit:10;}
	.st34{clip-path:url(#SVGID_00000030454514735811811830000003474824507446877084_);}
	
		.st35{opacity:0;clip-path:url(#SVGID_00000004541654606098822670000012630734995349998502_);fill:none;stroke:#000000;stroke-width:1.000000e-06;stroke-miterlimit:10;}
	.st36{clip-path:url(#SVGID_00000004541654606098822670000012630734995349998502_);}
	
		.st37{opacity:0;clip-path:url(#SVGID_00000070813308208012449610000012633131313394963135_);fill:none;stroke:#000000;stroke-width:1.000000e-06;stroke-miterlimit:10;}
	.st38{clip-path:url(#SVGID_00000070813308208012449610000012633131313394963135_);}
</style>
<polyline class="st0" points="281.49,35.29 265.79,35.29 265.79,63.25 250.09,63.25 234.38,63.25 218.68,63.25 202.98,63.25 
	187.27,63.25 187.27,35.29 171.57,35.29 155.87,35.29 140.16,35.29 140.16,63.25 124.46,63.25 108.76,63.25 93.05,63.25 
	77.35,63.25 61.65,63.25 61.65,35.29 45.94,35.29 30.24,35.29 "/>
<text transform="matrix(1 0 0 1 279.4993 48.9995)" class="st1 st2 st3">...</text>
<line class="st4" x1="51.45" y1="63.25" x2="30.24" y2="63.25"/>
<g>
	<path class="st5" d="M62.74,30.33c0,0-0.56-5.37,5.41-5.37h27.91c5.97,0,5.41-5.37,5.41-5.37"/>
	<path class="st5" d="M70.8,26.75"/>
	<path class="st5" d="M140.23,30.33c0,0,0.56-5.37-5.41-5.37H106.9c-5.97,0-5.41-5.37-5.41-5.37"/>
	<path class="st5" d="M133.01,26.75"/>
</g>
<g>
	<path class="st6" d="M78.24,70.64c0,0-0.55,5.37,5.31,5.37h18.59c5.86,0,5.31,5.37,5.31,5.37"/>
	<path class="st6" d="M85.32,74.22"/>
	<path class="st6" d="M140.23,70.64c0,0,0.55,5.37-5.31,5.37h-22.14c-5.86,0-5.31,5.37-5.31,5.37"/>
	<path class="st6" d="M133.14,74.22"/>
</g>
<g>
	<path class="st5" d="M141.05,30.33c0,0-0.55-5.37,5.36-5.37h12.08c5.91,0,5.36-5.37,5.36-5.37"/>
	<path class="st5" d="M148.2,26.75"/>
	<path class="st5" d="M186.85,30.33c0,0,0.55-5.37-5.36-5.37h-12.26c-5.91,0-5.36-5.37-5.36-5.37"/>
	<path class="st5" d="M179.7,26.75"/>
</g>
<text transform="matrix(1 0 0 1 93.2224 6.7793)"><tspan x="0" y="0" class="st7 st2 st3">low </tspan><tspan x="-0.54" y="9.6" class="st7 st2 st3">state</tspan></text>
<text transform="matrix(1 0 0 1 154.6751 6.7793)"><tspan x="0" y="0" class="st7 st2 st3">high </tspan><tspan x="0.82" y="9.6" class="st7 st2 st3">state</tspan></text>
<g>
	<path class="st5" d="M187.83,30.33c0,0-0.56-5.37,5.46-5.37h28.13c6.02,0,5.46-5.37,5.46-5.37"/>
	<path class="st5" d="M195.95,26.75"/>
	<path class="st5" d="M265.9,30.33c0,0,0.56-5.37-5.46-5.37h-28.13c-6.01,0-5.45-5.37-5.45-5.37"/>
	<path class="st5" d="M258.62,26.75"/>
</g>
<text transform="matrix(1 0 0 1 218.5808 6.7793)"><tspan x="0" y="0" class="st7 st2 st3">low </tspan><tspan x="-0.54" y="9.6" class="st7 st2 st3">state</tspan></text>
<line class="st8" x1="30.24" y1="110.7" x2="30.24" y2="112.28"/>
<line class="st8" x1="30.24" y1="112.28" x2="30.24" y2="113.85"/>
<g>
	<line class="st8" x1="124.46" y1="112.28" x2="140.16" y2="112.28"/>
	<g>
		<line class="st8" x1="140.16" y1="110.7" x2="140.16" y2="112.28"/>
		<line class="st8" x1="140.16" y1="112.28" x2="140.16" y2="113.85"/>
	</g>
</g>
<g>
	<line class="st8" x1="119.92" y1="112.28" x2="124.46" y2="112.28"/>
	<path class="st8" d="M119.92,112.28"/>
	<path class="st8" d="M114.18,112.28"/>
	<line class="st8" x1="108.76" y1="112.28" x2="114.18" y2="112.28"/>
	<g>
		<line class="st8" x1="124.46" y1="110.7" x2="124.46" y2="112.28"/>
		<line class="st8" x1="124.46" y1="112.28" x2="124.46" y2="113.85"/>
	</g>
</g>
<g>
	<line class="st8" x1="93.05" y1="112.28" x2="108.76" y2="112.28"/>
	<g>
		<line class="st8" x1="108.76" y1="110.7" x2="108.76" y2="112.28"/>
		<line class="st8" x1="108.76" y1="112.28" x2="108.76" y2="113.85"/>
	</g>
</g>
<g>
	<line class="st8" x1="77.35" y1="112.28" x2="93.05" y2="112.28"/>
	<g>
		<line class="st8" x1="93.05" y1="110.7" x2="93.05" y2="112.28"/>
		<line class="st8" x1="93.05" y1="112.28" x2="93.05" y2="113.85"/>
	</g>
</g>
<g>
	<line class="st8" x1="61.65" y1="112.28" x2="77.35" y2="112.28"/>
	<g>
		<line class="st8" x1="77.35" y1="110.7" x2="77.35" y2="112.28"/>
		<line class="st8" x1="77.35" y1="112.28" x2="77.35" y2="113.85"/>
	</g>
</g>
<g>
	<line class="st8" x1="45.94" y1="112.28" x2="61.65" y2="112.28"/>
	<g>
		<line class="st8" x1="61.65" y1="110.7" x2="61.65" y2="112.28"/>
		<line class="st8" x1="61.65" y1="112.28" x2="61.65" y2="113.85"/>
	</g>
</g>
<g>
	<line class="st8" x1="265.79" y1="112.28" x2="281.49" y2="112.28"/>
	<g>
		<line class="st8" x1="281.49" y1="110.7" x2="281.49" y2="112.28"/>
		<line class="st8" x1="281.49" y1="112.28" x2="281.49" y2="113.85"/>
	</g>
</g>
<g>
	<line class="st8" x1="30.24" y1="112.28" x2="45.94" y2="112.28"/>
	<line class="st8" x1="45.94" y1="110.7" x2="45.94" y2="112.28"/>
	<line class="st8" x1="45.94" y1="112.28" x2="45.94" y2="113.85"/>
</g>
<g>
	<line class="st8" x1="140.16" y1="112.28" x2="155.87" y2="112.28"/>
	<line class="st8" x1="155.87" y1="110.7" x2="155.87" y2="112.28"/>
	<line class="st8" x1="155.87" y1="112.28" x2="155.87" y2="113.85"/>
	<g>
		<line class="st8" x1="250.09" y1="112.28" x2="265.79" y2="112.28"/>
		<g>
			<line class="st8" x1="265.79" y1="110.7" x2="265.79" y2="112.28"/>
			<line class="st8" x1="265.79" y1="112.28" x2="265.79" y2="113.85"/>
		</g>
	</g>
	<g>
		<g>
			<line class="st8" x1="250.09" y1="110.7" x2="250.09" y2="112.28"/>
			<line class="st8" x1="250.09" y1="112.28" x2="250.09" y2="113.85"/>
		</g>
		<line class="st8" x1="244.31" y1="112.28" x2="250.09" y2="112.28"/>
		<path class="st8" d="M239.35,112.28"/>
		<line class="st8" x1="234.38" y1="112.28" x2="239.35" y2="112.28"/>
	</g>
	<g>
		<line class="st8" x1="218.68" y1="112.28" x2="234.38" y2="112.28"/>
		<g>
			<line class="st8" x1="234.38" y1="110.7" x2="234.38" y2="112.28"/>
			<line class="st8" x1="234.38" y1="112.28" x2="234.38" y2="113.85"/>
		</g>
	</g>
	<g>
		<line class="st8" x1="202.98" y1="112.28" x2="218.68" y2="112.28"/>
		<g>
			<line class="st8" x1="218.68" y1="110.7" x2="218.68" y2="112.28"/>
			<line class="st8" x1="218.68" y1="112.28" x2="218.68" y2="113.85"/>
		</g>
	</g>
	<g>
		<line class="st8" x1="187.27" y1="112.28" x2="202.98" y2="112.28"/>
		<g>
			<line class="st8" x1="202.98" y1="110.7" x2="202.98" y2="112.28"/>
			<line class="st8" x1="202.98" y1="112.28" x2="202.98" y2="113.85"/>
		</g>
	</g>
	<g>
		<line class="st8" x1="171.57" y1="112.28" x2="187.27" y2="112.28"/>
		<g>
			<line class="st8" x1="187.27" y1="110.7" x2="187.27" y2="112.28"/>
			<line class="st8" x1="187.27" y1="112.28" x2="187.27" y2="113.85"/>
		</g>
	</g>
	<g>
		<line class="st8" x1="166.61" y1="112.28" x2="171.57" y2="112.28"/>
		<path class="st8" d="M166.61,112.28"/>
		<path class="st8" d="M161.38,112.28"/>
		<line class="st8" x1="155.87" y1="112.28" x2="161.38" y2="112.28"/>
		<line class="st8" x1="171.57" y1="110.7" x2="171.57" y2="112.28"/>
		<line class="st8" x1="171.57" y1="112.28" x2="171.57" y2="113.85"/>
	</g>
</g>
<text transform="matrix(1 0 0 1 74.8714 125.648)" class="st2 st3">1</text>
<text transform="matrix(1 0 0 1 90.575 125.648)" class="st2 st3">2</text>
<text transform="matrix(1 0 0 1 113.7166 125.648)" class="st2 st3">...</text>
<text transform="matrix(1 0 0 1 201.0501 125.648)" class="st2 st3">1</text>
<text transform="matrix(1 0 0 1 216.7537 125.648)" class="st2 st3">2</text>
<text transform="matrix(1 0 0 1 239.8958 125.648)" class="st2 st3">...</text>
<text transform="matrix(1 0 0 1 291.6214 112.5621)" class="st2 st3">...</text>
<text transform="matrix(1 0 0 1 168.679 125.648)" class="st2 st3">...</text>
<text transform="matrix(1 0 0 1 43.8777 126.4747)" class="st2 st3">...</text>
<text transform="matrix(1 0 0 1 60.4075 133.2193)" class="st2 st3">0</text>
<text transform="matrix(1 0 0 1 185.6219 133.2193)" class="st2 st3">0</text>
<path class="st8" d="M166.67,108.6c-0.68,1.93-0.97,2.77-0.06,3.67c0.9,0.9-0.13,2.84-0.45,3.16"/>
<path class="st8" d="M161.44,108.6c-0.68,1.93-0.97,2.77-0.06,3.67c0.9,0.9-0.13,2.84-0.45,3.16"/>
<path class="st8" d="M239.41,108.6c-0.68,1.93-0.97,2.77-0.06,3.67c0.9,0.9-0.13,2.84-0.45,3.16"/>
<path class="st8" d="M114.24,108.6c-0.68,1.93-0.97,2.77-0.06,3.67c0.9,0.9-0.13,2.84-0.45,3.16"/>
<path class="st8" d="M119.98,108.6c-0.68,1.93-0.97,2.77-0.06,3.67c0.9,0.9-0.13,2.84-0.45,3.16"/>
<path class="st8" d="M244.37,108.6c-0.68,1.93-0.97,2.77-0.06,3.67c0.9,0.9-0.13,2.84-0.45,3.16"/>
<g>
	<path class="st6" d="M62.68,70.64c0,0-0.39,5.03,3.79,5.03h-0.45c4.18,0,3.79,5.72,3.79,5.72"/>
	<path class="st6" d="M68.33,73.76"/>
	<path class="st6" d="M77.41,70.64c0,0,0.39,5.03-3.79,5.03l0,0c-4.18,0-3.79,5.72-3.79,5.72"/>
	<path class="st6" d="M72.35,73.76"/>
</g>
<g>
	<path class="st6" d="M148.14,74.22"/>
	<path class="st6" d="M186.85,70.59c0,0,0.55,5.42-5.36,5.42h-12.26c-5.91,0-5.36,5.42-5.36,5.42s0.55-5.42-5.36-5.42h-12.08
		c-5.91,0-5.36-5.42-5.36-5.42"/>
	<path class="st6" d="M179.36,74.22"/>
</g>
<text transform="matrix(1 0 0 1 59.201 89.2918)"><tspan x="0" y="0" class="st9 st2 st3">speed</tspan><tspan x="2.15" y="9.6" class="st9 st2 st3">state</tspan></text>
<text transform="matrix(1 0 0 1 184.8281 89.2918)"><tspan x="0" y="0" class="st9 st2 st3">speed</tspan><tspan x="2.15" y="9.6" class="st9 st2 st3">state</tspan></text>
<text transform="matrix(1 0 0 1 99.4265 89.2918)"><tspan x="0" y="0" class="st9 st2 st3">low </tspan><tspan x="-0.54" y="9.6" class="st9 st2 st3">state</tspan></text>
<text transform="matrix(1 0 0 1 153.8484 89.2918)"><tspan x="0" y="0" class="st9 st2 st3">high </tspan><tspan x="0.82" y="9.6" class="st9 st2 st3">state</tspan></text>
<g>
	<path class="st6" d="M203.86,70.64c0,0-0.55,5.16,5.32,5.16h18.61c5.86,0,5.32,5.16,5.32,5.16"/>
	<path class="st6" d="M210.95,74.08"/>
	<path class="st6" d="M265.9,70.64c0,0,0.55,5.16-5.32,5.16h-22.16c-5.86,0-5.32,5.16-5.32,5.16"/>
	<path class="st6" d="M258.81,74.08"/>
</g>
<g>
	<path class="st6" d="M187.82,70.64c0,0-0.4,4.83,3.92,4.83h-0.46c4.32,0,3.92,5.49,3.92,5.49"/>
	<path class="st6" d="M193.65,73.64"/>
	<path class="st6" d="M203.02,70.64c0,0,0.4,4.83-3.92,4.83l0,0c-4.32,0-3.92,5.49-3.92,5.49"/>
	<path class="st6" d="M197.8,73.64"/>
</g>
<text transform="matrix(1.0541 0 0 1 225.7278 89.7083)"><tspan x="0" y="0" class="st9 st2 st3">low </tspan><tspan x="-0.54" y="9.92" class="st9 st2 st3">state</tspan></text>
<line class="st10" x1="61.65" y1="137.08" x2="61.65" y2="149.2"/>
<line class="st10" x1="187.27" y1="137.08" x2="187.27" y2="149.2"/>
<text transform="matrix(1.0541 0 0 1 115.8428 145.3449)" class="st2 st3">1 BTI</text>
<g>
	<g>
		<line class="st10" x1="142.37" y1="142.31" x2="186.67" y2="142.31"/>
		<g>
			<line class="st11" x1="183.93" y1="139.52" x2="183.93" y2="139.52"/>
			<path class="st12" d="M184.4,145.1c1.03-2.79,2.5-2.79,2.5-2.79s-1.47,0-2.5-2.79"/>
		</g>
	</g>
</g>
<path class="st8" d="M109.31,142.59"/>
<g>
	<g>
		<line class="st10" x1="62.25" y1="142.4" x2="109.31" y2="142.4"/>
		<g>
			<line class="st11" x1="64.99" y1="139.61" x2="64.99" y2="139.61"/>
			<path class="st12" d="M64.52,145.2c-1.03-2.79-2.5-2.79-2.5-2.79s1.47,0,2.5-2.79"/>
		</g>
	</g>
</g>
<line class="st10" x1="187.27" y1="137.08" x2="187.27" y2="149.2"/>
<line class="st10" x1="203.03" y1="137.08" x2="203.03" y2="149.2"/>
<g>
	<g>
		<line class="st10" x1="193.25" y1="142.4" x2="202.43" y2="142.4"/>
		<g>
			<line class="st11" x1="199.69" y1="139.61" x2="199.69" y2="139.61"/>
			<path class="st12" d="M200.16,145.2c1.03-2.79,2.5-2.79,2.5-2.79s-1.47,0-2.5-2.79"/>
		</g>
	</g>
</g>
<path class="st8" d="M193.25,142.59"/>
<g>
	<g>
		<line class="st10" x1="187.88" y1="142.4" x2="193.25" y2="142.4"/>
		<g>
			<line class="st11" x1="190.62" y1="139.61" x2="190.62" y2="139.61"/>
			<path class="st12" d="M190.15,145.2c-1.03-2.79-2.5-2.79-2.5-2.79s1.47,0,2.5-2.79"/>
		</g>
	</g>
</g>
<line class="st10" x1="203.03" y1="137.08" x2="203.03" y2="149.2"/>
<polygon class="st13" points="21,34.45 21,34.45 21,34.45 21,34.45 21,34.45 21,34.45 21,34.45 21,34.45 21,34.45 21,34.45 
	21,34.45 21,34.45 21,34.45 21,34.45 21,34.45 21,34.45 21,34.45 21,34.45 21,34.45 21,34.45 21,34.45 21,34.45 21,34.45 21,34.45 
	21,34.45 21,34.45 21,34.45 21,34.45 21,34.45 21,34.45 21,34.45 21,34.45 21,34.45 21,34.45 21,34.45 21,34.45 21,34.45 21,34.45 
	21,34.45 21,34.45 21,34.45 21,34.45 21,34.45 21,34.45 21,34.45 21,34.45 21,34.45 21,34.45 21,34.45 21,34.45 21,34.45 21,34.45 
	21,34.45 21,34.45 21,34.45 21,34.45 21,34.45 21,34.45 21,34.45 21,34.45 21,34.45 21,34.45 21,34.45 21,34.45 21,34.45 21,34.45 
	21,34.45 21,34.45 21,34.45 21,34.45 21,34.45 21,34.45 21,34.45 21,34.45 21,34.45 21,34.45 21,34.45 21,34.45 21,34.45 21,34.45 
	21,34.45 21,34.45 21,34.45 21,34.45 21,34.45 21,34.45 21,34.45 21,34.45 21,34.45 21,34.45 21,34.45 21,34.45 21,34.45 21,34.45 
	21,34.45 21,34.45 21,34.45 21,34.45 21,34.45 21,34.45 21,34.45 21,34.45 21,34.45 21,34.45 21,34.45 21,34.45 21,34.45 21,34.45 
	21,34.45 21,34.45 21,34.45 21,34.45 21,34.45 21,34.45 21,34.45 21,34.45 21,34.45 21,34.45 21,34.45 21,34.45 21,34.45 21,34.45 
	21,34.45 21,34.45 21,34.45 21,34.45 21,34.45 21,34.45 21,34.45 21,34.45 "/>
<g>
	<defs>
		<rect id="SVGID_1_" x="0" y="32.29" width="27" height="6"/>
	</defs>
	<clipPath id="SVGID_00000134957523451195541640000007946347032211761327_">
		<use xlink:href="#SVGID_1_"  style="overflow:visible;"/>
	</clipPath>
	
		<path style="opacity:0;clip-path:url(#SVGID_00000134957523451195541640000007946347032211761327_);fill:none;stroke:#000000;stroke-width:1.000000e-06;stroke-linecap:round;stroke-linejoin:round;stroke-miterlimit:10;" d="
		M13.6,34.69L13.6,34.69z"/>
	
		<line style="clip-path:url(#SVGID_00000134957523451195541640000007946347032211761327_);fill:none;stroke:#000000;stroke-width:0.3184;stroke-linecap:round;stroke-linejoin:round;stroke-miterlimit:10;" x1="0.58" y1="33.17" x2="13.18" y2="33.17"/>
	<path style="clip-path:url(#SVGID_00000134957523451195541640000007946347032211761327_);" d="M0.8,37.99v-0.24
		c0.29-0.03,0.45-0.01,0.47-0.01c0.02-0.02,0.08-0.02,0.1-0.04c0-0.02,0.04-0.04,0.05-0.07c0.02-0.07,0.04-0.15,0.05-0.28
		c-0.03-0.7,0-1.04,0-1.07v-0.45c-0.03-0.22,0-0.42,0-0.66C1.44,35,1.46,34.94,1.44,34.91c-0.03-0.03-0.05-0.05-0.09-0.06
		c-0.06-0.03-0.21-0.02-0.51-0.02v-0.22c0.5-0.08,0.89-0.16,1.11-0.28c0.03-0.07,0.08-0.08,0.1-0.08c0-0.02,0.03,0.01,0.04,0.02
		c-0.02-0.01,0.02,0.03,0.02,0.06c0,0,0,0.04,0,0.06c0,0.16,0,0.4,0,0.74c0.11-0.15,0.22-0.27,0.32-0.4
		c0.09-0.15,0.17-0.22,0.21-0.26c0.06-0.09,0.17-0.12,0.27-0.16c0.1-0.05,0.21-0.06,0.32-0.06c0.1-0.02,0.22,0.02,0.32,0.07
		l0.02,0.06c-0.06,0.33-0.06,0.68-0.07,0.94H3.34c-0.07-0.14-0.13-0.21-0.21-0.27c-0.09-0.08-0.18-0.09-0.3-0.09
		c-0.21-0.03-0.37,0.08-0.51,0.24c-0.15,0.15-0.21,0.4-0.21,0.72v0.39c0,0.16,0,0.47,0,0.92c0,0.14,0.01,0.26,0.02,0.3
		c0,0.02,0.02,0.07,0.04,0.09c-0.01,0,0.04,0.03,0.08,0.05c0.06-0.01,0.29,0.05,0.63,0.07v0.24c-0.48,0-0.84,0-1.14,0
		C1.41,37.99,1.11,37.99,0.8,37.99"/>
	<path style="clip-path:url(#SVGID_00000134957523451195541640000007946347032211761327_);" d="M8.22,37.77v0.22
		c-0.35-0.05-0.59-0.03-0.75-0.03c-0.19-0.02-0.33,0.01-0.5,0.03c-0.02-0.24,0-0.45,0-0.71c-0.18,0.09-0.34,0.29-0.55,0.51
		c-0.05,0.02-0.1,0.09-0.14,0.11C6.13,37.96,6.04,38,5.93,38.03c-0.12,0.01-0.24,0.04-0.4,0.04c-0.22-0.03-0.38-0.03-0.53-0.09
		c-0.14-0.09-0.26-0.14-0.36-0.26c-0.09-0.1-0.13-0.2-0.17-0.33c-0.06-0.17-0.06-0.3-0.06-0.49c-0.01-0.09,0-0.18,0-0.26
		c-0.01-0.1,0-0.16,0-0.24v-0.67c-0.01-0.08,0-0.24,0-0.51c-0.02-0.18-0.04-0.29-0.08-0.34c-0.02-0.06-0.03-0.05-0.05-0.06
		c-0.07-0.03-0.11-0.04-0.21-0.04c-0.17-0.03-0.25,0-0.34,0v-0.22c0.54-0.08,0.96-0.16,1.21-0.3c0.02-0.02,0.07,0,0.1,0
		c0.01-0.02,0.04,0.01,0.06,0.02c0.01-0.01,0.02,0.03,0.02,0.06c-0.01,0.01,0,0.05,0,0.08c-0.04,0.08-0.06,0.24-0.08,0.48
		c-0.02,0.4,0,0.72,0,0.87v0.76c-0.02,0.31,0.02,0.54,0.07,0.66c0.04,0.1,0.13,0.23,0.26,0.31c0.1,0.05,0.29,0.11,0.48,0.11
		c0.11,0,0.26-0.02,0.38-0.06c0.12-0.06,0.24-0.1,0.35-0.19c0.05-0.08,0.15-0.14,0.23-0.24c0.06-0.08,0.1-0.13,0.12-0.17
		c0.01-0.05,0.03-0.1,0.04-0.18c-0.02-0.25,0-0.46,0-0.68v-0.33c-0.02-0.08,0-0.24,0-0.51c-0.02-0.18,0-0.29,0-0.34
		c-0.03-0.06-0.03-0.05-0.05-0.06c-0.04-0.04-0.11-0.04-0.2-0.04c-0.14-0.03-0.26,0-0.34,0v-0.22c0.52-0.08,0.92-0.16,1.14-0.3
		c0.03-0.02,0.06,0,0.09,0c-0.01-0.02,0.04,0.01,0.06,0.02c0-0.01,0.02,0.03,0.02,0.06c-0.03,0.01,0,0.05,0,0.08
		c-0.05,0.08-0.05,0.25-0.08,0.49c-0.03,0.42,0,0.71,0,0.85v0.53v0.54c-0.03,0.3,0,0.5,0,0.55c-0.03,0.1,0.02,0.22,0.04,0.28
		c0,0,0.03,0.04,0.05,0.06c-0.01,0.01,0.05,0.03,0.09,0.04C7.77,37.74,7.95,37.76,8.22,37.77"/>
	<path style="clip-path:url(#SVGID_00000134957523451195541640000007946347032211761327_);" d="M8.6,37.99v-0.24l0.37,0
		c0.03-0.02,0.1-0.01,0.13-0.03c0-0.03,0.05-0.04,0.07-0.06c0.01-0.07,0.05-0.14,0.05-0.27c-0.01-0.06,0-0.4,0-1.1v-0.46
		c-0.01-0.22,0-0.43,0-0.66c-0.01-0.17-0.02-0.24-0.04-0.27c-0.04-0.06-0.04-0.05-0.09-0.06c-0.07-0.03-0.21-0.02-0.5-0.02V34.6
		c0.5-0.07,0.91-0.16,1.16-0.27c0.04-0.07,0.09-0.08,0.11-0.08c-0.02-0.02,0,0.01,0,0.02c-0.02-0.01,0,0.03,0,0.06
		c-0.02,0,0,0.04,0,0.06c-0.02,0.09,0,0.29,0,0.59l0.72-0.62c0.19-0.1,0.42-0.12,0.61-0.12c0.18-0.02,0.41,0.04,0.6,0.13
		c0.16,0.06,0.33,0.19,0.43,0.32c0.09,0.13,0.16,0.29,0.19,0.49c-0.03,0.08,0,0.44,0,0.97v0.69c-0.03,0.32,0,0.57,0,0.69
		c-0.02,0.06,0.03,0.13,0.06,0.16c0.01,0.03,0.07,0.05,0.13,0.05H13v0.24c-0.25,0-0.45,0-0.6,0c-0.18,0-0.38,0-0.72,0
		c0.03-0.64,0.08-1.05,0.08-1.22v-0.66c-0.02-0.42-0.03-0.68-0.08-0.81c-0.07-0.18-0.14-0.31-0.3-0.42
		c-0.18-0.14-0.34-0.16-0.56-0.16c-0.2-0.01-0.37,0.05-0.53,0.14c-0.19,0.07-0.27,0.2-0.34,0.32c-0.09,0.09-0.1,0.32-0.1,0.61v0.47
		c-0.02,0.65,0,1.04,0,1.09c-0.01,0.11,0.02,0.22,0.05,0.28c-0.02,0.01,0.03,0.04,0.05,0.06c0.01,0.01,0.05,0.03,0.1,0.04
		c0-0.01,0.16,0.01,0.43,0.01v0.24c-0.34,0-0.6,0-0.84,0C9.42,37.99,9.09,37.99,8.6,37.99"/>
	<path style="clip-path:url(#SVGID_00000134957523451195541640000007946347032211761327_);" d="M21.09,36.94l0.05-0.32h-5.25
		l-0.05,0.32H21.09 M21.09,35.38l0.05-0.32h-5.25l-0.05,0.32H21.09z"/>
	<path style="clip-path:url(#SVGID_00000134957523451195541640000007946347032211761327_);" d="M24.23,33.55l-0.07-0.02l-0.04-0.32
		l0.04-0.04c0.26-0.11,0.58-0.19,0.91-0.33c0.44-0.22,0.76-0.34,0.89-0.41l0.1,0.04c-0.06,1.17-0.06,1.88-0.06,2.05v1.45
		c-0.03,0.55,0,1.01,0,1.31c-0.02,0.15,0.03,0.28,0.06,0.33c0.02,0.04,0.09,0.08,0.15,0.1c0.07,0.02,0.29,0.04,0.67,0.05v0.24
		c-0.68,0-1.05,0-1.2,0c-0.14,0-0.54,0-1.29,0v-0.24c0.36-0.04,0.62-0.04,0.68-0.06c0.04-0.02,0.11-0.04,0.13-0.06
		c0.03-0.04,0.05-0.07,0.07-0.12c0-0.09,0.04-0.31,0.05-0.7c0.01-0.39,0.02-0.68,0.02-0.87V34.4c-0.02-0.63,0-1.02,0-1.18
		c-0.02-0.08-0.01-0.11-0.03-0.13c-0.02-0.01-0.02-0.02-0.04-0.02c-0.05-0.03-0.08,0.02-0.18,0.06
		C24.66,33.32,24.37,33.47,24.23,33.55"/>
</g>
<g>
	<defs>
		<rect id="SVGID_00000039111770033827369110000011579782013321966771_" x="0" y="60.05" width="28" height="6"/>
	</defs>
	<clipPath id="SVGID_00000070840676430558927140000014900146847887075506_">
		<use xlink:href="#SVGID_00000039111770033827369110000011579782013321966771_"  style="overflow:visible;"/>
	</clipPath>
	
		<path style="opacity:0;clip-path:url(#SVGID_00000070840676430558927140000014900146847887075506_);fill:none;stroke:#000000;stroke-width:1.000000e-06;stroke-linecap:round;stroke-linejoin:round;stroke-miterlimit:10;" d="
		M14,62.45L14,62.45z"/>
	
		<line style="clip-path:url(#SVGID_00000070840676430558927140000014900146847887075506_);fill:none;stroke:#000000;stroke-width:0.3184;stroke-linecap:round;stroke-linejoin:round;stroke-miterlimit:10;" x1="0.58" y1="60.93" x2="13.18" y2="60.93"/>
	<path style="clip-path:url(#SVGID_00000070840676430558927140000014900146847887075506_);" d="M0.8,65.75v-0.24
		c0.29-0.03,0.45-0.01,0.47-0.01c0.02-0.02,0.08-0.02,0.1-0.04c0-0.02,0.04-0.04,0.05-0.07c0.02-0.07,0.04-0.15,0.05-0.28
		c-0.03-0.7,0-1.04,0-1.07v-0.45c-0.03-0.22,0-0.42,0-0.66c-0.03-0.18-0.02-0.24-0.03-0.27c-0.03-0.03-0.05-0.05-0.09-0.06
		c-0.06-0.03-0.21-0.02-0.51-0.02v-0.22c0.5-0.08,0.89-0.16,1.11-0.28c0.03-0.07,0.08-0.08,0.1-0.08c0-0.02,0.03,0.01,0.04,0.02
		c-0.02-0.01,0.02,0.03,0.02,0.06c0,0,0,0.04,0,0.06c0,0.16,0,0.4,0,0.74c0.11-0.15,0.22-0.27,0.32-0.4
		c0.09-0.15,0.17-0.22,0.21-0.26c0.06-0.09,0.17-0.12,0.27-0.16c0.1-0.05,0.21-0.06,0.32-0.06c0.1-0.02,0.22,0.03,0.32,0.08
		l0.02,0.06c-0.06,0.33-0.06,0.68-0.07,0.94H3.34c-0.07-0.14-0.13-0.21-0.21-0.27c-0.09-0.08-0.18-0.09-0.3-0.09
		c-0.21-0.03-0.37,0.08-0.51,0.24c-0.15,0.15-0.21,0.4-0.21,0.72v0.39c0,0.16,0,0.47,0,0.92c0,0.14,0.01,0.26,0.02,0.3
		c0,0.03,0.02,0.07,0.04,0.09c-0.01,0,0.04,0.03,0.08,0.05c0.06-0.01,0.29,0.05,0.63,0.07v0.24c-0.48,0-0.84,0-1.14,0
		C1.41,65.75,1.11,65.75,0.8,65.75"/>
	<path style="clip-path:url(#SVGID_00000070840676430558927140000014900146847887075506_);" d="M8.22,65.52v0.22
		c-0.35-0.05-0.59-0.03-0.75-0.03c-0.19-0.02-0.33,0.01-0.5,0.03c-0.02-0.24,0-0.45,0-0.71c-0.18,0.09-0.34,0.29-0.55,0.51
		c-0.05,0.02-0.1,0.09-0.14,0.11c-0.13,0.06-0.22,0.11-0.33,0.13c-0.12,0.01-0.24,0.04-0.4,0.04c-0.22-0.03-0.38-0.03-0.53-0.09
		c-0.14-0.09-0.26-0.14-0.36-0.26c-0.09-0.1-0.13-0.2-0.17-0.33c-0.06-0.17-0.06-0.3-0.06-0.49c-0.01-0.09,0-0.18,0-0.26
		c-0.01-0.1,0-0.16,0-0.24v-0.67c-0.01-0.08,0-0.24,0-0.51c-0.02-0.18-0.04-0.29-0.08-0.34c-0.02-0.06-0.03-0.05-0.05-0.06
		c-0.07-0.03-0.11-0.04-0.21-0.04c-0.17-0.03-0.25,0-0.34,0v-0.22c0.54-0.08,0.96-0.16,1.21-0.3c0.02-0.02,0.07,0,0.1,0
		c0.01-0.02,0.04,0.01,0.06,0.02c0.01-0.01,0.02,0.03,0.02,0.06c-0.01,0.01,0,0.05,0,0.08c-0.04,0.08-0.06,0.24-0.08,0.48
		c-0.02,0.4,0,0.72,0,0.87v0.76c-0.02,0.31,0.02,0.54,0.07,0.66c0.04,0.1,0.13,0.23,0.26,0.31c0.1,0.05,0.29,0.11,0.48,0.11
		c0.11,0,0.26-0.02,0.38-0.06c0.12-0.06,0.24-0.1,0.35-0.19c0.05-0.08,0.15-0.14,0.23-0.24c0.06-0.08,0.1-0.13,0.12-0.17
		c0.01-0.05,0.03-0.1,0.04-0.18c-0.02-0.25,0-0.46,0-0.68v-0.33c-0.02-0.08,0-0.24,0-0.51c-0.02-0.18,0-0.29,0-0.34
		c-0.03-0.06-0.03-0.05-0.05-0.06c-0.04-0.04-0.11-0.04-0.2-0.04c-0.14-0.03-0.26,0-0.34,0v-0.22c0.52-0.08,0.92-0.16,1.14-0.3
		c0.03-0.02,0.06,0,0.09,0c-0.01-0.02,0.04,0.01,0.06,0.02c0-0.01,0.02,0.03,0.02,0.06c-0.03,0.01,0,0.05,0,0.08
		c-0.05,0.08-0.05,0.25-0.08,0.49c-0.03,0.42,0,0.71,0,0.85v0.53v0.54c-0.03,0.3,0,0.5,0,0.55c-0.03,0.1,0.02,0.22,0.04,0.28
		c0,0,0.03,0.04,0.05,0.06c-0.01,0.01,0.05,0.03,0.09,0.04C7.77,65.49,7.95,65.52,8.22,65.52"/>
	<path style="clip-path:url(#SVGID_00000070840676430558927140000014900146847887075506_);" d="M8.6,65.75v-0.24l0.37,0
		c0.03-0.02,0.1-0.01,0.13-0.03c0-0.03,0.05-0.04,0.07-0.06c0.01-0.07,0.05-0.14,0.05-0.27c-0.01-0.06,0-0.4,0-1.1v-0.46
		c-0.01-0.22,0-0.43,0-0.66c-0.01-0.17-0.02-0.24-0.04-0.27c-0.04-0.06-0.04-0.05-0.09-0.06c-0.07-0.03-0.21-0.02-0.5-0.02v-0.21
		c0.5-0.07,0.91-0.16,1.16-0.27c0.04-0.07,0.09-0.08,0.11-0.08c-0.02-0.02,0,0.01,0,0.02c-0.02-0.01,0,0.03,0,0.06
		c-0.02,0,0,0.04,0,0.06c-0.02,0.09,0,0.29,0,0.59l0.72-0.62c0.19-0.1,0.42-0.12,0.61-0.12c0.18-0.02,0.41,0.04,0.6,0.13
		c0.16,0.06,0.33,0.19,0.43,0.32c0.09,0.13,0.16,0.29,0.19,0.49c-0.03,0.08,0,0.44,0,0.97v0.69c-0.03,0.32,0,0.57,0,0.69
		c-0.02,0.06,0.03,0.13,0.06,0.16c0.01,0.03,0.07,0.05,0.13,0.05H13v0.24c-0.25,0-0.45,0-0.6,0c-0.18,0-0.38,0-0.72,0
		c0.03-0.64,0.08-1.05,0.08-1.22v-0.66c-0.02-0.42-0.03-0.68-0.08-0.81c-0.07-0.18-0.14-0.31-0.3-0.42
		c-0.18-0.14-0.34-0.16-0.56-0.16c-0.2-0.01-0.37,0.05-0.53,0.14c-0.19,0.07-0.27,0.2-0.34,0.32c-0.09,0.09-0.1,0.32-0.1,0.61v0.47
		c-0.02,0.65,0,1.04,0,1.09c-0.01,0.11,0.02,0.22,0.05,0.28c-0.02,0.01,0.03,0.04,0.05,0.06c0.01,0.01,0.05,0.03,0.1,0.04
		c0-0.01,0.16,0.01,0.43,0.01v0.24c-0.34,0-0.6,0-0.84,0C9.42,65.75,9.09,65.75,8.6,65.75"/>
	<path style="clip-path:url(#SVGID_00000070840676430558927140000014900146847887075506_);" d="M21.09,64.7l0.05-0.32h-5.25
		l-0.05,0.32H21.09 M21.09,63.14l0.05-0.32h-5.25l-0.05,0.32H21.09z"/>
	<path style="clip-path:url(#SVGID_00000070840676430558927140000014900146847887075506_);" d="M24.47,63.14
		c-0.02,0.35,0.02,0.75,0.08,1.12c0.03,0.36,0.13,0.66,0.24,0.89c0.05,0.12,0.18,0.28,0.32,0.38c0.14,0.07,0.3,0.15,0.48,0.15
		c0.27-0.01,0.53-0.13,0.69-0.38c0.21-0.37,0.35-1.07,0.35-2.14c-0.01-0.46-0.02-0.87-0.07-1.24c-0.06-0.39-0.13-0.67-0.24-0.9
		c-0.08-0.17-0.18-0.27-0.31-0.37c-0.17-0.13-0.29-0.15-0.48-0.15c-0.21-0.02-0.39,0.07-0.55,0.2c-0.19,0.12-0.28,0.37-0.37,0.72
		C24.52,61.74,24.47,62.34,24.47,63.14 M23.84,63.37c-0.01-0.75,0.05-1.31,0.16-1.72c0.07-0.4,0.3-0.74,0.57-1
		c0.25-0.26,0.63-0.4,1.06-0.4c0.21,0,0.41,0.04,0.6,0.11c0.17,0.07,0.33,0.17,0.45,0.28c0.09,0.11,0.22,0.25,0.3,0.42
		c0.06,0.16,0.14,0.33,0.17,0.5c0.06,0.38,0.12,0.79,0.12,1.24c-0.02,0.56-0.04,1.08-0.13,1.5c-0.06,0.22-0.13,0.45-0.22,0.65
		c-0.1,0.19-0.21,0.36-0.34,0.5c-0.15,0.14-0.29,0.25-0.47,0.33c-0.22,0.07-0.39,0.12-0.62,0.12c-0.3-0.02-0.52-0.06-0.72-0.18
		c-0.22-0.15-0.36-0.27-0.48-0.46c-0.19-0.27-0.28-0.57-0.34-0.92C23.86,64.01,23.84,63.68,23.84,63.37z"/>
</g>
<text transform="matrix(1 0 0 1 2.111880e-04 113.8544)" class="st2 st3">clock</text>
<polygon class="st13" points="0,93.66 0,93.66 0,93.66 0,93.66 0,93.66 0,93.66 0,93.66 0,93.66 0,93.66 0,93.66 0,93.66 0,93.66 
	0,93.66 0,93.66 0,93.66 0,93.66 0,93.66 0,93.66 0,93.66 0,93.66 0,93.66 0,93.66 0,93.66 0,93.66 0,93.66 0,93.66 0,93.66 
	0,93.66 0,93.66 0,93.66 0,93.66 0,93.66 0,93.66 0,93.66 0,93.66 0,93.66 0,93.66 0,93.66 0,93.66 0,93.66 0,93.66 0,93.66 
	0,93.66 0,93.66 0,93.66 0,93.66 0,93.66 0,93.66 0,93.66 0,93.66 0,93.66 0,93.66 0,93.66 0,93.66 0,93.66 0,93.66 0,93.66 
	0,93.66 0,93.66 0,93.66 0,93.66 0,93.66 0,93.66 0,93.66 0,93.66 0,93.66 0,93.66 0,93.66 0,93.66 0,93.66 0,93.66 0,93.66 
	0,93.66 0,93.66 0,93.66 0,93.66 0,93.66 0,93.66 0,93.66 0,93.66 0,93.66 0,93.66 0,93.66 0,93.66 0,93.66 0,93.66 0,93.66 
	0,93.66 0,93.66 0,93.66 0,93.66 0,93.66 0,93.66 0,93.66 0,93.66 0,93.66 0,93.66 0,93.66 0,93.66 0,93.66 0,93.66 0,93.66 
	0,93.66 0,93.66 0,93.66 0,93.66 0,93.66 0,93.66 0,93.66 0,93.66 0,93.66 0,93.66 0,93.66 0,93.66 0,93.66 0,93.66 0,93.66 
	0,93.66 0,93.66 0,93.66 0,93.66 0,93.66 0,93.66 0,93.66 0,93.66 0,93.66 0,93.66 0,93.66 0,93.66 "/>
<polygon class="st13" points="0,9.51 0,9.51 0,9.51 0,9.51 0,9.51 0,9.51 0,9.51 0,9.51 0,9.51 0,9.51 0,9.51 0,9.51 0,9.51 0,9.51 
	0,9.51 0,9.51 0,9.51 0,9.51 0,9.51 0,9.51 0,9.51 0,9.51 0,9.51 0,9.51 0,9.51 0,9.51 0,9.51 0,9.51 0,9.51 0,9.51 0,9.51 0,9.51 
	0,9.51 0,9.51 0,9.51 0,9.51 0,9.51 0,9.51 0,9.51 0,9.51 0,9.51 0,9.51 0,9.51 0,9.51 0,9.51 0,9.51 0,9.51 0,9.51 0,9.51 0,9.51 
	0,9.51 0,9.51 0,9.51 0,9.51 0,9.51 0,9.51 0,9.51 0,9.51 0,9.51 0,9.51 0,9.51 0,9.51 0,9.51 0,9.51 0,9.51 0,9.51 0,9.51 0,9.51 
	0,9.51 0,9.51 0,9.51 0,9.51 0,9.51 0,9.51 0,9.51 0,9.51 0,9.51 0,9.51 0,9.51 0,9.51 0,9.51 0,9.51 0,9.51 0,9.51 0,9.51 0,9.51 
	0,9.51 0,9.51 0,9.51 0,9.51 0,9.51 0,9.51 0,9.51 0,9.51 0,9.51 0,9.51 0,9.51 0,9.51 0,9.51 0,9.51 0,9.51 0,9.51 0,9.51 0,9.51 
	0,9.51 0,9.51 0,9.51 0,9.51 0,9.51 0,9.51 0,9.51 0,9.51 0,9.51 0,9.51 0,9.51 0,9.51 0,9.51 0,9.51 0,9.51 0,9.51 0,9.51 0,9.51 
	0,9.51 0,9.51 0,9.51 0,9.51 0,9.51 0,9.51 0,9.51 "/>
<polygon class="st13" points="0,9.46 0,9.46 0,9.46 0,9.46 0,9.46 0,9.46 0,9.46 0,9.46 0,9.46 0,9.46 0,9.46 0,9.46 0,9.46 0,9.46 
	0,9.46 0,9.46 0,9.46 0,9.46 0,9.46 0,9.46 0,9.46 0,9.46 0,9.46 0,9.46 0,9.46 0,9.46 0,9.46 0,9.46 0,9.46 0,9.46 0,9.46 0,9.46 
	0,9.46 0,9.46 0,9.46 0,9.46 0,9.46 0,9.46 0,9.46 0,9.46 0,9.46 0,9.46 0,9.46 0,9.46 0,9.46 0,9.46 0,9.46 0,9.46 0,9.46 0,9.46 
	0,9.46 0,9.46 0,9.46 0,9.46 0,9.46 0,9.46 0,9.46 0,9.46 0,9.46 0,9.46 0,9.46 0,9.46 0,9.46 0,9.46 0,9.46 0,9.46 0,9.46 0,9.46 
	0,9.46 0,9.46 0,9.46 0,9.46 0,9.46 0,9.46 0,9.46 0,9.46 0,9.46 0,9.46 0,9.46 0,9.46 0,9.46 0,9.46 0,9.46 0,9.46 0,9.46 0,9.46 
	0,9.46 0,9.46 0,9.46 0,9.46 0,9.46 0,9.46 0,9.46 0,9.46 0,9.46 0,9.46 0,9.46 0,9.46 0,9.46 0,9.46 0,9.46 0,9.46 0,9.46 0,9.46 
	0,9.46 0,9.46 0,9.46 0,9.46 0,9.46 0,9.46 0,9.46 0,9.46 0,9.46 0,9.46 0,9.46 0,9.46 0,9.46 0,9.46 0,9.46 0,9.46 0,9.46 0,9.46 
	0,9.46 0,9.46 0,9.46 0,9.46 0,9.46 0,9.46 0,9.46 0,9.46 0,9.46 "/>
<g>
	<defs>
		<rect id="SVGID_00000078755434654231988340000006166525289678848672_" x="0" y="4.51" width="39" height="10"/>
	</defs>
	<clipPath id="SVGID_00000141426986199474692300000009997914884560453775_">
		<use xlink:href="#SVGID_00000078755434654231988340000006166525289678848672_"  style="overflow:visible;"/>
	</clipPath>
	
		<path style="opacity:0;clip-path:url(#SVGID_00000141426986199474692300000009997914884560453775_);fill:#F47729;stroke:#000000;stroke-width:1.000000e-06;stroke-linecap:round;stroke-linejoin:round;stroke-miterlimit:10;" d="
		M19.6,9.31L19.6,9.31z"/>
	<path style="clip-path:url(#SVGID_00000141426986199474692300000009997914884560453775_);fill:#F47729;" d="M0.43,8.6V8.37
		c0.48-0.08,0.89-0.17,1.2-0.33l0.08,0.06c0,0.55,0,0.97,0,1.27v0.71c0,0.65,0,1.04,0,1.09c0,0.11,0.02,0.22,0.04,0.28
		c-0.01,0.01,0.03,0.04,0.05,0.06c0.02,0.01,0.05,0.03,0.09,0.04c-0.02-0.01,0.16,0.01,0.43,0.01v0.24c-0.4,0-0.69,0-0.9,0
		c-0.19,0-0.51,0-0.97,0v-0.24h0.37c0.05-0.02,0.1-0.01,0.12-0.03C0.96,11.51,1,11.5,1.02,11.48c0.02-0.08,0.05-0.15,0.05-0.28
		c-0.02-0.06,0-0.41,0-1.12V9.4C1.05,8.98,1.06,8.79,1.04,8.71C1.01,8.67,0.99,8.64,0.95,8.63C0.89,8.6,0.74,8.6,0.43,8.6
		 M1.28,6.32c0.1,0,0.23,0.04,0.31,0.13c0.06,0.07,0.13,0.19,0.13,0.31c0,0.1-0.04,0.22-0.13,0.31C1.47,7.13,1.39,7.19,1.28,7.19
		C1.13,7.16,1.05,7.15,0.96,7.06c-0.11-0.1-0.13-0.19-0.13-0.31C0.82,6.62,0.88,6.53,0.96,6.45C1.03,6.35,1.15,6.32,1.28,6.32z"/>
	<path style="clip-path:url(#SVGID_00000141426986199474692300000009997914884560453775_);fill:#F47729;" d="M2.94,8.7V8.55
		c0.19-0.1,0.38-0.17,0.54-0.27V8.05C3.45,7.71,3.5,7.49,3.54,7.35c0.03-0.15,0.1-0.26,0.17-0.37C3.82,6.8,4,6.62,4.24,6.38
		C4.4,6.2,4.53,6.12,4.61,6.08C4.72,6,4.84,6,4.99,6c0.07-0.03,0.2,0.02,0.31,0.05l0.02,0.66L5.22,6.75
		C5.14,6.67,5.06,6.63,4.98,6.6C4.88,6.54,4.81,6.56,4.71,6.56C4.56,6.54,4.45,6.58,4.36,6.64C4.26,6.68,4.21,6.78,4.17,6.88
		C4.11,6.96,4.11,7.2,4.11,7.52v0.79h0.41c0.2-0.03,0.41-0.01,0.61-0.02l0.04,0.02L5.1,8.7c-0.26-0.03-0.39,0-0.5,0
		c-0.14-0.03-0.27,0-0.49,0v1.4c0,0.14,0,0.49,0,0.94c0,0.15,0.01,0.26,0.02,0.31c0,0.03,0.02,0.08,0.04,0.1
		c-0.01,0,0.04,0.03,0.08,0.05c0.06-0.01,0.29,0.05,0.63,0.07v0.24c-0.62,0-0.95,0-1.07,0c-0.11,0-0.43,0-0.96,0v-0.24h0.37
		c0.05-0.02,0.1-0.01,0.13-0.03c0.01-0.03,0.05-0.04,0.07-0.06c0.02-0.08,0.05-0.15,0.05-0.28c-0.02-0.06,0-0.41,0-1.14V8.67
		L2.94,8.7"/>
	
		<line style="clip-path:url(#SVGID_00000141426986199474692300000009997914884560453775_);fill:none;stroke:#F47729;stroke-width:0.3184;stroke-linecap:round;stroke-linejoin:round;stroke-miterlimit:10;" x1="7.21" y1="5.26" x2="24.71" y2="5.26"/>
	<path style="clip-path:url(#SVGID_00000141426986199474692300000009997914884560453775_);fill:#F47729;" d="M8.63,11.03
		c0.13,0.14,0.29,0.25,0.47,0.34c0.18,0.06,0.36,0.12,0.56,0.12c0.22-0.03,0.45-0.06,0.65-0.18c0.19-0.12,0.35-0.31,0.46-0.56
		c0.09-0.27,0.17-0.53,0.17-0.82c-0.01-0.29-0.05-0.54-0.16-0.75c-0.14-0.24-0.26-0.37-0.46-0.48c-0.2-0.14-0.4-0.16-0.6-0.16
		c-0.15-0.01-0.3,0.03-0.44,0.09C9.1,8.68,8.99,8.78,8.87,8.89c-0.14,0.08-0.2,0.22-0.24,0.32c-0.01,0.05,0,0.15,0,0.29V11.03
		 M7.31,8.62V8.39c0.04-0.03,0.14-0.01,0.29-0.03c0.15-0.04,0.31-0.06,0.49-0.12C8.24,8.17,8.4,8.12,8.49,8.07c0-0.02,0.05,0,0.07,0
		c0.01-0.02,0.04,0.01,0.06,0.02c0.01-0.01,0.02,0.03,0.02,0.07c-0.01,0,0,0.05,0,0.1c-0.01,0.06,0,0.14,0,0.21v0.41
		c0.42-0.43,0.7-0.64,0.81-0.7c0.13-0.09,0.35-0.11,0.63-0.11c0.3-0.02,0.6,0.07,0.84,0.23c0.23,0.12,0.4,0.34,0.51,0.58
		c0.1,0.22,0.16,0.49,0.16,0.76c-0.03,0.16-0.02,0.32-0.06,0.46c-0.04,0.12-0.08,0.28-0.14,0.41c-0.08,0.1-0.12,0.25-0.19,0.35
		c-0.1,0.09-0.14,0.19-0.2,0.24c-0.07,0-0.13,0.11-0.28,0.23c-0.15,0.11-0.31,0.23-0.48,0.32c-0.18,0.07-0.29,0.14-0.35,0.16
		c-0.17,0.04-0.3,0.07-0.46,0.07c-0.13-0.03-0.25-0.02-0.37-0.05c-0.14-0.04-0.26-0.08-0.41-0.15v0.59c-0.01,0.6,0,0.98,0,1.05
		c-0.01,0.11,0.02,0.21,0.05,0.27c-0.02,0,0.03,0.05,0.05,0.07c0.01,0,0.05,0.03,0.1,0.04c0.02-0.03,0.18,0.01,0.46,0.01v0.32
		c-0.35-0.06-0.74-0.08-1.26-0.08c-0.3-0.02-0.52,0.03-0.67,0.08v-0.31l0.37,0c0.05-0.01,0.1-0.01,0.12-0.03
		c0.01-0.04,0.05-0.04,0.07-0.06c0.04-0.06,0.07-0.14,0.08-0.27c-0.03-0.05,0-0.4,0-1.1V10.9C7.96,10.43,7.99,10,7.98,9.54
		C7.94,9.06,7.96,8.82,7.95,8.78C7.92,8.71,7.91,8.7,7.89,8.68c-0.05-0.05-0.06-0.04-0.1-0.04L7.31,8.62z"/>
	<path style="clip-path:url(#SVGID_00000141426986199474692300000009997914884560453775_);fill:#F47729;" d="M12.2,11.81v-0.24
		c0.29-0.03,0.45-0.01,0.47-0.01c0.02-0.02,0.08-0.02,0.1-0.04c0-0.02,0.04-0.04,0.05-0.07c0.02-0.07,0.04-0.15,0.05-0.27
		c-0.03-0.7,0-1.04,0-1.07V9.65c-0.03-0.22,0-0.42,0-0.66c-0.03-0.18-0.02-0.24-0.03-0.27c-0.03-0.03-0.05-0.05-0.09-0.06
		c-0.06-0.03-0.21-0.02-0.51-0.02V8.43c0.5-0.08,0.89-0.16,1.11-0.28c0.03-0.07,0.08-0.08,0.1-0.08c0-0.02,0.03,0.01,0.04,0.02
		c-0.02-0.01,0.02,0.03,0.02,0.06c0,0,0,0.04,0,0.06c0,0.16,0,0.4,0,0.74c0.11-0.15,0.22-0.27,0.32-0.4
		C13.92,8.4,14,8.33,14.05,8.29c0.06-0.09,0.17-0.12,0.27-0.16c0.1-0.05,0.21-0.06,0.32-0.06c0.1-0.02,0.22,0.02,0.32,0.07
		l0.02,0.06c-0.06,0.33-0.06,0.68-0.07,0.94h-0.18c-0.07-0.14-0.13-0.21-0.21-0.27c-0.09-0.08-0.18-0.09-0.3-0.09
		c-0.21-0.03-0.37,0.08-0.51,0.24c-0.15,0.15-0.21,0.4-0.21,0.72v0.39c0,0.16,0,0.47,0,0.92c0,0.14,0.01,0.26,0.02,0.3
		c0,0.03,0.02,0.07,0.04,0.09c-0.01,0,0.04,0.03,0.08,0.05c0.06-0.01,0.29,0.05,0.63,0.07v0.24c-0.48,0-0.84,0-1.14,0
		C12.81,11.81,12.51,11.81,12.2,11.81"/>
	<path style="clip-path:url(#SVGID_00000141426986199474692300000009997914884560453775_);fill:#F47729;" d="M15.43,8.6V8.37
		c0.48-0.08,0.89-0.17,1.2-0.33l0.08,0.06c0,0.55,0,0.97,0,1.27v0.71c0,0.65,0,1.04,0,1.09c0,0.11,0.02,0.22,0.04,0.28
		c-0.01,0.01,0.03,0.04,0.05,0.06c0.02,0.01,0.05,0.03,0.09,0.04c-0.02-0.01,0.16,0.01,0.43,0.01v0.24c-0.4,0-0.69,0-0.9,0
		c-0.19,0-0.51,0-0.97,0v-0.24h0.37c0.05-0.02,0.1-0.01,0.12-0.03c0.01-0.03,0.05-0.04,0.07-0.06c0.02-0.08,0.05-0.15,0.05-0.28
		c-0.02-0.06,0-0.41,0-1.12V9.4c-0.02-0.42-0.01-0.61-0.04-0.69c-0.03-0.04-0.05-0.07-0.09-0.09C15.89,8.6,15.74,8.6,15.43,8.6
		 M16.27,6.32c0.1,0,0.23,0.04,0.31,0.13c0.06,0.07,0.13,0.19,0.13,0.31c0,0.1-0.04,0.22-0.13,0.31c-0.11,0.07-0.19,0.13-0.31,0.13
		c-0.15-0.03-0.23-0.04-0.31-0.13c-0.11-0.1-0.13-0.19-0.13-0.31c-0.01-0.14,0.04-0.23,0.13-0.31C16.03,6.35,16.15,6.32,16.27,6.32z
		"/>
	<path style="clip-path:url(#SVGID_00000141426986199474692300000009997914884560453775_);fill:#F47729;" d="M17.6,11.81v-0.24
		l0.37,0c0.03-0.02,0.1-0.01,0.13-0.03c0-0.03,0.05-0.04,0.07-0.06c0.01-0.07,0.05-0.14,0.05-0.27c-0.01-0.06,0-0.4,0-1.1V9.64
		c-0.01-0.22,0-0.43,0-0.66c-0.01-0.17-0.02-0.24-0.04-0.27c-0.04-0.06-0.04-0.05-0.09-0.06c-0.07-0.03-0.21-0.02-0.5-0.02V8.42
		c0.5-0.07,0.91-0.16,1.16-0.27c0.04-0.07,0.09-0.08,0.11-0.08c-0.02-0.02,0,0.01,0,0.02c-0.02-0.01,0,0.03,0,0.06
		c-0.02,0,0,0.04,0,0.06c-0.02,0.09,0,0.29,0,0.59l0.73-0.62c0.19-0.1,0.42-0.12,0.61-0.12c0.18-0.02,0.41,0.04,0.6,0.13
		c0.16,0.06,0.33,0.19,0.43,0.32c0.09,0.13,0.16,0.29,0.19,0.49c-0.03,0.08,0,0.44,0,0.97v0.69c-0.03,0.32,0,0.57,0,0.69
		c-0.02,0.06,0.03,0.13,0.06,0.16c0.01,0.03,0.07,0.05,0.13,0.05H22v0.24c-0.25,0-0.45,0-0.6,0c-0.18,0-0.38,0-0.72,0
		c0.03-0.64,0.08-1.05,0.08-1.22V9.93c-0.02-0.42-0.03-0.68-0.08-0.81c-0.07-0.18-0.14-0.31-0.3-0.42
		c-0.18-0.14-0.34-0.16-0.56-0.16c-0.2-0.01-0.37,0.05-0.53,0.14c-0.19,0.07-0.27,0.2-0.34,0.32c-0.09,0.09-0.1,0.32-0.1,0.61v0.47
		c-0.02,0.65,0,1.04,0,1.09c-0.01,0.11,0.02,0.22,0.05,0.28c-0.02,0.01,0.03,0.04,0.05,0.06c0.01,0.01,0.05,0.03,0.1,0.04
		c0-0.01,0.16,0.01,0.43,0.01v0.24c-0.34,0-0.6,0-0.84,0C18.42,11.81,18.09,11.81,17.6,11.81"/>
	<path style="clip-path:url(#SVGID_00000141426986199474692300000009997914884560453775_);fill:#F47729;" d="M22.3,8.78V8.62
		c0.26-0.1,0.46-0.19,0.59-0.27c-0.03-0.63,0-1.01,0-1.18c0.23-0.12,0.47-0.19,0.64-0.3l0.09,0.08c-0.04,0.2-0.06,0.69-0.09,1.43
		c0.2-0.03,0.33,0,0.37,0c0.02-0.03,0.16,0,0.4,0c0.13-0.03,0.24,0,0.3,0l0.03,0.03l-0.08,0.37C24.37,8.71,24.24,8.7,24.1,8.7
		c-0.14-0.03-0.33,0.03-0.57,0.08l-0.02,1.56c-0.01,0.37,0,0.61,0.01,0.68c0.01,0.07,0.04,0.14,0.07,0.19
		c0.01,0.05,0.08,0.1,0.14,0.13c0.05,0.02,0.16,0.06,0.3,0.07c0.1-0.01,0.19,0,0.26-0.01c0.04-0.01,0.15-0.03,0.25-0.07l0.05,0.15
		c-0.15,0.06-0.24,0.19-0.35,0.3c-0.11,0.01-0.19,0.06-0.28,0.07c-0.1-0.01-0.18,0.02-0.3,0.02c-0.15-0.03-0.24-0.02-0.32-0.05
		c-0.09-0.04-0.15-0.07-0.21-0.13c-0.07-0.06-0.12-0.12-0.16-0.21c-0.07-0.12-0.07-0.22-0.08-0.4c-0.03-0.2,0-0.37,0-0.57
		c-0.03-0.05,0-0.09,0-0.14v-1.6h-0.16C22.59,8.76,22.46,8.78,22.3,8.78"/>
	<path style="clip-path:url(#SVGID_00000141426986199474692300000009997914884560453775_);fill:#F47729;" d="M32.59,10.76l0.05-0.32
		h-5.25l-0.05,0.32H32.59 M32.59,9.19l0.05-0.32h-5.25l-0.05,0.32H32.59z"/>
	<path style="clip-path:url(#SVGID_00000141426986199474692300000009997914884560453775_);fill:#F47729;" d="M35.83,7.36l-0.07-0.02
		l-0.04-0.32l0.04-0.04c0.26-0.11,0.58-0.19,0.91-0.33c0.44-0.22,0.76-0.34,0.89-0.41l0.1,0.04c-0.06,1.17-0.06,1.88-0.06,2.05v1.45
		c-0.03,0.55,0,1.01,0,1.31c-0.02,0.15,0.03,0.28,0.06,0.33c0.02,0.04,0.09,0.08,0.15,0.1c0.07,0.02,0.29,0.04,0.67,0.05v0.24
		c-0.68,0-1.05,0-1.2,0c-0.14,0-0.54,0-1.29,0v-0.24c0.36-0.04,0.62-0.04,0.68-0.06c0.04-0.02,0.11-0.04,0.13-0.06
		c0.03-0.04,0.05-0.07,0.07-0.12c0-0.09,0.04-0.31,0.05-0.7c0.01-0.39,0.02-0.68,0.02-0.87V8.22c-0.02-0.63,0-1.02,0-1.18
		c-0.02-0.08-0.01-0.11-0.03-0.13c-0.02-0.01-0.02-0.02-0.04-0.02c-0.05-0.03-0.08,0.02-0.18,0.06C36.26,7.14,35.97,7.29,35.83,7.36
		"/>
</g>
<polygon class="st13" points="141.25,117.98 141.25,117.98 141.25,117.98 141.25,117.98 141.25,117.98 141.25,117.98 141.25,117.98 
	141.25,117.98 141.25,117.98 141.25,117.98 141.25,117.98 141.25,117.98 141.25,117.98 141.25,117.98 141.25,117.98 141.25,117.98 
	141.25,117.98 141.25,117.98 141.25,117.98 141.25,117.98 141.25,117.98 141.25,117.98 141.25,117.98 141.25,117.98 141.25,117.98 
	141.25,117.98 141.25,117.98 141.25,117.98 141.25,117.98 141.25,117.98 141.25,117.98 141.25,117.98 141.25,117.98 141.25,117.98 
	141.25,117.98 141.25,117.98 141.25,117.98 141.25,117.98 141.25,117.98 141.25,117.98 141.25,117.98 141.25,117.98 141.25,117.98 
	141.25,117.98 141.25,117.98 141.25,117.98 141.25,117.98 141.25,117.98 141.25,117.98 141.25,117.98 141.25,117.98 141.25,117.98 
	141.25,117.98 141.25,117.98 141.25,117.98 141.25,117.98 141.25,117.98 141.25,117.98 141.25,117.98 141.25,117.98 141.25,117.98 
	141.25,117.98 141.25,117.98 141.25,117.98 141.25,117.98 141.25,117.98 141.25,117.98 141.25,117.98 141.25,117.98 141.25,117.98 
	141.25,117.98 141.25,117.98 141.25,117.98 141.25,117.98 141.25,117.98 141.25,117.98 141.25,117.98 141.25,117.98 141.25,117.98 
	141.25,117.98 141.25,117.98 141.25,117.98 141.25,117.98 141.25,117.98 141.25,117.98 141.25,117.98 141.25,117.98 141.25,117.98 
	141.25,117.98 141.25,117.98 141.25,117.98 141.25,117.98 141.25,117.98 141.25,117.98 141.25,117.98 141.25,117.98 141.25,117.98 
	141.25,117.98 141.25,117.98 141.25,117.98 141.25,117.98 141.25,117.98 141.25,117.98 141.25,117.98 141.25,117.98 141.25,117.98 
	141.25,117.98 141.25,117.98 141.25,117.98 141.25,117.98 141.25,117.98 141.25,117.98 141.25,117.98 141.25,117.98 141.25,117.98 
	141.25,117.98 141.25,117.98 141.25,117.98 141.25,117.98 141.25,117.98 141.25,117.98 141.25,117.98 141.25,117.98 141.25,117.98 
	141.25,117.98 141.25,117.98 141.25,117.98 141.25,117.98 141.25,117.98 141.25,117.98 141.25,117.98 "/>
<g>
	<defs>
		<rect id="SVGID_00000101806143693316706840000004225164723069434516_" x="0" y="86.36" width="39" height="10"/>
	</defs>
	<clipPath id="SVGID_00000069386816494256872250000004685556664666722974_">
		<use xlink:href="#SVGID_00000101806143693316706840000004225164723069434516_"  style="overflow:visible;"/>
	</clipPath>
	
		<path style="opacity:0;clip-path:url(#SVGID_00000069386816494256872250000004685556664666722974_);fill:none;stroke:#000000;stroke-width:1.000000e-06;stroke-linecap:round;stroke-linejoin:round;stroke-miterlimit:10;" d="
		M20,91.16L20,91.16z"/>
	<path style="clip-path:url(#SVGID_00000069386816494256872250000004685556664666722974_);fill:#813795;" d="M0.43,90.45v-0.22
		c0.48-0.08,0.89-0.17,1.2-0.33l0.08,0.06c0,0.55,0,0.97,0,1.27v0.71c0,0.65,0,1.04,0,1.09c0,0.11,0.02,0.22,0.04,0.28
		c-0.01,0.01,0.03,0.04,0.05,0.06c0.02,0.01,0.05,0.03,0.09,0.04c-0.02-0.01,0.16,0.01,0.43,0.01v0.24c-0.4,0-0.69,0-0.9,0
		c-0.19,0-0.51,0-0.97,0v-0.24h0.37c0.05-0.02,0.1-0.01,0.12-0.03c0.01-0.03,0.05-0.04,0.07-0.06c0.02-0.08,0.05-0.15,0.05-0.28
		c-0.02-0.06,0-0.41,0-1.12v-0.68c-0.02-0.42-0.01-0.61-0.04-0.69c-0.03-0.04-0.05-0.07-0.09-0.09C0.89,90.46,0.74,90.45,0.43,90.45
		 M1.28,88.17c0.1,0,0.23,0.04,0.31,0.13c0.06,0.07,0.13,0.19,0.13,0.31c0,0.1-0.04,0.22-0.13,0.31c-0.11,0.07-0.19,0.13-0.31,0.13
		c-0.15-0.03-0.23-0.04-0.31-0.13c-0.11-0.1-0.13-0.19-0.13-0.31c-0.01-0.14,0.04-0.23,0.13-0.31C1.03,88.2,1.15,88.17,1.28,88.17z"
		/>
	<path style="clip-path:url(#SVGID_00000069386816494256872250000004685556664666722974_);fill:#813795;" d="M2.94,90.56V90.4
		c0.19-0.1,0.38-0.17,0.54-0.27v-0.23c-0.02-0.34,0.02-0.56,0.06-0.7c0.03-0.15,0.1-0.26,0.17-0.37c0.11-0.18,0.29-0.36,0.53-0.6
		c0.16-0.18,0.29-0.26,0.37-0.3c0.1-0.08,0.23-0.08,0.37-0.08c0.07-0.03,0.2,0.02,0.31,0.05l0.02,0.66l-0.09,0.03
		c-0.09-0.08-0.16-0.12-0.24-0.15c-0.11-0.06-0.17-0.05-0.28-0.05c-0.14-0.02-0.25,0.03-0.34,0.08c-0.11,0.04-0.15,0.14-0.19,0.24
		c-0.06,0.08-0.06,0.32-0.06,0.64v0.79h0.41c0.2-0.03,0.41-0.01,0.61-0.02l0.04,0.02l-0.08,0.4c-0.26-0.03-0.39,0-0.5,0
		c-0.14-0.03-0.27,0-0.49,0v1.4c0,0.14,0,0.49,0,0.94c0,0.15,0.01,0.26,0.02,0.31c0,0.03,0.02,0.08,0.04,0.1
		c-0.01,0,0.04,0.03,0.08,0.05c0.06-0.01,0.29,0.05,0.63,0.07v0.24c-0.62,0-0.95,0-1.07,0c-0.11,0-0.43,0-0.96,0v-0.24h0.37
		c0.05-0.02,0.1-0.01,0.13-0.03c0.01-0.03,0.05-0.04,0.07-0.06c0.02-0.08,0.05-0.15,0.05-0.28c-0.02-0.06,0-0.41,0-1.14v-1.38
		L2.94,90.56"/>
	
		<line style="clip-path:url(#SVGID_00000069386816494256872250000004685556664666722974_);stroke:#813795;stroke-width:0.3184;stroke-linecap:round;stroke-linejoin:round;stroke-miterlimit:10;" x1="7.21" y1="87.11" x2="24.71" y2="87.11"/>
	<path style="clip-path:url(#SVGID_00000069386816494256872250000004685556664666722974_);fill:#813795;" d="M8.63,92.89
		c0.13,0.14,0.29,0.25,0.47,0.34c0.18,0.06,0.36,0.12,0.56,0.12c0.22-0.03,0.45-0.06,0.65-0.18c0.19-0.12,0.35-0.31,0.46-0.56
		c0.09-0.27,0.17-0.53,0.17-0.82c-0.01-0.29-0.05-0.54-0.16-0.75c-0.14-0.24-0.26-0.37-0.46-0.48c-0.2-0.14-0.4-0.16-0.6-0.16
		c-0.15-0.01-0.3,0.03-0.44,0.09c-0.17,0.05-0.28,0.15-0.4,0.26c-0.14,0.08-0.2,0.22-0.24,0.32c-0.01,0.05,0,0.15,0,0.29V92.89
		 M7.31,90.48v-0.24c0.04-0.03,0.14-0.01,0.29-0.03c0.15-0.04,0.31-0.06,0.49-0.12c0.14-0.06,0.31-0.11,0.39-0.16
		c0-0.02,0.05,0,0.07,0c0.01-0.02,0.04,0.01,0.06,0.02c0.01-0.01,0.02,0.03,0.02,0.07c-0.01,0,0,0.05,0,0.1
		c-0.01,0.06,0,0.14,0,0.21v0.41c0.42-0.43,0.7-0.64,0.81-0.7c0.13-0.09,0.35-0.11,0.63-0.11c0.3-0.02,0.6,0.07,0.84,0.22
		c0.23,0.12,0.4,0.34,0.51,0.58c0.1,0.22,0.16,0.49,0.16,0.76c-0.03,0.16-0.02,0.32-0.06,0.46c-0.04,0.12-0.08,0.28-0.14,0.41
		c-0.08,0.1-0.12,0.25-0.19,0.35c-0.1,0.09-0.14,0.19-0.2,0.24c-0.07,0-0.13,0.11-0.28,0.23c-0.15,0.11-0.31,0.23-0.48,0.32
		c-0.18,0.07-0.29,0.14-0.35,0.16c-0.17,0.04-0.3,0.07-0.46,0.07c-0.13-0.03-0.25-0.02-0.37-0.05c-0.14-0.04-0.26-0.08-0.41-0.15
		v0.59c-0.01,0.6,0,0.98,0,1.05c-0.01,0.11,0.02,0.21,0.05,0.27c-0.02,0,0.03,0.05,0.05,0.07c0.01,0,0.05,0.03,0.1,0.04
		c0.02-0.03,0.18,0.01,0.46,0.01v0.32c-0.35-0.06-0.74-0.08-1.26-0.08c-0.3-0.02-0.52,0.03-0.67,0.08v-0.31l0.37,0
		c0.05-0.01,0.1-0.01,0.12-0.03c0.01-0.04,0.05-0.04,0.07-0.06c0.04-0.06,0.07-0.14,0.08-0.27c-0.03-0.05,0-0.4,0-1.1v-1.36
		c-0.03-0.47-0.01-0.9-0.02-1.36c-0.04-0.47-0.02-0.72-0.03-0.76c-0.03-0.07-0.03-0.08-0.06-0.1c-0.05-0.05-0.06-0.04-0.1-0.04
		L7.31,90.48z"/>
	<path style="clip-path:url(#SVGID_00000069386816494256872250000004685556664666722974_);fill:#813795;" d="M12.2,93.66v-0.24
		c0.29-0.03,0.45-0.01,0.47-0.01c0.02-0.02,0.08-0.02,0.1-0.04c0-0.02,0.04-0.04,0.05-0.07c0.02-0.07,0.04-0.15,0.05-0.28
		c-0.03-0.7,0-1.04,0-1.07v-0.45c-0.03-0.22,0-0.42,0-0.66c-0.03-0.18-0.02-0.24-0.03-0.27c-0.03-0.03-0.05-0.05-0.09-0.06
		c-0.06-0.03-0.21-0.02-0.51-0.02v-0.22c0.5-0.08,0.89-0.16,1.11-0.28c0.03-0.07,0.08-0.08,0.1-0.08c0-0.02,0.03,0.01,0.04,0.02
		c-0.02-0.01,0.02,0.03,0.02,0.06c0,0,0,0.04,0,0.06c0,0.16,0,0.4,0,0.74c0.11-0.15,0.22-0.27,0.32-0.4
		c0.09-0.15,0.17-0.22,0.21-0.26c0.06-0.09,0.17-0.12,0.27-0.16c0.1-0.05,0.21-0.06,0.32-0.06c0.1-0.02,0.22,0.03,0.32,0.07
		l0.02,0.06c-0.06,0.33-0.06,0.68-0.07,0.94h-0.18c-0.07-0.14-0.13-0.21-0.21-0.27c-0.09-0.08-0.18-0.09-0.3-0.09
		c-0.21-0.03-0.37,0.08-0.51,0.24c-0.15,0.15-0.21,0.4-0.21,0.72V92c0,0.16,0,0.47,0,0.92c0,0.14,0.01,0.26,0.02,0.3
		c0,0.03,0.02,0.07,0.04,0.09c-0.01,0,0.04,0.03,0.08,0.05c0.06-0.01,0.29,0.05,0.63,0.07v0.24c-0.48,0-0.84,0-1.14,0
		C12.81,93.66,12.51,93.66,12.2,93.66"/>
	<path style="clip-path:url(#SVGID_00000069386816494256872250000004685556664666722974_);fill:#813795;" d="M15.43,90.45v-0.22
		c0.48-0.08,0.89-0.17,1.2-0.33l0.08,0.06c0,0.55,0,0.97,0,1.27v0.71c0,0.65,0,1.04,0,1.09c0,0.11,0.02,0.22,0.04,0.28
		c-0.01,0.01,0.03,0.04,0.05,0.06c0.02,0.01,0.05,0.03,0.09,0.04c-0.02-0.01,0.16,0.01,0.43,0.01v0.24c-0.4,0-0.69,0-0.9,0
		c-0.19,0-0.51,0-0.97,0v-0.24h0.37c0.05-0.02,0.1-0.01,0.12-0.03c0.01-0.03,0.05-0.04,0.07-0.06c0.02-0.08,0.05-0.15,0.05-0.28
		c-0.02-0.06,0-0.41,0-1.12v-0.68c-0.02-0.42-0.01-0.61-0.04-0.69c-0.03-0.04-0.05-0.07-0.09-0.09
		C15.89,90.46,15.74,90.45,15.43,90.45 M16.27,88.17c0.1,0,0.23,0.04,0.31,0.13c0.06,0.07,0.13,0.19,0.13,0.31
		c0,0.1-0.04,0.22-0.13,0.31c-0.11,0.07-0.19,0.13-0.31,0.13c-0.15-0.03-0.23-0.04-0.31-0.13c-0.11-0.1-0.13-0.19-0.13-0.31
		c-0.01-0.14,0.04-0.23,0.13-0.31C16.03,88.2,16.15,88.17,16.27,88.17z"/>
	<path style="clip-path:url(#SVGID_00000069386816494256872250000004685556664666722974_);fill:#813795;" d="M17.6,93.66v-0.24
		l0.37,0c0.03-0.02,0.1-0.01,0.13-0.03c0-0.03,0.05-0.04,0.07-0.06c0.01-0.07,0.05-0.14,0.05-0.27c-0.01-0.06,0-0.4,0-1.1v-0.46
		c-0.01-0.22,0-0.43,0-0.66c-0.01-0.17-0.02-0.24-0.04-0.27c-0.04-0.06-0.04-0.05-0.09-0.06c-0.07-0.03-0.21-0.02-0.5-0.02v-0.21
		c0.5-0.07,0.91-0.16,1.16-0.27c0.04-0.07,0.09-0.08,0.11-0.08c-0.02-0.02,0,0.01,0,0.02c-0.02-0.01,0,0.03,0,0.06
		c-0.02,0,0,0.04,0,0.06c-0.02,0.09,0,0.29,0,0.59l0.73-0.62c0.19-0.1,0.42-0.12,0.61-0.12c0.18-0.02,0.41,0.04,0.6,0.13
		c0.16,0.06,0.33,0.19,0.43,0.32c0.09,0.13,0.16,0.29,0.19,0.49c-0.03,0.08,0,0.44,0,0.97v0.69c-0.03,0.32,0,0.57,0,0.69
		c-0.02,0.06,0.03,0.13,0.06,0.16c0.01,0.03,0.07,0.05,0.13,0.05H22v0.24c-0.25,0-0.45,0-0.6,0c-0.18,0-0.38,0-0.72,0
		c0.03-0.64,0.08-1.05,0.08-1.22v-0.66c-0.02-0.42-0.03-0.68-0.08-0.81c-0.07-0.18-0.14-0.31-0.3-0.42
		c-0.18-0.14-0.34-0.16-0.56-0.16c-0.2-0.01-0.37,0.05-0.53,0.14c-0.19,0.07-0.27,0.2-0.34,0.32c-0.09,0.09-0.1,0.32-0.1,0.61v0.47
		c-0.02,0.65,0,1.04,0,1.09c-0.01,0.11,0.02,0.22,0.05,0.28c-0.02,0.01,0.03,0.04,0.05,0.06c0.01,0.01,0.05,0.03,0.1,0.04
		c0-0.01,0.16,0.01,0.43,0.01v0.24c-0.34,0-0.6,0-0.84,0C18.42,93.66,18.09,93.66,17.6,93.66"/>
	<path style="clip-path:url(#SVGID_00000069386816494256872250000004685556664666722974_);fill:#813795;" d="M22.3,90.64v-0.16
		c0.26-0.1,0.46-0.19,0.59-0.27c-0.03-0.63,0-1.01,0-1.18c0.23-0.12,0.47-0.19,0.64-0.3l0.09,0.08c-0.04,0.2-0.06,0.69-0.09,1.43
		c0.2-0.03,0.33,0,0.37,0c0.02-0.03,0.16,0,0.4,0c0.13-0.03,0.24,0,0.3,0l0.03,0.03l-0.08,0.37c-0.18-0.08-0.31-0.08-0.45-0.08
		c-0.14-0.03-0.33,0.03-0.57,0.08l-0.02,1.56c-0.01,0.37,0,0.61,0.01,0.68c0.01,0.07,0.04,0.14,0.07,0.19
		c0.01,0.05,0.08,0.1,0.14,0.13c0.05,0.02,0.16,0.06,0.3,0.08c0.1-0.01,0.19,0,0.26-0.01c0.04-0.01,0.15-0.03,0.25-0.07l0.05,0.15
		c-0.15,0.06-0.24,0.19-0.35,0.3c-0.11,0.01-0.19,0.06-0.28,0.07c-0.1-0.01-0.18,0.02-0.3,0.02c-0.15-0.03-0.24-0.02-0.32-0.05
		c-0.09-0.04-0.15-0.07-0.21-0.13c-0.07-0.06-0.12-0.12-0.16-0.21c-0.07-0.12-0.07-0.22-0.08-0.4c-0.03-0.2,0-0.37,0-0.57
		c-0.03-0.05,0-0.09,0-0.14v-1.6h-0.16C22.59,90.61,22.46,90.64,22.3,90.64"/>
	<path style="clip-path:url(#SVGID_00000069386816494256872250000004685556664666722974_);fill:#813795;" d="M32.59,92.62l0.05-0.32
		h-5.25l-0.05,0.32H32.59 M32.59,91.05l0.05-0.32h-5.25l-0.05,0.32H32.59z"/>
	<path style="clip-path:url(#SVGID_00000069386816494256872250000004685556664666722974_);fill:#813795;" d="M36.08,91.05
		c-0.02,0.35,0.03,0.75,0.08,1.12c0.03,0.36,0.13,0.66,0.24,0.89c0.05,0.12,0.18,0.28,0.32,0.38c0.14,0.07,0.3,0.15,0.48,0.15
		c0.27-0.01,0.53-0.13,0.69-0.38c0.21-0.37,0.35-1.07,0.35-2.14c-0.01-0.46-0.02-0.87-0.07-1.24c-0.06-0.39-0.13-0.67-0.24-0.9
		c-0.08-0.17-0.18-0.27-0.31-0.37c-0.17-0.13-0.29-0.15-0.48-0.15c-0.21-0.02-0.39,0.07-0.55,0.2c-0.19,0.12-0.28,0.37-0.37,0.72
		C36.12,89.65,36.08,90.25,36.08,91.05 M35.44,91.28c-0.01-0.75,0.05-1.31,0.16-1.72c0.07-0.4,0.3-0.74,0.57-1
		c0.25-0.26,0.63-0.4,1.06-0.4c0.21,0,0.41,0.04,0.6,0.11c0.17,0.07,0.33,0.17,0.45,0.28c0.09,0.11,0.22,0.25,0.3,0.42
		c0.06,0.16,0.14,0.33,0.17,0.5c0.06,0.38,0.12,0.79,0.12,1.24c-0.02,0.56-0.04,1.08-0.13,1.5c-0.06,0.22-0.13,0.45-0.22,0.65
		c-0.1,0.19-0.21,0.36-0.34,0.5c-0.15,0.14-0.29,0.25-0.47,0.33c-0.22,0.07-0.39,0.12-0.62,0.12c-0.3-0.02-0.52-0.06-0.72-0.18
		c-0.22-0.15-0.36-0.27-0.48-0.46c-0.19-0.27-0.28-0.57-0.34-0.92C35.46,91.92,35.44,91.59,35.44,91.28z"/>
</g>
<polygon class="st26" points="194.74,137.44 194.74,137.44 194.74,137.44 194.74,137.44 194.74,137.44 194.74,137.44 194.74,137.44 
	194.74,137.44 194.74,137.44 194.74,137.44 194.74,137.44 194.74,137.44 194.74,137.44 194.74,137.44 194.74,137.44 194.74,137.44 
	194.74,137.44 194.74,137.44 194.74,137.44 194.74,137.44 194.74,137.44 194.74,137.44 194.74,137.44 194.74,137.44 194.74,137.44 
	194.74,137.44 194.74,137.44 194.74,137.44 194.74,137.44 194.74,137.44 194.74,137.44 194.74,137.44 194.74,137.44 194.74,137.44 
	194.74,137.44 194.74,137.44 194.74,137.44 194.74,137.44 194.74,137.44 194.74,137.44 194.74,137.44 194.74,137.44 194.74,137.44 
	194.74,137.44 194.74,137.44 194.74,137.44 194.74,137.44 194.74,137.44 194.74,137.44 194.74,137.44 194.74,137.44 194.74,137.44 
	194.74,137.44 194.74,137.44 194.74,137.44 194.74,137.44 194.74,137.44 194.74,137.44 194.74,137.44 194.74,137.44 194.74,137.44 
	194.74,137.44 194.74,137.44 194.74,137.44 194.74,137.44 194.74,137.44 194.74,137.44 194.74,137.44 194.74,137.44 194.74,137.44 
	194.74,137.44 194.74,137.44 194.74,137.44 194.74,137.44 194.74,137.44 194.74,137.44 194.74,137.44 194.74,137.44 194.74,137.44 
	194.74,137.44 194.74,137.44 194.74,137.44 194.74,137.44 194.74,137.44 194.74,137.44 194.74,137.44 194.74,137.44 194.74,137.44 
	194.74,137.44 194.74,137.44 194.74,137.44 194.74,137.44 194.74,137.44 194.74,137.44 194.74,137.44 194.74,137.44 194.74,137.44 
	194.74,137.44 194.74,137.44 194.74,137.44 194.74,137.44 194.74,137.44 194.74,137.44 194.74,137.44 194.74,137.44 194.74,137.44 
	194.74,137.44 194.74,137.44 194.74,137.44 194.74,137.44 194.74,137.44 194.74,137.44 194.74,137.44 194.74,137.44 194.74,137.44 
	194.74,137.44 194.74,137.44 194.74,137.44 194.74,137.44 194.74,137.44 194.74,137.44 194.74,137.44 194.74,137.44 194.74,137.44 
	194.74,137.44 194.74,137.44 "/>
<g>
	<defs>
		<rect id="SVGID_00000005246982188810541950000018127505534816352393_" x="192.37" y="135.26" width="5.6" height="6"/>
	</defs>
	<clipPath id="SVGID_00000108288549882706699320000015826762935282536081_">
		<use xlink:href="#SVGID_00000005246982188810541950000018127505534816352393_"  style="overflow:visible;"/>
	</clipPath>
	
		<path style="opacity:0;clip-path:url(#SVGID_00000108288549882706699320000015826762935282536081_);fill:none;stroke:#000000;stroke-width:1.000000e-06;stroke-miterlimit:10;" d="
		M195.17,137.66L195.17,137.66z"/>
	<path style="clip-path:url(#SVGID_00000108288549882706699320000015826762935282536081_);" d="M197.43,135.48l-0.05-0.06
		c-0.7,0.03-1.49,0.08-2.08,0.08c-1.41,0-1.41-0.06-2.16-0.09l-0.06,0.06v0.38l0.06,0.05c0.88-0.03,1.51-0.05,1.7-0.05
		c0.04,0,0.07,0.02,0.07,0.05c0.01,0.24,0.02,1.38,0.02,2.03c0,1.01-0.04,2.02-0.1,3.03l0.07,0.07l0.8-0.21
		c-0.06-0.96-0.1-2.38-0.1-3.35c0-0.96-0.01-1.64,0.1-1.64c0.17,0,0.33,0.02,1.67,0.08l0.06-0.05V135.48"/>
</g>
<g>
	<defs>
		<rect id="SVGID_00000100350889872736608470000011973059902754525883_" x="58.45" y="119.89" width="6.4" height="6"/>
	</defs>
	<clipPath id="SVGID_00000135665040745947860860000015405371170347661732_">
		<use xlink:href="#SVGID_00000100350889872736608470000011973059902754525883_"  style="overflow:visible;"/>
	</clipPath>
	
		<path style="opacity:0;clip-path:url(#SVGID_00000135665040745947860860000015405371170347661732_);fill:none;stroke:#000000;stroke-width:1.000000e-06;stroke-miterlimit:10;" d="
		M61.65,122.69L61.65,122.69z"/>
	<path style="clip-path:url(#SVGID_00000135665040745947860860000015405371170347661732_);" d="M64.44,120.07l-0.64,0.13
		c0.17,2.42,0.19,3.2,0.19,4.01c0,0.02-0.01,0.06-0.05,0.06c-0.03,0-0.06-0.04-0.09-0.06c-0.93-1-2.22-2.71-3.27-4.11H59.3
		l-0.06,0.05l0.03,0.22c0.75,0.18,0.68,0.21,0.68,0.38c0,0.34,0.01,0.68,0.01,1.03c0,1.25-0.04,2.52-0.1,3.78l0.07,0.07l0.56-0.24
		c-0.09-1.38-0.19-3.12-0.19-4.15c0-0.04,0-0.14,0.05-0.14c0.03,0,0.06,0.04,0.09,0.07c0.39,0.45,1.05,1.2,1.86,2.2l1.26,1.57
		c0.24,0.3,0.35,0.43,0.53,0.64h0.29c0-1.8,0.02-3.65,0.12-5.45L64.44,120.07"/>
</g>
<g>
	<defs>
		<rect id="SVGID_00000054946886665288106780000007628571517021600402_" x="184.07" y="119.89" width="6.4" height="6"/>
	</defs>
	<clipPath id="SVGID_00000137811485995110063640000016012703434028094596_">
		<use xlink:href="#SVGID_00000054946886665288106780000007628571517021600402_"  style="overflow:visible;"/>
	</clipPath>
	
		<path style="opacity:0;clip-path:url(#SVGID_00000137811485995110063640000016012703434028094596_);fill:none;stroke:#000000;stroke-width:1.000000e-06;stroke-miterlimit:10;" d="
		M187.27,122.69L187.27,122.69z"/>
	<path style="clip-path:url(#SVGID_00000137811485995110063640000016012703434028094596_);" d="M190.07,120.07l-0.64,0.13
		c0.17,2.42,0.19,3.2,0.19,4.01c0,0.02-0.01,0.06-0.05,0.06c-0.03,0-0.06-0.04-0.09-0.06c-0.93-1-2.22-2.71-3.27-4.11h-1.29
		l-0.06,0.05l0.03,0.22c0.75,0.18,0.68,0.21,0.68,0.38c0,0.34,0.01,0.68,0.01,1.03c0,1.25-0.04,2.52-0.1,3.78l0.07,0.07l0.56-0.24
		c-0.09-1.38-0.19-3.12-0.19-4.15c0-0.04,0-0.14,0.05-0.14c0.03,0,0.06,0.04,0.09,0.07c0.39,0.45,1.05,1.2,1.86,2.2l1.26,1.57
		c0.24,0.3,0.35,0.43,0.53,0.64H190c0-1.8,0.02-3.65,0.12-5.45L190.07,120.07"/>
</g>
<g>
	<defs>
		<rect id="SVGID_00000161633714704527701170000009220618249129596087_" x="136.16" y="120.1" width="8" height="6"/>
	</defs>
	<clipPath id="SVGID_00000101102275033100077830000002610934860727116677_">
		<use xlink:href="#SVGID_00000161633714704527701170000009220618249129596087_"  style="overflow:visible;"/>
	</clipPath>
	
		<path style="opacity:0;clip-path:url(#SVGID_00000101102275033100077830000002610934860727116677_);fill:none;stroke:#000000;stroke-width:1.000000e-06;stroke-miterlimit:10;" d="
		M140.56,122.9L140.56,122.9z"/>
	<path style="clip-path:url(#SVGID_00000101102275033100077830000002610934860727116677_);" d="M142.02,120.31l-2.19,4.31
		c-0.02,0.03-0.06,0.07-0.1,0.07s-0.07-0.08-0.09-0.11c-0.66-1.41-1.41-3-1.84-4.27h-1.4l-0.06,0.05l-0.02,0.17l0.54,0.15
		c0.14,0.04,0.22,0.17,0.22,0.31c0,0.03,0,0.06-0.01,0.1c-0.21,1.57-0.49,3.14-0.79,4.7l0.05,0.02l0.6-0.21
		c0.05-0.72,0.33-4.17,0.49-4.17c0.03,0,0.06,0.04,0.09,0.08c0.5,1.02,1.25,2.84,1.84,4.27h0.24l2.27-4.4
		c0.03-0.04,0.06-0.06,0.09-0.06c0.04,0,0.06,0.05,0.06,0.12c0.02,0.53,0.08,2.48,0.08,2.68v1.45c0,0.21,0.26,0.28,0.5,0.28
		c0.32,0,0.73-0.14,1.08-0.27v-0.19c-0.14,0.02-0.34,0.05-0.45,0.05c-0.26,0-0.44-0.21-0.46-0.45c-0.13-1.3-0.14-2.52-0.14-3.82
		c0-0.35-0.02-0.64,0.2-0.75v-0.1H142.02"/>
</g>
<g>
	<defs>
		<rect id="SVGID_00000138555632023701796460000015047417292839133579_" x="261.91" y="120.1" width="8" height="6"/>
	</defs>
	<clipPath id="SVGID_00000065070580859254295750000005593740904590955648_">
		<use xlink:href="#SVGID_00000138555632023701796460000015047417292839133579_"  style="overflow:visible;"/>
	</clipPath>
	
		<path style="opacity:0;clip-path:url(#SVGID_00000065070580859254295750000005593740904590955648_);fill:none;stroke:#000000;stroke-width:1.000000e-06;stroke-miterlimit:10;" d="
		M266.31,122.9L266.31,122.9z"/>
	<path style="clip-path:url(#SVGID_00000065070580859254295750000005593740904590955648_);" d="M267.77,120.31l-2.19,4.31
		c-0.02,0.03-0.06,0.07-0.1,0.07s-0.07-0.08-0.09-0.11c-0.66-1.41-1.41-3-1.84-4.27h-1.4l-0.06,0.05l-0.02,0.17l0.54,0.15
		c0.14,0.04,0.22,0.17,0.22,0.31c0,0.03,0,0.06-0.01,0.1c-0.21,1.57-0.49,3.14-0.79,4.7l0.05,0.02l0.6-0.21
		c0.05-0.72,0.33-4.17,0.49-4.17c0.03,0,0.06,0.04,0.09,0.08c0.5,1.02,1.25,2.84,1.84,4.27h0.24l2.27-4.4
		c0.02-0.04,0.06-0.06,0.09-0.06c0.04,0,0.06,0.05,0.06,0.12c0.02,0.53,0.08,2.48,0.08,2.68v1.45c0,0.21,0.26,0.28,0.5,0.28
		c0.32,0,0.73-0.14,1.08-0.27v-0.19c-0.14,0.02-0.34,0.05-0.45,0.05c-0.26,0-0.44-0.21-0.46-0.45c-0.13-1.3-0.14-2.52-0.14-3.82
		c0-0.35-0.02-0.64,0.2-0.75v-0.1H267.77"/>
</g>
<polygon class="st26" points="22.75,110.37 22.75,110.37 22.75,110.37 22.75,110.37 22.75,110.37 22.75,110.37 22.75,110.37 
	22.75,110.37 22.75,110.37 22.75,110.37 22.75,110.37 22.75,110.37 22.75,110.37 22.75,110.37 22.75,110.37 22.75,110.37 
	22.75,110.37 22.75,110.37 22.75,110.37 22.75,110.37 22.75,110.37 22.75,110.37 22.75,110.37 22.75,110.37 22.75,110.37 
	22.75,110.37 22.75,110.37 22.75,110.37 22.75,110.37 22.75,110.37 22.75,110.37 22.75,110.37 22.75,110.37 22.75,110.37 
	22.75,110.37 22.75,110.37 22.75,110.37 22.75,110.37 22.75,110.37 22.75,110.37 22.75,110.37 22.75,110.37 22.75,110.37 
	22.75,110.37 22.75,110.37 22.75,110.37 22.75,110.37 22.75,110.37 22.75,110.37 22.75,110.37 22.75,110.37 22.75,110.37 
	22.75,110.37 22.75,110.37 22.75,110.37 22.75,110.37 22.75,110.37 22.75,110.37 22.75,110.37 22.75,110.37 22.75,110.37 
	22.75,110.37 22.75,110.37 22.75,110.37 22.75,110.37 22.75,110.37 22.75,110.37 22.75,110.37 22.75,110.37 22.75,110.37 
	22.75,110.37 22.75,110.37 22.75,110.37 22.75,110.37 22.75,110.37 22.75,110.37 22.75,110.37 22.75,110.37 22.75,110.37 
	22.75,110.37 22.75,110.37 22.75,110.37 22.75,110.37 22.75,110.37 22.75,110.37 22.75,110.37 22.75,110.37 22.75,110.37 
	22.75,110.37 22.75,110.37 22.75,110.37 22.75,110.37 22.75,110.37 22.75,110.37 22.75,110.37 22.75,110.37 22.75,110.37 
	22.75,110.37 22.75,110.37 22.75,110.37 22.75,110.37 22.75,110.37 22.75,110.37 22.75,110.37 22.75,110.37 22.75,110.37 
	22.75,110.37 22.75,110.37 22.75,110.37 22.75,110.37 22.75,110.37 22.75,110.37 22.75,110.37 22.75,110.37 22.75,110.37 
	22.75,110.37 22.75,110.37 22.75,110.37 22.75,110.37 22.75,110.37 22.75,110.37 22.75,110.37 22.75,110.37 22.75,110.37 
	22.75,110.37 22.75,110.37 "/>
<g>
	<defs>
		<rect id="SVGID_00000136384438214422628850000002176028008684209537_" x="20.22" y="108.23" width="5.6" height="6"/>
	</defs>
	<clipPath id="SVGID_00000130630124851854286840000004139008904177211839_">
		<use xlink:href="#SVGID_00000136384438214422628850000002176028008684209537_"  style="overflow:visible;"/>
	</clipPath>
	
		<path style="opacity:0;clip-path:url(#SVGID_00000130630124851854286840000004139008904177211839_);fill:none;stroke:#000000;stroke-width:1.000000e-06;stroke-miterlimit:10;" d="
		M23.02,110.63L23.02,110.63z"/>
	<path style="clip-path:url(#SVGID_00000130630124851854286840000004139008904177211839_);" d="M25.11,109.73l0.45-0.46
		c-0.41-0.68-1.02-0.9-1.72-0.9c-0.83,0-1.63,0.29-2.21,0.87c-0.56,0.56-0.72,1.34-0.72,2.1c0,0.78,0.21,1.57,0.76,2.12
		c0.45,0.45,1.1,0.59,1.73,0.59c0.69,0,1.33-0.33,1.9-0.72l-0.13-0.23c-0.45,0.3-0.95,0.53-1.49,0.53c-0.65,0-0.99-0.22-1.42-0.66
		c-0.26-0.26-0.64-1.04-0.64-1.77c0-1.21,0.51-2.5,1.95-2.5c0.65,0,1.15,0.31,1.42,1.03L25.11,109.73"/>
</g>
</svg>
