<?xml version="1.0" encoding="UTF-8"?>
<svg xmlns="http://www.w3.org/2000/svg" xmlns:xlink="http://www.w3.org/1999/xlink" width="360pt" height="255.6pt" viewBox="0 0 360 255.6" version="1.1">
<defs>
<clipPath id="clip1">
  <path d="M 33 3.597656 L 46 3.597656 L 46 33 L 33 33 Z M 33 3.597656 "/>
</clipPath>
<clipPath id="clip2">
  <path d="M 22 31 L 35 31 L 35 61.199219 L 22 61.199219 Z M 22 31 "/>
</clipPath>
<clipPath id="clip3">
  <path d="M 92.878906 31 L 148 31 L 148 54 L 92.878906 54 Z M 92.878906 31 "/>
</clipPath>
<clipPath id="clip4">
  <path d="M 236 3.597656 L 244 3.597656 L 244 33 L 236 33 Z M 236 3.597656 "/>
</clipPath>
<clipPath id="clip5">
  <path d="M 228 31 L 244 31 L 244 61.199219 L 228 61.199219 Z M 228 31 "/>
</clipPath>
<clipPath id="clip6">
  <path d="M 327 3.597656 L 357.84375 3.597656 L 357.84375 33 L 327 33 Z M 327 3.597656 "/>
</clipPath>
<clipPath id="clip7">
  <path d="M 322 31 L 357.84375 31 L 357.84375 61.199219 L 322 61.199219 Z M 322 31 "/>
</clipPath>
<clipPath id="clip8">
  <path d="M 278.640625 3.597656 L 315 3.597656 L 315 33 L 278.640625 33 Z M 278.640625 3.597656 "/>
</clipPath>
<clipPath id="clip9">
  <path d="M 278.640625 31 L 309 31 L 309 61.199219 L 278.640625 61.199219 Z M 278.640625 31 "/>
</clipPath>
<clipPath id="clip10">
  <path d="M 22 67.679688 L 24 67.679688 L 24 86 L 22 86 Z M 22 67.679688 "/>
</clipPath>
<clipPath id="clip11">
  <path d="M 22 107 L 24 107 L 24 125.28125 L 22 125.28125 Z M 22 107 "/>
</clipPath>
<clipPath id="clip12">
  <path d="M 92.878906 95 L 133 95 L 133 97 L 92.878906 97 Z M 92.878906 95 "/>
</clipPath>
<clipPath id="clip13">
  <path d="M 112 67.679688 L 172.082031 67.679688 L 172.082031 86 L 112 86 Z M 112 67.679688 "/>
</clipPath>
<clipPath id="clip14">
  <path d="M 112 107 L 172.082031 107 L 172.082031 125.28125 L 112 125.28125 Z M 112 107 "/>
</clipPath>
<clipPath id="clip15">
  <path d="M 214 67.679688 L 236 67.679688 L 236 92 L 214 92 Z M 214 67.679688 "/>
</clipPath>
<clipPath id="clip16">
  <path d="M 214 101 L 236 101 L 236 125.28125 L 214 125.28125 Z M 214 101 "/>
</clipPath>
<clipPath id="clip17">
  <path d="M 278.640625 95 L 337 95 L 337 120 L 278.640625 120 Z M 278.640625 95 "/>
</clipPath>
<clipPath id="clip18">
  <path d="M 19 131.761719 L 41 131.761719 L 41 162 L 19 162 Z M 19 131.761719 "/>
</clipPath>
<clipPath id="clip19">
  <path d="M 39 160 L 60 160 L 60 189.363281 L 39 189.363281 Z M 39 160 "/>
</clipPath>
<clipPath id="clip20">
  <path d="M 131 131.761719 L 157 131.761719 L 157 162 L 131 162 Z M 131 131.761719 "/>
</clipPath>
<clipPath id="clip21">
  <path d="M 149 160 L 165 160 L 165 189.363281 L 149 189.363281 Z M 149 160 "/>
</clipPath>
<clipPath id="clip22">
  <path d="M 224 131.761719 L 241 131.761719 L 241 162 L 224 162 Z M 224 131.761719 "/>
</clipPath>
<clipPath id="clip23">
  <path d="M 232 160 L 258 160 L 258 189.363281 L 232 189.363281 Z M 232 160 "/>
</clipPath>
<clipPath id="clip24">
  <path d="M 278.640625 160 L 293 160 L 293 162 L 278.640625 162 Z M 278.640625 160 "/>
</clipPath>
<clipPath id="clip25">
  <path d="M 192 195.839844 L 216 195.839844 L 216 218 L 192 218 Z M 192 195.839844 "/>
</clipPath>
<clipPath id="clip26">
  <path d="M 192 231 L 216 231 L 216 253.441406 L 192 253.441406 Z M 192 231 "/>
</clipPath>
<clipPath id="clip27">
  <path d="M 278.640625 224 L 290 224 L 290 237 L 278.640625 237 Z M 278.640625 224 "/>
</clipPath>
</defs>
<g id="surface1">
<path style="fill:none;stroke-width:0.49814;stroke-linecap:butt;stroke-linejoin:miter;stroke:rgb(13.729858%,12.159729%,12.548828%);stroke-opacity:1;stroke-miterlimit:10;" d="M 0 28.801562 L 77.0625 28.801562 " transform="matrix(1,0,0,-1,0,61.2)"/>
<path style=" stroke:none;fill-rule:nonzero;fill:rgb(13.729858%,12.159729%,12.548828%);fill-opacity:1;" d="M 79.203125 32.398438 L 75.777344 30.6875 L 77.0625 32.398438 L 75.777344 34.113281 "/>
<path style="fill:none;stroke-width:0.49814;stroke-linecap:butt;stroke-linejoin:miter;stroke:rgb(13.729858%,12.159729%,12.548828%);stroke-opacity:1;stroke-miterlimit:10;" d="M 67.890625 0.00078125 L 67.890625 55.457812 " transform="matrix(1,0,0,-1,0,61.2)"/>
<path style=" stroke:none;fill-rule:nonzero;fill:rgb(13.729858%,12.159729%,12.548828%);fill-opacity:1;" d="M 67.890625 3.597656 L 66.175781 7.027344 L 67.890625 5.742188 L 69.601562 7.027344 "/>
<path style="fill:none;stroke-width:0.49814;stroke-linecap:butt;stroke-linejoin:miter;stroke:rgb(13.729858%,12.159729%,12.548828%);stroke-opacity:1;stroke-miterlimit:10;" d="M 92.878906 28.801562 L 169.9375 28.801562 " transform="matrix(1,0,0,-1,0,61.2)"/>
<path style=" stroke:none;fill-rule:nonzero;fill:rgb(13.729858%,12.159729%,12.548828%);fill-opacity:1;" d="M 172.082031 32.398438 L 168.652344 30.683594 L 169.9375 32.398438 L 168.652344 34.113281 "/>
<path style="fill:none;stroke-width:0.49814;stroke-linecap:butt;stroke-linejoin:miter;stroke:rgb(13.729858%,12.159729%,12.548828%);stroke-opacity:1;stroke-miterlimit:10;" d="M 165.988281 0.00078125 L 165.988281 55.461719 " transform="matrix(1,0,0,-1,0,61.2)"/>
<path style=" stroke:none;fill-rule:nonzero;fill:rgb(13.729858%,12.159729%,12.548828%);fill-opacity:1;" d="M 165.988281 3.597656 L 164.273438 7.023438 L 165.988281 5.738281 L 167.703125 7.023438 "/>
<path style="fill:none;stroke-width:0.49814;stroke-linecap:butt;stroke-linejoin:miter;stroke:rgb(13.729858%,12.159729%,12.548828%);stroke-opacity:1;stroke-miterlimit:10;" d="M 185.761719 28.801562 L 262.824219 28.801562 " transform="matrix(1,0,0,-1,0,61.2)"/>
<path style=" stroke:none;fill-rule:nonzero;fill:rgb(13.729858%,12.159729%,12.548828%);fill-opacity:1;" d="M 264.964844 32.398438 L 261.539062 30.6875 L 262.824219 32.398438 L 261.539062 34.113281 "/>
<path style="fill:none;stroke-width:0.49814;stroke-linecap:butt;stroke-linejoin:miter;stroke:rgb(13.729858%,12.159729%,12.548828%);stroke-opacity:1;stroke-miterlimit:10;" d="M 257.765625 0.00078125 L 257.765625 55.457812 " transform="matrix(1,0,0,-1,0,61.2)"/>
<path style=" stroke:none;fill-rule:nonzero;fill:rgb(13.729858%,12.159729%,12.548828%);fill-opacity:1;" d="M 257.765625 3.597656 L 256.050781 7.027344 L 257.765625 5.742188 L 259.480469 7.027344 "/>
<path style="fill:none;stroke-width:0.49814;stroke-linecap:butt;stroke-linejoin:miter;stroke:rgb(13.729858%,12.159729%,12.548828%);stroke-opacity:1;stroke-miterlimit:10;" d="M 278.640625 28.801562 L 355.699219 28.801562 " transform="matrix(1,0,0,-1,0,61.2)"/>
<path style=" stroke:none;fill-rule:nonzero;fill:rgb(13.729858%,12.159729%,12.548828%);fill-opacity:1;" d="M 357.84375 32.398438 L 354.414062 30.6875 L 355.699219 32.398438 L 354.414062 34.113281 "/>
<path style="fill:none;stroke-width:0.49814;stroke-linecap:butt;stroke-linejoin:miter;stroke:rgb(13.729858%,12.159729%,12.548828%);stroke-opacity:1;stroke-miterlimit:10;" d="M 340.242188 0.00078125 L 340.242188 55.457812 " transform="matrix(1,0,0,-1,0,61.2)"/>
<path style=" stroke:none;fill-rule:nonzero;fill:rgb(13.729858%,12.159729%,12.548828%);fill-opacity:1;" d="M 340.242188 3.597656 L 338.53125 7.027344 L 340.242188 5.742188 L 341.957031 7.027344 "/>
<path style="fill:none;stroke-width:0.49814;stroke-linecap:butt;stroke-linejoin:miter;stroke:rgb(13.729858%,12.159729%,12.548828%);stroke-opacity:1;stroke-miterlimit:10;" d="M 0 -35.280469 L 77.0625 -35.280469 " transform="matrix(1,0,0,-1,0,61.2)"/>
<path style=" stroke:none;fill-rule:nonzero;fill:rgb(13.729858%,12.159729%,12.548828%);fill-opacity:1;" d="M 79.203125 96.480469 L 75.777344 94.765625 L 77.0625 96.480469 L 75.777344 98.195312 "/>
<path style="fill:none;stroke-width:0.49814;stroke-linecap:butt;stroke-linejoin:miter;stroke:rgb(13.729858%,12.159729%,12.548828%);stroke-opacity:1;stroke-miterlimit:10;" d="M 67.890625 -64.08125 L 67.890625 -8.620313 " transform="matrix(1,0,0,-1,0,61.2)"/>
<path style=" stroke:none;fill-rule:nonzero;fill:rgb(13.729858%,12.159729%,12.548828%);fill-opacity:1;" d="M 67.890625 67.679688 L 66.175781 71.105469 L 67.890625 69.820312 L 69.601562 71.105469 "/>
<path style="fill:none;stroke-width:0.49814;stroke-linecap:butt;stroke-linejoin:miter;stroke:rgb(13.729858%,12.159729%,12.548828%);stroke-opacity:1;stroke-miterlimit:10;" d="M 92.878906 -35.280469 L 169.941406 -35.280469 " transform="matrix(1,0,0,-1,0,61.2)"/>
<path style=" stroke:none;fill-rule:nonzero;fill:rgb(13.729858%,12.159729%,12.548828%);fill-opacity:1;" d="M 172.082031 96.480469 L 168.65625 94.765625 L 169.941406 96.480469 L 168.65625 98.195312 "/>
<path style="fill:none;stroke-width:0.49814;stroke-linecap:butt;stroke-linejoin:miter;stroke:rgb(13.729858%,12.159729%,12.548828%);stroke-opacity:1;stroke-miterlimit:10;" d="M 152.28125 -64.08125 L 152.28125 -8.620313 " transform="matrix(1,0,0,-1,0,61.2)"/>
<path style=" stroke:none;fill-rule:nonzero;fill:rgb(13.729858%,12.159729%,12.548828%);fill-opacity:1;" d="M 152.28125 67.679688 L 150.566406 71.105469 L 152.28125 69.820312 L 153.996094 71.105469 "/>
<path style="fill:none;stroke-width:0.49814;stroke-linecap:butt;stroke-linejoin:miter;stroke:rgb(13.729858%,12.159729%,12.548828%);stroke-opacity:1;stroke-miterlimit:10;" d="M 185.761719 -35.280469 L 262.820312 -35.280469 " transform="matrix(1,0,0,-1,0,61.2)"/>
<path style=" stroke:none;fill-rule:nonzero;fill:rgb(13.729858%,12.159729%,12.548828%);fill-opacity:1;" d="M 264.964844 96.480469 L 261.535156 94.765625 L 262.820312 96.480469 L 261.535156 98.195312 "/>
<path style="fill:none;stroke-width:0.49814;stroke-linecap:butt;stroke-linejoin:miter;stroke:rgb(13.729858%,12.159729%,12.548828%);stroke-opacity:1;stroke-miterlimit:10;" d="M 255.0625 -64.08125 L 255.0625 -8.620313 " transform="matrix(1,0,0,-1,0,61.2)"/>
<path style=" stroke:none;fill-rule:nonzero;fill:rgb(13.729858%,12.159729%,12.548828%);fill-opacity:1;" d="M 255.0625 67.679688 L 253.351562 71.105469 L 255.0625 69.820312 L 256.777344 71.105469 "/>
<path style="fill:none;stroke-width:0.49814;stroke-linecap:butt;stroke-linejoin:miter;stroke:rgb(13.729858%,12.159729%,12.548828%);stroke-opacity:1;stroke-miterlimit:10;" d="M 278.640625 -35.280469 L 355.703125 -35.280469 " transform="matrix(1,0,0,-1,0,61.2)"/>
<path style=" stroke:none;fill-rule:nonzero;fill:rgb(13.729858%,12.159729%,12.548828%);fill-opacity:1;" d="M 357.84375 96.480469 L 354.417969 94.765625 L 355.703125 96.480469 L 354.417969 98.195312 "/>
<path style="fill:none;stroke-width:0.49814;stroke-linecap:butt;stroke-linejoin:miter;stroke:rgb(13.729858%,12.159729%,12.548828%);stroke-opacity:1;stroke-miterlimit:10;" d="M 350.644531 -64.08125 L 350.644531 -8.624219 " transform="matrix(1,0,0,-1,0,61.2)"/>
<path style=" stroke:none;fill-rule:nonzero;fill:rgb(13.729858%,12.159729%,12.548828%);fill-opacity:1;" d="M 350.644531 67.679688 L 348.929688 71.109375 L 350.644531 69.824219 L 352.355469 71.109375 "/>
<path style="fill:none;stroke-width:0.49814;stroke-linecap:butt;stroke-linejoin:miter;stroke:rgb(13.729858%,12.159729%,12.548828%);stroke-opacity:1;stroke-miterlimit:10;" d="M 0 -99.3625 L 77.058594 -99.3625 " transform="matrix(1,0,0,-1,0,61.2)"/>
<path style=" stroke:none;fill-rule:nonzero;fill:rgb(13.729858%,12.159729%,12.548828%);fill-opacity:1;" d="M 79.203125 160.5625 L 75.773438 158.847656 L 77.058594 160.5625 L 75.773438 162.273438 "/>
<path style="fill:none;stroke-width:0.49814;stroke-linecap:butt;stroke-linejoin:miter;stroke:rgb(13.729858%,12.159729%,12.548828%);stroke-opacity:1;stroke-miterlimit:10;" d="M 39.601562 -128.163281 L 39.601562 -72.702344 " transform="matrix(1,0,0,-1,0,61.2)"/>
<path style=" stroke:none;fill-rule:nonzero;fill:rgb(13.729858%,12.159729%,12.548828%);fill-opacity:1;" d="M 39.601562 131.761719 L 37.886719 135.1875 L 39.601562 133.902344 L 41.316406 135.1875 "/>
<path style="fill:none;stroke-width:0.49814;stroke-linecap:butt;stroke-linejoin:miter;stroke:rgb(13.729858%,12.159729%,12.548828%);stroke-opacity:1;stroke-miterlimit:10;" d="M 92.878906 -99.3625 L 169.941406 -99.3625 " transform="matrix(1,0,0,-1,0,61.2)"/>
<path style=" stroke:none;fill-rule:nonzero;fill:rgb(13.729858%,12.159729%,12.548828%);fill-opacity:1;" d="M 172.082031 160.5625 L 168.65625 158.847656 L 169.941406 160.5625 L 168.65625 162.273438 "/>
<path style="fill:none;stroke-width:0.49814;stroke-linecap:butt;stroke-linejoin:miter;stroke:rgb(13.729858%,12.159729%,12.548828%);stroke-opacity:1;stroke-miterlimit:10;" d="M 148.324219 -128.163281 L 148.324219 -72.702344 " transform="matrix(1,0,0,-1,0,61.2)"/>
<path style=" stroke:none;fill-rule:nonzero;fill:rgb(13.729858%,12.159729%,12.548828%);fill-opacity:1;" d="M 148.324219 131.761719 L 146.609375 135.1875 L 148.324219 133.902344 L 150.035156 135.1875 "/>
<path style="fill:none;stroke-width:0.49814;stroke-linecap:butt;stroke-linejoin:miter;stroke:rgb(13.729858%,12.159729%,12.548828%);stroke-opacity:1;stroke-miterlimit:10;" d="M 185.761719 -99.3625 L 262.820312 -99.3625 " transform="matrix(1,0,0,-1,0,61.2)"/>
<path style=" stroke:none;fill-rule:nonzero;fill:rgb(13.729858%,12.159729%,12.548828%);fill-opacity:1;" d="M 264.964844 160.5625 L 261.535156 158.847656 L 262.820312 160.5625 L 261.535156 162.273438 "/>
<path style="fill:none;stroke-width:0.49814;stroke-linecap:butt;stroke-linejoin:miter;stroke:rgb(13.729858%,12.159729%,12.548828%);stroke-opacity:1;stroke-miterlimit:10;" d="M 241.203125 -128.163281 L 241.203125 -72.702344 " transform="matrix(1,0,0,-1,0,61.2)"/>
<path style=" stroke:none;fill-rule:nonzero;fill:rgb(13.729858%,12.159729%,12.548828%);fill-opacity:1;" d="M 241.203125 131.761719 L 239.488281 135.1875 L 241.203125 133.902344 L 242.917969 135.1875 "/>
<path style="fill:none;stroke-width:0.49814;stroke-linecap:butt;stroke-linejoin:miter;stroke:rgb(13.729858%,12.159729%,12.548828%);stroke-opacity:1;stroke-miterlimit:10;" d="M 278.640625 -99.3625 L 355.699219 -99.3625 " transform="matrix(1,0,0,-1,0,61.2)"/>
<path style=" stroke:none;fill-rule:nonzero;fill:rgb(13.729858%,12.159729%,12.548828%);fill-opacity:1;" d="M 357.84375 160.5625 L 354.414062 158.847656 L 355.699219 160.5625 L 354.414062 162.273438 "/>
<path style="fill:none;stroke-width:0.49814;stroke-linecap:butt;stroke-linejoin:miter;stroke:rgb(13.729858%,12.159729%,12.548828%);stroke-opacity:1;stroke-miterlimit:10;" d="M 318.242188 -128.163281 L 318.242188 -72.702344 " transform="matrix(1,0,0,-1,0,61.2)"/>
<path style=" stroke:none;fill-rule:nonzero;fill:rgb(13.729858%,12.159729%,12.548828%);fill-opacity:1;" d="M 318.242188 131.761719 L 316.527344 135.1875 L 318.242188 133.902344 L 319.957031 135.1875 "/>
<path style="fill:none;stroke-width:0.49814;stroke-linecap:butt;stroke-linejoin:miter;stroke:rgb(13.729858%,12.159729%,12.548828%);stroke-opacity:1;stroke-miterlimit:10;" d="M 0 -163.440625 L 77.058594 -163.440625 " transform="matrix(1,0,0,-1,0,61.2)"/>
<path style=" stroke:none;fill-rule:nonzero;fill:rgb(13.729858%,12.159729%,12.548828%);fill-opacity:1;" d="M 79.199219 224.640625 L 75.773438 222.929688 L 77.058594 224.640625 L 75.773438 226.355469 "/>
<path style="fill:none;stroke-width:0.49814;stroke-linecap:butt;stroke-linejoin:miter;stroke:rgb(13.729858%,12.159729%,12.548828%);stroke-opacity:1;stroke-miterlimit:10;" d="M 66 -192.241406 L 66 -136.784375 " transform="matrix(1,0,0,-1,0,61.2)"/>
<path style=" stroke:none;fill-rule:nonzero;fill:rgb(13.729858%,12.159729%,12.548828%);fill-opacity:1;" d="M 66 195.84375 L 64.285156 199.269531 L 66 197.984375 L 67.714844 199.269531 "/>
<path style="fill:none;stroke-width:0.49814;stroke-linecap:butt;stroke-linejoin:miter;stroke:rgb(13.729858%,12.159729%,12.548828%);stroke-opacity:1;stroke-miterlimit:10;" d="M 92.878906 -163.440625 L 169.9375 -163.440625 " transform="matrix(1,0,0,-1,0,61.2)"/>
<path style=" stroke:none;fill-rule:nonzero;fill:rgb(13.729858%,12.159729%,12.548828%);fill-opacity:1;" d="M 172.078125 224.640625 L 168.652344 222.929688 L 169.9375 224.640625 L 168.652344 226.355469 "/>
<path style="fill:none;stroke-width:0.49814;stroke-linecap:butt;stroke-linejoin:miter;stroke:rgb(13.729858%,12.159729%,12.548828%);stroke-opacity:1;stroke-miterlimit:10;" d="M 158.878906 -192.241406 L 158.878906 -136.784375 " transform="matrix(1,0,0,-1,0,61.2)"/>
<path style=" stroke:none;fill-rule:nonzero;fill:rgb(13.729858%,12.159729%,12.548828%);fill-opacity:1;" d="M 158.878906 195.84375 L 157.167969 199.269531 L 158.878906 197.984375 L 160.59375 199.269531 "/>
<path style="fill:none;stroke-width:0.49814;stroke-linecap:butt;stroke-linejoin:miter;stroke:rgb(13.729858%,12.159729%,12.548828%);stroke-opacity:1;stroke-miterlimit:10;" d="M 185.761719 -163.440625 L 262.820312 -163.440625 " transform="matrix(1,0,0,-1,0,61.2)"/>
<path style=" stroke:none;fill-rule:nonzero;fill:rgb(13.729858%,12.159729%,12.548828%);fill-opacity:1;" d="M 264.964844 224.640625 L 261.535156 222.929688 L 262.820312 224.640625 L 261.535156 226.355469 "/>
<path style="fill:none;stroke-width:0.49814;stroke-linecap:butt;stroke-linejoin:miter;stroke:rgb(13.729858%,12.159729%,12.548828%);stroke-opacity:1;stroke-miterlimit:10;" d="M 255.0625 -192.241406 L 255.0625 -136.784375 " transform="matrix(1,0,0,-1,0,61.2)"/>
<path style=" stroke:none;fill-rule:nonzero;fill:rgb(13.729858%,12.159729%,12.548828%);fill-opacity:1;" d="M 255.0625 195.839844 L 253.351562 199.269531 L 255.0625 197.984375 L 256.777344 199.269531 "/>
<path style="fill:none;stroke-width:0.49814;stroke-linecap:butt;stroke-linejoin:miter;stroke:rgb(13.729858%,12.159729%,12.548828%);stroke-opacity:1;stroke-miterlimit:10;" d="M 278.640625 -163.440625 L 355.703125 -163.440625 " transform="matrix(1,0,0,-1,0,61.2)"/>
<path style=" stroke:none;fill-rule:nonzero;fill:rgb(13.729858%,12.159729%,12.548828%);fill-opacity:1;" d="M 357.84375 224.640625 L 354.417969 222.929688 L 355.703125 224.640625 L 354.417969 226.355469 "/>
<path style="fill:none;stroke-width:0.49814;stroke-linecap:butt;stroke-linejoin:miter;stroke:rgb(13.729858%,12.159729%,12.548828%);stroke-opacity:1;stroke-miterlimit:10;" d="M 347.941406 -192.241406 L 347.941406 -136.784375 " transform="matrix(1,0,0,-1,0,61.2)"/>
<path style=" stroke:none;fill-rule:nonzero;fill:rgb(13.729858%,12.159729%,12.548828%);fill-opacity:1;" d="M 347.941406 195.84375 L 346.230469 199.269531 L 347.941406 197.984375 L 349.65625 199.269531 "/>
<g clip-path="url(#clip1)" clip-rule="nonzero">
<path style="fill:none;stroke-width:0.99628;stroke-linecap:round;stroke-linejoin:round;stroke:rgb(7.849121%,60.745239%,87.768555%);stroke-opacity:1;stroke-miterlimit:10;" d="M 45.257812 28.801562 L 33.945312 28.801562 L 33.945312 738.946094 " transform="matrix(1,0,0,-1,0,61.2)"/>
</g>
<path style="fill:none;stroke-width:0.99628;stroke-linecap:round;stroke-linejoin:round;stroke:rgb(7.849121%,60.745239%,87.768555%);stroke-opacity:1;stroke-miterlimit:10;" d="M 43.515625 27.055469 L 47.003906 30.54375 M 47.003906 27.055469 L 43.515625 30.54375 " transform="matrix(1,0,0,-1,0,61.2)"/>
<g clip-path="url(#clip2)" clip-rule="nonzero">
<path style="fill:none;stroke-width:0.99628;stroke-linecap:round;stroke-linejoin:round;stroke:rgb(95.326233%,39.237976%,12.364197%);stroke-opacity:1;stroke-miterlimit:10;" d="M 22.628906 28.801562 L 33.945312 28.801562 L 33.945312 -681.346875 " transform="matrix(1,0,0,-1,0,61.2)"/>
</g>
<path style="fill:none;stroke-width:0.99628;stroke-linecap:round;stroke-linejoin:round;stroke:rgb(95.326233%,39.237976%,12.364197%);stroke-opacity:1;stroke-miterlimit:10;" d="M 20.886719 27.055469 L 24.375 30.54375 M 24.375 27.055469 L 20.886719 30.54375 " transform="matrix(1,0,0,-1,0,61.2)"/>
<path style="fill:none;stroke-width:0.99628;stroke-linecap:round;stroke-linejoin:round;stroke:rgb(7.849121%,60.745239%,87.768555%);stroke-opacity:1;stroke-miterlimit:10;" d="M 153.804688 28.801562 L 146.667969 28.801562 L 146.664062 29.024219 L 146.636719 29.973437 L 146.511719 31.516406 L 146.371094 32.54375 L 146.214844 33.422656 L 146.042969 34.23125 L 145.847656 35.004687 L 145.628906 35.758594 L 145.386719 36.500781 L 145.117188 37.242969 L 144.8125 37.989062 L 144.476562 38.739062 L 144.097656 39.496875 L 143.675781 40.266406 L 143.207031 41.04375 L 142.679688 41.828906 L 142.09375 42.617969 L 141.4375 43.410937 L 140.707031 44.203906 L 139.890625 44.989062 L 138.980469 45.758594 L 137.960938 46.500781 L 136.824219 47.2 L 135.554688 47.840625 L 134.136719 48.395312 L 132.550781 48.832812 L 130.785156 49.10625 L 128.808594 49.153125 L 126.605469 48.891406 L 124.144531 48.184375 L 121.394531 46.817187 L 119.863281 45.735156 L 118.328125 44.371875 L 116.613281 42.410937 L 114.902344 39.742969 L 113.570312 36.750781 L 112.902344 34.551562 L 112.238281 30.110156 L 112.203125 28.801562 L 129.433594 28.801562 " transform="matrix(1,0,0,-1,0,61.2)"/>
<path style="fill:none;stroke-width:0.99628;stroke-linecap:round;stroke-linejoin:round;stroke:rgb(7.849121%,60.745239%,87.768555%);stroke-opacity:1;stroke-miterlimit:10;" d="M 131.902344 28.801562 C 131.902344 30.164844 130.796875 31.266406 129.433594 31.266406 C 128.074219 31.266406 126.96875 30.164844 126.96875 28.801562 C 126.96875 27.438281 128.074219 26.336719 129.433594 26.336719 C 130.796875 26.336719 131.902344 27.438281 131.902344 28.801562 Z M 131.902344 28.801562 " transform="matrix(1,0,0,-1,0,61.2)"/>
<path style="fill:none;stroke-width:0.99628;stroke-linecap:round;stroke-linejoin:round;stroke:rgb(7.849121%,60.745239%,87.768555%);stroke-opacity:1;stroke-miterlimit:10;" d="M 152.058594 27.059375 L 155.546875 30.54375 M 155.546875 27.059375 L 152.058594 30.54375 " transform="matrix(1,0,0,-1,0,61.2)"/>
<g clip-path="url(#clip3)" clip-rule="nonzero">
<path style="fill:none;stroke-width:0.99628;stroke-linecap:round;stroke-linejoin:round;stroke:rgb(95.326233%,39.237976%,12.364197%);stroke-opacity:1;stroke-miterlimit:10;" d="M 141.621094 28.801562 L 146.667969 28.801562 L 146.664062 28.578906 L 146.636719 27.629687 L 146.511719 26.086719 L 146.371094 25.059375 L 146.214844 24.180469 L 146.042969 23.371875 L 145.847656 22.598437 L 145.628906 21.844531 L 145.386719 21.102344 L 145.117188 20.360156 L 144.8125 19.614062 L 144.476562 18.864062 L 144.097656 18.10625 L 143.675781 17.336719 L 143.207031 16.559375 L 142.679688 15.774219 L 142.09375 14.985156 L 141.4375 14.192187 L 140.707031 13.399219 L 139.890625 12.614062 L 138.980469 11.844531 L 137.960938 11.102344 L 136.824219 10.403125 L 135.554688 9.7625 L 134.136719 9.207812 L 132.550781 8.770312 L 130.785156 8.496875 L 128.808594 8.45 L 126.605469 8.711719 L 124.144531 9.41875 L 121.394531 10.785937 L 119.863281 11.867969 L 118.328125 13.23125 L 116.613281 15.192187 L 114.902344 17.860156 L 113.570312 20.852344 L 112.902344 23.051562 L 112.238281 27.492969 L 112.203125 28.801562 L -2616.710938 28.801562 " transform="matrix(1,0,0,-1,0,61.2)"/>
</g>
<path style="fill:none;stroke-width:0.99628;stroke-linecap:round;stroke-linejoin:round;stroke:rgb(95.326233%,39.237976%,12.364197%);stroke-opacity:1;stroke-miterlimit:10;" d="M 139.875 27.059375 L 143.363281 30.54375 M 143.363281 27.059375 L 139.875 30.54375 " transform="matrix(1,0,0,-1,0,61.2)"/>
<g clip-path="url(#clip4)" clip-rule="nonzero">
<path style="fill:none;stroke-width:0.99628;stroke-linecap:round;stroke-linejoin:round;stroke:rgb(7.849121%,60.745239%,87.768555%);stroke-opacity:1;stroke-miterlimit:10;" d="M 243.363281 28.801562 L 236.625 28.801562 L 236.625 28.891406 L 236.65625 29.547656 L 236.722656 30.2 L 236.800781 30.692187 L 236.882812 31.129687 L 236.976562 31.551562 L 237.078125 31.965625 L 237.191406 32.383594 L 237.3125 32.805469 L 237.445312 33.242969 L 237.585938 33.696094 L 237.738281 34.16875 L 237.898438 34.664844 L 238.066406 35.184375 L 238.246094 35.73125 L 238.433594 36.305469 L 238.628906 36.91875 L 238.828125 37.567187 L 239.035156 38.254687 L 239.25 38.989062 L 239.464844 39.770312 L 239.683594 40.60625 L 239.902344 41.500781 L 240.121094 42.453906 L 240.339844 43.48125 L 240.554688 44.582812 L 240.765625 45.766406 L 240.972656 47.035937 L 241.171875 48.407031 L 241.363281 49.883594 L 241.546875 51.473437 L 241.71875 53.192187 L 241.882812 55.04375 L 242.035156 57.04375 L 242.175781 59.207812 L 242.308594 61.54375 L 242.429688 64.071094 L 242.535156 66.805469 L 242.636719 69.758594 L 242.722656 72.95 L 242.804688 76.407031 L 242.875 80.141406 L 242.9375 84.180469 L 242.992188 88.547656 L 243.042969 93.266406 L 243.085938 98.371875 L 243.363281 1425.211719 " transform="matrix(1,0,0,-1,0,61.2)"/>
</g>
<path style="fill:none;stroke-width:0.99628;stroke-linecap:round;stroke-linejoin:round;stroke:rgb(7.849121%,60.745239%,87.768555%);stroke-opacity:1;stroke-miterlimit:10;" d="M 241.621094 27.055469 L 245.109375 30.54375 M 245.109375 27.055469 L 241.621094 30.54375 " transform="matrix(1,0,0,-1,0,61.2)"/>
<g clip-path="url(#clip5)" clip-rule="nonzero">
<path style="fill:none;stroke-width:0.99628;stroke-linecap:round;stroke-linejoin:round;stroke:rgb(95.326233%,39.237976%,12.364197%);stroke-opacity:1;stroke-miterlimit:10;" d="M 228.964844 28.801562 L 236.625 28.801562 L 236.625 28.711719 L 236.65625 28.051562 L 236.722656 27.399219 L 236.800781 26.910937 L 236.882812 26.469531 L 236.976562 26.051562 L 237.078125 25.6375 L 237.191406 25.219531 L 237.3125 24.79375 L 237.445312 24.35625 L 237.585938 23.903125 L 237.738281 23.430469 L 237.898438 22.938281 L 238.066406 22.41875 L 238.246094 21.871875 L 238.433594 21.29375 L 238.628906 20.684375 L 238.828125 20.035937 L 239.035156 19.344531 L 239.25 18.614062 L 239.464844 17.828906 L 239.683594 16.996875 L 239.902344 16.102344 L 240.121094 15.145312 L 240.339844 14.117969 L 240.554688 13.020312 L 240.765625 11.836719 L 240.972656 10.563281 L 241.171875 9.196094 L 241.363281 7.719531 L 241.546875 6.125781 L 241.71875 4.410937 L 241.882812 2.555469 L 242.035156 0.555469 L 242.175781 -1.608594 L 242.308594 -3.944531 L 242.429688 -6.471875 L 242.535156 -9.202344 L 242.636719 -12.155469 L 242.722656 -15.350781 L 242.804688 -18.803906 L 242.875 -22.538281 L 242.9375 -26.577344 L 242.992188 -30.944531 L 243.042969 -35.667188 L 243.085938 -40.772656 L 243.363281 -1367.608594 " transform="matrix(1,0,0,-1,0,61.2)"/>
</g>
<path style="fill:none;stroke-width:0.99628;stroke-linecap:round;stroke-linejoin:round;stroke:rgb(95.326233%,39.237976%,12.364197%);stroke-opacity:1;stroke-miterlimit:10;" d="M 227.21875 27.055469 L 230.707031 30.54375 M 230.707031 27.055469 L 227.21875 30.54375 " transform="matrix(1,0,0,-1,0,61.2)"/>
<path style="fill:none;stroke-width:0.99628;stroke-linecap:round;stroke-linejoin:round;stroke:rgb(48.13385%,15.52124%,58.686829%);stroke-opacity:1;stroke-miterlimit:10;" d="M 214.5625 28.801562 L 200.164062 28.801562 " transform="matrix(1,0,0,-1,0,61.2)"/>
<path style="fill:none;stroke-width:0.99628;stroke-linecap:round;stroke-linejoin:round;stroke:rgb(48.13385%,15.52124%,58.686829%);stroke-opacity:1;stroke-miterlimit:10;" d="M 202.628906 28.801562 C 202.628906 30.160937 201.523438 31.266406 200.164062 31.266406 C 198.800781 31.266406 197.695312 30.160937 197.695312 28.801562 C 197.695312 27.438281 198.800781 26.332812 200.164062 26.332812 C 201.523438 26.332812 202.628906 27.438281 202.628906 28.801562 Z M 202.628906 28.801562 " transform="matrix(1,0,0,-1,0,61.2)"/>
<path style="fill:none;stroke-width:0.99628;stroke-linecap:round;stroke-linejoin:round;stroke:rgb(48.13385%,15.52124%,58.686829%);stroke-opacity:1;stroke-miterlimit:10;" d="M 212.820312 27.055469 L 216.304688 30.54375 M 216.304688 27.055469 L 212.820312 30.54375 " transform="matrix(1,0,0,-1,0,61.2)"/>
<g clip-path="url(#clip6)" clip-rule="nonzero">
<path style="fill:none;stroke-width:0.99628;stroke-linecap:round;stroke-linejoin:round;stroke:rgb(7.849121%,60.745239%,87.768555%);stroke-opacity:1;stroke-miterlimit:10;" d="M 331.441406 28.801562 L 328.082031 28.801562 L 328.082031 28.903125 L 328.097656 29.258594 L 328.285156 30.446094 L 328.496094 31.164844 L 328.734375 31.782031 L 329 32.364062 L 329.296875 32.926562 L 329.625 33.48125 L 329.984375 34.04375 L 330.375 34.610156 L 330.804688 35.188281 L 331.269531 35.785937 L 331.773438 36.399219 L 332.316406 37.032031 L 332.898438 37.688281 L 333.527344 38.371875 L 334.203125 39.082812 L 334.925781 39.825 L 335.699219 40.598437 L 336.523438 41.407031 L 337.40625 42.254687 L 338.34375 43.141406 L 339.34375 44.075 L 340.40625 45.051562 L 341.539062 46.078906 L 342.738281 47.157031 L 344.015625 48.289844 L 345.367188 49.48125 L 346.804688 50.739062 L 348.328125 52.063281 L 349.941406 53.453906 L 351.652344 54.922656 L 353.460938 56.469531 L 355.382812 58.102344 L 357.414062 59.821094 L 359.5625 61.633594 L 361.839844 63.551562 L 364.246094 65.571094 L 366.792969 67.7 L 369.488281 69.95 L 372.339844 72.325 L 375.355469 74.832812 L 378.546875 77.477344 L 381.917969 80.270312 L 385.484375 83.223437 L 389.253906 86.340625 L 393.238281 89.629687 L 2046.585938 1442.879688 " transform="matrix(1,0,0,-1,0,61.2)"/>
</g>
<path style="fill:none;stroke-width:0.99628;stroke-linecap:round;stroke-linejoin:round;stroke:rgb(7.849121%,60.745239%,87.768555%);stroke-opacity:1;stroke-miterlimit:10;" d="M 329.699219 27.055469 L 333.1875 30.54375 M 333.1875 27.055469 L 329.699219 30.54375 " transform="matrix(1,0,0,-1,0,61.2)"/>
<g clip-path="url(#clip7)" clip-rule="nonzero">
<path style="fill:none;stroke-width:0.99628;stroke-linecap:round;stroke-linejoin:round;stroke:rgb(95.326233%,39.237976%,12.364197%);stroke-opacity:1;stroke-miterlimit:10;" d="M 322.644531 28.801562 L 328.082031 28.801562 L 328.082031 28.7 L 328.097656 28.344531 L 328.285156 27.157031 L 328.496094 26.438281 L 328.734375 25.817187 L 329 25.239062 L 329.296875 24.676562 L 329.625 24.117969 L 329.984375 23.559375 L 330.375 22.989062 L 330.804688 22.410937 L 331.269531 21.817187 L 331.773438 21.203906 L 332.316406 20.567187 L 332.898438 19.910937 L 333.527344 19.227344 L 334.203125 18.516406 L 334.925781 17.774219 L 335.699219 17.000781 L 336.523438 16.192187 L 337.40625 15.344531 L 338.34375 14.457812 L 339.34375 13.528125 L 340.40625 12.551562 L 341.539062 11.524219 L 342.738281 10.446094 L 344.015625 9.309375 L 345.367188 8.117969 L 346.804688 6.860156 L 348.328125 5.539844 L 349.941406 4.145312 L 351.652344 2.676562 L 353.460938 1.129687 L 355.382812 -0.499219 L 357.414062 -2.221875 L 359.5625 -4.034375 L 361.839844 -5.948438 L 364.246094 -7.967969 L 366.792969 -10.100781 L 369.488281 -12.350781 L 372.339844 -14.725781 L 375.355469 -17.229688 L 378.546875 -19.878125 L 381.917969 -22.671094 L 385.484375 -25.620313 L 389.253906 -28.7375 L 393.238281 -32.030469 L 2046.585938 -1385.280469 " transform="matrix(1,0,0,-1,0,61.2)"/>
</g>
<path style="fill:none;stroke-width:0.99628;stroke-linecap:round;stroke-linejoin:round;stroke:rgb(95.326233%,39.237976%,12.364197%);stroke-opacity:1;stroke-miterlimit:10;" d="M 320.898438 27.055469 L 324.386719 30.54375 M 324.386719 27.055469 L 320.898438 30.54375 " transform="matrix(1,0,0,-1,0,61.2)"/>
<g clip-path="url(#clip8)" clip-rule="nonzero">
<path style="fill:none;stroke-width:0.99628;stroke-linecap:round;stroke-linejoin:round;stroke:rgb(48.13385%,15.52124%,58.686829%);stroke-opacity:1;stroke-miterlimit:10;" d="M 313.84375 28.801562 L 308.402344 28.801562 L 308.402344 28.903125 L 308.386719 29.258594 L 308.199219 30.446094 L 307.988281 31.164844 L 307.75 31.782031 L 307.484375 32.364062 L 307.1875 32.926562 L 306.859375 33.48125 L 306.5 34.04375 L 306.109375 34.610156 L 305.679688 35.188281 L 305.214844 35.785937 L 304.714844 36.399219 L 304.171875 37.032031 L 303.585938 37.688281 L 302.957031 38.371875 L 302.28125 39.082812 L 301.558594 39.825 L 300.785156 40.598437 L 299.960938 41.407031 L 299.078125 42.254687 L 298.140625 43.141406 L 297.140625 44.075 L 296.078125 45.051562 L 294.945312 46.078906 L 293.746094 47.157031 L 292.46875 48.289844 L 291.117188 49.48125 L 289.679688 50.739062 L 288.160156 52.063281 L 286.542969 53.453906 L 284.835938 54.922656 L 283.023438 56.469531 L 281.105469 58.102344 L 279.074219 59.821094 L 276.921875 61.633594 L 274.648438 63.551562 L 272.238281 65.571094 L 269.691406 67.7 L 266.996094 69.95 L 264.144531 72.325 L 261.128906 74.832812 L 257.941406 77.477344 L 254.566406 80.270312 L 251.003906 83.223437 L 247.234375 86.340625 L 243.246094 89.629687 L -1410.101562 1442.879688 " transform="matrix(1,0,0,-1,0,61.2)"/>
</g>
<path style="fill:none;stroke-width:0.99628;stroke-linecap:round;stroke-linejoin:round;stroke:rgb(48.13385%,15.52124%,58.686829%);stroke-opacity:1;stroke-miterlimit:10;" d="M 312.097656 27.055469 L 315.585938 30.54375 M 315.585938 27.055469 L 312.097656 30.54375 " transform="matrix(1,0,0,-1,0,61.2)"/>
<g clip-path="url(#clip9)" clip-rule="nonzero">
<path style="fill:none;stroke-width:0.99628;stroke-linecap:round;stroke-linejoin:round;stroke:rgb(98.016357%,71.437073%,8.958435%);stroke-opacity:1;stroke-miterlimit:10;" d="M 305.042969 28.801562 L 308.402344 28.801562 L 308.402344 28.7 L 308.386719 28.344531 L 308.199219 27.157031 L 307.988281 26.438281 L 307.75 25.817187 L 307.484375 25.239062 L 307.1875 24.676562 L 306.859375 24.117969 L 306.5 23.559375 L 306.109375 22.989062 L 305.679688 22.410937 L 305.214844 21.817187 L 304.714844 21.203906 L 304.171875 20.567187 L 303.585938 19.910937 L 302.957031 19.227344 L 302.28125 18.516406 L 301.558594 17.774219 L 300.785156 17.000781 L 299.960938 16.192187 L 299.078125 15.344531 L 298.140625 14.457812 L 297.140625 13.528125 L 296.078125 12.551562 L 294.945312 11.524219 L 293.746094 10.446094 L 292.46875 9.309375 L 291.117188 8.117969 L 289.679688 6.860156 L 288.160156 5.539844 L 286.542969 4.145312 L 284.835938 2.676562 L 283.023438 1.129687 L 281.105469 -0.499219 L 279.074219 -2.221875 L 276.921875 -4.034375 L 274.648438 -5.948438 L 272.238281 -7.967969 L 269.691406 -10.100781 L 266.996094 -12.350781 L 264.144531 -14.725781 L 261.128906 -17.229688 L 257.941406 -19.878125 L 254.566406 -22.671094 L 251.003906 -25.620313 L 247.234375 -28.7375 L 243.246094 -32.030469 L -1410.101562 -1385.280469 " transform="matrix(1,0,0,-1,0,61.2)"/>
</g>
<path style="fill:none;stroke-width:0.99628;stroke-linecap:round;stroke-linejoin:round;stroke:rgb(98.016357%,71.437073%,8.958435%);stroke-opacity:1;stroke-miterlimit:10;" d="M 303.300781 27.055469 L 306.785156 30.54375 M 306.785156 27.055469 L 303.300781 30.54375 " transform="matrix(1,0,0,-1,0,61.2)"/>
<g clip-path="url(#clip10)" clip-rule="nonzero">
<path style="fill:none;stroke-width:0.99628;stroke-linecap:round;stroke-linejoin:round;stroke:rgb(7.849121%,60.745239%,87.768555%);stroke-opacity:1;stroke-miterlimit:10;" d="M 22.628906 -23.760938 L 22.628906 995.180469 " transform="matrix(1,0,0,-1,0,61.2)"/>
</g>
<path style="fill:none;stroke-width:0.99628;stroke-linecap:round;stroke-linejoin:round;stroke:rgb(7.849121%,60.745239%,87.768555%);stroke-opacity:1;stroke-miterlimit:10;" d="M 20.886719 -25.503125 L 24.375 -22.014844 M 24.375 -25.503125 L 20.886719 -22.014844 " transform="matrix(1,0,0,-1,0,61.2)"/>
<g clip-path="url(#clip11)" clip-rule="nonzero">
<path style="fill:none;stroke-width:0.99628;stroke-linecap:round;stroke-linejoin:round;stroke:rgb(95.326233%,39.237976%,12.364197%);stroke-opacity:1;stroke-miterlimit:10;" d="M 22.628906 -46.8 L 22.628906 -1065.741406 " transform="matrix(1,0,0,-1,0,61.2)"/>
</g>
<path style="fill:none;stroke-width:0.99628;stroke-linecap:round;stroke-linejoin:round;stroke:rgb(95.326233%,39.237976%,12.364197%);stroke-opacity:1;stroke-miterlimit:10;" d="M 20.886719 -48.542188 L 24.375 -45.057813 M 24.375 -48.542188 L 20.886719 -45.057813 " transform="matrix(1,0,0,-1,0,61.2)"/>
<g clip-path="url(#clip12)" clip-rule="nonzero">
<path style="fill:none;stroke-width:0.99628;stroke-linecap:round;stroke-linejoin:round;stroke:rgb(7.849121%,60.745239%,87.768555%);stroke-opacity:1;stroke-miterlimit:10;" d="M 132.480469 -35.280469 L -3838.675781 -35.280469 " transform="matrix(1,0,0,-1,0,61.2)"/>
</g>
<path style="fill:none;stroke-width:0.99628;stroke-linecap:round;stroke-linejoin:round;stroke:rgb(7.849121%,60.745239%,87.768555%);stroke-opacity:1;stroke-miterlimit:10;" d="M 130.738281 -37.022656 L 134.226562 -33.538281 M 134.226562 -37.022656 L 130.738281 -33.538281 " transform="matrix(1,0,0,-1,0,61.2)"/>
<g clip-path="url(#clip13)" clip-rule="nonzero">
<path style="fill:none;stroke-width:0.99628;stroke-linecap:round;stroke-linejoin:round;stroke:rgb(95.326233%,39.237976%,12.364197%);stroke-opacity:1;stroke-miterlimit:10;" d="M 112.679688 -23.760938 L 113.757812 -23.905469 L 113.933594 -23.925 L 114.136719 -23.948438 L 114.378906 -23.975781 L 114.660156 -24.007031 L 114.992188 -24.042188 L 115.386719 -24.077344 L 115.855469 -24.116406 L 116.40625 -24.155469 L 117.0625 -24.194531 L 117.839844 -24.225781 L 118.753906 -24.249219 L 119.820312 -24.245313 L 121.039062 -24.214063 L 122.390625 -24.139844 L 123.855469 -24.010938 L 125.386719 -23.83125 L 126.953125 -23.592969 L 128.539062 -23.303906 L 130.125 -22.971875 L 131.710938 -22.596875 L 133.296875 -22.182813 L 134.890625 -21.733594 L 136.492188 -21.249219 L 138.113281 -20.729688 L 139.757812 -20.175 L 141.433594 -19.589063 L 143.144531 -18.964063 L 144.898438 -18.3 L 146.699219 -17.600781 L 148.554688 -16.8625 L 150.46875 -16.08125 L 152.449219 -15.257031 L 154.496094 -14.385938 L 156.621094 -13.471875 L 158.824219 -12.507031 L 161.117188 -11.4875 L 163.503906 -10.417188 L 165.984375 -9.292188 L 168.574219 -8.104688 L 171.273438 -6.854688 L 174.089844 -5.542188 L 177.03125 -4.163281 L 180.101562 -2.710156 L 183.316406 -1.182813 L 186.671875 0.422656 L 190.183594 2.110156 L 193.859375 3.883594 L 197.707031 5.746875 L 201.734375 7.703906 L 2098.261719 961.926563 " transform="matrix(1,0,0,-1,0,61.2)"/>
</g>
<path style="fill:none;stroke-width:0.99628;stroke-linecap:round;stroke-linejoin:round;stroke:rgb(95.326233%,39.237976%,12.364197%);stroke-opacity:1;stroke-miterlimit:10;" d="M 110.9375 -25.503125 L 114.425781 -22.014844 M 114.425781 -25.503125 L 110.9375 -22.014844 " transform="matrix(1,0,0,-1,0,61.2)"/>
<g clip-path="url(#clip14)" clip-rule="nonzero">
<path style="fill:none;stroke-width:0.99628;stroke-linecap:round;stroke-linejoin:round;stroke:rgb(48.13385%,15.52124%,58.686829%);stroke-opacity:1;stroke-miterlimit:10;" d="M 112.679688 -46.8 L 113.757812 -46.655469 L 113.933594 -46.635938 L 114.136719 -46.6125 L 114.378906 -46.585156 L 114.660156 -46.553906 L 114.992188 -46.51875 L 115.386719 -46.483594 L 115.855469 -46.444531 L 116.40625 -46.405469 L 117.0625 -46.366406 L 117.839844 -46.335156 L 118.753906 -46.311719 L 119.820312 -46.311719 L 121.039062 -46.346875 L 122.390625 -46.421094 L 123.855469 -46.55 L 125.386719 -46.729688 L 126.953125 -46.967969 L 128.539062 -47.257031 L 130.125 -47.589063 L 131.710938 -47.964063 L 133.296875 -48.378125 L 134.890625 -48.827344 L 136.492188 -49.311719 L 138.113281 -49.83125 L 139.757812 -50.385938 L 141.433594 -50.971875 L 143.144531 -51.596875 L 144.898438 -52.260938 L 146.699219 -52.960156 L 148.554688 -53.698438 L 150.46875 -54.479688 L 152.449219 -55.303906 L 154.496094 -56.171094 L 156.621094 -57.089063 L 158.824219 -58.053906 L 161.117188 -59.073438 L 163.503906 -60.14375 L 165.984375 -61.26875 L 168.574219 -62.45625 L 171.273438 -63.70625 L 174.089844 -65.01875 L 177.03125 -66.397656 L 180.101562 -67.850781 L 183.316406 -69.378125 L 186.671875 -70.983594 L 190.183594 -72.671094 L 193.859375 -74.444531 L 197.707031 -76.307813 L 201.734375 -78.264844 L 2098.261719 -1032.4875 " transform="matrix(1,0,0,-1,0,61.2)"/>
</g>
<path style="fill:none;stroke-width:0.99628;stroke-linecap:round;stroke-linejoin:round;stroke:rgb(48.13385%,15.52124%,58.686829%);stroke-opacity:1;stroke-miterlimit:10;" d="M 110.9375 -48.542188 L 114.425781 -45.057813 M 114.425781 -48.542188 L 110.9375 -45.057813 " transform="matrix(1,0,0,-1,0,61.2)"/>
<path style="fill:none;stroke-width:0.99628;stroke-linecap:round;stroke-linejoin:round;stroke:rgb(7.849121%,60.745239%,87.768555%);stroke-opacity:1;stroke-miterlimit:10;" d="M 235.261719 -35.280469 L 195.660156 -35.280469 " transform="matrix(1,0,0,-1,0,61.2)"/>
<path style="fill:none;stroke-width:0.99628;stroke-linecap:round;stroke-linejoin:round;stroke:rgb(7.849121%,60.745239%,87.768555%);stroke-opacity:1;stroke-miterlimit:10;" d="M 198.128906 -35.280469 C 198.128906 -33.917188 197.023438 -32.815625 195.660156 -32.815625 C 194.300781 -32.815625 193.195312 -33.917188 193.195312 -35.280469 C 193.195312 -36.64375 194.300781 -37.745313 195.660156 -37.745313 C 197.023438 -37.745313 198.128906 -36.64375 198.128906 -35.280469 Z M 198.128906 -35.280469 " transform="matrix(1,0,0,-1,0,61.2)"/>
<path style="fill:none;stroke-width:0.99628;stroke-linecap:round;stroke-linejoin:round;stroke:rgb(7.849121%,60.745239%,87.768555%);stroke-opacity:1;stroke-miterlimit:10;" d="M 233.519531 -37.022656 L 237.007812 -33.538281 M 237.007812 -37.022656 L 233.519531 -33.538281 " transform="matrix(1,0,0,-1,0,61.2)"/>
<g clip-path="url(#clip15)" clip-rule="nonzero">
<path style="fill:none;stroke-width:0.99628;stroke-linecap:round;stroke-linejoin:round;stroke:rgb(95.326233%,39.237976%,12.364197%);stroke-opacity:1;stroke-miterlimit:10;" d="M 215.460938 -29.51875 L 216.433594 -29.409375 L 216.550781 -29.39375 L 216.6875 -29.378125 L 216.835938 -29.358594 L 217.003906 -29.335156 L 217.191406 -29.311719 L 217.398438 -29.284375 L 217.632812 -29.249219 L 217.890625 -29.214063 L 218.175781 -29.171094 L 218.488281 -29.120313 L 218.832031 -29.065625 L 219.210938 -29.003125 L 219.617188 -28.928906 L 220.0625 -28.842969 L 220.535156 -28.749219 L 221.039062 -28.639844 L 221.566406 -28.514844 L 222.117188 -28.374219 L 222.6875 -28.217969 L 223.273438 -28.046094 L 223.863281 -27.850781 L 224.457031 -27.635938 L 225.046875 -27.397656 L 225.632812 -27.139844 L 226.207031 -26.858594 L 226.769531 -26.55 L 227.316406 -26.217969 L 227.84375 -25.858594 L 228.351562 -25.471875 L 228.839844 -25.057813 L 229.304688 -24.608594 L 229.75 -24.128125 L 230.171875 -23.616406 L 230.570312 -23.065625 L 230.949219 -22.475781 L 231.300781 -21.846875 L 231.636719 -21.171094 L 231.949219 -20.452344 L 232.238281 -19.686719 L 232.507812 -18.866406 L 232.757812 -17.995313 L 232.992188 -17.061719 L 233.203125 -16.069531 L 233.398438 -15.014844 L 233.582031 -13.885938 L 233.746094 -12.686719 L 233.894531 -11.409375 L 234.03125 -10.05 L 234.15625 -8.604688 L 235.261719 501.715625 " transform="matrix(1,0,0,-1,0,61.2)"/>
</g>
<path style="fill:none;stroke-width:0.99628;stroke-linecap:round;stroke-linejoin:round;stroke:rgb(95.326233%,39.237976%,12.364197%);stroke-opacity:1;stroke-miterlimit:10;" d="M 213.71875 -31.264844 L 217.207031 -27.776563 M 217.207031 -31.264844 L 213.71875 -27.776563 " transform="matrix(1,0,0,-1,0,61.2)"/>
<g clip-path="url(#clip16)" clip-rule="nonzero">
<path style="fill:none;stroke-width:0.99628;stroke-linecap:round;stroke-linejoin:round;stroke:rgb(48.13385%,15.52124%,58.686829%);stroke-opacity:1;stroke-miterlimit:10;" d="M 215.460938 -41.042188 L 216.433594 -41.151563 L 216.550781 -41.167188 L 216.6875 -41.182813 L 216.835938 -41.202344 L 217.003906 -41.225781 L 217.191406 -41.249219 L 217.398438 -41.276563 L 217.632812 -41.311719 L 217.890625 -41.346875 L 218.175781 -41.389844 L 218.488281 -41.440625 L 218.832031 -41.495313 L 219.210938 -41.557813 L 219.617188 -41.632031 L 220.0625 -41.717969 L 220.535156 -41.811719 L 221.039062 -41.921094 L 221.566406 -42.046094 L 222.117188 -42.182813 L 222.6875 -42.342969 L 223.273438 -42.514844 L 223.863281 -42.710156 L 224.457031 -42.925 L 225.046875 -43.163281 L 225.632812 -43.421094 L 226.207031 -43.702344 L 226.769531 -44.010938 L 227.316406 -44.342969 L 227.84375 -44.702344 L 228.351562 -45.089063 L 228.839844 -45.503125 L 229.304688 -45.952344 L 229.75 -46.432813 L 230.171875 -46.944531 L 230.570312 -47.495313 L 230.949219 -48.085156 L 231.300781 -48.714063 L 231.636719 -49.389844 L 231.949219 -50.108594 L 232.238281 -50.874219 L 232.507812 -51.694531 L 232.757812 -52.565625 L 232.992188 -53.499219 L 233.203125 -54.491406 L 233.398438 -55.546094 L 233.582031 -56.675 L 233.746094 -57.874219 L 233.894531 -59.151563 L 234.03125 -60.510938 L 234.15625 -61.95625 L 235.261719 -572.276562 " transform="matrix(1,0,0,-1,0,61.2)"/>
</g>
<path style="fill:none;stroke-width:0.99628;stroke-linecap:round;stroke-linejoin:round;stroke:rgb(48.13385%,15.52124%,58.686829%);stroke-opacity:1;stroke-miterlimit:10;" d="M 213.71875 -42.784375 L 217.207031 -39.296094 M 217.207031 -42.784375 L 213.71875 -39.296094 " transform="matrix(1,0,0,-1,0,61.2)"/>
<path style="fill:none;stroke-width:0.99628;stroke-linecap:round;stroke-linejoin:round;stroke:rgb(7.849121%,60.745239%,87.768555%);stroke-opacity:1;stroke-miterlimit:10;" d="M 336.242188 -23.760938 L 336.285156 -23.436719 L 336.289062 -23.385938 L 336.292969 -23.33125 L 336.296875 -23.264844 L 336.300781 -23.190625 L 336.300781 -23.010938 L 336.296875 -22.897656 L 336.289062 -22.76875 L 336.273438 -22.624219 L 336.25 -22.45625 L 336.21875 -22.264844 L 336.171875 -22.046094 L 336.105469 -21.803906 L 336.015625 -21.526563 L 335.898438 -21.217969 L 335.742188 -20.874219 L 335.542969 -20.495313 L 335.292969 -20.077344 L 334.976562 -19.620313 L 334.585938 -19.124219 L 334.105469 -18.592969 L 333.523438 -18.030469 L 332.824219 -17.436719 L 331.984375 -16.815625 L 330.988281 -16.182813 L 329.8125 -15.542188 L 328.425781 -14.913281 L 326.800781 -14.319531 L 324.902344 -13.788281 L 322.6875 -13.358594 L 320.117188 -13.089063 L 317.128906 -13.061719 L 313.671875 -13.397656 L 309.671875 -14.292188 L 307.359375 -15.077344 L 305.046875 -16.08125 L 302.378906 -17.565625 L 299.707031 -19.491406 L 296.632812 -22.507031 L 295.09375 -24.542188 L 293.550781 -27.264844 L 292.667969 -29.4875 L 291.78125 -33.936719 L 291.734375 -35.280469 L 321.84375 -35.280469 " transform="matrix(1,0,0,-1,0,61.2)"/>
<path style="fill:none;stroke-width:0.99628;stroke-linecap:round;stroke-linejoin:round;stroke:rgb(7.849121%,60.745239%,87.768555%);stroke-opacity:1;stroke-miterlimit:10;" d="M 324.308594 -35.280469 C 324.308594 -33.917188 323.203125 -32.815625 321.84375 -32.815625 C 320.480469 -32.815625 319.375 -33.917188 319.375 -35.280469 C 319.375 -36.64375 320.480469 -37.745313 321.84375 -37.745313 C 323.203125 -37.745313 324.308594 -36.64375 324.308594 -35.280469 Z M 324.308594 -35.280469 " transform="matrix(1,0,0,-1,0,61.2)"/>
<path style="fill:none;stroke-width:0.99628;stroke-linecap:round;stroke-linejoin:round;stroke:rgb(7.849121%,60.745239%,87.768555%);stroke-opacity:1;stroke-miterlimit:10;" d="M 334.5 -25.503125 L 337.988281 -22.01875 M 337.988281 -25.503125 L 334.5 -22.01875 " transform="matrix(1,0,0,-1,0,61.2)"/>
<g clip-path="url(#clip17)" clip-rule="nonzero">
<path style="fill:none;stroke-width:0.99628;stroke-linecap:round;stroke-linejoin:round;stroke:rgb(95.326233%,39.237976%,12.364197%);stroke-opacity:1;stroke-miterlimit:10;" d="M 336.242188 -46.8 L 336.285156 -47.124219 L 336.289062 -47.175 L 336.292969 -47.229688 L 336.296875 -47.296094 L 336.300781 -47.370313 L 336.300781 -47.55 L 336.296875 -47.663281 L 336.289062 -47.792188 L 336.273438 -47.940625 L 336.25 -48.104688 L 336.21875 -48.296094 L 336.171875 -48.514844 L 336.105469 -48.757031 L 336.015625 -49.034375 L 335.898438 -49.342969 L 335.742188 -49.686719 L 335.542969 -50.065625 L 335.292969 -50.483594 L 334.976562 -50.940625 L 334.585938 -51.436719 L 334.105469 -51.967969 L 333.523438 -52.530469 L 332.824219 -53.124219 L 331.984375 -53.745313 L 330.988281 -54.378125 L 329.8125 -55.01875 L 328.425781 -55.647656 L 326.800781 -56.241406 L 324.902344 -56.776563 L 322.6875 -57.20625 L 320.117188 -57.475781 L 317.128906 -57.503125 L 313.671875 -57.163281 L 309.671875 -56.26875 L 307.359375 -55.4875 L 305.046875 -54.479688 L 302.378906 -52.995313 L 299.707031 -51.069531 L 296.632812 -48.053906 L 295.09375 -46.01875 L 293.550781 -43.296094 L 292.667969 -41.073438 L 291.78125 -36.624219 L 291.734375 -35.280469 L -145.074219 -35.280469 " transform="matrix(1,0,0,-1,0,61.2)"/>
</g>
<path style="fill:none;stroke-width:0.99628;stroke-linecap:round;stroke-linejoin:round;stroke:rgb(95.326233%,39.237976%,12.364197%);stroke-opacity:1;stroke-miterlimit:10;" d="M 334.5 -48.546094 L 337.988281 -45.057813 M 337.988281 -48.546094 L 334.5 -45.057813 " transform="matrix(1,0,0,-1,0,61.2)"/>
<path style="fill:none;stroke-width:0.99628;stroke-linecap:round;stroke-linejoin:round;stroke:rgb(48.13385%,15.52124%,58.686829%);stroke-opacity:1;stroke-miterlimit:10;" d="M 343.441406 -35.280469 L 329.042969 -35.280469 " transform="matrix(1,0,0,-1,0,61.2)"/>
<path style="fill:none;stroke-width:0.99628;stroke-linecap:round;stroke-linejoin:round;stroke:rgb(48.13385%,15.52124%,58.686829%);stroke-opacity:1;stroke-miterlimit:10;" d="M 331.507812 -35.280469 C 331.507812 -33.917188 330.40625 -32.815625 329.042969 -32.815625 C 327.679688 -32.815625 326.578125 -33.917188 326.578125 -35.280469 C 326.578125 -36.64375 327.679688 -37.745313 329.042969 -37.745313 C 330.40625 -37.745313 331.507812 -36.64375 331.507812 -35.280469 Z M 331.507812 -35.280469 " transform="matrix(1,0,0,-1,0,61.2)"/>
<path style="fill:none;stroke-width:0.99628;stroke-linecap:round;stroke-linejoin:round;stroke:rgb(48.13385%,15.52124%,58.686829%);stroke-opacity:1;stroke-miterlimit:10;" d="M 341.699219 -37.022656 L 345.1875 -33.538281 M 345.1875 -37.022656 L 341.699219 -33.538281 " transform="matrix(1,0,0,-1,0,61.2)"/>
<g clip-path="url(#clip18)" clip-rule="nonzero">
<path style="fill:none;stroke-width:0.99628;stroke-linecap:round;stroke-linejoin:round;stroke:rgb(7.849121%,60.745239%,87.768555%);stroke-opacity:1;stroke-miterlimit:10;" d="M 19.800781 -99.3625 L 39.601562 -99.3625 L 39.601562 226.426562 " transform="matrix(1,0,0,-1,0,61.2)"/>
</g>
<path style="fill:none;stroke-width:0.99628;stroke-linecap:round;stroke-linejoin:round;stroke:rgb(7.849121%,60.745239%,87.768555%);stroke-opacity:1;stroke-miterlimit:10;" d="M 18.058594 -101.104688 L 21.542969 -97.616406 M 21.542969 -101.104688 L 18.058594 -97.616406 " transform="matrix(1,0,0,-1,0,61.2)"/>
<g clip-path="url(#clip19)" clip-rule="nonzero">
<path style="fill:none;stroke-width:0.99628;stroke-linecap:round;stroke-linejoin:round;stroke:rgb(95.326233%,39.237976%,12.364197%);stroke-opacity:1;stroke-miterlimit:10;" d="M 59.402344 -99.3625 L 39.601562 -99.3625 L 39.601562 -425.151563 " transform="matrix(1,0,0,-1,0,61.2)"/>
</g>
<path style="fill:none;stroke-width:0.99628;stroke-linecap:round;stroke-linejoin:round;stroke:rgb(95.326233%,39.237976%,12.364197%);stroke-opacity:1;stroke-miterlimit:10;" d="M 57.660156 -101.104688 L 61.144531 -97.616406 M 61.144531 -101.104688 L 57.660156 -97.616406 " transform="matrix(1,0,0,-1,0,61.2)"/>
<g clip-path="url(#clip20)" clip-rule="nonzero">
<path style="fill:none;stroke-width:0.99628;stroke-linecap:round;stroke-linejoin:round;stroke:rgb(7.849121%,60.745239%,87.768555%);stroke-opacity:1;stroke-miterlimit:10;" d="M 132.480469 -99.3625 L 149.554688 -99.3625 L 149.554688 -99.272656 L 149.558594 -99.139844 L 149.6875 -98.280469 L 149.824219 -97.8 L 149.96875 -97.39375 L 150.125 -97.01875 L 150.289062 -96.659375 L 150.460938 -96.3 L 150.640625 -95.944531 L 150.824219 -95.58125 L 151.019531 -95.20625 L 151.21875 -94.823438 L 151.425781 -94.425 L 151.636719 -94.007031 L 151.847656 -93.573438 L 152.066406 -93.120313 L 152.285156 -92.64375 L 152.503906 -92.139844 L 152.722656 -91.608594 L 152.9375 -91.042188 L 153.152344 -90.448438 L 153.363281 -89.815625 L 153.566406 -89.14375 L 153.765625 -88.425 L 153.960938 -87.663281 L 154.144531 -86.850781 L 154.320312 -85.983594 L 154.488281 -85.057813 L 154.648438 -84.069531 L 154.796875 -83.010938 L 154.9375 -81.878125 L 155.066406 -80.667188 L 155.1875 -79.374219 L 155.296875 -77.9875 L 155.394531 -76.503125 L 155.488281 -74.913281 L 155.570312 -73.210156 L 156.242188 424.371875 " transform="matrix(1,0,0,-1,0,61.2)"/>
</g>
<path style="fill:none;stroke-width:0.99628;stroke-linecap:round;stroke-linejoin:round;stroke:rgb(7.849121%,60.745239%,87.768555%);stroke-opacity:1;stroke-miterlimit:10;" d="M 130.738281 -101.104688 L 134.226562 -97.616406 M 134.226562 -101.104688 L 130.738281 -97.616406 " transform="matrix(1,0,0,-1,0,61.2)"/>
<g clip-path="url(#clip21)" clip-rule="nonzero">
<path style="fill:none;stroke-width:0.99628;stroke-linecap:round;stroke-linejoin:round;stroke:rgb(95.326233%,39.237976%,12.364197%);stroke-opacity:1;stroke-miterlimit:10;" d="M 164.164062 -99.3625 L 149.554688 -99.3625 L 149.554688 -99.448438 L 149.558594 -99.585156 L 149.6875 -100.444531 L 149.824219 -100.921094 L 149.96875 -101.327344 L 150.125 -101.702344 L 150.289062 -102.065625 L 150.460938 -102.421094 L 150.640625 -102.780469 L 150.824219 -103.14375 L 151.019531 -103.514844 L 151.21875 -103.901563 L 151.425781 -104.3 L 151.636719 -104.714063 L 151.847656 -105.147656 L 152.066406 -105.600781 L 152.285156 -106.08125 L 152.503906 -106.585156 L 152.722656 -107.116406 L 152.9375 -107.678906 L 153.152344 -108.276563 L 153.363281 -108.909375 L 153.566406 -109.58125 L 153.765625 -110.296094 L 153.960938 -111.057813 L 154.144531 -111.870313 L 154.320312 -112.7375 L 154.488281 -113.663281 L 154.648438 -114.655469 L 154.796875 -115.710156 L 154.9375 -116.842969 L 155.066406 -118.053906 L 155.1875 -119.350781 L 155.296875 -120.7375 L 155.394531 -122.221875 L 155.488281 -123.811719 L 155.570312 -125.514844 L 156.242188 -623.092969 " transform="matrix(1,0,0,-1,0,61.2)"/>
</g>
<path style="fill:none;stroke-width:0.99628;stroke-linecap:round;stroke-linejoin:round;stroke:rgb(95.326233%,39.237976%,12.364197%);stroke-opacity:1;stroke-miterlimit:10;" d="M 162.417969 -101.104688 L 165.90625 -97.616406 M 165.90625 -101.104688 L 162.417969 -97.616406 " transform="matrix(1,0,0,-1,0,61.2)"/>
<path style="fill:none;stroke-width:0.99628;stroke-linecap:round;stroke-linejoin:round;stroke:rgb(48.13385%,15.52124%,58.686829%);stroke-opacity:1;stroke-miterlimit:10;" d="M 116.640625 -99.3625 L 100.800781 -99.3625 " transform="matrix(1,0,0,-1,0,61.2)"/>
<path style="fill:none;stroke-width:0.99628;stroke-linecap:round;stroke-linejoin:round;stroke:rgb(48.13385%,15.52124%,58.686829%);stroke-opacity:1;stroke-miterlimit:10;" d="M 103.265625 -99.3625 C 103.265625 -97.999219 102.164062 -96.89375 100.800781 -96.89375 C 99.4375 -96.89375 98.335938 -97.999219 98.335938 -99.3625 C 98.335938 -100.721875 99.4375 -101.827344 100.800781 -101.827344 C 102.164062 -101.827344 103.265625 -100.721875 103.265625 -99.3625 Z M 103.265625 -99.3625 " transform="matrix(1,0,0,-1,0,61.2)"/>
<path style="fill:none;stroke-width:0.99628;stroke-linecap:round;stroke-linejoin:round;stroke:rgb(48.13385%,15.52124%,58.686829%);stroke-opacity:1;stroke-miterlimit:10;" d="M 114.898438 -101.104688 L 118.386719 -97.616406 M 118.386719 -101.104688 L 114.898438 -97.616406 " transform="matrix(1,0,0,-1,0,61.2)"/>
<g clip-path="url(#clip22)" clip-rule="nonzero">
<path style="fill:none;stroke-width:0.99628;stroke-linecap:round;stroke-linejoin:round;stroke:rgb(7.849121%,60.745239%,87.768555%);stroke-opacity:1;stroke-miterlimit:10;" d="M 225.363281 -99.3625 L 239.789062 -99.3625 L 239.789062 -99.26875 L 239.730469 -98.7375 L 239.566406 -98.124219 L 239.382812 -97.682813 L 239.1875 -97.288281 L 238.96875 -96.913281 L 238.738281 -96.546094 L 238.488281 -96.178906 L 238.222656 -95.8 L 237.945312 -95.413281 L 237.652344 -95.010938 L 237.355469 -94.589063 L 237.054688 -94.147656 L 236.753906 -93.682813 L 236.460938 -93.194531 L 236.175781 -92.678906 L 235.902344 -92.135938 L 235.644531 -91.561719 L 235.40625 -90.95625 L 235.1875 -90.323438 L 234.988281 -89.651563 L 234.804688 -88.948438 L 234.640625 -88.20625 L 234.492188 -87.425 L 234.359375 -86.604688 L 234.242188 -85.7375 L 234.132812 -84.823438 L 234.039062 -83.858594 L 233.957031 -82.842969 L 233.882812 -81.772656 L 233.816406 -80.64375 L 233.757812 -79.448438 L 233.703125 -78.186719 L 233.65625 -76.854688 L 233.617188 -75.444531 L 233.578125 -73.95625 L 233.285156 409.457812 " transform="matrix(1,0,0,-1,0,61.2)"/>
</g>
<path style="fill:none;stroke-width:0.99628;stroke-linecap:round;stroke-linejoin:round;stroke:rgb(7.849121%,60.745239%,87.768555%);stroke-opacity:1;stroke-miterlimit:10;" d="M 223.617188 -101.104688 L 227.105469 -97.616406 M 227.105469 -101.104688 L 223.617188 -97.616406 " transform="matrix(1,0,0,-1,0,61.2)"/>
<g clip-path="url(#clip23)" clip-rule="nonzero">
<path style="fill:none;stroke-width:0.99628;stroke-linecap:round;stroke-linejoin:round;stroke:rgb(95.326233%,39.237976%,12.364197%);stroke-opacity:1;stroke-miterlimit:10;" d="M 257.042969 -99.3625 L 239.789062 -99.3625 L 239.789062 -99.45625 L 239.730469 -99.9875 L 239.566406 -100.596875 L 239.382812 -101.042188 L 239.1875 -101.436719 L 238.96875 -101.807813 L 238.738281 -102.175 L 238.488281 -102.546094 L 238.222656 -102.921094 L 237.945312 -103.307813 L 237.652344 -103.714063 L 237.355469 -104.132031 L 237.054688 -104.573438 L 236.753906 -105.038281 L 236.460938 -105.530469 L 236.175781 -106.046094 L 235.902344 -106.589063 L 235.644531 -107.159375 L 235.40625 -107.764844 L 235.1875 -108.401563 L 234.988281 -109.069531 L 234.804688 -109.772656 L 234.640625 -110.514844 L 234.492188 -111.296094 L 234.359375 -112.120313 L 234.242188 -112.983594 L 234.132812 -113.897656 L 234.039062 -114.8625 L 233.957031 -115.878125 L 233.882812 -116.948438 L 233.816406 -118.08125 L 233.757812 -119.276563 L 233.703125 -120.534375 L 233.65625 -121.870313 L 233.617188 -123.276563 L 233.578125 -124.764844 L 233.285156 -608.178906 " transform="matrix(1,0,0,-1,0,61.2)"/>
</g>
<path style="fill:none;stroke-width:0.99628;stroke-linecap:round;stroke-linejoin:round;stroke:rgb(95.326233%,39.237976%,12.364197%);stroke-opacity:1;stroke-miterlimit:10;" d="M 255.300781 -101.104688 L 258.785156 -97.616406 M 258.785156 -101.104688 L 255.300781 -97.616406 " transform="matrix(1,0,0,-1,0,61.2)"/>
<path style="fill:none;stroke-width:0.99628;stroke-linecap:round;stroke-linejoin:round;stroke:rgb(48.13385%,15.52124%,58.686829%);stroke-opacity:1;stroke-miterlimit:10;" d="M 193.683594 -99.3625 L 209.523438 -99.3625 " transform="matrix(1,0,0,-1,0,61.2)"/>
<path style="fill:none;stroke-width:0.99628;stroke-linecap:round;stroke-linejoin:round;stroke:rgb(48.13385%,15.52124%,58.686829%);stroke-opacity:1;stroke-miterlimit:10;" d="M 211.988281 -99.3625 C 211.988281 -97.999219 210.882812 -96.89375 209.523438 -96.89375 C 208.160156 -96.89375 207.054688 -97.999219 207.054688 -99.3625 C 207.054688 -100.721875 208.160156 -101.827344 209.523438 -101.827344 C 210.882812 -101.827344 211.988281 -100.721875 211.988281 -99.3625 Z M 211.988281 -99.3625 " transform="matrix(1,0,0,-1,0,61.2)"/>
<path style="fill:none;stroke-width:0.99628;stroke-linecap:round;stroke-linejoin:round;stroke:rgb(48.13385%,15.52124%,58.686829%);stroke-opacity:1;stroke-miterlimit:10;" d="M 191.9375 -101.104688 L 195.425781 -97.616406 M 195.425781 -101.104688 L 191.9375 -97.616406 " transform="matrix(1,0,0,-1,0,61.2)"/>
<path style="fill:none;stroke-width:0.99628;stroke-linecap:round;stroke-linejoin:round;stroke:rgb(7.849121%,60.745239%,87.768555%);stroke-opacity:1;stroke-miterlimit:10;" d="M 318.242188 -99.3625 L 326.316406 -99.3625 L 326.3125 -98.678906 L 326.128906 -95.151563 L 325.492188 -90.710156 L 324.789062 -87.749219 L 324.003906 -85.319531 L 323.136719 -83.20625 L 322.175781 -81.342969 L 321.121094 -79.698438 L 319.964844 -78.280469 L 318.710938 -77.108594 L 317.367188 -76.221875 L 315.945312 -75.663281 L 314.476562 -75.4875 L 313.003906 -75.733594 L 311.59375 -76.417188 L 310.304688 -77.499219 L 309.199219 -78.885938 L 308.300781 -80.444531 L 307.597656 -82.061719 L 307.0625 -83.647656 L 306.65625 -85.155469 L 306.34375 -86.573438 L 306.109375 -87.901563 L 305.925781 -89.151563 L 305.777344 -90.339063 L 305.664062 -91.483594 L 305.570312 -92.608594 L 305.492188 -93.741406 L 305.429688 -94.940625 L 305.378906 -96.33125 L 305.332031 -98.874219 L 305.332031 -99.3625 L 309.453125 -99.3625 " transform="matrix(1,0,0,-1,0,61.2)"/>
<path style="fill:none;stroke-width:0.99628;stroke-linecap:round;stroke-linejoin:round;stroke:rgb(7.849121%,60.745239%,87.768555%);stroke-opacity:1;stroke-miterlimit:10;" d="M 311.917969 -99.3625 C 311.917969 -97.999219 310.8125 -96.89375 309.453125 -96.89375 C 308.089844 -96.89375 306.984375 -97.999219 306.984375 -99.3625 C 306.984375 -100.721875 308.089844 -101.827344 309.453125 -101.827344 C 310.8125 -101.827344 311.917969 -100.721875 311.917969 -99.3625 Z M 311.917969 -99.3625 " transform="matrix(1,0,0,-1,0,61.2)"/>
<path style="fill:none;stroke-width:0.99628;stroke-linecap:round;stroke-linejoin:round;stroke:rgb(7.849121%,60.745239%,87.768555%);stroke-opacity:1;stroke-miterlimit:10;" d="M 316.5 -101.104688 L 319.984375 -97.616406 M 319.984375 -101.104688 L 316.5 -97.616406 " transform="matrix(1,0,0,-1,0,61.2)"/>
<g clip-path="url(#clip24)" clip-rule="nonzero">
<path style="fill:none;stroke-width:0.99628;stroke-linecap:round;stroke-linejoin:round;stroke:rgb(95.326233%,39.237976%,12.364197%);stroke-opacity:1;stroke-miterlimit:10;" d="M 291.84375 -99.3625 L -13362.535156 -99.3625 " transform="matrix(1,0,0,-1,0,61.2)"/>
</g>
<path style="fill:none;stroke-width:0.99628;stroke-linecap:round;stroke-linejoin:round;stroke:rgb(95.326233%,39.237976%,12.364197%);stroke-opacity:1;stroke-miterlimit:10;" d="M 290.097656 -101.104688 L 293.585938 -97.616406 M 293.585938 -101.104688 L 290.097656 -97.616406 " transform="matrix(1,0,0,-1,0,61.2)"/>
<path style="fill:none;stroke-width:0.99628;stroke-linecap:round;stroke-linejoin:round;stroke:rgb(48.13385%,15.52124%,58.686829%);stroke-opacity:1;stroke-miterlimit:10;" d="M 344.644531 -99.3625 L 326.316406 -99.3625 L 326.3125 -100.046094 L 326.128906 -103.573438 L 325.492188 -108.010938 L 324.789062 -110.975781 L 324.003906 -113.405469 L 323.136719 -115.514844 L 322.175781 -117.378125 L 321.121094 -119.022656 L 319.964844 -120.444531 L 318.710938 -121.616406 L 317.367188 -122.503125 L 315.945312 -123.057813 L 314.476562 -123.233594 L 313.003906 -122.9875 L 311.59375 -122.303906 L 310.304688 -121.221875 L 309.199219 -119.839063 L 308.300781 -118.276563 L 307.597656 -116.663281 L 307.0625 -115.077344 L 306.65625 -113.569531 L 306.34375 -112.151563 L 306.109375 -110.819531 L 305.925781 -109.569531 L 305.777344 -108.382031 L 305.664062 -107.2375 L 305.570312 -106.116406 L 305.492188 -104.979688 L 305.429688 -103.780469 L 305.378906 -102.39375 L 305.332031 -99.846875 L 305.332031 -99.3625 L 300.660156 -99.3625 " transform="matrix(1,0,0,-1,0,61.2)"/>
<path style="fill:none;stroke-width:0.99628;stroke-linecap:round;stroke-linejoin:round;stroke:rgb(48.13385%,15.52124%,58.686829%);stroke-opacity:1;stroke-miterlimit:10;" d="M 303.125 -99.3625 C 303.125 -97.999219 302.023438 -96.89375 300.660156 -96.89375 C 299.296875 -96.89375 298.195312 -97.999219 298.195312 -99.3625 C 298.195312 -100.721875 299.296875 -101.827344 300.660156 -101.827344 C 302.023438 -101.827344 303.125 -100.721875 303.125 -99.3625 Z M 303.125 -99.3625 " transform="matrix(1,0,0,-1,0,61.2)"/>
<path style="fill:none;stroke-width:0.99628;stroke-linecap:round;stroke-linejoin:round;stroke:rgb(48.13385%,15.52124%,58.686829%);stroke-opacity:1;stroke-miterlimit:10;" d="M 342.898438 -101.104688 L 346.386719 -97.616406 M 346.386719 -101.104688 L 342.898438 -97.616406 " transform="matrix(1,0,0,-1,0,61.2)"/>
<path style="fill:none;stroke-width:0.99628;stroke-linecap:round;stroke-linejoin:round;stroke:rgb(7.849121%,60.745239%,87.768555%);stroke-opacity:1;stroke-miterlimit:10;" d="M 39.601562 -163.440625 L 13.199219 -163.440625 " transform="matrix(1,0,0,-1,0,61.2)"/>
<path style="fill:none;stroke-width:0.99628;stroke-linecap:round;stroke-linejoin:round;stroke:rgb(7.849121%,60.745239%,87.768555%);stroke-opacity:1;stroke-miterlimit:10;" d="M 15.664062 -163.440625 C 15.664062 -162.08125 14.5625 -160.975781 13.199219 -160.975781 C 11.839844 -160.975781 10.734375 -162.08125 10.734375 -163.440625 C 10.734375 -164.803906 11.839844 -165.909375 13.199219 -165.909375 C 14.5625 -165.909375 15.664062 -164.803906 15.664062 -163.440625 Z M 15.664062 -163.440625 " transform="matrix(1,0,0,-1,0,61.2)"/>
<path style="fill:none;stroke-width:0.99628;stroke-linecap:round;stroke-linejoin:round;stroke:rgb(7.849121%,60.745239%,87.768555%);stroke-opacity:1;stroke-miterlimit:10;" d="M 37.855469 -165.186719 L 41.34375 -161.698438 M 41.34375 -165.186719 L 37.855469 -161.698438 " transform="matrix(1,0,0,-1,0,61.2)"/>
<path style="fill:none;stroke-width:0.99628;stroke-linecap:round;stroke-linejoin:round;stroke:rgb(7.849121%,60.745239%,87.768555%);stroke-opacity:1;stroke-miterlimit:10;" d="M 132.480469 -153.842969 L 130.777344 -152.694531 L 130.636719 -152.604688 L 130.480469 -152.507031 L 130.316406 -152.409375 L 130.140625 -152.3 L 129.949219 -152.186719 L 129.746094 -152.069531 L 129.527344 -151.940625 L 129.292969 -151.811719 L 129.046875 -151.671094 L 128.78125 -151.522656 L 128.496094 -151.370313 L 128.195312 -151.214063 L 127.878906 -151.05 L 127.542969 -150.878125 L 127.1875 -150.698438 L 126.8125 -150.51875 L 126.421875 -150.33125 L 126.011719 -150.139844 L 125.582031 -149.944531 L 125.132812 -149.745313 L 124.667969 -149.542188 L 124.1875 -149.339063 L 123.691406 -149.135938 L 123.179688 -148.928906 L 122.652344 -148.725781 L 122.117188 -148.51875 L 121.570312 -148.315625 L 121.015625 -148.116406 L 120.453125 -147.917188 L 119.890625 -147.725781 L 119.320312 -147.534375 L 118.753906 -147.350781 L 118.1875 -147.171094 L 117.625 -146.999219 L 117.070312 -146.83125 L 116.523438 -146.671094 L 115.984375 -146.514844 L 115.457031 -146.366406 L 114.945312 -146.225781 L 114.445312 -146.092969 L 113.960938 -145.967969 L 113.492188 -145.846875 L 113.042969 -145.733594 L 112.609375 -145.624219 L 112.195312 -145.526563 L 111.800781 -145.432813 L 111.425781 -145.342969 L 111.066406 -145.260938 L 110.730469 -145.186719 L 106.082031 -144.241406 " transform="matrix(1,0,0,-1,0,61.2)"/>
<path style="fill:none;stroke-width:0.99628;stroke-linecap:round;stroke-linejoin:round;stroke:rgb(7.849121%,60.745239%,87.768555%);stroke-opacity:1;stroke-miterlimit:10;" d="M 108.546875 -144.241406 C 108.546875 -142.882031 107.441406 -141.776563 106.082031 -141.776563 C 104.71875 -141.776563 103.613281 -142.882031 103.613281 -144.241406 C 103.613281 -145.604688 104.71875 -146.70625 106.082031 -146.70625 C 107.441406 -146.70625 108.546875 -145.604688 108.546875 -144.241406 Z M 108.546875 -144.241406 " transform="matrix(1,0,0,-1,0,61.2)"/>
<path style="fill:none;stroke-width:0.99628;stroke-linecap:round;stroke-linejoin:round;stroke:rgb(7.849121%,60.745239%,87.768555%);stroke-opacity:1;stroke-miterlimit:10;" d="M 130.738281 -155.585156 L 134.222656 -152.096875 M 134.222656 -155.585156 L 130.738281 -152.096875 " transform="matrix(1,0,0,-1,0,61.2)"/>
<path style="fill:none;stroke-width:0.99628;stroke-linecap:round;stroke-linejoin:round;stroke:rgb(95.326233%,39.237976%,12.364197%);stroke-opacity:1;stroke-miterlimit:10;" d="M 132.480469 -173.042188 L 130.777344 -174.190625 L 130.636719 -174.280469 L 130.480469 -174.374219 L 130.316406 -174.475781 L 130.140625 -174.58125 L 129.949219 -174.694531 L 129.746094 -174.815625 L 129.527344 -174.940625 L 129.292969 -175.073438 L 129.046875 -175.214063 L 128.78125 -175.358594 L 128.496094 -175.510938 L 128.195312 -175.671094 L 127.878906 -175.835156 L 127.542969 -176.007031 L 127.1875 -176.182813 L 126.8125 -176.366406 L 126.421875 -176.553906 L 126.011719 -176.745313 L 125.582031 -176.940625 L 125.132812 -177.139844 L 124.667969 -177.339063 L 124.1875 -177.546094 L 123.691406 -177.749219 L 123.179688 -177.95625 L 122.652344 -178.159375 L 122.117188 -178.3625 L 121.570312 -178.565625 L 121.015625 -178.76875 L 119.890625 -179.159375 L 119.320312 -179.346875 L 118.753906 -179.534375 L 118.1875 -179.714063 L 117.625 -179.885938 L 117.070312 -180.053906 L 116.523438 -180.214063 L 115.984375 -180.370313 L 115.457031 -180.51875 L 114.945312 -180.659375 L 114.445312 -180.792188 L 113.960938 -180.917188 L 113.492188 -181.038281 L 113.042969 -181.151563 L 112.609375 -181.257031 L 112.195312 -181.358594 L 111.800781 -181.452344 L 111.425781 -181.542188 L 111.066406 -181.624219 L 110.730469 -181.698438 L 106.082031 -182.64375 " transform="matrix(1,0,0,-1,0,61.2)"/>
<path style="fill:none;stroke-width:0.99628;stroke-linecap:round;stroke-linejoin:round;stroke:rgb(95.326233%,39.237976%,12.364197%);stroke-opacity:1;stroke-miterlimit:10;" d="M 108.546875 -182.64375 C 108.546875 -181.280469 107.441406 -180.175 106.082031 -180.175 C 104.71875 -180.175 103.613281 -181.280469 103.613281 -182.64375 C 103.613281 -184.003125 104.71875 -185.108594 106.082031 -185.108594 C 107.441406 -185.108594 108.546875 -184.003125 108.546875 -182.64375 Z M 108.546875 -182.64375 " transform="matrix(1,0,0,-1,0,61.2)"/>
<path style="fill:none;stroke-width:0.99628;stroke-linecap:round;stroke-linejoin:round;stroke:rgb(95.326233%,39.237976%,12.364197%);stroke-opacity:1;stroke-miterlimit:10;" d="M 130.738281 -174.784375 L 134.222656 -171.3 M 134.222656 -174.784375 L 130.738281 -171.3 " transform="matrix(1,0,0,-1,0,61.2)"/>
<g clip-path="url(#clip25)" clip-rule="nonzero">
<path style="fill:none;stroke-width:0.99628;stroke-linecap:round;stroke-linejoin:round;stroke:rgb(7.849121%,60.745239%,87.768555%);stroke-opacity:1;stroke-miterlimit:10;" d="M 195.660156 -156.241406 L 194.9375 -155.39375 L 194.867188 -155.303906 L 194.792969 -155.202344 L 194.710938 -155.092969 L 194.625 -154.975781 L 194.53125 -154.846875 L 194.4375 -154.70625 L 194.335938 -154.55 L 194.234375 -154.385938 L 194.128906 -154.20625 L 194.019531 -154.010938 L 193.910156 -153.8 L 193.804688 -153.577344 L 193.703125 -153.335156 L 193.605469 -153.077344 L 193.515625 -152.8 L 193.4375 -152.503125 L 193.378906 -152.186719 L 193.339844 -151.850781 L 193.324219 -151.491406 L 193.34375 -151.1125 L 193.402344 -150.70625 L 193.507812 -150.276563 L 193.671875 -149.823438 L 193.910156 -149.339063 L 194.234375 -148.83125 L 194.664062 -148.288281 L 195.226562 -147.717969 L 195.949219 -147.116406 L 196.882812 -146.475781 L 198.085938 -145.803906 L 199.660156 -145.092969 L 201.78125 -144.339063 L 204.839844 -143.546094 L 207.125 -143.120313 L 210.460938 -142.70625 L 211.859375 -142.600781 L 214.527344 -142.491406 L 214.800781 -142.4875 L 215.460938 -142.483594 L 215.460938 1200.746875 " transform="matrix(1,0,0,-1,0,61.2)"/>
</g>
<path style="fill:none;stroke-width:0.99628;stroke-linecap:round;stroke-linejoin:round;stroke:rgb(7.849121%,60.745239%,87.768555%);stroke-opacity:1;stroke-miterlimit:10;" d="M 193.917969 -157.983594 L 197.40625 -154.499219 M 197.40625 -157.983594 L 193.917969 -154.499219 " transform="matrix(1,0,0,-1,0,61.2)"/>
<g clip-path="url(#clip26)" clip-rule="nonzero">
<path style="fill:none;stroke-width:0.99628;stroke-linecap:round;stroke-linejoin:round;stroke:rgb(95.326233%,39.237976%,12.364197%);stroke-opacity:1;stroke-miterlimit:10;" d="M 195.660156 -170.64375 L 194.9375 -171.491406 L 194.867188 -171.58125 L 194.792969 -171.678906 L 194.710938 -171.788281 L 194.625 -171.909375 L 194.53125 -172.038281 L 194.335938 -172.33125 L 194.234375 -172.499219 L 194.128906 -172.678906 L 194.019531 -172.874219 L 193.910156 -173.08125 L 193.804688 -173.307813 L 193.703125 -173.55 L 193.605469 -173.807813 L 193.515625 -174.085156 L 193.4375 -174.382031 L 193.378906 -174.698438 L 193.339844 -175.034375 L 193.324219 -175.39375 L 193.34375 -175.772656 L 193.402344 -176.178906 L 193.507812 -176.608594 L 193.671875 -177.061719 L 193.910156 -177.542188 L 194.234375 -178.053906 L 194.664062 -178.592969 L 195.226562 -179.163281 L 195.949219 -179.76875 L 196.882812 -180.405469 L 198.085938 -181.08125 L 199.660156 -181.792188 L 201.78125 -182.542188 L 204.839844 -183.339063 L 207.125 -183.764844 L 210.460938 -184.175 L 211.859375 -184.284375 L 214.527344 -184.389844 L 214.800781 -184.39375 L 215.460938 -184.397656 L 215.460938 -1527.632031 " transform="matrix(1,0,0,-1,0,61.2)"/>
</g>
<path style="fill:none;stroke-width:0.99628;stroke-linecap:round;stroke-linejoin:round;stroke:rgb(95.326233%,39.237976%,12.364197%);stroke-opacity:1;stroke-miterlimit:10;" d="M 193.917969 -172.385938 L 197.40625 -168.897656 M 197.40625 -172.385938 L 193.917969 -168.897656 " transform="matrix(1,0,0,-1,0,61.2)"/>
<path style="fill:none;stroke-width:0.99628;stroke-linecap:round;stroke-linejoin:round;stroke:rgb(48.13385%,15.52124%,58.686829%);stroke-opacity:1;stroke-miterlimit:10;" d="M 235.261719 -156.241406 L 235.984375 -155.39375 L 236.058594 -155.303906 L 236.132812 -155.202344 L 236.214844 -155.092969 L 236.300781 -154.975781 L 236.390625 -154.846875 L 236.488281 -154.70625 L 236.585938 -154.55 L 236.691406 -154.385938 L 236.796875 -154.20625 L 236.90625 -154.010938 L 237.011719 -153.8 L 237.121094 -153.577344 L 237.222656 -153.335156 L 237.320312 -153.077344 L 237.410156 -152.8 L 237.484375 -152.503125 L 237.546875 -152.186719 L 237.585938 -151.850781 L 237.601562 -151.491406 L 237.582031 -151.1125 L 237.523438 -150.70625 L 237.417969 -150.276563 L 237.253906 -149.823438 L 237.015625 -149.339063 L 236.691406 -148.83125 L 236.261719 -148.288281 L 235.699219 -147.717969 L 234.972656 -147.116406 L 234.042969 -146.475781 L 232.839844 -145.803906 L 231.265625 -145.092969 L 229.144531 -144.339063 L 226.085938 -143.546094 L 223.800781 -143.120313 L 220.464844 -142.70625 L 219.066406 -142.600781 L 216.398438 -142.491406 L 216.125 -142.4875 L 215.460938 -142.483594 L 215.460938 -149.042188 " transform="matrix(1,0,0,-1,0,61.2)"/>
<path style="fill:none;stroke-width:0.99628;stroke-linecap:round;stroke-linejoin:round;stroke:rgb(48.13385%,15.52124%,58.686829%);stroke-opacity:1;stroke-miterlimit:10;" d="M 217.929688 -149.042188 C 217.929688 -147.678906 216.824219 -146.577344 215.460938 -146.577344 C 214.101562 -146.577344 212.996094 -147.678906 212.996094 -149.042188 C 212.996094 -150.405469 214.101562 -151.507031 215.460938 -151.507031 C 216.824219 -151.507031 217.929688 -150.405469 217.929688 -149.042188 Z M 217.929688 -149.042188 " transform="matrix(1,0,0,-1,0,61.2)"/>
<path style="fill:none;stroke-width:0.99628;stroke-linecap:round;stroke-linejoin:round;stroke:rgb(48.13385%,15.52124%,58.686829%);stroke-opacity:1;stroke-miterlimit:10;" d="M 233.519531 -157.983594 L 237.007812 -154.499219 M 237.007812 -157.983594 L 233.519531 -154.499219 " transform="matrix(1,0,0,-1,0,61.2)"/>
<path style="fill:none;stroke-width:0.99628;stroke-linecap:round;stroke-linejoin:round;stroke:rgb(98.016357%,71.437073%,8.958435%);stroke-opacity:1;stroke-miterlimit:10;" d="M 235.261719 -170.64375 L 235.984375 -171.491406 L 236.058594 -171.58125 L 236.132812 -171.678906 L 236.214844 -171.788281 L 236.300781 -171.909375 L 236.390625 -172.038281 L 236.488281 -172.178906 L 236.585938 -172.33125 L 236.691406 -172.499219 L 236.796875 -172.678906 L 236.90625 -172.874219 L 237.011719 -173.08125 L 237.121094 -173.307813 L 237.222656 -173.55 L 237.320312 -173.807813 L 237.410156 -174.085156 L 237.484375 -174.382031 L 237.546875 -174.698438 L 237.585938 -175.034375 L 237.601562 -175.39375 L 237.582031 -175.772656 L 237.523438 -176.178906 L 237.417969 -176.608594 L 237.253906 -177.061719 L 237.015625 -177.542188 L 236.691406 -178.053906 L 236.261719 -178.592969 L 235.699219 -179.163281 L 234.972656 -179.76875 L 234.042969 -180.405469 L 232.839844 -181.08125 L 231.265625 -181.792188 L 229.144531 -182.542188 L 226.085938 -183.339063 L 223.800781 -183.764844 L 220.464844 -184.175 L 219.066406 -184.284375 L 216.398438 -184.389844 L 216.125 -184.39375 L 215.460938 -184.397656 L 215.460938 -177.842969 " transform="matrix(1,0,0,-1,0,61.2)"/>
<path style="fill:none;stroke-width:0.99628;stroke-linecap:round;stroke-linejoin:round;stroke:rgb(98.016357%,71.437073%,8.958435%);stroke-opacity:1;stroke-miterlimit:10;" d="M 217.929688 -177.842969 C 217.929688 -176.479688 216.824219 -175.378125 215.460938 -175.378125 C 214.101562 -175.378125 212.996094 -176.479688 212.996094 -177.842969 C 212.996094 -179.202344 214.101562 -180.307813 215.460938 -180.307813 C 216.824219 -180.307813 217.929688 -179.202344 217.929688 -177.842969 Z M 217.929688 -177.842969 " transform="matrix(1,0,0,-1,0,61.2)"/>
<path style="fill:none;stroke-width:0.99628;stroke-linecap:round;stroke-linejoin:round;stroke:rgb(98.016357%,71.437073%,8.958435%);stroke-opacity:1;stroke-miterlimit:10;" d="M 233.519531 -172.385938 L 237.007812 -168.897656 M 237.007812 -172.385938 L 233.519531 -168.897656 " transform="matrix(1,0,0,-1,0,61.2)"/>
<path style="fill:none;stroke-width:0.99628;stroke-linecap:round;stroke-linejoin:round;stroke:rgb(7.849121%,60.745239%,87.768555%);stroke-opacity:1;stroke-miterlimit:10;" d="M 288.542969 -151.921094 L 287.808594 -156.186719 L 287.757812 -156.647656 L 287.703125 -157.190625 L 287.644531 -157.839063 L 287.585938 -158.64375 L 287.519531 -159.714063 L 287.449219 -161.460156 L 287.421875 -163.053906 L 287.421875 -163.440625 L 328.144531 -163.440625 " transform="matrix(1,0,0,-1,0,61.2)"/>
<path style="fill:none;stroke-width:0.99628;stroke-linecap:round;stroke-linejoin:round;stroke:rgb(7.849121%,60.745239%,87.768555%);stroke-opacity:1;stroke-miterlimit:10;" d="M 330.609375 -163.440625 C 330.609375 -162.08125 329.503906 -160.975781 328.144531 -160.975781 C 326.78125 -160.975781 325.675781 -162.08125 325.675781 -163.440625 C 325.675781 -164.803906 326.78125 -165.909375 328.144531 -165.909375 C 329.503906 -165.909375 330.609375 -164.803906 330.609375 -163.440625 Z M 330.609375 -163.440625 " transform="matrix(1,0,0,-1,0,61.2)"/>
<path style="fill:none;stroke-width:0.99628;stroke-linecap:round;stroke-linejoin:round;stroke:rgb(7.849121%,60.745239%,87.768555%);stroke-opacity:1;stroke-miterlimit:10;" d="M 286.796875 -153.667188 L 290.285156 -150.178906 M 290.285156 -153.667188 L 286.796875 -150.178906 " transform="matrix(1,0,0,-1,0,61.2)"/>
<g clip-path="url(#clip27)" clip-rule="nonzero">
<path style="fill:none;stroke-width:0.99628;stroke-linecap:round;stroke-linejoin:round;stroke:rgb(95.326233%,39.237976%,12.364197%);stroke-opacity:1;stroke-miterlimit:10;" d="M 288.542969 -174.964063 L 287.808594 -170.698438 L 287.757812 -170.2375 L 287.703125 -169.694531 L 287.644531 -169.046094 L 287.585938 -168.241406 L 287.519531 -167.171094 L 287.449219 -165.425 L 287.421875 -163.83125 L 287.421875 -163.440625 L -5141.929688 -163.440625 " transform="matrix(1,0,0,-1,0,61.2)"/>
</g>
<path style="fill:none;stroke-width:0.99628;stroke-linecap:round;stroke-linejoin:round;stroke:rgb(95.326233%,39.237976%,12.364197%);stroke-opacity:1;stroke-miterlimit:10;" d="M 286.796875 -176.70625 L 290.285156 -173.217969 M 290.285156 -176.70625 L 286.796875 -173.217969 " transform="matrix(1,0,0,-1,0,61.2)"/>
<path style="fill:none;stroke-width:0.99628;stroke-linecap:round;stroke-linejoin:round;stroke:rgb(48.13385%,15.52124%,58.686829%);stroke-opacity:1;stroke-miterlimit:10;" d="M 328.144531 -151.921094 L 325.746094 -151.440625 L 325.566406 -151.401563 L 325.371094 -151.358594 L 325.160156 -151.311719 L 324.933594 -151.260938 L 324.691406 -151.202344 L 324.429688 -151.139844 L 324.332031 -151.116406 L 324.328125 -151.116406 L 324.324219 -151.1125 L 324.148438 -151.069531 L 323.84375 -150.991406 L 323.523438 -150.901563 L 323.175781 -150.8 L 322.808594 -150.686719 L 322.417969 -150.557813 L 322.007812 -150.409375 L 321.578125 -150.245313 L 321.136719 -150.053906 L 320.6875 -149.842969 L 320.234375 -149.604688 L 319.789062 -149.346875 L 319.355469 -149.065625 L 318.9375 -148.76875 L 318.539062 -148.45625 L 318.164062 -148.132031 L 317.808594 -147.803906 L 317.476562 -147.471875 L 317.160156 -147.14375 L 316.859375 -146.815625 L 316.574219 -146.491406 L 316.296875 -146.171094 L 316.027344 -145.8625 L 315.769531 -145.557813 L 315.511719 -145.264844 L 315.261719 -144.979688 L 315.011719 -144.702344 L 314.765625 -144.436719 L 314.523438 -144.182813 L 314.285156 -143.940625 L 314.042969 -143.70625 L 313.808594 -143.4875 L 313.574219 -143.276563 L 313.34375 -143.077344 L 313.117188 -142.889844 L 312.894531 -142.714063 L 312.675781 -142.546094 L 312.464844 -142.389844 L 312.253906 -142.245313 L 312.054688 -142.108594 L 311.855469 -141.979688 L 311.667969 -141.8625 L 311.484375 -141.753125 L 308.484375 -140.444531 L 308.34375 -140.401563 " transform="matrix(1,0,0,-1,0,61.2)"/>
<path style="fill:none;stroke-width:0.99628;stroke-linecap:round;stroke-linejoin:round;stroke:rgb(48.13385%,15.52124%,58.686829%);stroke-opacity:1;stroke-miterlimit:10;" d="M 310.808594 -140.401563 C 310.808594 -139.038281 309.703125 -137.936719 308.34375 -137.936719 C 306.980469 -137.936719 305.875 -139.038281 305.875 -140.401563 C 305.875 -141.764844 306.980469 -142.866406 308.34375 -142.866406 C 309.703125 -142.866406 310.808594 -141.764844 310.808594 -140.401563 Z M 310.808594 -140.401563 " transform="matrix(1,0,0,-1,0,61.2)"/>
<path style="fill:none;stroke-width:0.99628;stroke-linecap:round;stroke-linejoin:round;stroke:rgb(48.13385%,15.52124%,58.686829%);stroke-opacity:1;stroke-miterlimit:10;" d="M 326.398438 -153.667188 L 329.886719 -150.178906 M 329.886719 -153.667188 L 326.398438 -150.178906 " transform="matrix(1,0,0,-1,0,61.2)"/>
<path style="fill:none;stroke-width:0.99628;stroke-linecap:round;stroke-linejoin:round;stroke:rgb(98.016357%,71.437073%,8.958435%);stroke-opacity:1;stroke-miterlimit:10;" d="M 328.144531 -174.964063 L 325.746094 -175.440625 L 325.566406 -175.479688 L 325.371094 -175.522656 L 325.160156 -175.569531 L 324.933594 -175.624219 L 324.691406 -175.678906 L 324.429688 -175.745313 L 324.332031 -175.76875 L 324.324219 -175.76875 L 324.148438 -175.815625 L 323.84375 -175.89375 L 323.523438 -175.983594 L 323.175781 -176.085156 L 322.808594 -176.198438 L 322.417969 -176.327344 L 322.007812 -176.471875 L 321.578125 -176.639844 L 321.136719 -176.827344 L 320.6875 -177.042188 L 320.234375 -177.276563 L 319.789062 -177.538281 L 319.355469 -177.819531 L 318.9375 -178.116406 L 318.539062 -178.428906 L 318.164062 -178.753125 L 317.808594 -179.08125 L 317.476562 -179.413281 L 317.160156 -179.741406 L 316.859375 -180.069531 L 316.574219 -180.39375 L 316.296875 -180.714063 L 316.027344 -181.022656 L 315.769531 -181.327344 L 315.511719 -181.620313 L 315.261719 -181.905469 L 315.011719 -182.182813 L 314.765625 -182.444531 L 314.523438 -182.702344 L 314.285156 -182.944531 L 314.042969 -183.175 L 313.808594 -183.397656 L 313.574219 -183.608594 L 313.34375 -183.807813 L 313.117188 -183.995313 L 312.894531 -184.171094 L 312.675781 -184.339063 L 312.464844 -184.495313 L 312.253906 -184.639844 L 312.054688 -184.776563 L 311.855469 -184.905469 L 311.667969 -185.022656 L 311.484375 -185.132031 L 308.484375 -186.440625 L 308.34375 -186.483594 " transform="matrix(1,0,0,-1,0,61.2)"/>
<path style="fill:none;stroke-width:0.99628;stroke-linecap:round;stroke-linejoin:round;stroke:rgb(98.016357%,71.437073%,8.958435%);stroke-opacity:1;stroke-miterlimit:10;" d="M 310.808594 -186.483594 C 310.808594 -185.120313 309.703125 -184.014844 308.34375 -184.014844 C 306.980469 -184.014844 305.875 -185.120313 305.875 -186.483594 C 305.875 -187.842969 306.980469 -188.948438 308.34375 -188.948438 C 309.703125 -188.948438 310.808594 -187.842969 310.808594 -186.483594 Z M 310.808594 -186.483594 " transform="matrix(1,0,0,-1,0,61.2)"/>
<path style="fill:none;stroke-width:0.99628;stroke-linecap:round;stroke-linejoin:round;stroke:rgb(98.016357%,71.437073%,8.958435%);stroke-opacity:1;stroke-miterlimit:10;" d="M 326.398438 -176.70625 L 329.886719 -173.217969 M 329.886719 -176.70625 L 326.398438 -173.217969 " transform="matrix(1,0,0,-1,0,61.2)"/>
</g>
</svg>
